<svg width="189" height="70" viewBox="0 0 189 70" fill="none" xmlns="http://www.w3.org/2000/svg">
<rect x="1.00183" y="1.76038" width="186.135" height="67" rx="4" fill="#FBF1FF"/>
<path d="M30.4474 39.9164C29.4714 39.9164 28.7474 39.6804 28.2754 39.2084C27.8034 38.7284 27.5674 38.0204 27.5674 37.0844C27.5674 36.9244 27.5714 36.7324 27.5794 36.5084C27.5954 36.2764 27.6154 36.0724 27.6394 35.8964H30.5194V37.0364H29.3314V37.2044C29.3314 37.5244 29.3714 37.7884 29.4514 37.9964C29.5314 38.1964 29.6514 38.3444 29.8114 38.4404C29.9794 38.5364 30.1874 38.5844 30.4354 38.5844C30.7074 38.5844 30.9354 38.5244 31.1194 38.4044C31.3114 38.2844 31.4554 38.0804 31.5514 37.7924C31.6554 37.5044 31.7074 37.1084 31.7074 36.6044C31.7074 36.1324 31.6514 35.7404 31.5394 35.4284C31.4354 35.1084 31.2554 34.8684 30.9994 34.7084C30.7514 34.5484 30.4074 34.4684 29.9674 34.4684C29.7274 34.4684 29.4794 34.4964 29.2234 34.5524C28.9674 34.6004 28.7234 34.6644 28.4914 34.7444C28.2674 34.8244 28.0714 34.9124 27.9034 35.0084V33.5084C28.0794 33.4124 28.2954 33.3284 28.5514 33.2564C28.8154 33.1844 29.0994 33.1284 29.4034 33.0884C29.7074 33.0484 30.0074 33.0284 30.3034 33.0284C31.0794 33.0284 31.7034 33.1724 32.1754 33.4604C32.6554 33.7404 33.0034 34.1404 33.2194 34.6604C33.4434 35.1804 33.5554 35.7964 33.5554 36.5084C33.5554 37.2364 33.4474 37.8564 33.2314 38.3684C33.0234 38.8724 32.6914 39.2564 32.2354 39.5204C31.7794 39.7844 31.1834 39.9164 30.4474 39.9164ZM36.6847 39.7604V35.4164C36.6847 35.0804 36.6047 34.8364 36.4447 34.6844C36.2927 34.5324 36.0407 34.4564 35.6887 34.4564C35.4247 34.4564 35.1807 34.4924 34.9567 34.5644C34.7407 34.6364 34.5367 34.7244 34.3447 34.8284V33.3884C34.5207 33.3084 34.7687 33.2284 35.0887 33.1484C35.4087 33.0684 35.7847 33.0284 36.2167 33.0284C36.6567 33.0284 37.0447 33.0924 37.3807 33.2204C37.7247 33.3484 37.9927 33.5644 38.1847 33.8684C38.3847 34.1644 38.4847 34.5724 38.4847 35.0924V39.7604H36.6847ZM40.1596 39.7604V35.8604C40.1596 34.9404 40.4036 34.2404 40.8916 33.7604C41.3796 33.2724 42.1516 33.0284 43.2076 33.0284C44.2716 33.0284 45.0396 33.2724 45.5116 33.7604C45.9916 34.2404 46.2316 34.9404 46.2316 35.8604V39.7604H44.4436V35.8364C44.4436 35.4124 44.3436 35.0804 44.1436 34.8404C43.9516 34.5924 43.6316 34.4684 43.1836 34.4684C42.7436 34.4684 42.4236 34.5924 42.2236 34.8404C42.0316 35.0804 41.9356 35.4124 41.9356 35.8364V36.8804L41.9716 36.8924C42.1236 36.5804 42.3036 36.3764 42.5116 36.2804C42.7276 36.1764 43.0196 36.1244 43.3876 36.1244H43.6636V37.4684H43.3876C42.9876 37.4684 42.6836 37.5364 42.4756 37.6724C42.2676 37.8084 42.1236 37.9884 42.0436 38.2124C41.9716 38.4284 41.9356 38.6724 41.9356 38.9444V39.7604H40.1596ZM49.6574 39.7604V35.4164C49.6574 35.0804 49.5774 34.8364 49.4174 34.6844C49.2654 34.5324 49.0134 34.4564 48.6614 34.4564C48.3974 34.4564 48.1534 34.4924 47.9294 34.5644C47.7134 34.6364 47.5094 34.7244 47.3174 34.8284V33.3884C47.4934 33.3084 47.7414 33.2284 48.0614 33.1484C48.3814 33.0684 48.7574 33.0284 49.1894 33.0284C49.6294 33.0284 50.0174 33.0924 50.3534 33.2204C50.6974 33.3484 50.9654 33.5644 51.1574 33.8684C51.3574 34.1644 51.4574 34.5724 51.4574 35.0924V39.7604H49.6574ZM55.3882 39.9164C54.9162 39.9164 54.4402 39.8644 53.9602 39.7604C53.4882 39.6564 53.0682 39.5084 52.7002 39.3164L53.2042 37.8884C53.3642 37.9764 53.5562 38.0684 53.7802 38.1644C54.0042 38.2604 54.2482 38.3404 54.5122 38.4044C54.7762 38.4684 55.0442 38.5004 55.3162 38.5004C55.6362 38.5004 55.8762 38.4564 56.0362 38.3684C56.2042 38.2724 56.2882 38.1284 56.2882 37.9364C56.2882 37.7924 56.2322 37.6764 56.1202 37.5884C56.0162 37.4924 55.8602 37.4044 55.6522 37.3244C55.4442 37.2364 55.1962 37.1444 54.9082 37.0484C54.4842 36.8964 54.1202 36.7324 53.8162 36.5564C53.5122 36.3804 53.2762 36.1644 53.1082 35.9084C52.9482 35.6524 52.8682 35.3324 52.8682 34.9484C52.8682 34.5084 52.9802 34.1484 53.2042 33.8684C53.4282 33.5884 53.7442 33.3804 54.1522 33.2444C54.5602 33.1004 55.0362 33.0284 55.5802 33.0284C56.0282 33.0284 56.4322 33.0644 56.7922 33.1364C57.1522 33.2084 57.4322 33.3004 57.6322 33.4124V34.8284C57.4962 34.7644 57.3162 34.7004 57.0922 34.6364C56.8762 34.5724 56.6402 34.5204 56.3842 34.4804C56.1362 34.4324 55.8962 34.4084 55.6642 34.4084C55.3362 34.4084 55.0882 34.4524 54.9202 34.5404C54.7522 34.6284 54.6682 34.7524 54.6682 34.9124C54.6682 35.0404 54.7242 35.1484 54.8362 35.2364C54.9562 35.3244 55.1282 35.4084 55.3522 35.4884C55.5762 35.5604 55.8442 35.6524 56.1562 35.7644C56.5722 35.9084 56.9242 36.0684 57.2122 36.2444C57.5002 36.4204 57.7162 36.6364 57.8602 36.8924C58.0122 37.1484 58.0882 37.4644 58.0882 37.8404C58.0882 38.2004 58.0042 38.5404 57.8362 38.8604C57.6762 39.1724 57.4002 39.4284 57.0082 39.6284C56.6162 39.8204 56.0762 39.9164 55.3882 39.9164ZM62.1392 39.9164C61.2272 39.9164 60.5352 39.7164 60.0632 39.3164C59.5992 38.9084 59.3672 38.3244 59.3672 37.5644V37.0964C59.3672 36.7684 59.4032 36.4964 59.4752 36.2804C59.5552 36.0644 59.6592 35.8684 59.7872 35.6924C59.9152 35.5164 60.0192 35.3604 60.0992 35.2244C60.1872 35.0804 60.2312 34.9324 60.2312 34.7804C60.2312 34.6364 60.1952 34.5364 60.1232 34.4804C60.0592 34.4164 59.9712 34.3844 59.8592 34.3844C59.7792 34.3844 59.6952 34.3964 59.6072 34.4204C59.5272 34.4444 59.4352 34.4804 59.3312 34.5284L59.0432 33.4004C59.2672 33.2804 59.5072 33.2004 59.7632 33.1604C60.0272 33.1124 60.2592 33.0884 60.4592 33.0884C60.8112 33.0884 61.0912 33.1444 61.2992 33.2564C61.5152 33.3684 61.6712 33.5284 61.7672 33.7364C61.8632 33.9444 61.9112 34.1924 61.9112 34.4804C61.9112 34.7284 61.8752 34.9484 61.8032 35.1404C61.7312 35.3244 61.6392 35.5164 61.5272 35.7164C61.4232 35.9004 61.3312 36.0724 61.2512 36.2324C61.1792 36.3924 61.1432 36.6244 61.1432 36.9284V37.3844C61.1432 37.6484 61.1792 37.8644 61.2512 38.0324C61.3312 38.2004 61.4472 38.3244 61.5992 38.4044C61.7512 38.4764 61.9312 38.5124 62.1392 38.5124C62.4832 38.5124 62.7272 38.4204 62.8712 38.2364C63.0232 38.0444 63.0992 37.7884 63.0992 37.4684V36.3044C63.0992 36.0644 63.0432 35.8764 62.9312 35.7404C62.8272 35.5964 62.6472 35.5244 62.3912 35.5244H62.3312V34.5764H62.4032C62.6512 34.5764 62.8352 34.5084 62.9552 34.3724C63.0752 34.2364 63.1512 34.0644 63.1832 33.8564C63.2232 33.6404 63.2432 33.4164 63.2432 33.1844H65.0312C65.0312 33.6724 64.9672 34.0764 64.8392 34.3964C64.7112 34.7164 64.4872 34.9324 64.1672 35.0444V35.0924C64.3592 35.1484 64.5072 35.2364 64.6112 35.3564C64.7152 35.4684 64.7872 35.6044 64.8272 35.7644C64.8672 35.9244 64.8872 36.1004 64.8872 36.2924V37.5164C64.8872 38.3084 64.6552 38.9084 64.1912 39.3164C63.7272 39.7164 63.0432 39.9164 62.1392 39.9164ZM68.2668 39.7604V35.4164C68.2668 35.0804 68.1868 34.8364 68.0268 34.6844C67.8748 34.5324 67.6228 34.4564 67.2708 34.4564C67.0068 34.4564 66.7628 34.4924 66.5388 34.5644C66.3228 34.6364 66.1188 34.7244 65.9268 34.8284V33.3884C66.1028 33.3084 66.3508 33.2284 66.6708 33.1484C66.9908 33.0684 67.3668 33.0284 67.7988 33.0284C68.2388 33.0284 68.6268 33.0924 68.9628 33.2204C69.3068 33.3484 69.5748 33.5644 69.7668 33.8684C69.9668 34.1644 70.0668 34.5724 70.0668 35.0924V39.7604H68.2668ZM73.9976 39.9164C73.5256 39.9164 73.0496 39.8644 72.5696 39.7604C72.0976 39.6564 71.6776 39.5084 71.3096 39.3164L71.8136 37.8884C71.9736 37.9764 72.1656 38.0684 72.3896 38.1644C72.6136 38.2604 72.8576 38.3404 73.1216 38.4044C73.3856 38.4684 73.6536 38.5004 73.9256 38.5004C74.2456 38.5004 74.4856 38.4564 74.6456 38.3684C74.8136 38.2724 74.8976 38.1284 74.8976 37.9364C74.8976 37.7924 74.8416 37.6764 74.7296 37.5884C74.6256 37.4924 74.4696 37.4044 74.2616 37.3244C74.0536 37.2364 73.8056 37.1444 73.5176 37.0484C73.0936 36.8964 72.7296 36.7324 72.4256 36.5564C72.1216 36.3804 71.8856 36.1644 71.7176 35.9084C71.5576 35.6524 71.4776 35.3324 71.4776 34.9484C71.4776 34.5084 71.5896 34.1484 71.8136 33.8684C72.0376 33.5884 72.3536 33.3804 72.7616 33.2444C73.1696 33.1004 73.6456 33.0284 74.1896 33.0284C74.6376 33.0284 75.0416 33.0644 75.4016 33.1364C75.7616 33.2084 76.0416 33.3004 76.2416 33.4124V34.8284C76.1056 34.7644 75.9256 34.7004 75.7016 34.6364C75.4856 34.5724 75.2496 34.5204 74.9936 34.4804C74.7456 34.4324 74.5056 34.4084 74.2736 34.4084C73.9456 34.4084 73.6976 34.4524 73.5296 34.5404C73.3616 34.6284 73.2776 34.7524 73.2776 34.9124C73.2776 35.0404 73.3336 35.1484 73.4456 35.2364C73.5656 35.3244 73.7376 35.4084 73.9616 35.4884C74.1856 35.5604 74.4536 35.6524 74.7656 35.7644C75.1816 35.9084 75.5336 36.0684 75.8216 36.2444C76.1096 36.4204 76.3256 36.6364 76.4696 36.8924C76.6216 37.1484 76.6976 37.4644 76.6976 37.8404C76.6976 38.2004 76.6136 38.5404 76.4456 38.8604C76.2856 39.1724 76.0096 39.4284 75.6176 39.6284C75.2256 39.8204 74.6856 39.9164 73.9976 39.9164ZM74.0732 32.5364C74.0092 32.4244 73.9572 32.2804 73.9172 32.1044C73.8692 31.9284 73.8452 31.7524 73.8452 31.5764C73.8452 31.3524 73.8892 31.1484 73.9772 30.9644C74.0572 30.7804 74.2052 30.6364 74.4212 30.5324C74.6292 30.4204 74.9172 30.3644 75.2852 30.3644H77.0252V31.5764H75.8732C75.7212 31.5764 75.6052 31.6044 75.5252 31.6604C75.4372 31.7084 75.3932 31.8004 75.3932 31.9364C75.3932 31.9924 75.4012 32.0524 75.4172 32.1164C75.4332 32.1724 75.4572 32.2324 75.4892 32.2964L74.0732 32.5364ZM81.6965 39.7604V35.4884C81.6965 35.1044 81.5925 34.8284 81.3845 34.6604C81.1765 34.4924 80.8565 34.4084 80.4245 34.4084C80.0085 34.4084 79.6005 34.4724 79.2005 34.6004C78.8085 34.7204 78.4685 34.8644 78.1805 35.0324V33.5444C78.4125 33.4324 78.7405 33.3204 79.1645 33.2084C79.5885 33.0884 80.0805 33.0284 80.6405 33.0284C81.0485 33.0284 81.4205 33.0724 81.7565 33.1604C82.1005 33.2404 82.4005 33.3804 82.6565 33.5804C82.9125 33.7724 83.1085 34.0324 83.2445 34.3604C83.3885 34.6804 83.4605 35.0804 83.4605 35.5604V39.7604H81.6965ZM79.7285 39.8804C79.0405 39.8804 78.5085 39.7164 78.1325 39.3884C77.7645 39.0604 77.5805 38.6004 77.5805 38.0084C77.5805 37.3684 77.8085 36.8564 78.2645 36.4724C78.7285 36.0884 79.4565 35.8564 80.4485 35.7764L81.9845 35.6564V36.9524L80.6525 37.0844C80.1725 37.1324 79.8365 37.2284 79.6445 37.3724C79.4605 37.5164 79.3685 37.7084 79.3685 37.9484C79.3685 38.1884 79.4445 38.3684 79.5965 38.4884C79.7565 38.6084 79.9605 38.6684 80.2085 38.6684C80.3045 38.6684 80.4005 38.6604 80.4965 38.6444C80.5925 38.6204 80.6805 38.5964 80.7605 38.5724L80.9165 39.7004C80.7645 39.7564 80.5845 39.8004 80.3765 39.8324C80.1685 39.8644 79.9525 39.8804 79.7285 39.8804ZM86.9841 39.8804C86.6241 39.8804 86.3201 39.8244 86.0721 39.7124C85.8241 39.6004 85.6361 39.4324 85.5081 39.2084C85.3801 38.9764 85.3161 38.6884 85.3161 38.3444V33.1844H87.1161V38.1284C87.1161 38.2804 87.1481 38.3924 87.2121 38.4644C87.2841 38.5364 87.3921 38.5724 87.5361 38.5724C87.6001 38.5724 87.6681 38.5644 87.7401 38.5484C87.8121 38.5324 87.8801 38.5124 87.9441 38.4884L88.1121 39.6404C87.9601 39.7204 87.7881 39.7804 87.5961 39.8204C87.4041 39.8604 87.2001 39.8804 86.9841 39.8804ZM91.7951 39.9164C90.8191 39.9164 90.0951 39.6804 89.6231 39.2084C89.1511 38.7284 88.9151 38.0204 88.9151 37.0844C88.9151 36.9244 88.9191 36.7324 88.9271 36.5084C88.9431 36.2764 88.9631 36.0724 88.9871 35.8964H91.8671V37.0364H90.6791V37.2044C90.6791 37.5244 90.7191 37.7884 90.7991 37.9964C90.8791 38.1964 90.9991 38.3444 91.1591 38.4404C91.3271 38.5364 91.5351 38.5844 91.7831 38.5844C92.0551 38.5844 92.2831 38.5244 92.4671 38.4044C92.6591 38.2844 92.8031 38.0804 92.8991 37.7924C93.0031 37.5044 93.0551 37.1084 93.0551 36.6044C93.0551 36.1324 92.9991 35.7404 92.8871 35.4284C92.7831 35.1084 92.6031 34.8684 92.3471 34.7084C92.0991 34.5484 91.7551 34.4684 91.3151 34.4684C91.0751 34.4684 90.8271 34.4964 90.5711 34.5524C90.3151 34.6004 90.0711 34.6644 89.8391 34.7444C89.6151 34.8244 89.4191 34.9124 89.2511 35.0084V33.5084C89.4271 33.4124 89.6431 33.3284 89.8991 33.2564C90.1631 33.1844 90.4471 33.1284 90.7511 33.0884C91.0551 33.0484 91.3551 33.0284 91.6511 33.0284C92.4271 33.0284 93.0511 33.1724 93.5231 33.4604C94.0031 33.7404 94.3511 34.1404 94.5671 34.6604C94.7911 35.1804 94.9031 35.7964 94.9031 36.5084C94.9031 37.2364 94.7951 37.8564 94.5791 38.3684C94.3711 38.8724 94.0391 39.2564 93.5831 39.5204C93.1271 39.7844 92.5311 39.9164 91.7951 39.9164ZM100.168 39.8804C99.6004 39.8804 99.1404 39.7724 98.7884 39.5564C98.4444 39.3404 98.2004 39.0644 98.0564 38.7284H97.9604L97.7684 39.7604H96.4004V33.1844H98.2004V36.3284C98.2004 36.7844 98.2524 37.1604 98.3564 37.4564C98.4604 37.7444 98.6124 37.9604 98.8124 38.1044C99.0124 38.2484 99.2524 38.3204 99.5324 38.3204C99.8684 38.3204 100.124 38.2204 100.3 38.0204C100.476 37.8204 100.564 37.5004 100.564 37.0604V33.1844H102.364V37.4564C102.364 37.9764 102.28 38.4164 102.112 38.7764C101.952 39.1364 101.708 39.4124 101.38 39.6044C101.052 39.7884 100.648 39.8804 100.168 39.8804ZM107.794 39.7604V35.4884C107.794 35.1044 107.69 34.8284 107.482 34.6604C107.274 34.4924 106.954 34.4084 106.522 34.4084C106.106 34.4084 105.698 34.4724 105.298 34.6004C104.906 34.7204 104.566 34.8644 104.278 35.0324V33.5444C104.51 33.4324 104.838 33.3204 105.262 33.2084C105.686 33.0884 106.174 33.0284 106.726 33.0284C107.15 33.0284 107.53 33.0804 107.866 33.1844C108.21 33.2884 108.458 33.4924 108.61 33.7964C108.946 33.9004 109.186 34.1044 109.33 34.4084C109.482 34.7044 109.558 35.0884 109.558 35.5604V39.7604H107.794ZM105.826 39.8804C105.138 39.8804 104.606 39.7164 104.23 39.3884C103.862 39.0604 103.678 38.6004 103.678 38.0084C103.678 37.3684 103.906 36.8564 104.362 36.4724C104.826 36.0884 105.554 35.8564 106.546 35.7764L108.082 35.6564V36.9524L106.75 37.0844C106.27 37.1324 105.934 37.2284 105.742 37.3724C105.558 37.5164 105.466 37.7084 105.466 37.9484C105.466 38.1884 105.542 38.3684 105.694 38.4884C105.854 38.6084 106.058 38.6684 106.306 38.6684C106.402 38.6684 106.498 38.6604 106.594 38.6444C106.69 38.6204 106.778 38.5964 106.858 38.5724L107.014 39.7004C106.862 39.7564 106.682 39.8004 106.474 39.8324C106.266 39.8644 106.05 39.8804 105.826 39.8804ZM108.574 34.4924L107.59 33.6644C107.87 33.5684 108.09 33.4484 108.25 33.3044C108.41 33.1524 108.494 32.9684 108.502 32.7524H110.074C110.074 33.0004 110.022 33.2404 109.918 33.4724C109.822 33.6964 109.662 33.8964 109.438 34.0724C109.222 34.2484 108.934 34.3884 108.574 34.4924ZM107.811 32.2724C107.435 32.2724 107.139 32.2164 106.923 32.1044C106.707 31.9924 106.555 31.8524 106.467 31.6844C106.371 31.5084 106.323 31.3244 106.323 31.1324C106.323 30.9964 106.343 30.8524 106.383 30.7004C106.423 30.5404 106.483 30.3924 106.563 30.2564L107.871 30.4244C107.855 30.4804 107.843 30.5404 107.835 30.6044C107.819 30.6604 107.811 30.7124 107.811 30.7604C107.811 30.8724 107.847 30.9604 107.919 31.0244C107.983 31.0804 108.095 31.1084 108.255 31.1084H110.835V32.2724H107.811ZM113.513 39.8804C113.025 39.8804 112.613 39.7884 112.277 39.6044C111.949 39.4124 111.697 39.1284 111.521 38.7524C111.353 38.3764 111.269 37.9164 111.269 37.3724V33.1844H113.069V37.0604C113.069 37.5004 113.157 37.8204 113.333 38.0204C113.509 38.2204 113.765 38.3204 114.101 38.3204C114.525 38.3204 114.853 38.1604 115.085 37.8404C115.317 37.5124 115.433 37.0084 115.433 36.3284V33.1844H117.233V39.7604H115.865L115.673 38.7524H115.565C115.429 39.0724 115.193 39.3404 114.857 39.5564C114.529 39.7724 114.081 39.8804 113.513 39.8804ZM120.875 39.8804C120.515 39.8804 120.211 39.8244 119.963 39.7124C119.715 39.6004 119.527 39.4324 119.399 39.2084C119.271 38.9764 119.207 38.6884 119.207 38.3444V33.1844H121.007V38.1284C121.007 38.2804 121.039 38.3924 121.103 38.4644C121.175 38.5364 121.283 38.5724 121.427 38.5724C121.491 38.5724 121.559 38.5644 121.631 38.5484C121.703 38.5324 121.771 38.5124 121.835 38.4884L122.003 39.6404C121.851 39.7204 121.679 39.7804 121.487 39.8204C121.295 39.8604 121.091 39.8804 120.875 39.8804ZM123.057 39.7604V37.7564C123.057 37.2524 123.157 36.8644 123.357 36.5924C123.557 36.3204 123.841 36.1284 124.209 36.0164L124.221 35.9684L122.937 35.5004V35.1884C122.937 34.7964 123.053 34.4364 123.285 34.1084C123.517 33.7804 123.857 33.5204 124.305 33.3284C124.761 33.1284 125.313 33.0284 125.961 33.0284C126.569 33.0284 127.093 33.1244 127.533 33.3164C127.973 33.5004 128.313 33.7804 128.553 34.1564C128.801 34.5244 128.925 34.9924 128.925 35.5604V39.7604H127.125V35.6684C127.125 35.2684 127.017 34.9684 126.801 34.7684C126.593 34.5684 126.297 34.4684 125.913 34.4684C125.545 34.4684 125.269 34.5484 125.085 34.7084C124.901 34.8604 124.801 35.0484 124.785 35.2724L125.853 35.7644L125.721 36.5444C125.433 36.5604 125.217 36.6644 125.073 36.8564C124.929 37.0484 124.857 37.3084 124.857 37.6364V39.7604H123.057ZM132.453 39.8804C132.093 39.8804 131.789 39.8244 131.541 39.7124C131.293 39.6004 131.105 39.4324 130.977 39.2084C130.849 38.9764 130.785 38.6884 130.785 38.3444V33.1844H132.585V38.1284C132.585 38.2804 132.617 38.3924 132.681 38.4644C132.753 38.5364 132.861 38.5724 133.005 38.5724C133.069 38.5724 133.137 38.5644 133.209 38.5484C133.281 38.5324 133.349 38.5124 133.413 38.4884L133.581 39.6404C133.429 39.7204 133.257 39.7804 133.065 39.8204C132.873 39.8604 132.669 39.8804 132.453 39.8804ZM136.4 39.9164C135.992 39.9164 135.608 39.8684 135.248 39.7724C134.888 39.6844 134.552 39.5564 134.24 39.3884L134.72 38.0804C134.896 38.1844 135.108 38.2764 135.356 38.3564C135.604 38.4364 135.848 38.4764 136.088 38.4764C136.536 38.4764 136.892 38.3084 137.156 37.9724C137.42 37.6284 137.552 37.1164 137.552 36.4364C137.552 35.7964 137.42 35.3084 137.156 34.9724C136.892 34.6364 136.48 34.4684 135.92 34.4684C135.656 34.4684 135.384 34.5084 135.104 34.5884C134.824 34.6604 134.592 34.7524 134.408 34.8644V33.3884C134.656 33.2764 134.936 33.1884 135.248 33.1244C135.56 33.0604 135.892 33.0284 136.244 33.0284C136.98 33.0284 137.58 33.1644 138.044 33.4364C138.508 33.7084 138.848 34.1004 139.064 34.6124C139.28 35.1164 139.388 35.7244 139.388 36.4364C139.388 37.5724 139.128 38.4364 138.608 39.0284C138.088 39.6204 137.352 39.9164 136.4 39.9164ZM143.428 39.9164C142.452 39.9164 141.728 39.6804 141.256 39.2084C140.784 38.7284 140.548 38.0204 140.548 37.0844C140.548 36.9244 140.552 36.7324 140.56 36.5084C140.576 36.2764 140.596 36.0724 140.62 35.8964H143.5V37.0364H142.312V37.2044C142.312 37.5244 142.352 37.7884 142.432 37.9964C142.512 38.1964 142.632 38.3444 142.792 38.4404C142.96 38.5364 143.168 38.5844 143.416 38.5844C143.688 38.5844 143.916 38.5244 144.1 38.4044C144.292 38.2844 144.436 38.0804 144.532 37.7924C144.636 37.5044 144.688 37.1084 144.688 36.6044C144.688 36.1324 144.632 35.7404 144.52 35.4284C144.416 35.1084 144.236 34.8684 143.98 34.7084C143.732 34.5484 143.388 34.4684 142.948 34.4684C142.708 34.4684 142.46 34.4964 142.204 34.5524C141.948 34.6004 141.704 34.6644 141.472 34.7444C141.248 34.8244 141.052 34.9124 140.884 35.0084V33.5084C141.06 33.4124 141.276 33.3284 141.532 33.2564C141.796 33.1844 142.08 33.1284 142.384 33.0884C142.688 33.0484 142.988 33.0284 143.284 33.0284C144.06 33.0284 144.684 33.1724 145.156 33.4604C145.636 33.7404 145.984 34.1404 146.2 34.6604C146.424 35.1804 146.536 35.7964 146.536 36.5084C146.536 37.2364 146.428 37.8564 146.212 38.3684C146.004 38.8724 145.672 39.2564 145.216 39.5204C144.76 39.7844 144.164 39.9164 143.428 39.9164ZM150.181 39.9164C149.709 39.9164 149.233 39.8644 148.753 39.7604C148.281 39.6564 147.861 39.5084 147.493 39.3164L147.997 37.8884C148.157 37.9764 148.349 38.0684 148.573 38.1644C148.797 38.2604 149.041 38.3404 149.305 38.4044C149.569 38.4684 149.837 38.5004 150.109 38.5004C150.429 38.5004 150.669 38.4564 150.829 38.3684C150.997 38.2724 151.081 38.1284 151.081 37.9364C151.081 37.7924 151.025 37.6764 150.913 37.5884C150.809 37.4924 150.653 37.4044 150.445 37.3244C150.237 37.2364 149.989 37.1444 149.701 37.0484C149.277 36.8964 148.913 36.7324 148.609 36.5564C148.305 36.3804 148.069 36.1644 147.901 35.9084C147.741 35.6524 147.661 35.3324 147.661 34.9484C147.661 34.5084 147.773 34.1484 147.997 33.8684C148.221 33.5884 148.537 33.3804 148.945 33.2444C149.353 33.1004 149.829 33.0284 150.373 33.0284C150.821 33.0284 151.225 33.0644 151.585 33.1364C151.945 33.2084 152.225 33.3004 152.425 33.4124V34.8284C152.289 34.7644 152.109 34.7004 151.885 34.6364C151.669 34.5724 151.433 34.5204 151.177 34.4804C150.929 34.4324 150.689 34.4084 150.457 34.4084C150.129 34.4084 149.881 34.4524 149.713 34.5404C149.545 34.6284 149.461 34.7524 149.461 34.9124C149.461 35.0404 149.517 35.1484 149.629 35.2364C149.749 35.3244 149.921 35.4084 150.145 35.4884C150.369 35.5604 150.637 35.6524 150.949 35.7644C151.365 35.9084 151.717 36.0684 152.005 36.2444C152.293 36.4204 152.509 36.6364 152.653 36.8924C152.805 37.1484 152.881 37.4644 152.881 37.8404C152.881 38.2004 152.797 38.5404 152.629 38.8604C152.469 39.1724 152.193 39.4284 151.801 39.6284C151.409 39.8204 150.869 39.9164 150.181 39.9164ZM150.257 32.5364C150.193 32.4244 150.141 32.2804 150.101 32.1044C150.053 31.9284 150.029 31.7524 150.029 31.5764C150.029 31.3524 150.073 31.1484 150.161 30.9644C150.241 30.7804 150.389 30.6364 150.605 30.5324C150.813 30.4204 151.101 30.3644 151.469 30.3644H153.209V31.5764H152.057C151.905 31.5764 151.789 31.6044 151.709 31.6604C151.621 31.7084 151.577 31.8004 151.577 31.9364C151.577 31.9924 151.585 32.0524 151.601 32.1164C151.617 32.1724 151.641 32.2324 151.673 32.2964L150.257 32.5364ZM156.644 39.8804C155.932 39.8804 155.376 39.7364 154.976 39.4484C154.584 39.1524 154.308 38.7444 154.148 38.2244C153.996 37.6964 153.92 37.0844 153.92 36.3884C153.92 35.6124 153.996 34.9804 154.148 34.4924C154.3 34.0044 154.528 33.6444 154.832 33.4124C155.144 33.1804 155.524 33.0644 155.972 33.0644C156.252 33.0644 156.496 33.1204 156.704 33.2324C156.92 33.3364 157.092 33.5324 157.22 33.8204H157.268C157.38 33.5244 157.564 33.3244 157.82 33.2204C158.076 33.1164 158.352 33.0644 158.648 33.0644C159.2 33.0644 159.612 33.2124 159.884 33.5084C160.164 33.8044 160.304 34.2364 160.304 34.8044V39.7604H158.504V35.1404C158.504 34.8924 158.464 34.7244 158.384 34.6364C158.304 34.5484 158.196 34.5044 158.06 34.5044C157.908 34.5044 157.792 34.5484 157.712 34.6364C157.64 34.7244 157.592 34.8724 157.568 35.0804H156.86C156.828 34.8484 156.768 34.6964 156.68 34.6244C156.592 34.5444 156.488 34.5044 156.368 34.5044C156.168 34.5044 156.012 34.6484 155.9 34.9364C155.796 35.2244 155.744 35.7124 155.744 36.4004C155.744 36.8484 155.776 37.2324 155.84 37.5524C155.912 37.8644 156.032 38.1044 156.2 38.2724C156.368 38.4324 156.608 38.5124 156.92 38.5124C157.016 38.5124 157.104 38.5084 157.184 38.5004C157.264 38.4844 157.332 38.4644 157.388 38.4404L157.568 39.7244C157.44 39.7804 157.3 39.8204 157.148 39.8444C156.996 39.8684 156.828 39.8804 156.644 39.8804Z" fill="#252525" fill-opacity="0.55"/>
<path d="M30.4474 39.9164C29.4714 39.9164 28.7474 39.6804 28.2754 39.2084C27.8034 38.7284 27.5674 38.0204 27.5674 37.0844C27.5674 36.9244 27.5714 36.7324 27.5794 36.5084C27.5954 36.2764 27.6154 36.0724 27.6394 35.8964H30.5194V37.0364H29.3314V37.2044C29.3314 37.5244 29.3714 37.7884 29.4514 37.9964C29.5314 38.1964 29.6514 38.3444 29.8114 38.4404C29.9794 38.5364 30.1874 38.5844 30.4354 38.5844C30.7074 38.5844 30.9354 38.5244 31.1194 38.4044C31.3114 38.2844 31.4554 38.0804 31.5514 37.7924C31.6554 37.5044 31.7074 37.1084 31.7074 36.6044C31.7074 36.1324 31.6514 35.7404 31.5394 35.4284C31.4354 35.1084 31.2554 34.8684 30.9994 34.7084C30.7514 34.5484 30.4074 34.4684 29.9674 34.4684C29.7274 34.4684 29.4794 34.4964 29.2234 34.5524C28.9674 34.6004 28.7234 34.6644 28.4914 34.7444C28.2674 34.8244 28.0714 34.9124 27.9034 35.0084V33.5084C28.0794 33.4124 28.2954 33.3284 28.5514 33.2564C28.8154 33.1844 29.0994 33.1284 29.4034 33.0884C29.7074 33.0484 30.0074 33.0284 30.3034 33.0284C31.0794 33.0284 31.7034 33.1724 32.1754 33.4604C32.6554 33.7404 33.0034 34.1404 33.2194 34.6604C33.4434 35.1804 33.5554 35.7964 33.5554 36.5084C33.5554 37.2364 33.4474 37.8564 33.2314 38.3684C33.0234 38.8724 32.6914 39.2564 32.2354 39.5204C31.7794 39.7844 31.1834 39.9164 30.4474 39.9164ZM36.6847 39.7604V35.4164C36.6847 35.0804 36.6047 34.8364 36.4447 34.6844C36.2927 34.5324 36.0407 34.4564 35.6887 34.4564C35.4247 34.4564 35.1807 34.4924 34.9567 34.5644C34.7407 34.6364 34.5367 34.7244 34.3447 34.8284V33.3884C34.5207 33.3084 34.7687 33.2284 35.0887 33.1484C35.4087 33.0684 35.7847 33.0284 36.2167 33.0284C36.6567 33.0284 37.0447 33.0924 37.3807 33.2204C37.7247 33.3484 37.9927 33.5644 38.1847 33.8684C38.3847 34.1644 38.4847 34.5724 38.4847 35.0924V39.7604H36.6847ZM40.1596 39.7604V35.8604C40.1596 34.9404 40.4036 34.2404 40.8916 33.7604C41.3796 33.2724 42.1516 33.0284 43.2076 33.0284C44.2716 33.0284 45.0396 33.2724 45.5116 33.7604C45.9916 34.2404 46.2316 34.9404 46.2316 35.8604V39.7604H44.4436V35.8364C44.4436 35.4124 44.3436 35.0804 44.1436 34.8404C43.9516 34.5924 43.6316 34.4684 43.1836 34.4684C42.7436 34.4684 42.4236 34.5924 42.2236 34.8404C42.0316 35.0804 41.9356 35.4124 41.9356 35.8364V36.8804L41.9716 36.8924C42.1236 36.5804 42.3036 36.3764 42.5116 36.2804C42.7276 36.1764 43.0196 36.1244 43.3876 36.1244H43.6636V37.4684H43.3876C42.9876 37.4684 42.6836 37.5364 42.4756 37.6724C42.2676 37.8084 42.1236 37.9884 42.0436 38.2124C41.9716 38.4284 41.9356 38.6724 41.9356 38.9444V39.7604H40.1596ZM49.6574 39.7604V35.4164C49.6574 35.0804 49.5774 34.8364 49.4174 34.6844C49.2654 34.5324 49.0134 34.4564 48.6614 34.4564C48.3974 34.4564 48.1534 34.4924 47.9294 34.5644C47.7134 34.6364 47.5094 34.7244 47.3174 34.8284V33.3884C47.4934 33.3084 47.7414 33.2284 48.0614 33.1484C48.3814 33.0684 48.7574 33.0284 49.1894 33.0284C49.6294 33.0284 50.0174 33.0924 50.3534 33.2204C50.6974 33.3484 50.9654 33.5644 51.1574 33.8684C51.3574 34.1644 51.4574 34.5724 51.4574 35.0924V39.7604H49.6574ZM55.3882 39.9164C54.9162 39.9164 54.4402 39.8644 53.9602 39.7604C53.4882 39.6564 53.0682 39.5084 52.7002 39.3164L53.2042 37.8884C53.3642 37.9764 53.5562 38.0684 53.7802 38.1644C54.0042 38.2604 54.2482 38.3404 54.5122 38.4044C54.7762 38.4684 55.0442 38.5004 55.3162 38.5004C55.6362 38.5004 55.8762 38.4564 56.0362 38.3684C56.2042 38.2724 56.2882 38.1284 56.2882 37.9364C56.2882 37.7924 56.2322 37.6764 56.1202 37.5884C56.0162 37.4924 55.8602 37.4044 55.6522 37.3244C55.4442 37.2364 55.1962 37.1444 54.9082 37.0484C54.4842 36.8964 54.1202 36.7324 53.8162 36.5564C53.5122 36.3804 53.2762 36.1644 53.1082 35.9084C52.9482 35.6524 52.8682 35.3324 52.8682 34.9484C52.8682 34.5084 52.9802 34.1484 53.2042 33.8684C53.4282 33.5884 53.7442 33.3804 54.1522 33.2444C54.5602 33.1004 55.0362 33.0284 55.5802 33.0284C56.0282 33.0284 56.4322 33.0644 56.7922 33.1364C57.1522 33.2084 57.4322 33.3004 57.6322 33.4124V34.8284C57.4962 34.7644 57.3162 34.7004 57.0922 34.6364C56.8762 34.5724 56.6402 34.5204 56.3842 34.4804C56.1362 34.4324 55.8962 34.4084 55.6642 34.4084C55.3362 34.4084 55.0882 34.4524 54.9202 34.5404C54.7522 34.6284 54.6682 34.7524 54.6682 34.9124C54.6682 35.0404 54.7242 35.1484 54.8362 35.2364C54.9562 35.3244 55.1282 35.4084 55.3522 35.4884C55.5762 35.5604 55.8442 35.6524 56.1562 35.7644C56.5722 35.9084 56.9242 36.0684 57.2122 36.2444C57.5002 36.4204 57.7162 36.6364 57.8602 36.8924C58.0122 37.1484 58.0882 37.4644 58.0882 37.8404C58.0882 38.2004 58.0042 38.5404 57.8362 38.8604C57.6762 39.1724 57.4002 39.4284 57.0082 39.6284C56.6162 39.8204 56.0762 39.9164 55.3882 39.9164ZM62.1392 39.9164C61.2272 39.9164 60.5352 39.7164 60.0632 39.3164C59.5992 38.9084 59.3672 38.3244 59.3672 37.5644V37.0964C59.3672 36.7684 59.4032 36.4964 59.4752 36.2804C59.5552 36.0644 59.6592 35.8684 59.7872 35.6924C59.9152 35.5164 60.0192 35.3604 60.0992 35.2244C60.1872 35.0804 60.2312 34.9324 60.2312 34.7804C60.2312 34.6364 60.1952 34.5364 60.1232 34.4804C60.0592 34.4164 59.9712 34.3844 59.8592 34.3844C59.7792 34.3844 59.6952 34.3964 59.6072 34.4204C59.5272 34.4444 59.4352 34.4804 59.3312 34.5284L59.0432 33.4004C59.2672 33.2804 59.5072 33.2004 59.7632 33.1604C60.0272 33.1124 60.2592 33.0884 60.4592 33.0884C60.8112 33.0884 61.0912 33.1444 61.2992 33.2564C61.5152 33.3684 61.6712 33.5284 61.7672 33.7364C61.8632 33.9444 61.9112 34.1924 61.9112 34.4804C61.9112 34.7284 61.8752 34.9484 61.8032 35.1404C61.7312 35.3244 61.6392 35.5164 61.5272 35.7164C61.4232 35.9004 61.3312 36.0724 61.2512 36.2324C61.1792 36.3924 61.1432 36.6244 61.1432 36.9284V37.3844C61.1432 37.6484 61.1792 37.8644 61.2512 38.0324C61.3312 38.2004 61.4472 38.3244 61.5992 38.4044C61.7512 38.4764 61.9312 38.5124 62.1392 38.5124C62.4832 38.5124 62.7272 38.4204 62.8712 38.2364C63.0232 38.0444 63.0992 37.7884 63.0992 37.4684V36.3044C63.0992 36.0644 63.0432 35.8764 62.9312 35.7404C62.8272 35.5964 62.6472 35.5244 62.3912 35.5244H62.3312V34.5764H62.4032C62.6512 34.5764 62.8352 34.5084 62.9552 34.3724C63.0752 34.2364 63.1512 34.0644 63.1832 33.8564C63.2232 33.6404 63.2432 33.4164 63.2432 33.1844H65.0312C65.0312 33.6724 64.9672 34.0764 64.8392 34.3964C64.7112 34.7164 64.4872 34.9324 64.1672 35.0444V35.0924C64.3592 35.1484 64.5072 35.2364 64.6112 35.3564C64.7152 35.4684 64.7872 35.6044 64.8272 35.7644C64.8672 35.9244 64.8872 36.1004 64.8872 36.2924V37.5164C64.8872 38.3084 64.6552 38.9084 64.1912 39.3164C63.7272 39.7164 63.0432 39.9164 62.1392 39.9164ZM68.2668 39.7604V35.4164C68.2668 35.0804 68.1868 34.8364 68.0268 34.6844C67.8748 34.5324 67.6228 34.4564 67.2708 34.4564C67.0068 34.4564 66.7628 34.4924 66.5388 34.5644C66.3228 34.6364 66.1188 34.7244 65.9268 34.8284V33.3884C66.1028 33.3084 66.3508 33.2284 66.6708 33.1484C66.9908 33.0684 67.3668 33.0284 67.7988 33.0284C68.2388 33.0284 68.6268 33.0924 68.9628 33.2204C69.3068 33.3484 69.5748 33.5644 69.7668 33.8684C69.9668 34.1644 70.0668 34.5724 70.0668 35.0924V39.7604H68.2668ZM73.9976 39.9164C73.5256 39.9164 73.0496 39.8644 72.5696 39.7604C72.0976 39.6564 71.6776 39.5084 71.3096 39.3164L71.8136 37.8884C71.9736 37.9764 72.1656 38.0684 72.3896 38.1644C72.6136 38.2604 72.8576 38.3404 73.1216 38.4044C73.3856 38.4684 73.6536 38.5004 73.9256 38.5004C74.2456 38.5004 74.4856 38.4564 74.6456 38.3684C74.8136 38.2724 74.8976 38.1284 74.8976 37.9364C74.8976 37.7924 74.8416 37.6764 74.7296 37.5884C74.6256 37.4924 74.4696 37.4044 74.2616 37.3244C74.0536 37.2364 73.8056 37.1444 73.5176 37.0484C73.0936 36.8964 72.7296 36.7324 72.4256 36.5564C72.1216 36.3804 71.8856 36.1644 71.7176 35.9084C71.5576 35.6524 71.4776 35.3324 71.4776 34.9484C71.4776 34.5084 71.5896 34.1484 71.8136 33.8684C72.0376 33.5884 72.3536 33.3804 72.7616 33.2444C73.1696 33.1004 73.6456 33.0284 74.1896 33.0284C74.6376 33.0284 75.0416 33.0644 75.4016 33.1364C75.7616 33.2084 76.0416 33.3004 76.2416 33.4124V34.8284C76.1056 34.7644 75.9256 34.7004 75.7016 34.6364C75.4856 34.5724 75.2496 34.5204 74.9936 34.4804C74.7456 34.4324 74.5056 34.4084 74.2736 34.4084C73.9456 34.4084 73.6976 34.4524 73.5296 34.5404C73.3616 34.6284 73.2776 34.7524 73.2776 34.9124C73.2776 35.0404 73.3336 35.1484 73.4456 35.2364C73.5656 35.3244 73.7376 35.4084 73.9616 35.4884C74.1856 35.5604 74.4536 35.6524 74.7656 35.7644C75.1816 35.9084 75.5336 36.0684 75.8216 36.2444C76.1096 36.4204 76.3256 36.6364 76.4696 36.8924C76.6216 37.1484 76.6976 37.4644 76.6976 37.8404C76.6976 38.2004 76.6136 38.5404 76.4456 38.8604C76.2856 39.1724 76.0096 39.4284 75.6176 39.6284C75.2256 39.8204 74.6856 39.9164 73.9976 39.9164ZM74.0732 32.5364C74.0092 32.4244 73.9572 32.2804 73.9172 32.1044C73.8692 31.9284 73.8452 31.7524 73.8452 31.5764C73.8452 31.3524 73.8892 31.1484 73.9772 30.9644C74.0572 30.7804 74.2052 30.6364 74.4212 30.5324C74.6292 30.4204 74.9172 30.3644 75.2852 30.3644H77.0252V31.5764H75.8732C75.7212 31.5764 75.6052 31.6044 75.5252 31.6604C75.4372 31.7084 75.3932 31.8004 75.3932 31.9364C75.3932 31.9924 75.4012 32.0524 75.4172 32.1164C75.4332 32.1724 75.4572 32.2324 75.4892 32.2964L74.0732 32.5364ZM81.6965 39.7604V35.4884C81.6965 35.1044 81.5925 34.8284 81.3845 34.6604C81.1765 34.4924 80.8565 34.4084 80.4245 34.4084C80.0085 34.4084 79.6005 34.4724 79.2005 34.6004C78.8085 34.7204 78.4685 34.8644 78.1805 35.0324V33.5444C78.4125 33.4324 78.7405 33.3204 79.1645 33.2084C79.5885 33.0884 80.0805 33.0284 80.6405 33.0284C81.0485 33.0284 81.4205 33.0724 81.7565 33.1604C82.1005 33.2404 82.4005 33.3804 82.6565 33.5804C82.9125 33.7724 83.1085 34.0324 83.2445 34.3604C83.3885 34.6804 83.4605 35.0804 83.4605 35.5604V39.7604H81.6965ZM79.7285 39.8804C79.0405 39.8804 78.5085 39.7164 78.1325 39.3884C77.7645 39.0604 77.5805 38.6004 77.5805 38.0084C77.5805 37.3684 77.8085 36.8564 78.2645 36.4724C78.7285 36.0884 79.4565 35.8564 80.4485 35.7764L81.9845 35.6564V36.9524L80.6525 37.0844C80.1725 37.1324 79.8365 37.2284 79.6445 37.3724C79.4605 37.5164 79.3685 37.7084 79.3685 37.9484C79.3685 38.1884 79.4445 38.3684 79.5965 38.4884C79.7565 38.6084 79.9605 38.6684 80.2085 38.6684C80.3045 38.6684 80.4005 38.6604 80.4965 38.6444C80.5925 38.6204 80.6805 38.5964 80.7605 38.5724L80.9165 39.7004C80.7645 39.7564 80.5845 39.8004 80.3765 39.8324C80.1685 39.8644 79.9525 39.8804 79.7285 39.8804ZM86.9841 39.8804C86.6241 39.8804 86.3201 39.8244 86.0721 39.7124C85.8241 39.6004 85.6361 39.4324 85.5081 39.2084C85.3801 38.9764 85.3161 38.6884 85.3161 38.3444V33.1844H87.1161V38.1284C87.1161 38.2804 87.1481 38.3924 87.2121 38.4644C87.2841 38.5364 87.3921 38.5724 87.5361 38.5724C87.6001 38.5724 87.6681 38.5644 87.7401 38.5484C87.8121 38.5324 87.8801 38.5124 87.9441 38.4884L88.1121 39.6404C87.9601 39.7204 87.7881 39.7804 87.5961 39.8204C87.4041 39.8604 87.2001 39.8804 86.9841 39.8804ZM91.7951 39.9164C90.8191 39.9164 90.0951 39.6804 89.6231 39.2084C89.1511 38.7284 88.9151 38.0204 88.9151 37.0844C88.9151 36.9244 88.9191 36.7324 88.9271 36.5084C88.9431 36.2764 88.9631 36.0724 88.9871 35.8964H91.8671V37.0364H90.6791V37.2044C90.6791 37.5244 90.7191 37.7884 90.7991 37.9964C90.8791 38.1964 90.9991 38.3444 91.1591 38.4404C91.3271 38.5364 91.5351 38.5844 91.7831 38.5844C92.0551 38.5844 92.2831 38.5244 92.4671 38.4044C92.6591 38.2844 92.8031 38.0804 92.8991 37.7924C93.0031 37.5044 93.0551 37.1084 93.0551 36.6044C93.0551 36.1324 92.9991 35.7404 92.8871 35.4284C92.7831 35.1084 92.6031 34.8684 92.3471 34.7084C92.0991 34.5484 91.7551 34.4684 91.3151 34.4684C91.0751 34.4684 90.8271 34.4964 90.5711 34.5524C90.3151 34.6004 90.0711 34.6644 89.8391 34.7444C89.6151 34.8244 89.4191 34.9124 89.2511 35.0084V33.5084C89.4271 33.4124 89.6431 33.3284 89.8991 33.2564C90.1631 33.1844 90.4471 33.1284 90.7511 33.0884C91.0551 33.0484 91.3551 33.0284 91.6511 33.0284C92.4271 33.0284 93.0511 33.1724 93.5231 33.4604C94.0031 33.7404 94.3511 34.1404 94.5671 34.6604C94.7911 35.1804 94.9031 35.7964 94.9031 36.5084C94.9031 37.2364 94.7951 37.8564 94.5791 38.3684C94.3711 38.8724 94.0391 39.2564 93.5831 39.5204C93.1271 39.7844 92.5311 39.9164 91.7951 39.9164ZM100.168 39.8804C99.6004 39.8804 99.1404 39.7724 98.7884 39.5564C98.4444 39.3404 98.2004 39.0644 98.0564 38.7284H97.9604L97.7684 39.7604H96.4004V33.1844H98.2004V36.3284C98.2004 36.7844 98.2524 37.1604 98.3564 37.4564C98.4604 37.7444 98.6124 37.9604 98.8124 38.1044C99.0124 38.2484 99.2524 38.3204 99.5324 38.3204C99.8684 38.3204 100.124 38.2204 100.3 38.0204C100.476 37.8204 100.564 37.5004 100.564 37.0604V33.1844H102.364V37.4564C102.364 37.9764 102.28 38.4164 102.112 38.7764C101.952 39.1364 101.708 39.4124 101.38 39.6044C101.052 39.7884 100.648 39.8804 100.168 39.8804ZM107.794 39.7604V35.4884C107.794 35.1044 107.69 34.8284 107.482 34.6604C107.274 34.4924 106.954 34.4084 106.522 34.4084C106.106 34.4084 105.698 34.4724 105.298 34.6004C104.906 34.7204 104.566 34.8644 104.278 35.0324V33.5444C104.51 33.4324 104.838 33.3204 105.262 33.2084C105.686 33.0884 106.174 33.0284 106.726 33.0284C107.15 33.0284 107.53 33.0804 107.866 33.1844C108.21 33.2884 108.458 33.4924 108.61 33.7964C108.946 33.9004 109.186 34.1044 109.33 34.4084C109.482 34.7044 109.558 35.0884 109.558 35.5604V39.7604H107.794ZM105.826 39.8804C105.138 39.8804 104.606 39.7164 104.23 39.3884C103.862 39.0604 103.678 38.6004 103.678 38.0084C103.678 37.3684 103.906 36.8564 104.362 36.4724C104.826 36.0884 105.554 35.8564 106.546 35.7764L108.082 35.6564V36.9524L106.75 37.0844C106.27 37.1324 105.934 37.2284 105.742 37.3724C105.558 37.5164 105.466 37.7084 105.466 37.9484C105.466 38.1884 105.542 38.3684 105.694 38.4884C105.854 38.6084 106.058 38.6684 106.306 38.6684C106.402 38.6684 106.498 38.6604 106.594 38.6444C106.69 38.6204 106.778 38.5964 106.858 38.5724L107.014 39.7004C106.862 39.7564 106.682 39.8004 106.474 39.8324C106.266 39.8644 106.05 39.8804 105.826 39.8804ZM108.574 34.4924L107.59 33.6644C107.87 33.5684 108.09 33.4484 108.25 33.3044C108.41 33.1524 108.494 32.9684 108.502 32.7524H110.074C110.074 33.0004 110.022 33.2404 109.918 33.4724C109.822 33.6964 109.662 33.8964 109.438 34.0724C109.222 34.2484 108.934 34.3884 108.574 34.4924ZM107.811 32.2724C107.435 32.2724 107.139 32.2164 106.923 32.1044C106.707 31.9924 106.555 31.8524 106.467 31.6844C106.371 31.5084 106.323 31.3244 106.323 31.1324C106.323 30.9964 106.343 30.8524 106.383 30.7004C106.423 30.5404 106.483 30.3924 106.563 30.2564L107.871 30.4244C107.855 30.4804 107.843 30.5404 107.835 30.6044C107.819 30.6604 107.811 30.7124 107.811 30.7604C107.811 30.8724 107.847 30.9604 107.919 31.0244C107.983 31.0804 108.095 31.1084 108.255 31.1084H110.835V32.2724H107.811ZM113.513 39.8804C113.025 39.8804 112.613 39.7884 112.277 39.6044C111.949 39.4124 111.697 39.1284 111.521 38.7524C111.353 38.3764 111.269 37.9164 111.269 37.3724V33.1844H113.069V37.0604C113.069 37.5004 113.157 37.8204 113.333 38.0204C113.509 38.2204 113.765 38.3204 114.101 38.3204C114.525 38.3204 114.853 38.1604 115.085 37.8404C115.317 37.5124 115.433 37.0084 115.433 36.3284V33.1844H117.233V39.7604H115.865L115.673 38.7524H115.565C115.429 39.0724 115.193 39.3404 114.857 39.5564C114.529 39.7724 114.081 39.8804 113.513 39.8804ZM120.875 39.8804C120.515 39.8804 120.211 39.8244 119.963 39.7124C119.715 39.6004 119.527 39.4324 119.399 39.2084C119.271 38.9764 119.207 38.6884 119.207 38.3444V33.1844H121.007V38.1284C121.007 38.2804 121.039 38.3924 121.103 38.4644C121.175 38.5364 121.283 38.5724 121.427 38.5724C121.491 38.5724 121.559 38.5644 121.631 38.5484C121.703 38.5324 121.771 38.5124 121.835 38.4884L122.003 39.6404C121.851 39.7204 121.679 39.7804 121.487 39.8204C121.295 39.8604 121.091 39.8804 120.875 39.8804ZM123.057 39.7604V37.7564C123.057 37.2524 123.157 36.8644 123.357 36.5924C123.557 36.3204 123.841 36.1284 124.209 36.0164L124.221 35.9684L122.937 35.5004V35.1884C122.937 34.7964 123.053 34.4364 123.285 34.1084C123.517 33.7804 123.857 33.5204 124.305 33.3284C124.761 33.1284 125.313 33.0284 125.961 33.0284C126.569 33.0284 127.093 33.1244 127.533 33.3164C127.973 33.5004 128.313 33.7804 128.553 34.1564C128.801 34.5244 128.925 34.9924 128.925 35.5604V39.7604H127.125V35.6684C127.125 35.2684 127.017 34.9684 126.801 34.7684C126.593 34.5684 126.297 34.4684 125.913 34.4684C125.545 34.4684 125.269 34.5484 125.085 34.7084C124.901 34.8604 124.801 35.0484 124.785 35.2724L125.853 35.7644L125.721 36.5444C125.433 36.5604 125.217 36.6644 125.073 36.8564C124.929 37.0484 124.857 37.3084 124.857 37.6364V39.7604H123.057ZM132.453 39.8804C132.093 39.8804 131.789 39.8244 131.541 39.7124C131.293 39.6004 131.105 39.4324 130.977 39.2084C130.849 38.9764 130.785 38.6884 130.785 38.3444V33.1844H132.585V38.1284C132.585 38.2804 132.617 38.3924 132.681 38.4644C132.753 38.5364 132.861 38.5724 133.005 38.5724C133.069 38.5724 133.137 38.5644 133.209 38.5484C133.281 38.5324 133.349 38.5124 133.413 38.4884L133.581 39.6404C133.429 39.7204 133.257 39.7804 133.065 39.8204C132.873 39.8604 132.669 39.8804 132.453 39.8804ZM136.4 39.9164C135.992 39.9164 135.608 39.8684 135.248 39.7724C134.888 39.6844 134.552 39.5564 134.24 39.3884L134.72 38.0804C134.896 38.1844 135.108 38.2764 135.356 38.3564C135.604 38.4364 135.848 38.4764 136.088 38.4764C136.536 38.4764 136.892 38.3084 137.156 37.9724C137.42 37.6284 137.552 37.1164 137.552 36.4364C137.552 35.7964 137.42 35.3084 137.156 34.9724C136.892 34.6364 136.48 34.4684 135.92 34.4684C135.656 34.4684 135.384 34.5084 135.104 34.5884C134.824 34.6604 134.592 34.7524 134.408 34.8644V33.3884C134.656 33.2764 134.936 33.1884 135.248 33.1244C135.56 33.0604 135.892 33.0284 136.244 33.0284C136.98 33.0284 137.58 33.1644 138.044 33.4364C138.508 33.7084 138.848 34.1004 139.064 34.6124C139.28 35.1164 139.388 35.7244 139.388 36.4364C139.388 37.5724 139.128 38.4364 138.608 39.0284C138.088 39.6204 137.352 39.9164 136.4 39.9164ZM143.428 39.9164C142.452 39.9164 141.728 39.6804 141.256 39.2084C140.784 38.7284 140.548 38.0204 140.548 37.0844C140.548 36.9244 140.552 36.7324 140.56 36.5084C140.576 36.2764 140.596 36.0724 140.62 35.8964H143.5V37.0364H142.312V37.2044C142.312 37.5244 142.352 37.7884 142.432 37.9964C142.512 38.1964 142.632 38.3444 142.792 38.4404C142.96 38.5364 143.168 38.5844 143.416 38.5844C143.688 38.5844 143.916 38.5244 144.1 38.4044C144.292 38.2844 144.436 38.0804 144.532 37.7924C144.636 37.5044 144.688 37.1084 144.688 36.6044C144.688 36.1324 144.632 35.7404 144.52 35.4284C144.416 35.1084 144.236 34.8684 143.98 34.7084C143.732 34.5484 143.388 34.4684 142.948 34.4684C142.708 34.4684 142.46 34.4964 142.204 34.5524C141.948 34.6004 141.704 34.6644 141.472 34.7444C141.248 34.8244 141.052 34.9124 140.884 35.0084V33.5084C141.06 33.4124 141.276 33.3284 141.532 33.2564C141.796 33.1844 142.08 33.1284 142.384 33.0884C142.688 33.0484 142.988 33.0284 143.284 33.0284C144.06 33.0284 144.684 33.1724 145.156 33.4604C145.636 33.7404 145.984 34.1404 146.2 34.6604C146.424 35.1804 146.536 35.7964 146.536 36.5084C146.536 37.2364 146.428 37.8564 146.212 38.3684C146.004 38.8724 145.672 39.2564 145.216 39.5204C144.76 39.7844 144.164 39.9164 143.428 39.9164ZM150.181 39.9164C149.709 39.9164 149.233 39.8644 148.753 39.7604C148.281 39.6564 147.861 39.5084 147.493 39.3164L147.997 37.8884C148.157 37.9764 148.349 38.0684 148.573 38.1644C148.797 38.2604 149.041 38.3404 149.305 38.4044C149.569 38.4684 149.837 38.5004 150.109 38.5004C150.429 38.5004 150.669 38.4564 150.829 38.3684C150.997 38.2724 151.081 38.1284 151.081 37.9364C151.081 37.7924 151.025 37.6764 150.913 37.5884C150.809 37.4924 150.653 37.4044 150.445 37.3244C150.237 37.2364 149.989 37.1444 149.701 37.0484C149.277 36.8964 148.913 36.7324 148.609 36.5564C148.305 36.3804 148.069 36.1644 147.901 35.9084C147.741 35.6524 147.661 35.3324 147.661 34.9484C147.661 34.5084 147.773 34.1484 147.997 33.8684C148.221 33.5884 148.537 33.3804 148.945 33.2444C149.353 33.1004 149.829 33.0284 150.373 33.0284C150.821 33.0284 151.225 33.0644 151.585 33.1364C151.945 33.2084 152.225 33.3004 152.425 33.4124V34.8284C152.289 34.7644 152.109 34.7004 151.885 34.6364C151.669 34.5724 151.433 34.5204 151.177 34.4804C150.929 34.4324 150.689 34.4084 150.457 34.4084C150.129 34.4084 149.881 34.4524 149.713 34.5404C149.545 34.6284 149.461 34.7524 149.461 34.9124C149.461 35.0404 149.517 35.1484 149.629 35.2364C149.749 35.3244 149.921 35.4084 150.145 35.4884C150.369 35.5604 150.637 35.6524 150.949 35.7644C151.365 35.9084 151.717 36.0684 152.005 36.2444C152.293 36.4204 152.509 36.6364 152.653 36.8924C152.805 37.1484 152.881 37.4644 152.881 37.8404C152.881 38.2004 152.797 38.5404 152.629 38.8604C152.469 39.1724 152.193 39.4284 151.801 39.6284C151.409 39.8204 150.869 39.9164 150.181 39.9164ZM150.257 32.5364C150.193 32.4244 150.141 32.2804 150.101 32.1044C150.053 31.9284 150.029 31.7524 150.029 31.5764C150.029 31.3524 150.073 31.1484 150.161 30.9644C150.241 30.7804 150.389 30.6364 150.605 30.5324C150.813 30.4204 151.101 30.3644 151.469 30.3644H153.209V31.5764H152.057C151.905 31.5764 151.789 31.6044 151.709 31.6604C151.621 31.7084 151.577 31.8004 151.577 31.9364C151.577 31.9924 151.585 32.0524 151.601 32.1164C151.617 32.1724 151.641 32.2324 151.673 32.2964L150.257 32.5364ZM156.644 39.8804C155.932 39.8804 155.376 39.7364 154.976 39.4484C154.584 39.1524 154.308 38.7444 154.148 38.2244C153.996 37.6964 153.92 37.0844 153.92 36.3884C153.92 35.6124 153.996 34.9804 154.148 34.4924C154.3 34.0044 154.528 33.6444 154.832 33.4124C155.144 33.1804 155.524 33.0644 155.972 33.0644C156.252 33.0644 156.496 33.1204 156.704 33.2324C156.92 33.3364 157.092 33.5324 157.22 33.8204H157.268C157.38 33.5244 157.564 33.3244 157.82 33.2204C158.076 33.1164 158.352 33.0644 158.648 33.0644C159.2 33.0644 159.612 33.2124 159.884 33.5084C160.164 33.8044 160.304 34.2364 160.304 34.8044V39.7604H158.504V35.1404C158.504 34.8924 158.464 34.7244 158.384 34.6364C158.304 34.5484 158.196 34.5044 158.06 34.5044C157.908 34.5044 157.792 34.5484 157.712 34.6364C157.64 34.7244 157.592 34.8724 157.568 35.0804H156.86C156.828 34.8484 156.768 34.6964 156.68 34.6244C156.592 34.5444 156.488 34.5044 156.368 34.5044C156.168 34.5044 156.012 34.6484 155.9 34.9364C155.796 35.2244 155.744 35.7124 155.744 36.4004C155.744 36.8484 155.776 37.2324 155.84 37.5524C155.912 37.8644 156.032 38.1044 156.2 38.2724C156.368 38.4324 156.608 38.5124 156.92 38.5124C157.016 38.5124 157.104 38.5084 157.184 38.5004C157.264 38.4844 157.332 38.4644 157.388 38.4404L157.568 39.7244C157.44 39.7804 157.3 39.8204 157.148 39.8444C156.996 39.8684 156.828 39.8804 156.644 39.8804Z" fill="#9C9C9C" style="mix-blend-mode:overlay"/>
<rect x="1.00183" y="1.76038" width="186.135" height="67" rx="4" stroke="#EEBFFF" stroke-width="2"/>
</svg>
