<svg width="1102" height="308" viewBox="0 0 1102 308" fill="none" xmlns="http://www.w3.org/2000/svg">
<path d="M6.32886 39.295C3.56744 39.295 1.32886 41.5335 1.32886 44.295V191.221C1.32886 193.983 3.56743 196.221 6.32886 196.221H85.3784C88.1398 196.221 90.3784 193.983 90.3784 191.221V134.59C90.3784 131.829 92.617 129.59 95.3784 129.59H301.464C304.225 129.59 306.464 131.829 306.464 134.59V301.444C306.464 304.205 308.702 306.444 311.464 306.444H673.852C676.614 306.444 678.852 304.205 678.852 301.444V128.363C678.852 125.601 681.091 123.363 683.852 123.363H858.179C860.94 123.363 863.179 125.601 863.179 128.363V161.953C863.179 164.715 865.417 166.953 868.179 166.953H941.001C943.763 166.953 946.001 164.715 946.001 161.953V153.894C946.001 151.133 948.24 148.894 951.001 148.894H1095.44C1098.2 148.894 1100.44 146.656 1100.44 143.894V31.8405C1100.44 29.0791 1098.2 26.8405 1095.44 26.8405H1051.26C1048.5 26.8405 1046.26 24.6019 1046.26 21.8405V6.30881C1046.26 3.54738 1044.02 1.30881 1041.26 1.30881H946.642C943.881 1.30881 941.642 3.54738 941.642 6.30881V26.1996C941.642 28.961 939.403 31.1996 936.642 31.1996H683.852C681.091 31.1996 678.852 28.961 678.852 26.1996V21.8769C678.852 19.1155 676.614 16.8769 673.852 16.8769H597.294C594.532 16.8769 592.294 19.1155 592.294 21.8769V161.953C592.294 164.715 590.055 166.953 587.294 166.953H399.89C397.129 166.953 394.89 164.715 394.89 161.953V30.595C394.89 27.8336 392.652 25.595 389.89 25.595H311.464C308.702 25.595 306.464 27.8336 306.464 30.595V34.295C306.464 37.0564 304.225 39.295 301.464 39.295H6.32886Z" fill="#FFFBF1" stroke="#FAEAB9" stroke-width="2"/>
<path d="M434.481 242.627C433.505 242.627 432.781 242.391 432.309 241.919C431.837 241.439 431.601 240.731 431.601 239.795C431.601 239.635 431.605 239.443 431.613 239.219C431.629 238.987 431.649 238.783 431.673 238.607H434.553V239.747H433.365V239.915C433.365 240.235 433.405 240.499 433.485 240.707C433.565 240.907 433.685 241.055 433.845 241.151C434.013 241.247 434.221 241.295 434.469 241.295C434.741 241.295 434.969 241.235 435.153 241.115C435.345 240.995 435.489 240.791 435.585 240.503C435.689 240.215 435.741 239.819 435.741 239.315C435.741 238.843 435.685 238.451 435.573 238.139C435.469 237.819 435.289 237.579 435.033 237.419C434.785 237.259 434.441 237.179 434.001 237.179C433.761 237.179 433.513 237.207 433.257 237.263C433.001 237.311 432.757 237.375 432.525 237.455C432.301 237.535 432.105 237.623 431.937 237.719V236.219C432.113 236.123 432.329 236.039 432.585 235.967C432.849 235.895 433.133 235.839 433.437 235.799C433.741 235.759 434.041 235.739 434.337 235.739C435.113 235.739 435.737 235.883 436.209 236.171C436.689 236.451 437.037 236.851 437.253 237.371C437.477 237.891 437.589 238.507 437.589 239.219C437.589 239.947 437.481 240.567 437.265 241.079C437.057 241.583 436.725 241.967 436.269 242.231C435.813 242.495 435.217 242.627 434.481 242.627ZM440.718 242.471V238.127C440.718 237.791 440.638 237.547 440.478 237.395C440.326 237.243 440.074 237.167 439.722 237.167C439.458 237.167 439.214 237.203 438.99 237.275C438.774 237.347 438.57 237.435 438.378 237.539V236.099C438.554 236.019 438.802 235.939 439.122 235.859C439.442 235.779 439.818 235.739 440.25 235.739C440.69 235.739 441.078 235.803 441.414 235.931C441.758 236.059 442.026 236.275 442.218 236.579C442.418 236.875 442.518 237.283 442.518 237.803V242.471H440.718ZM444.193 242.471V238.571C444.193 237.651 444.437 236.951 444.925 236.471C445.413 235.983 446.185 235.739 447.241 235.739C448.305 235.739 449.073 235.983 449.545 236.471C450.025 236.951 450.265 237.651 450.265 238.571V242.471H448.477V238.547C448.477 238.123 448.377 237.791 448.177 237.551C447.985 237.303 447.665 237.179 447.217 237.179C446.777 237.179 446.457 237.303 446.257 237.551C446.065 237.791 445.969 238.123 445.969 238.547V239.591L446.005 239.603C446.157 239.291 446.337 239.087 446.545 238.991C446.761 238.887 447.053 238.835 447.421 238.835H447.697V240.179H447.421C447.021 240.179 446.717 240.247 446.509 240.383C446.301 240.519 446.157 240.699 446.077 240.923C446.005 241.139 445.969 241.383 445.969 241.655V242.471H444.193ZM453.691 242.471V238.127C453.691 237.791 453.611 237.547 453.451 237.395C453.299 237.243 453.047 237.167 452.695 237.167C452.431 237.167 452.187 237.203 451.963 237.275C451.747 237.347 451.543 237.435 451.351 237.539V236.099C451.527 236.019 451.775 235.939 452.095 235.859C452.415 235.779 452.791 235.739 453.223 235.739C453.663 235.739 454.051 235.803 454.387 235.931C454.731 236.059 454.999 236.275 455.191 236.579C455.391 236.875 455.491 237.283 455.491 237.803V242.471H453.691ZM459.422 242.627C458.95 242.627 458.474 242.575 457.994 242.471C457.522 242.367 457.102 242.219 456.734 242.027L457.238 240.599C457.398 240.687 457.59 240.779 457.814 240.875C458.038 240.971 458.282 241.051 458.546 241.115C458.81 241.179 459.078 241.211 459.35 241.211C459.67 241.211 459.91 241.167 460.07 241.079C460.238 240.983 460.322 240.839 460.322 240.647C460.322 240.503 460.266 240.387 460.154 240.299C460.05 240.203 459.894 240.115 459.686 240.035C459.478 239.947 459.23 239.855 458.942 239.759C458.518 239.607 458.154 239.443 457.85 239.267C457.546 239.091 457.31 238.875 457.142 238.619C456.982 238.363 456.902 238.043 456.902 237.659C456.902 237.219 457.014 236.859 457.238 236.579C457.462 236.299 457.778 236.091 458.186 235.955C458.594 235.811 459.07 235.739 459.614 235.739C460.062 235.739 460.466 235.775 460.826 235.847C461.186 235.919 461.466 236.011 461.666 236.123V237.539C461.53 237.475 461.35 237.411 461.126 237.347C460.91 237.283 460.674 237.231 460.418 237.191C460.17 237.143 459.93 237.119 459.698 237.119C459.37 237.119 459.122 237.163 458.954 237.251C458.786 237.339 458.702 237.463 458.702 237.623C458.702 237.751 458.758 237.859 458.87 237.947C458.99 238.035 459.162 238.119 459.386 238.199C459.61 238.271 459.878 238.363 460.19 238.475C460.606 238.619 460.958 238.779 461.246 238.955C461.534 239.131 461.75 239.347 461.894 239.603C462.046 239.859 462.122 240.175 462.122 240.551C462.122 240.911 462.038 241.251 461.87 241.571C461.71 241.883 461.434 242.139 461.042 242.339C460.65 242.531 460.11 242.627 459.422 242.627ZM465.129 242.627C464.721 242.627 464.337 242.579 463.977 242.483C463.617 242.395 463.281 242.267 462.969 242.099L463.449 240.791C463.625 240.895 463.837 240.987 464.085 241.067C464.333 241.147 464.577 241.187 464.817 241.187C465.265 241.187 465.621 241.019 465.885 240.683C466.149 240.339 466.281 239.827 466.281 239.147C466.281 238.507 466.149 238.019 465.885 237.683C465.621 237.347 465.209 237.179 464.649 237.179C464.385 237.179 464.113 237.219 463.833 237.299C463.553 237.371 463.321 237.463 463.137 237.575V236.099C463.385 235.987 463.665 235.899 463.977 235.835C464.289 235.771 464.621 235.739 464.973 235.739C465.709 235.739 466.309 235.875 466.773 236.147C467.237 236.419 467.577 236.811 467.793 237.323C468.009 237.827 468.117 238.435 468.117 239.147C468.117 240.283 467.857 241.147 467.337 241.739C466.817 242.331 466.081 242.627 465.129 242.627ZM462.538 234.983V234.227L463.75 233.723H468.034V234.983H462.538ZM469.541 242.471V238.571C469.541 237.651 469.785 236.951 470.273 236.471C470.761 235.983 471.537 235.739 472.601 235.739C473.057 235.739 473.461 235.803 473.813 235.931C474.165 236.051 474.433 236.267 474.617 236.579C474.993 236.723 475.253 236.971 475.397 237.323C475.549 237.675 475.625 238.095 475.625 238.583V242.471H473.837V238.547C473.837 238.123 473.737 237.791 473.537 237.551C473.345 237.303 473.029 237.179 472.589 237.179C472.149 237.179 471.829 237.303 471.629 237.551C471.429 237.791 471.329 238.123 471.329 238.547V239.591L471.365 239.603C471.525 239.291 471.709 239.087 471.917 238.991C472.125 238.887 472.413 238.835 472.781 238.835H473.069V240.179H472.781C472.389 240.179 472.085 240.247 471.869 240.383C471.661 240.519 471.517 240.699 471.437 240.923C471.365 241.139 471.329 241.383 471.329 241.655V242.471H469.541ZM474.677 237.203L473.693 236.375C473.973 236.279 474.193 236.159 474.353 236.015C474.513 235.863 474.597 235.679 474.605 235.463H476.177C476.177 235.711 476.125 235.951 476.021 236.183C475.925 236.407 475.765 236.607 475.541 236.783C475.325 236.959 475.037 237.099 474.677 237.203ZM479.203 242.627C478.795 242.627 478.411 242.579 478.051 242.483C477.691 242.395 477.355 242.267 477.043 242.099L477.523 240.791C477.699 240.895 477.911 240.987 478.159 241.067C478.407 241.147 478.651 241.187 478.891 241.187C479.339 241.187 479.695 241.019 479.959 240.683C480.223 240.339 480.355 239.827 480.355 239.147C480.355 238.507 480.223 238.019 479.959 237.683C479.695 237.347 479.283 237.179 478.723 237.179C478.459 237.179 478.187 237.219 477.907 237.299C477.627 237.371 477.395 237.463 477.211 237.575V236.099C477.459 235.987 477.739 235.899 478.051 235.835C478.363 235.771 478.695 235.739 479.047 235.739C479.783 235.739 480.383 235.875 480.847 236.147C481.311 236.419 481.651 236.811 481.867 237.323C482.083 237.827 482.191 238.435 482.191 239.147C482.191 240.283 481.931 241.147 481.411 241.739C480.891 242.331 480.155 242.627 479.203 242.627ZM483.555 242.471V240.467C483.555 239.963 483.655 239.575 483.855 239.303C484.055 239.031 484.339 238.839 484.707 238.727L484.719 238.679L483.435 238.211V237.899C483.435 237.507 483.551 237.147 483.783 236.819C484.015 236.491 484.355 236.231 484.803 236.039C485.259 235.839 485.811 235.739 486.459 235.739C487.067 235.739 487.591 235.835 488.031 236.027C488.471 236.211 488.811 236.491 489.051 236.867C489.299 237.235 489.423 237.703 489.423 238.271V242.471H487.623V238.379C487.623 237.979 487.515 237.679 487.299 237.479C487.091 237.279 486.795 237.179 486.411 237.179C486.043 237.179 485.767 237.259 485.583 237.419C485.399 237.571 485.299 237.759 485.283 237.983L486.351 238.475L486.219 239.255C485.931 239.271 485.715 239.375 485.571 239.567C485.427 239.759 485.355 240.019 485.355 240.347V242.471H483.555ZM493.359 242.627C492.887 242.627 492.411 242.575 491.931 242.471C491.459 242.367 491.039 242.219 490.671 242.027L491.175 240.599C491.335 240.687 491.527 240.779 491.751 240.875C491.975 240.971 492.219 241.051 492.483 241.115C492.747 241.179 493.015 241.211 493.287 241.211C493.607 241.211 493.847 241.167 494.007 241.079C494.175 240.983 494.259 240.839 494.259 240.647C494.259 240.503 494.203 240.387 494.091 240.299C493.987 240.203 493.831 240.115 493.623 240.035C493.415 239.947 493.167 239.855 492.879 239.759C492.455 239.607 492.091 239.443 491.787 239.267C491.483 239.091 491.247 238.875 491.079 238.619C490.919 238.363 490.839 238.043 490.839 237.659C490.839 237.219 490.951 236.859 491.175 236.579C491.399 236.299 491.715 236.091 492.123 235.955C492.531 235.811 493.007 235.739 493.551 235.739C493.999 235.739 494.403 235.775 494.763 235.847C495.123 235.919 495.403 236.011 495.603 236.123V237.539C495.467 237.475 495.287 237.411 495.063 237.347C494.847 237.283 494.611 237.231 494.355 237.191C494.107 237.143 493.867 237.119 493.635 237.119C493.307 237.119 493.059 237.163 492.891 237.251C492.723 237.339 492.639 237.463 492.639 237.623C492.639 237.751 492.695 237.859 492.807 237.947C492.927 238.035 493.099 238.119 493.323 238.199C493.547 238.271 493.815 238.363 494.127 238.475C494.543 238.619 494.895 238.779 495.183 238.955C495.471 239.131 495.687 239.347 495.831 239.603C495.983 239.859 496.059 240.175 496.059 240.551C496.059 240.911 495.975 241.251 495.807 241.571C495.647 241.883 495.371 242.139 494.979 242.339C494.587 242.531 494.047 242.627 493.359 242.627ZM499.57 242.627C499.098 242.627 498.622 242.575 498.142 242.471C497.67 242.367 497.25 242.219 496.882 242.027L497.386 240.599C497.546 240.687 497.738 240.779 497.962 240.875C498.186 240.971 498.43 241.051 498.694 241.115C498.958 241.179 499.226 241.211 499.498 241.211C499.818 241.211 500.058 241.167 500.218 241.079C500.386 240.983 500.47 240.839 500.47 240.647C500.47 240.503 500.414 240.387 500.302 240.299C500.198 240.203 500.042 240.115 499.834 240.035C499.626 239.947 499.378 239.855 499.09 239.759C498.666 239.607 498.302 239.443 497.998 239.267C497.694 239.091 497.458 238.875 497.29 238.619C497.13 238.363 497.05 238.043 497.05 237.659C497.05 237.219 497.162 236.859 497.386 236.579C497.61 236.299 497.926 236.091 498.334 235.955C498.742 235.811 499.218 235.739 499.762 235.739C500.21 235.739 500.614 235.775 500.974 235.847C501.334 235.919 501.614 236.011 501.814 236.123V237.539C501.678 237.475 501.498 237.411 501.274 237.347C501.058 237.283 500.822 237.231 500.566 237.191C500.318 237.143 500.078 237.119 499.846 237.119C499.518 237.119 499.27 237.163 499.102 237.251C498.934 237.339 498.85 237.463 498.85 237.623C498.85 237.751 498.906 237.859 499.018 237.947C499.138 238.035 499.31 238.119 499.534 238.199C499.758 238.271 500.026 238.363 500.338 238.475C500.754 238.619 501.106 238.779 501.394 238.955C501.682 239.131 501.898 239.347 502.042 239.603C502.194 239.859 502.27 240.175 502.27 240.551C502.27 240.911 502.186 241.251 502.018 241.571C501.858 241.883 501.582 242.139 501.19 242.339C500.798 242.531 500.258 242.627 499.57 242.627ZM507.401 242.591C506.833 242.591 506.373 242.483 506.021 242.267C505.677 242.051 505.433 241.775 505.289 241.439H505.193L505.001 242.471H503.633V235.895H505.433V239.039C505.433 239.495 505.485 239.871 505.589 240.167C505.693 240.455 505.845 240.671 506.045 240.815C506.245 240.959 506.485 241.031 506.765 241.031C507.101 241.031 507.357 240.931 507.533 240.731C507.709 240.531 507.797 240.211 507.797 239.771V235.895H509.597V240.167C509.597 240.687 509.513 241.127 509.345 241.487C509.185 241.847 508.941 242.123 508.613 242.315C508.285 242.499 507.881 242.591 507.401 242.591ZM511.283 242.471V238.571C511.283 237.651 511.527 236.951 512.015 236.471C512.503 235.983 513.279 235.739 514.343 235.739C514.799 235.739 515.203 235.803 515.555 235.931C515.907 236.051 516.175 236.267 516.359 236.579C516.735 236.723 516.995 236.971 517.139 237.323C517.291 237.675 517.367 238.095 517.367 238.583V242.471H515.579V238.547C515.579 238.123 515.479 237.791 515.279 237.551C515.087 237.303 514.771 237.179 514.331 237.179C513.891 237.179 513.571 237.303 513.371 237.551C513.171 237.791 513.071 238.123 513.071 238.547V239.591L513.107 239.603C513.267 239.291 513.451 239.087 513.659 238.991C513.867 238.887 514.155 238.835 514.523 238.835H514.811V240.179H514.523C514.131 240.179 513.827 240.247 513.611 240.383C513.403 240.519 513.259 240.699 513.179 240.923C513.107 241.139 513.071 241.383 513.071 241.655V242.471H511.283ZM516.419 237.203L515.435 236.375C515.715 236.279 515.935 236.159 516.095 236.015C516.255 235.863 516.339 235.679 516.347 235.463H517.919C517.919 235.711 517.867 235.951 517.763 236.183C517.667 236.407 517.507 236.607 517.283 236.783C517.067 236.959 516.779 237.099 516.419 237.203ZM520.933 242.471V238.127C520.933 237.791 520.853 237.547 520.693 237.395C520.541 237.243 520.289 237.167 519.937 237.167C519.673 237.167 519.429 237.203 519.205 237.275C518.989 237.347 518.785 237.435 518.593 237.539V236.099C518.769 236.019 519.017 235.939 519.337 235.859C519.657 235.779 520.033 235.739 520.465 235.739C520.905 235.739 521.293 235.803 521.629 235.931C521.973 236.059 522.241 236.275 522.433 236.579C522.633 236.875 522.733 237.283 522.733 237.803V242.471H520.933ZM528.152 242.471V238.199C528.152 237.815 528.048 237.539 527.84 237.371C527.632 237.203 527.312 237.119 526.88 237.119C526.464 237.119 526.056 237.183 525.656 237.311C525.264 237.431 524.924 237.575 524.636 237.743V236.255C524.868 236.143 525.196 236.031 525.62 235.919C526.044 235.799 526.532 235.739 527.084 235.739C527.508 235.739 527.888 235.791 528.224 235.895C528.568 235.999 528.816 236.203 528.968 236.507C529.304 236.611 529.544 236.815 529.688 237.119C529.84 237.415 529.916 237.799 529.916 238.271V242.471H528.152ZM526.184 242.591C525.496 242.591 524.964 242.427 524.588 242.099C524.22 241.771 524.036 241.311 524.036 240.719C524.036 240.079 524.264 239.567 524.72 239.183C525.184 238.799 525.912 238.567 526.904 238.487L528.44 238.367V239.663L527.108 239.795C526.628 239.843 526.292 239.939 526.1 240.083C525.916 240.227 525.824 240.419 525.824 240.659C525.824 240.899 525.9 241.079 526.052 241.199C526.212 241.319 526.416 241.379 526.664 241.379C526.76 241.379 526.856 241.371 526.952 241.355C527.048 241.331 527.136 241.307 527.216 241.283L527.372 242.411C527.22 242.467 527.04 242.511 526.832 242.543C526.624 242.575 526.408 242.591 526.184 242.591ZM528.932 237.203L527.948 236.375C528.228 236.279 528.448 236.159 528.608 236.015C528.768 235.863 528.852 235.679 528.86 235.463H530.432C530.432 235.711 530.38 235.951 530.276 236.183C530.18 236.407 530.02 236.607 529.796 236.783C529.58 236.959 529.292 237.099 528.932 237.203ZM534.135 242.591C533.423 242.591 532.867 242.447 532.467 242.159C532.075 241.863 531.799 241.455 531.639 240.935C531.487 240.407 531.411 239.795 531.411 239.099C531.411 238.323 531.487 237.691 531.639 237.203C531.791 236.715 532.019 236.355 532.323 236.123C532.635 235.891 533.015 235.775 533.463 235.775C533.743 235.775 533.987 235.831 534.195 235.943C534.411 236.047 534.583 236.243 534.711 236.531H534.759C534.871 236.235 535.055 236.035 535.311 235.931C535.567 235.827 535.843 235.775 536.139 235.775C536.691 235.775 537.103 235.923 537.375 236.219C537.655 236.515 537.795 236.947 537.795 237.515V242.471H535.995V237.851C535.995 237.603 535.955 237.435 535.875 237.347C535.795 237.259 535.687 237.215 535.551 237.215C535.399 237.215 535.283 237.259 535.203 237.347C535.131 237.435 535.083 237.583 535.059 237.791H534.351C534.319 237.559 534.259 237.407 534.171 237.335C534.083 237.255 533.979 237.215 533.859 237.215C533.659 237.215 533.503 237.359 533.391 237.647C533.287 237.935 533.235 238.423 533.235 239.111C533.235 239.559 533.267 239.943 533.331 240.263C533.403 240.575 533.523 240.815 533.691 240.983C533.859 241.143 534.099 241.223 534.411 241.223C534.507 241.223 534.595 241.219 534.675 241.211C534.755 241.195 534.823 241.175 534.879 241.151L535.059 242.435C534.931 242.491 534.791 242.531 534.639 242.555C534.487 242.579 534.319 242.591 534.135 242.591ZM541.734 242.627C541.262 242.627 540.786 242.575 540.306 242.471C539.834 242.367 539.414 242.219 539.046 242.027L539.55 240.599C539.71 240.687 539.902 240.779 540.126 240.875C540.35 240.971 540.594 241.051 540.858 241.115C541.122 241.179 541.39 241.211 541.662 241.211C541.982 241.211 542.222 241.167 542.382 241.079C542.55 240.983 542.634 240.839 542.634 240.647C542.634 240.503 542.578 240.387 542.466 240.299C542.362 240.203 542.206 240.115 541.998 240.035C541.79 239.947 541.542 239.855 541.254 239.759C540.83 239.607 540.466 239.443 540.162 239.267C539.858 239.091 539.622 238.875 539.454 238.619C539.294 238.363 539.214 238.043 539.214 237.659C539.214 237.219 539.326 236.859 539.55 236.579C539.774 236.299 540.09 236.091 540.498 235.955C540.906 235.811 541.382 235.739 541.926 235.739C542.374 235.739 542.778 235.775 543.138 235.847C543.498 235.919 543.778 236.011 543.978 236.123V237.539C543.842 237.475 543.662 237.411 543.438 237.347C543.222 237.283 542.986 237.231 542.73 237.191C542.482 237.143 542.242 237.119 542.01 237.119C541.682 237.119 541.434 237.163 541.266 237.251C541.098 237.339 541.014 237.463 541.014 237.623C541.014 237.751 541.07 237.859 541.182 237.947C541.302 238.035 541.474 238.119 541.698 238.199C541.922 238.271 542.19 238.363 542.502 238.475C542.918 238.619 543.27 238.779 543.558 238.955C543.846 239.131 544.062 239.347 544.206 239.603C544.358 239.859 544.434 240.175 544.434 240.551C544.434 240.911 544.35 241.251 544.182 241.571C544.022 241.883 543.746 242.139 543.354 242.339C542.962 242.531 542.422 242.627 541.734 242.627ZM541.81 235.247C541.746 235.135 541.694 234.991 541.654 234.815C541.606 234.639 541.582 234.463 541.582 234.287C541.582 234.063 541.626 233.859 541.714 233.675C541.794 233.491 541.942 233.347 542.158 233.243C542.366 233.131 542.654 233.075 543.022 233.075H544.762V234.287H543.61C543.458 234.287 543.342 234.315 543.262 234.371C543.174 234.419 543.13 234.511 543.13 234.647C543.13 234.703 543.138 234.763 543.154 234.827C543.17 234.883 543.194 234.943 543.226 235.007L541.81 235.247ZM551.56 242.591C550.923 242.591 550.357 242.481 549.859 242.262C549.365 242.041 548.975 241.737 548.688 241.35C548.403 240.961 548.257 240.512 548.249 240.004H550.107C550.118 240.217 550.188 240.404 550.315 240.566C550.446 240.725 550.619 240.849 550.835 240.937C551.051 241.025 551.294 241.069 551.564 241.069C551.845 241.069 552.094 241.02 552.31 240.92C552.526 240.821 552.695 240.683 552.817 240.507C552.939 240.331 553 240.127 553 239.897C553 239.664 552.935 239.458 552.804 239.279C552.676 239.098 552.492 238.956 552.25 238.853C552.011 238.751 551.727 238.7 551.398 238.7H550.584V237.345H551.398C551.676 237.345 551.922 237.297 552.135 237.2C552.351 237.103 552.519 236.97 552.638 236.799C552.757 236.626 552.817 236.424 552.817 236.194C552.817 235.975 552.764 235.784 552.659 235.619C552.557 235.451 552.412 235.321 552.225 235.227C552.04 235.133 551.824 235.086 551.577 235.086C551.327 235.086 551.098 235.132 550.891 235.223C550.683 235.311 550.517 235.437 550.392 235.602C550.267 235.767 550.2 235.96 550.192 236.181H548.423C548.432 235.679 548.575 235.235 548.854 234.852C549.132 234.468 549.507 234.169 549.979 233.953C550.453 233.734 550.989 233.625 551.585 233.625C552.188 233.625 552.715 233.734 553.166 233.953C553.618 234.172 553.969 234.467 554.219 234.839C554.472 235.208 554.597 235.623 554.594 236.083C554.597 236.572 554.445 236.98 554.138 237.306C553.834 237.633 553.438 237.841 552.949 237.929V237.997C553.591 238.079 554.08 238.302 554.415 238.666C554.753 239.027 554.921 239.478 554.918 240.021C554.921 240.518 554.777 240.96 554.487 241.346C554.2 241.733 553.804 242.037 553.298 242.258C552.793 242.48 552.213 242.591 551.56 242.591Z" fill="#252525" fill-opacity="0.55"/>
<path d="M434.481 242.627C433.505 242.627 432.781 242.391 432.309 241.919C431.837 241.439 431.601 240.731 431.601 239.795C431.601 239.635 431.605 239.443 431.613 239.219C431.629 238.987 431.649 238.783 431.673 238.607H434.553V239.747H433.365V239.915C433.365 240.235 433.405 240.499 433.485 240.707C433.565 240.907 433.685 241.055 433.845 241.151C434.013 241.247 434.221 241.295 434.469 241.295C434.741 241.295 434.969 241.235 435.153 241.115C435.345 240.995 435.489 240.791 435.585 240.503C435.689 240.215 435.741 239.819 435.741 239.315C435.741 238.843 435.685 238.451 435.573 238.139C435.469 237.819 435.289 237.579 435.033 237.419C434.785 237.259 434.441 237.179 434.001 237.179C433.761 237.179 433.513 237.207 433.257 237.263C433.001 237.311 432.757 237.375 432.525 237.455C432.301 237.535 432.105 237.623 431.937 237.719V236.219C432.113 236.123 432.329 236.039 432.585 235.967C432.849 235.895 433.133 235.839 433.437 235.799C433.741 235.759 434.041 235.739 434.337 235.739C435.113 235.739 435.737 235.883 436.209 236.171C436.689 236.451 437.037 236.851 437.253 237.371C437.477 237.891 437.589 238.507 437.589 239.219C437.589 239.947 437.481 240.567 437.265 241.079C437.057 241.583 436.725 241.967 436.269 242.231C435.813 242.495 435.217 242.627 434.481 242.627ZM440.718 242.471V238.127C440.718 237.791 440.638 237.547 440.478 237.395C440.326 237.243 440.074 237.167 439.722 237.167C439.458 237.167 439.214 237.203 438.99 237.275C438.774 237.347 438.57 237.435 438.378 237.539V236.099C438.554 236.019 438.802 235.939 439.122 235.859C439.442 235.779 439.818 235.739 440.25 235.739C440.69 235.739 441.078 235.803 441.414 235.931C441.758 236.059 442.026 236.275 442.218 236.579C442.418 236.875 442.518 237.283 442.518 237.803V242.471H440.718ZM444.193 242.471V238.571C444.193 237.651 444.437 236.951 444.925 236.471C445.413 235.983 446.185 235.739 447.241 235.739C448.305 235.739 449.073 235.983 449.545 236.471C450.025 236.951 450.265 237.651 450.265 238.571V242.471H448.477V238.547C448.477 238.123 448.377 237.791 448.177 237.551C447.985 237.303 447.665 237.179 447.217 237.179C446.777 237.179 446.457 237.303 446.257 237.551C446.065 237.791 445.969 238.123 445.969 238.547V239.591L446.005 239.603C446.157 239.291 446.337 239.087 446.545 238.991C446.761 238.887 447.053 238.835 447.421 238.835H447.697V240.179H447.421C447.021 240.179 446.717 240.247 446.509 240.383C446.301 240.519 446.157 240.699 446.077 240.923C446.005 241.139 445.969 241.383 445.969 241.655V242.471H444.193ZM453.691 242.471V238.127C453.691 237.791 453.611 237.547 453.451 237.395C453.299 237.243 453.047 237.167 452.695 237.167C452.431 237.167 452.187 237.203 451.963 237.275C451.747 237.347 451.543 237.435 451.351 237.539V236.099C451.527 236.019 451.775 235.939 452.095 235.859C452.415 235.779 452.791 235.739 453.223 235.739C453.663 235.739 454.051 235.803 454.387 235.931C454.731 236.059 454.999 236.275 455.191 236.579C455.391 236.875 455.491 237.283 455.491 237.803V242.471H453.691ZM459.422 242.627C458.95 242.627 458.474 242.575 457.994 242.471C457.522 242.367 457.102 242.219 456.734 242.027L457.238 240.599C457.398 240.687 457.59 240.779 457.814 240.875C458.038 240.971 458.282 241.051 458.546 241.115C458.81 241.179 459.078 241.211 459.35 241.211C459.67 241.211 459.91 241.167 460.07 241.079C460.238 240.983 460.322 240.839 460.322 240.647C460.322 240.503 460.266 240.387 460.154 240.299C460.05 240.203 459.894 240.115 459.686 240.035C459.478 239.947 459.23 239.855 458.942 239.759C458.518 239.607 458.154 239.443 457.85 239.267C457.546 239.091 457.31 238.875 457.142 238.619C456.982 238.363 456.902 238.043 456.902 237.659C456.902 237.219 457.014 236.859 457.238 236.579C457.462 236.299 457.778 236.091 458.186 235.955C458.594 235.811 459.07 235.739 459.614 235.739C460.062 235.739 460.466 235.775 460.826 235.847C461.186 235.919 461.466 236.011 461.666 236.123V237.539C461.53 237.475 461.35 237.411 461.126 237.347C460.91 237.283 460.674 237.231 460.418 237.191C460.17 237.143 459.93 237.119 459.698 237.119C459.37 237.119 459.122 237.163 458.954 237.251C458.786 237.339 458.702 237.463 458.702 237.623C458.702 237.751 458.758 237.859 458.87 237.947C458.99 238.035 459.162 238.119 459.386 238.199C459.61 238.271 459.878 238.363 460.19 238.475C460.606 238.619 460.958 238.779 461.246 238.955C461.534 239.131 461.75 239.347 461.894 239.603C462.046 239.859 462.122 240.175 462.122 240.551C462.122 240.911 462.038 241.251 461.87 241.571C461.71 241.883 461.434 242.139 461.042 242.339C460.65 242.531 460.11 242.627 459.422 242.627ZM465.129 242.627C464.721 242.627 464.337 242.579 463.977 242.483C463.617 242.395 463.281 242.267 462.969 242.099L463.449 240.791C463.625 240.895 463.837 240.987 464.085 241.067C464.333 241.147 464.577 241.187 464.817 241.187C465.265 241.187 465.621 241.019 465.885 240.683C466.149 240.339 466.281 239.827 466.281 239.147C466.281 238.507 466.149 238.019 465.885 237.683C465.621 237.347 465.209 237.179 464.649 237.179C464.385 237.179 464.113 237.219 463.833 237.299C463.553 237.371 463.321 237.463 463.137 237.575V236.099C463.385 235.987 463.665 235.899 463.977 235.835C464.289 235.771 464.621 235.739 464.973 235.739C465.709 235.739 466.309 235.875 466.773 236.147C467.237 236.419 467.577 236.811 467.793 237.323C468.009 237.827 468.117 238.435 468.117 239.147C468.117 240.283 467.857 241.147 467.337 241.739C466.817 242.331 466.081 242.627 465.129 242.627ZM462.538 234.983V234.227L463.75 233.723H468.034V234.983H462.538ZM469.541 242.471V238.571C469.541 237.651 469.785 236.951 470.273 236.471C470.761 235.983 471.537 235.739 472.601 235.739C473.057 235.739 473.461 235.803 473.813 235.931C474.165 236.051 474.433 236.267 474.617 236.579C474.993 236.723 475.253 236.971 475.397 237.323C475.549 237.675 475.625 238.095 475.625 238.583V242.471H473.837V238.547C473.837 238.123 473.737 237.791 473.537 237.551C473.345 237.303 473.029 237.179 472.589 237.179C472.149 237.179 471.829 237.303 471.629 237.551C471.429 237.791 471.329 238.123 471.329 238.547V239.591L471.365 239.603C471.525 239.291 471.709 239.087 471.917 238.991C472.125 238.887 472.413 238.835 472.781 238.835H473.069V240.179H472.781C472.389 240.179 472.085 240.247 471.869 240.383C471.661 240.519 471.517 240.699 471.437 240.923C471.365 241.139 471.329 241.383 471.329 241.655V242.471H469.541ZM474.677 237.203L473.693 236.375C473.973 236.279 474.193 236.159 474.353 236.015C474.513 235.863 474.597 235.679 474.605 235.463H476.177C476.177 235.711 476.125 235.951 476.021 236.183C475.925 236.407 475.765 236.607 475.541 236.783C475.325 236.959 475.037 237.099 474.677 237.203ZM479.203 242.627C478.795 242.627 478.411 242.579 478.051 242.483C477.691 242.395 477.355 242.267 477.043 242.099L477.523 240.791C477.699 240.895 477.911 240.987 478.159 241.067C478.407 241.147 478.651 241.187 478.891 241.187C479.339 241.187 479.695 241.019 479.959 240.683C480.223 240.339 480.355 239.827 480.355 239.147C480.355 238.507 480.223 238.019 479.959 237.683C479.695 237.347 479.283 237.179 478.723 237.179C478.459 237.179 478.187 237.219 477.907 237.299C477.627 237.371 477.395 237.463 477.211 237.575V236.099C477.459 235.987 477.739 235.899 478.051 235.835C478.363 235.771 478.695 235.739 479.047 235.739C479.783 235.739 480.383 235.875 480.847 236.147C481.311 236.419 481.651 236.811 481.867 237.323C482.083 237.827 482.191 238.435 482.191 239.147C482.191 240.283 481.931 241.147 481.411 241.739C480.891 242.331 480.155 242.627 479.203 242.627ZM483.555 242.471V240.467C483.555 239.963 483.655 239.575 483.855 239.303C484.055 239.031 484.339 238.839 484.707 238.727L484.719 238.679L483.435 238.211V237.899C483.435 237.507 483.551 237.147 483.783 236.819C484.015 236.491 484.355 236.231 484.803 236.039C485.259 235.839 485.811 235.739 486.459 235.739C487.067 235.739 487.591 235.835 488.031 236.027C488.471 236.211 488.811 236.491 489.051 236.867C489.299 237.235 489.423 237.703 489.423 238.271V242.471H487.623V238.379C487.623 237.979 487.515 237.679 487.299 237.479C487.091 237.279 486.795 237.179 486.411 237.179C486.043 237.179 485.767 237.259 485.583 237.419C485.399 237.571 485.299 237.759 485.283 237.983L486.351 238.475L486.219 239.255C485.931 239.271 485.715 239.375 485.571 239.567C485.427 239.759 485.355 240.019 485.355 240.347V242.471H483.555ZM493.359 242.627C492.887 242.627 492.411 242.575 491.931 242.471C491.459 242.367 491.039 242.219 490.671 242.027L491.175 240.599C491.335 240.687 491.527 240.779 491.751 240.875C491.975 240.971 492.219 241.051 492.483 241.115C492.747 241.179 493.015 241.211 493.287 241.211C493.607 241.211 493.847 241.167 494.007 241.079C494.175 240.983 494.259 240.839 494.259 240.647C494.259 240.503 494.203 240.387 494.091 240.299C493.987 240.203 493.831 240.115 493.623 240.035C493.415 239.947 493.167 239.855 492.879 239.759C492.455 239.607 492.091 239.443 491.787 239.267C491.483 239.091 491.247 238.875 491.079 238.619C490.919 238.363 490.839 238.043 490.839 237.659C490.839 237.219 490.951 236.859 491.175 236.579C491.399 236.299 491.715 236.091 492.123 235.955C492.531 235.811 493.007 235.739 493.551 235.739C493.999 235.739 494.403 235.775 494.763 235.847C495.123 235.919 495.403 236.011 495.603 236.123V237.539C495.467 237.475 495.287 237.411 495.063 237.347C494.847 237.283 494.611 237.231 494.355 237.191C494.107 237.143 493.867 237.119 493.635 237.119C493.307 237.119 493.059 237.163 492.891 237.251C492.723 237.339 492.639 237.463 492.639 237.623C492.639 237.751 492.695 237.859 492.807 237.947C492.927 238.035 493.099 238.119 493.323 238.199C493.547 238.271 493.815 238.363 494.127 238.475C494.543 238.619 494.895 238.779 495.183 238.955C495.471 239.131 495.687 239.347 495.831 239.603C495.983 239.859 496.059 240.175 496.059 240.551C496.059 240.911 495.975 241.251 495.807 241.571C495.647 241.883 495.371 242.139 494.979 242.339C494.587 242.531 494.047 242.627 493.359 242.627ZM499.57 242.627C499.098 242.627 498.622 242.575 498.142 242.471C497.67 242.367 497.25 242.219 496.882 242.027L497.386 240.599C497.546 240.687 497.738 240.779 497.962 240.875C498.186 240.971 498.43 241.051 498.694 241.115C498.958 241.179 499.226 241.211 499.498 241.211C499.818 241.211 500.058 241.167 500.218 241.079C500.386 240.983 500.47 240.839 500.47 240.647C500.47 240.503 500.414 240.387 500.302 240.299C500.198 240.203 500.042 240.115 499.834 240.035C499.626 239.947 499.378 239.855 499.09 239.759C498.666 239.607 498.302 239.443 497.998 239.267C497.694 239.091 497.458 238.875 497.29 238.619C497.13 238.363 497.05 238.043 497.05 237.659C497.05 237.219 497.162 236.859 497.386 236.579C497.61 236.299 497.926 236.091 498.334 235.955C498.742 235.811 499.218 235.739 499.762 235.739C500.21 235.739 500.614 235.775 500.974 235.847C501.334 235.919 501.614 236.011 501.814 236.123V237.539C501.678 237.475 501.498 237.411 501.274 237.347C501.058 237.283 500.822 237.231 500.566 237.191C500.318 237.143 500.078 237.119 499.846 237.119C499.518 237.119 499.27 237.163 499.102 237.251C498.934 237.339 498.85 237.463 498.85 237.623C498.85 237.751 498.906 237.859 499.018 237.947C499.138 238.035 499.31 238.119 499.534 238.199C499.758 238.271 500.026 238.363 500.338 238.475C500.754 238.619 501.106 238.779 501.394 238.955C501.682 239.131 501.898 239.347 502.042 239.603C502.194 239.859 502.27 240.175 502.27 240.551C502.27 240.911 502.186 241.251 502.018 241.571C501.858 241.883 501.582 242.139 501.19 242.339C500.798 242.531 500.258 242.627 499.57 242.627ZM507.401 242.591C506.833 242.591 506.373 242.483 506.021 242.267C505.677 242.051 505.433 241.775 505.289 241.439H505.193L505.001 242.471H503.633V235.895H505.433V239.039C505.433 239.495 505.485 239.871 505.589 240.167C505.693 240.455 505.845 240.671 506.045 240.815C506.245 240.959 506.485 241.031 506.765 241.031C507.101 241.031 507.357 240.931 507.533 240.731C507.709 240.531 507.797 240.211 507.797 239.771V235.895H509.597V240.167C509.597 240.687 509.513 241.127 509.345 241.487C509.185 241.847 508.941 242.123 508.613 242.315C508.285 242.499 507.881 242.591 507.401 242.591ZM511.283 242.471V238.571C511.283 237.651 511.527 236.951 512.015 236.471C512.503 235.983 513.279 235.739 514.343 235.739C514.799 235.739 515.203 235.803 515.555 235.931C515.907 236.051 516.175 236.267 516.359 236.579C516.735 236.723 516.995 236.971 517.139 237.323C517.291 237.675 517.367 238.095 517.367 238.583V242.471H515.579V238.547C515.579 238.123 515.479 237.791 515.279 237.551C515.087 237.303 514.771 237.179 514.331 237.179C513.891 237.179 513.571 237.303 513.371 237.551C513.171 237.791 513.071 238.123 513.071 238.547V239.591L513.107 239.603C513.267 239.291 513.451 239.087 513.659 238.991C513.867 238.887 514.155 238.835 514.523 238.835H514.811V240.179H514.523C514.131 240.179 513.827 240.247 513.611 240.383C513.403 240.519 513.259 240.699 513.179 240.923C513.107 241.139 513.071 241.383 513.071 241.655V242.471H511.283ZM516.419 237.203L515.435 236.375C515.715 236.279 515.935 236.159 516.095 236.015C516.255 235.863 516.339 235.679 516.347 235.463H517.919C517.919 235.711 517.867 235.951 517.763 236.183C517.667 236.407 517.507 236.607 517.283 236.783C517.067 236.959 516.779 237.099 516.419 237.203ZM520.933 242.471V238.127C520.933 237.791 520.853 237.547 520.693 237.395C520.541 237.243 520.289 237.167 519.937 237.167C519.673 237.167 519.429 237.203 519.205 237.275C518.989 237.347 518.785 237.435 518.593 237.539V236.099C518.769 236.019 519.017 235.939 519.337 235.859C519.657 235.779 520.033 235.739 520.465 235.739C520.905 235.739 521.293 235.803 521.629 235.931C521.973 236.059 522.241 236.275 522.433 236.579C522.633 236.875 522.733 237.283 522.733 237.803V242.471H520.933ZM528.152 242.471V238.199C528.152 237.815 528.048 237.539 527.84 237.371C527.632 237.203 527.312 237.119 526.88 237.119C526.464 237.119 526.056 237.183 525.656 237.311C525.264 237.431 524.924 237.575 524.636 237.743V236.255C524.868 236.143 525.196 236.031 525.62 235.919C526.044 235.799 526.532 235.739 527.084 235.739C527.508 235.739 527.888 235.791 528.224 235.895C528.568 235.999 528.816 236.203 528.968 236.507C529.304 236.611 529.544 236.815 529.688 237.119C529.84 237.415 529.916 237.799 529.916 238.271V242.471H528.152ZM526.184 242.591C525.496 242.591 524.964 242.427 524.588 242.099C524.22 241.771 524.036 241.311 524.036 240.719C524.036 240.079 524.264 239.567 524.72 239.183C525.184 238.799 525.912 238.567 526.904 238.487L528.44 238.367V239.663L527.108 239.795C526.628 239.843 526.292 239.939 526.1 240.083C525.916 240.227 525.824 240.419 525.824 240.659C525.824 240.899 525.9 241.079 526.052 241.199C526.212 241.319 526.416 241.379 526.664 241.379C526.76 241.379 526.856 241.371 526.952 241.355C527.048 241.331 527.136 241.307 527.216 241.283L527.372 242.411C527.22 242.467 527.04 242.511 526.832 242.543C526.624 242.575 526.408 242.591 526.184 242.591ZM528.932 237.203L527.948 236.375C528.228 236.279 528.448 236.159 528.608 236.015C528.768 235.863 528.852 235.679 528.86 235.463H530.432C530.432 235.711 530.38 235.951 530.276 236.183C530.18 236.407 530.02 236.607 529.796 236.783C529.58 236.959 529.292 237.099 528.932 237.203ZM534.135 242.591C533.423 242.591 532.867 242.447 532.467 242.159C532.075 241.863 531.799 241.455 531.639 240.935C531.487 240.407 531.411 239.795 531.411 239.099C531.411 238.323 531.487 237.691 531.639 237.203C531.791 236.715 532.019 236.355 532.323 236.123C532.635 235.891 533.015 235.775 533.463 235.775C533.743 235.775 533.987 235.831 534.195 235.943C534.411 236.047 534.583 236.243 534.711 236.531H534.759C534.871 236.235 535.055 236.035 535.311 235.931C535.567 235.827 535.843 235.775 536.139 235.775C536.691 235.775 537.103 235.923 537.375 236.219C537.655 236.515 537.795 236.947 537.795 237.515V242.471H535.995V237.851C535.995 237.603 535.955 237.435 535.875 237.347C535.795 237.259 535.687 237.215 535.551 237.215C535.399 237.215 535.283 237.259 535.203 237.347C535.131 237.435 535.083 237.583 535.059 237.791H534.351C534.319 237.559 534.259 237.407 534.171 237.335C534.083 237.255 533.979 237.215 533.859 237.215C533.659 237.215 533.503 237.359 533.391 237.647C533.287 237.935 533.235 238.423 533.235 239.111C533.235 239.559 533.267 239.943 533.331 240.263C533.403 240.575 533.523 240.815 533.691 240.983C533.859 241.143 534.099 241.223 534.411 241.223C534.507 241.223 534.595 241.219 534.675 241.211C534.755 241.195 534.823 241.175 534.879 241.151L535.059 242.435C534.931 242.491 534.791 242.531 534.639 242.555C534.487 242.579 534.319 242.591 534.135 242.591ZM541.734 242.627C541.262 242.627 540.786 242.575 540.306 242.471C539.834 242.367 539.414 242.219 539.046 242.027L539.55 240.599C539.71 240.687 539.902 240.779 540.126 240.875C540.35 240.971 540.594 241.051 540.858 241.115C541.122 241.179 541.39 241.211 541.662 241.211C541.982 241.211 542.222 241.167 542.382 241.079C542.55 240.983 542.634 240.839 542.634 240.647C542.634 240.503 542.578 240.387 542.466 240.299C542.362 240.203 542.206 240.115 541.998 240.035C541.79 239.947 541.542 239.855 541.254 239.759C540.83 239.607 540.466 239.443 540.162 239.267C539.858 239.091 539.622 238.875 539.454 238.619C539.294 238.363 539.214 238.043 539.214 237.659C539.214 237.219 539.326 236.859 539.55 236.579C539.774 236.299 540.09 236.091 540.498 235.955C540.906 235.811 541.382 235.739 541.926 235.739C542.374 235.739 542.778 235.775 543.138 235.847C543.498 235.919 543.778 236.011 543.978 236.123V237.539C543.842 237.475 543.662 237.411 543.438 237.347C543.222 237.283 542.986 237.231 542.73 237.191C542.482 237.143 542.242 237.119 542.01 237.119C541.682 237.119 541.434 237.163 541.266 237.251C541.098 237.339 541.014 237.463 541.014 237.623C541.014 237.751 541.07 237.859 541.182 237.947C541.302 238.035 541.474 238.119 541.698 238.199C541.922 238.271 542.19 238.363 542.502 238.475C542.918 238.619 543.27 238.779 543.558 238.955C543.846 239.131 544.062 239.347 544.206 239.603C544.358 239.859 544.434 240.175 544.434 240.551C544.434 240.911 544.35 241.251 544.182 241.571C544.022 241.883 543.746 242.139 543.354 242.339C542.962 242.531 542.422 242.627 541.734 242.627ZM541.81 235.247C541.746 235.135 541.694 234.991 541.654 234.815C541.606 234.639 541.582 234.463 541.582 234.287C541.582 234.063 541.626 233.859 541.714 233.675C541.794 233.491 541.942 233.347 542.158 233.243C542.366 233.131 542.654 233.075 543.022 233.075H544.762V234.287H543.61C543.458 234.287 543.342 234.315 543.262 234.371C543.174 234.419 543.13 234.511 543.13 234.647C543.13 234.703 543.138 234.763 543.154 234.827C543.17 234.883 543.194 234.943 543.226 235.007L541.81 235.247ZM551.56 242.591C550.923 242.591 550.357 242.481 549.859 242.262C549.365 242.041 548.975 241.737 548.688 241.35C548.403 240.961 548.257 240.512 548.249 240.004H550.107C550.118 240.217 550.188 240.404 550.315 240.566C550.446 240.725 550.619 240.849 550.835 240.937C551.051 241.025 551.294 241.069 551.564 241.069C551.845 241.069 552.094 241.02 552.31 240.92C552.526 240.821 552.695 240.683 552.817 240.507C552.939 240.331 553 240.127 553 239.897C553 239.664 552.935 239.458 552.804 239.279C552.676 239.098 552.492 238.956 552.25 238.853C552.011 238.751 551.727 238.7 551.398 238.7H550.584V237.345H551.398C551.676 237.345 551.922 237.297 552.135 237.2C552.351 237.103 552.519 236.97 552.638 236.799C552.757 236.626 552.817 236.424 552.817 236.194C552.817 235.975 552.764 235.784 552.659 235.619C552.557 235.451 552.412 235.321 552.225 235.227C552.04 235.133 551.824 235.086 551.577 235.086C551.327 235.086 551.098 235.132 550.891 235.223C550.683 235.311 550.517 235.437 550.392 235.602C550.267 235.767 550.2 235.96 550.192 236.181H548.423C548.432 235.679 548.575 235.235 548.854 234.852C549.132 234.468 549.507 234.169 549.979 233.953C550.453 233.734 550.989 233.625 551.585 233.625C552.188 233.625 552.715 233.734 553.166 233.953C553.618 234.172 553.969 234.467 554.219 234.839C554.472 235.208 554.597 235.623 554.594 236.083C554.597 236.572 554.445 236.98 554.138 237.306C553.834 237.633 553.438 237.841 552.949 237.929V237.997C553.591 238.079 554.08 238.302 554.415 238.666C554.753 239.027 554.921 239.478 554.918 240.021C554.921 240.518 554.777 240.96 554.487 241.346C554.2 241.733 553.804 242.037 553.298 242.258C552.793 242.48 552.213 242.591 551.56 242.591Z" fill="#9C9C9C" style="mix-blend-mode:overlay"/>
</svg>
