<svg width="200" height="161" viewBox="0 0 239 201" fill="none" xmlns="http://www.w3.org/2000/svg">
<path d="M6.27349 1.76038C3.51207 1.76038 1.2735 3.99895 1.2735 6.76038V194.787C1.2735 197.548 3.51207 199.787 6.2735 199.787H232.909C235.67 199.787 237.909 197.548 237.909 194.787V6.76038C237.909 3.99895 235.67 1.76038 232.909 1.76038H6.27349Z" fill="#F4FFFF" stroke="#BEE4E0" stroke-width="2"/>
<path d="M102.286 97.7607H100.42C100.386 97.5193 100.316 97.3048 100.211 97.1173C100.106 96.9269 99.9709 96.765 99.8061 96.6315C99.6413 96.498 99.451 96.3957 99.2351 96.3247C99.022 96.2536 98.7905 96.2181 98.5405 96.2181C98.0887 96.2181 97.6953 96.3303 97.3601 96.5548C97.0248 96.7764 96.7649 97.1002 96.5802 97.5264C96.3956 97.9497 96.3032 98.4639 96.3032 99.069C96.3032 99.6911 96.3956 100.214 96.5802 100.637C96.7677 101.06 97.0291 101.38 97.3643 101.596C97.6995 101.812 98.0873 101.92 98.5277 101.92C98.7748 101.92 99.0035 101.887 99.2137 101.822C99.4268 101.756 99.6157 101.661 99.7805 101.536C99.9453 101.408 100.082 101.254 100.19 101.072C100.3 100.89 100.377 100.683 100.42 100.45L102.286 100.458C102.238 100.859 102.117 101.245 101.924 101.617C101.734 101.987 101.477 102.318 101.153 102.61C100.832 102.9 100.448 103.13 100.002 103.301C99.5589 103.468 99.0575 103.552 98.4978 103.552C97.7194 103.552 97.0234 103.376 96.4098 103.024C95.799 102.671 95.316 102.161 94.9609 101.494C94.6086 100.826 94.4325 100.018 94.4325 99.069C94.4325 98.1173 94.6115 97.3076 94.9694 96.64C95.3274 95.9724 95.8132 95.4639 96.4268 95.1144C97.0405 94.7622 97.7308 94.586 98.4978 94.586C99.0035 94.586 99.4723 94.657 99.9041 94.7991C100.339 94.9411 100.724 95.1485 101.059 95.4213C101.394 95.6911 101.667 96.0221 101.877 96.4142C102.09 96.8062 102.227 97.2551 102.286 97.7607ZM103.609 103.433V94.7053H109.49V96.2267H105.455V98.3062H109.187V99.8275H105.455V101.911H109.507V103.433H103.609ZM110.957 94.7053H113.233L115.636 100.569H115.738L118.142 94.7053H120.417V103.433H118.627V97.7522H118.555L116.296 103.39H115.078L112.819 97.7309H112.747V103.433H110.957V94.7053ZM124.715 103.433V94.7053H126.56V101.911H130.301V103.433H124.715ZM133.356 103.556C132.938 103.556 132.566 103.484 132.239 103.339C131.913 103.191 131.654 102.974 131.464 102.687C131.276 102.397 131.182 102.036 131.182 101.604C131.182 101.241 131.249 100.935 131.383 100.688C131.516 100.441 131.698 100.242 131.928 100.092C132.158 99.9411 132.42 99.8275 132.712 99.7508C133.008 99.6741 133.317 99.6201 133.641 99.5889C134.022 99.5491 134.329 99.5122 134.562 99.4781C134.795 99.4411 134.964 99.3872 135.069 99.3161C135.174 99.2451 135.227 99.14 135.227 99.0008V98.9752C135.227 98.7053 135.141 98.4965 134.971 98.3488C134.803 98.2011 134.565 98.1272 134.255 98.1272C133.928 98.1272 133.668 98.1997 133.475 98.3445C133.282 98.4866 133.154 98.6656 133.092 98.8815L131.413 98.7451C131.498 98.3474 131.665 98.0036 131.915 97.7139C132.165 97.4213 132.488 97.1968 132.883 97.0406C133.281 96.8815 133.741 96.8019 134.263 96.8019C134.627 96.8019 134.975 96.8445 135.307 96.9298C135.643 97.015 135.94 97.1471 136.198 97.3261C136.459 97.5051 136.665 97.7352 136.816 98.0164C136.967 98.2948 137.042 98.6286 137.042 99.0178V103.433H135.32V102.525H135.269C135.164 102.729 135.023 102.91 134.847 103.066C134.671 103.22 134.459 103.34 134.212 103.428C133.965 103.514 133.68 103.556 133.356 103.556ZM133.876 102.303C134.143 102.303 134.379 102.251 134.583 102.146C134.788 102.038 134.948 101.893 135.065 101.711C135.181 101.529 135.239 101.323 135.239 101.093V100.399C135.182 100.435 135.104 100.47 135.005 100.501C134.908 100.529 134.799 100.556 134.677 100.582C134.555 100.604 134.432 100.626 134.31 100.646C134.188 100.663 134.077 100.678 133.978 100.693C133.765 100.724 133.579 100.774 133.42 100.842C133.261 100.91 133.137 101.002 133.049 101.119C132.961 101.232 132.917 101.374 132.917 101.545C132.917 101.792 133.006 101.981 133.185 102.112C133.367 102.239 133.597 102.303 133.876 102.303ZM138.484 103.433V94.7053H140.3V97.9866H140.355C140.435 97.8105 140.55 97.6315 140.7 97.4497C140.854 97.265 141.053 97.1116 141.297 96.9894C141.544 96.8644 141.851 96.8019 142.217 96.8019C142.695 96.8019 143.135 96.9269 143.538 97.1769C143.942 97.4241 144.264 97.7977 144.506 98.2977C144.747 98.7948 144.868 99.4184 144.868 100.168C144.868 100.899 144.75 101.515 144.514 102.018C144.281 102.518 143.963 102.897 143.56 103.156C143.159 103.411 142.71 103.539 142.213 103.539C141.861 103.539 141.561 103.481 141.314 103.364C141.07 103.248 140.869 103.102 140.713 102.926C140.557 102.747 140.437 102.566 140.355 102.384H140.274V103.433H138.484ZM140.261 100.16C140.261 100.549 140.315 100.889 140.423 101.178C140.531 101.468 140.687 101.694 140.892 101.856C141.097 102.015 141.345 102.095 141.638 102.095C141.933 102.095 142.183 102.014 142.388 101.852C142.592 101.687 142.747 101.46 142.852 101.17C142.96 100.877 143.014 100.541 143.014 100.16C143.014 99.782 142.962 99.4497 142.857 99.1627C142.751 98.8758 142.597 98.6514 142.392 98.4894C142.187 98.3275 141.936 98.2465 141.638 98.2465C141.342 98.2465 141.092 98.3247 140.888 98.4809C140.686 98.6372 140.531 98.8588 140.423 99.1457C140.315 99.4326 140.261 99.7707 140.261 100.16Z" fill="#252525" fill-opacity="0.55"/>
<path d="M102.286 97.7607H100.42C100.386 97.5193 100.316 97.3048 100.211 97.1173C100.106 96.9269 99.9709 96.765 99.8061 96.6315C99.6413 96.498 99.451 96.3957 99.2351 96.3247C99.022 96.2536 98.7905 96.2181 98.5405 96.2181C98.0887 96.2181 97.6953 96.3303 97.3601 96.5548C97.0248 96.7764 96.7649 97.1002 96.5802 97.5264C96.3956 97.9497 96.3032 98.4639 96.3032 99.069C96.3032 99.6911 96.3956 100.214 96.5802 100.637C96.7677 101.06 97.0291 101.38 97.3643 101.596C97.6995 101.812 98.0873 101.92 98.5277 101.92C98.7748 101.92 99.0035 101.887 99.2137 101.822C99.4268 101.756 99.6157 101.661 99.7805 101.536C99.9453 101.408 100.082 101.254 100.19 101.072C100.3 100.89 100.377 100.683 100.42 100.45L102.286 100.458C102.238 100.859 102.117 101.245 101.924 101.617C101.734 101.987 101.477 102.318 101.153 102.61C100.832 102.9 100.448 103.13 100.002 103.301C99.5589 103.468 99.0575 103.552 98.4978 103.552C97.7194 103.552 97.0234 103.376 96.4098 103.024C95.799 102.671 95.316 102.161 94.9609 101.494C94.6086 100.826 94.4325 100.018 94.4325 99.069C94.4325 98.1173 94.6115 97.3076 94.9694 96.64C95.3274 95.9724 95.8132 95.4639 96.4268 95.1144C97.0405 94.7622 97.7308 94.586 98.4978 94.586C99.0035 94.586 99.4723 94.657 99.9041 94.7991C100.339 94.9411 100.724 95.1485 101.059 95.4213C101.394 95.6911 101.667 96.0221 101.877 96.4142C102.09 96.8062 102.227 97.2551 102.286 97.7607ZM103.609 103.433V94.7053H109.49V96.2267H105.455V98.3062H109.187V99.8275H105.455V101.911H109.507V103.433H103.609ZM110.957 94.7053H113.233L115.636 100.569H115.738L118.142 94.7053H120.417V103.433H118.627V97.7522H118.555L116.296 103.39H115.078L112.819 97.7309H112.747V103.433H110.957V94.7053ZM124.715 103.433V94.7053H126.56V101.911H130.301V103.433H124.715ZM133.356 103.556C132.938 103.556 132.566 103.484 132.239 103.339C131.913 103.191 131.654 102.974 131.464 102.687C131.276 102.397 131.182 102.036 131.182 101.604C131.182 101.241 131.249 100.935 131.383 100.688C131.516 100.441 131.698 100.242 131.928 100.092C132.158 99.9411 132.42 99.8275 132.712 99.7508C133.008 99.6741 133.317 99.6201 133.641 99.5889C134.022 99.5491 134.329 99.5122 134.562 99.4781C134.795 99.4411 134.964 99.3872 135.069 99.3161C135.174 99.2451 135.227 99.14 135.227 99.0008V98.9752C135.227 98.7053 135.141 98.4965 134.971 98.3488C134.803 98.2011 134.565 98.1272 134.255 98.1272C133.928 98.1272 133.668 98.1997 133.475 98.3445C133.282 98.4866 133.154 98.6656 133.092 98.8815L131.413 98.7451C131.498 98.3474 131.665 98.0036 131.915 97.7139C132.165 97.4213 132.488 97.1968 132.883 97.0406C133.281 96.8815 133.741 96.8019 134.263 96.8019C134.627 96.8019 134.975 96.8445 135.307 96.9298C135.643 97.015 135.94 97.1471 136.198 97.3261C136.459 97.5051 136.665 97.7352 136.816 98.0164C136.967 98.2948 137.042 98.6286 137.042 99.0178V103.433H135.32V102.525H135.269C135.164 102.729 135.023 102.91 134.847 103.066C134.671 103.22 134.459 103.34 134.212 103.428C133.965 103.514 133.68 103.556 133.356 103.556ZM133.876 102.303C134.143 102.303 134.379 102.251 134.583 102.146C134.788 102.038 134.948 101.893 135.065 101.711C135.181 101.529 135.239 101.323 135.239 101.093V100.399C135.182 100.435 135.104 100.47 135.005 100.501C134.908 100.529 134.799 100.556 134.677 100.582C134.555 100.604 134.432 100.626 134.31 100.646C134.188 100.663 134.077 100.678 133.978 100.693C133.765 100.724 133.579 100.774 133.42 100.842C133.261 100.91 133.137 101.002 133.049 101.119C132.961 101.232 132.917 101.374 132.917 101.545C132.917 101.792 133.006 101.981 133.185 102.112C133.367 102.239 133.597 102.303 133.876 102.303ZM138.484 103.433V94.7053H140.3V97.9866H140.355C140.435 97.8105 140.55 97.6315 140.7 97.4497C140.854 97.265 141.053 97.1116 141.297 96.9894C141.544 96.8644 141.851 96.8019 142.217 96.8019C142.695 96.8019 143.135 96.9269 143.538 97.1769C143.942 97.4241 144.264 97.7977 144.506 98.2977C144.747 98.7948 144.868 99.4184 144.868 100.168C144.868 100.899 144.75 101.515 144.514 102.018C144.281 102.518 143.963 102.897 143.56 103.156C143.159 103.411 142.71 103.539 142.213 103.539C141.861 103.539 141.561 103.481 141.314 103.364C141.07 103.248 140.869 103.102 140.713 102.926C140.557 102.747 140.437 102.566 140.355 102.384H140.274V103.433H138.484ZM140.261 100.16C140.261 100.549 140.315 100.889 140.423 101.178C140.531 101.468 140.687 101.694 140.892 101.856C141.097 102.015 141.345 102.095 141.638 102.095C141.933 102.095 142.183 102.014 142.388 101.852C142.592 101.687 142.747 101.46 142.852 101.17C142.96 100.877 143.014 100.541 143.014 100.16C143.014 99.782 142.962 99.4497 142.857 99.1627C142.751 98.8758 142.597 98.6514 142.392 98.4894C142.187 98.3275 141.936 98.2465 141.638 98.2465C141.342 98.2465 141.092 98.3247 140.888 98.4809C140.686 98.6372 140.531 98.8588 140.423 99.1457C140.315 99.4326 140.261 99.7707 140.261 100.16Z" fill="#9C9C9C" style="mix-blend-mode:overlay"/>
</svg>
