<svg width="98" height="160" viewBox="0 0 98 160" fill="none" xmlns="http://www.w3.org/2000/svg">
<path d="M6.54733 1.13403C3.78591 1.13403 1.54733 3.37261 1.54733 6.13403V153.683C1.54733 156.445 3.78591 158.683 6.54733 158.683H91.2014C93.9628 158.683 96.2014 156.445 96.2014 153.683V6.13403C96.2014 3.3726 93.9628 1.13403 91.2014 1.13403H6.54733Z" fill="#F1FAFF" stroke="#98D3FF" stroke-width="2"/>
<path d="M16.6878 73.0715C15.7118 73.0715 14.9878 72.8355 14.5158 72.3635C14.0438 71.8835 13.8078 71.1755 13.8078 70.2395C13.8078 70.0795 13.8118 69.8875 13.8198 69.6635C13.8358 69.4315 13.8558 69.2275 13.8798 69.0515H16.7598V70.1915H15.5718V70.3595C15.5718 70.6795 15.6118 70.9435 15.6918 71.1515C15.7718 71.3515 15.8918 71.4995 16.0518 71.5955C16.2198 71.6915 16.4278 71.7395 16.6758 71.7395C16.9478 71.7395 17.1758 71.6795 17.3598 71.5595C17.5518 71.4395 17.6958 71.2355 17.7918 70.9475C17.8958 70.6595 17.9478 70.2635 17.9478 69.7595C17.9478 69.2875 17.8918 68.8955 17.7798 68.5835C17.6758 68.2635 17.4958 68.0235 17.2398 67.8635C16.9918 67.7035 16.6478 67.6235 16.2078 67.6235C15.9678 67.6235 15.7198 67.6515 15.4638 67.7075C15.2078 67.7555 14.9638 67.8195 14.7318 67.8995C14.5078 67.9795 14.3118 68.0675 14.1438 68.1635V66.6635C14.3198 66.5675 14.5358 66.4835 14.7918 66.4115C15.0558 66.3395 15.3398 66.2835 15.6438 66.2435C15.9478 66.2035 16.2478 66.1835 16.5438 66.1835C17.3198 66.1835 17.9438 66.3275 18.4158 66.6155C18.8958 66.8955 19.2438 67.2955 19.4598 67.8155C19.6838 68.3355 19.7958 68.9515 19.7958 69.6635C19.7958 70.3915 19.6878 71.0115 19.4718 71.5235C19.2638 72.0275 18.9318 72.4115 18.4758 72.6755C18.0198 72.9395 17.4238 73.0715 16.6878 73.0715ZM22.9251 72.9155V68.5715C22.9251 68.2355 22.8451 67.9915 22.6851 67.8395C22.5331 67.6875 22.2811 67.6115 21.9291 67.6115C21.6651 67.6115 21.4211 67.6475 21.1971 67.7195C20.9811 67.7915 20.7771 67.8795 20.5851 67.9835V66.5435C20.7611 66.4635 21.0091 66.3835 21.3291 66.3035C21.6491 66.2235 22.0251 66.1835 22.4571 66.1835C22.8971 66.1835 23.2851 66.2475 23.6211 66.3755C23.9651 66.5035 24.2331 66.7195 24.4251 67.0235C24.6251 67.3195 24.7251 67.7275 24.7251 68.2475V72.9155H22.9251ZM26.3999 72.9155V69.0155C26.3999 68.0955 26.6439 67.3955 27.1319 66.9155C27.6199 66.4275 28.3919 66.1835 29.4479 66.1835C30.5119 66.1835 31.2799 66.4275 31.7519 66.9155C32.2319 67.3955 32.4719 68.0955 32.4719 69.0155V72.9155H30.6839V68.9915C30.6839 68.5675 30.5839 68.2355 30.3839 67.9955C30.1919 67.7475 29.8719 67.6235 29.4239 67.6235C28.9839 67.6235 28.6639 67.7475 28.4639 67.9955C28.2719 68.2355 28.1759 68.5675 28.1759 68.9915V70.0355L28.2119 70.0475C28.3639 69.7355 28.5439 69.5315 28.7519 69.4355C28.9679 69.3315 29.2599 69.2795 29.6279 69.2795H29.9039V70.6235H29.6279C29.2279 70.6235 28.9239 70.6915 28.7159 70.8275C28.5079 70.9635 28.3639 71.1435 28.2839 71.3675C28.2119 71.5835 28.1759 71.8275 28.1759 72.0995V72.9155H26.3999ZM35.8977 72.9155V68.5715C35.8977 68.2355 35.8177 67.9915 35.6577 67.8395C35.5057 67.6875 35.2537 67.6115 34.9017 67.6115C34.6377 67.6115 34.3937 67.6475 34.1697 67.7195C33.9537 67.7915 33.7497 67.8795 33.5577 67.9835V66.5435C33.7337 66.4635 33.9817 66.3835 34.3017 66.3035C34.6217 66.2235 34.9977 66.1835 35.4297 66.1835C35.8697 66.1835 36.2577 66.2475 36.5937 66.3755C36.9377 66.5035 37.2057 66.7195 37.3977 67.0235C37.5977 67.3195 37.6977 67.7275 37.6977 68.2475V72.9155H35.8977ZM41.6286 73.0715C41.1566 73.0715 40.6806 73.0195 40.2006 72.9155C39.7286 72.8115 39.3086 72.6635 38.9406 72.4715L39.4446 71.0435C39.6046 71.1315 39.7966 71.2235 40.0206 71.3195C40.2446 71.4155 40.4886 71.4955 40.7526 71.5595C41.0166 71.6235 41.2846 71.6555 41.5566 71.6555C41.8766 71.6555 42.1166 71.6115 42.2766 71.5235C42.4446 71.4275 42.5286 71.2835 42.5286 71.0915C42.5286 70.9475 42.4726 70.8315 42.3606 70.7435C42.2566 70.6475 42.1006 70.5595 41.8926 70.4795C41.6846 70.3915 41.4366 70.2995 41.1486 70.2035C40.7246 70.0515 40.3606 69.8875 40.0566 69.7115C39.7526 69.5355 39.5166 69.3195 39.3486 69.0635C39.1886 68.8075 39.1086 68.4875 39.1086 68.1035C39.1086 67.6635 39.2206 67.3035 39.4446 67.0235C39.6686 66.7435 39.9846 66.5355 40.3926 66.3995C40.8006 66.2555 41.2766 66.1835 41.8206 66.1835C42.2686 66.1835 42.6726 66.2195 43.0326 66.2915C43.3926 66.3635 43.6726 66.4555 43.8726 66.5675V67.9835C43.7366 67.9195 43.5566 67.8555 43.3326 67.7915C43.1166 67.7275 42.8806 67.6755 42.6246 67.6355C42.3766 67.5875 42.1366 67.5635 41.9046 67.5635C41.5766 67.5635 41.3286 67.6075 41.1606 67.6955C40.9926 67.7835 40.9086 67.9075 40.9086 68.0675C40.9086 68.1955 40.9646 68.3035 41.0766 68.3915C41.1966 68.4795 41.3686 68.5635 41.5926 68.6435C41.8166 68.7155 42.0846 68.8075 42.3966 68.9195C42.8126 69.0635 43.1646 69.2235 43.4526 69.3995C43.7406 69.5755 43.9566 69.7915 44.1006 70.0475C44.2526 70.3035 44.3286 70.6195 44.3286 70.9955C44.3286 71.3555 44.2446 71.6955 44.0766 72.0155C43.9166 72.3275 43.6406 72.5835 43.2486 72.7835C42.8566 72.9755 42.3166 73.0715 41.6286 73.0715ZM48.5475 73.0715C47.5075 73.0715 46.7515 72.8315 46.2795 72.3515C45.8155 71.8635 45.5835 71.1595 45.5835 70.2395V66.3395H47.3835V70.3355C47.3835 70.7595 47.4755 71.0835 47.6595 71.3075C47.8515 71.5235 48.1475 71.6315 48.5475 71.6315C48.9475 71.6315 49.2395 71.5235 49.4235 71.3075C49.6155 71.0835 49.7115 70.7595 49.7115 70.3355V66.3395H51.5115V70.2395C51.5115 71.1595 51.2755 71.8635 50.8035 72.3515C50.3395 72.8315 49.5875 73.0715 48.5475 73.0715ZM49.6658 76.0475V74.9795C49.6658 74.7795 49.5778 74.6795 49.4018 74.6795C49.3618 74.6795 49.3218 74.6835 49.2818 74.6915C49.2418 74.6995 49.2018 74.7115 49.1618 74.7275L49.0778 73.8635C49.1898 73.8235 49.3458 73.7835 49.5458 73.7435C49.7378 73.7035 49.9338 73.6835 50.1338 73.6835C50.5258 73.6835 50.8018 73.7595 50.9618 73.9115C51.1218 74.0715 51.2018 74.2875 51.2018 74.5595V76.0475H49.6658ZM59.513 75.2675C59.153 75.2675 58.793 75.2315 58.433 75.1595C58.073 75.0955 57.741 74.9955 57.437 74.8595V73.3355C57.645 73.4635 57.909 73.5755 58.229 73.6715C58.557 73.7755 58.901 73.8275 59.261 73.8275C59.605 73.8275 59.897 73.7755 60.137 73.6715C60.385 73.5675 60.573 73.4075 60.701 73.1915C60.837 72.9755 60.905 72.6995 60.905 72.3635V72.0155H60.821C60.669 72.2395 60.449 72.4315 60.161 72.5915C59.881 72.7515 59.517 72.8315 59.069 72.8315C58.669 72.8315 58.317 72.7595 58.013 72.6155C57.717 72.4715 57.485 72.2475 57.317 71.9435C57.149 71.6315 57.065 71.2315 57.065 70.7435V68.7275C57.065 68.4475 57.013 68.2275 56.909 68.0675C56.813 67.8995 56.681 67.7795 56.513 67.7075C56.345 67.6355 56.153 67.5995 55.937 67.5995C55.633 67.5995 55.381 67.6675 55.181 67.8035C54.981 67.9315 54.873 68.1275 54.857 68.3915L55.901 68.8955L55.781 69.6755C55.485 69.6835 55.261 69.7555 55.109 69.8915C54.957 70.0195 54.881 70.2475 54.881 70.5755V71.3075C54.881 71.4835 54.917 71.6115 54.989 71.6915C55.069 71.7635 55.193 71.7995 55.361 71.7995C55.433 71.7995 55.505 71.7955 55.577 71.7875C55.657 71.7715 55.725 71.7515 55.781 71.7275L55.949 72.7955C55.797 72.8755 55.625 72.9355 55.433 72.9755C55.241 73.0155 55.037 73.0355 54.821 73.0355C54.477 73.0355 54.177 72.9795 53.921 72.8675C53.673 72.7555 53.477 72.5875 53.333 72.3635C53.197 72.1315 53.129 71.8435 53.129 71.4995V70.7195C53.129 70.2475 53.233 69.8995 53.441 69.6755C53.649 69.4515 53.937 69.2835 54.305 69.1715L54.317 69.1235L53.009 68.6555V68.3435C53.009 67.9355 53.121 67.5715 53.345 67.2515C53.577 66.9235 53.913 66.6635 54.353 66.4715C54.793 66.2795 55.329 66.1835 55.961 66.1835C56.553 66.1835 57.061 66.2755 57.485 66.4595C57.917 66.6355 58.249 66.9035 58.481 67.2635C58.713 67.6155 58.829 68.0595 58.829 68.5955V70.2035C58.829 70.5875 58.913 70.8635 59.081 71.0315C59.249 71.1995 59.457 71.2835 59.705 71.2835C59.937 71.2835 60.137 71.2195 60.305 71.0915C60.473 70.9555 60.605 70.7715 60.701 70.5395C60.797 70.2995 60.845 70.0195 60.845 69.6995V66.3395H62.645V72.1115C62.645 72.8235 62.525 73.4115 62.285 73.8755C62.053 74.3475 61.705 74.6955 61.241 74.9195C60.777 75.1515 60.201 75.2675 59.513 75.2675ZM66.6833 73.0715C66.2113 73.0715 65.7353 73.0195 65.2553 72.9155C64.7833 72.8115 64.3633 72.6635 63.9953 72.4715L64.4993 71.0435C64.6593 71.1315 64.8513 71.2235 65.0753 71.3195C65.2993 71.4155 65.5433 71.4955 65.8073 71.5595C66.0713 71.6235 66.3393 71.6555 66.6113 71.6555C66.9313 71.6555 67.1713 71.6115 67.3313 71.5235C67.4993 71.4275 67.5833 71.2835 67.5833 71.0915C67.5833 70.9475 67.5273 70.8315 67.4153 70.7435C67.3113 70.6475 67.1553 70.5595 66.9473 70.4795C66.7393 70.3915 66.4913 70.2995 66.2033 70.2035C65.7793 70.0515 65.4153 69.8875 65.1113 69.7115C64.8073 69.5355 64.5713 69.3195 64.4033 69.0635C64.2433 68.8075 64.1633 68.4875 64.1633 68.1035C64.1633 67.6635 64.2753 67.3035 64.4993 67.0235C64.7233 66.7435 65.0393 66.5355 65.4473 66.3995C65.8553 66.2555 66.3313 66.1835 66.8753 66.1835C67.3233 66.1835 67.7273 66.2195 68.0873 66.2915C68.4473 66.3635 68.7273 66.4555 68.9273 66.5675V67.9835C68.7913 67.9195 68.6113 67.8555 68.3873 67.7915C68.1713 67.7275 67.9353 67.6755 67.6793 67.6355C67.4313 67.5875 67.1913 67.5635 66.9593 67.5635C66.6313 67.5635 66.3833 67.6075 66.2153 67.6955C66.0473 67.7835 65.9633 67.9075 65.9633 68.0675C65.9633 68.1955 66.0193 68.3035 66.1313 68.3915C66.2513 68.4795 66.4233 68.5635 66.6473 68.6435C66.8713 68.7155 67.1393 68.8075 67.4513 68.9195C67.8673 69.0635 68.2193 69.2235 68.5073 69.3995C68.7953 69.5755 69.0113 69.7915 69.1553 70.0475C69.3073 70.3035 69.3833 70.6195 69.3833 70.9955C69.3833 71.3555 69.2993 71.6955 69.1313 72.0155C68.9713 72.3275 68.6953 72.5835 68.3033 72.7835C67.9113 72.9755 67.3713 73.0715 66.6833 73.0715ZM73.2542 73.0715C72.2782 73.0715 71.5542 72.8355 71.0822 72.3635C70.6102 71.8835 70.3742 71.1755 70.3742 70.2395C70.3742 70.0795 70.3782 69.8875 70.3862 69.6635C70.4022 69.4315 70.4222 69.2275 70.4462 69.0515H73.3262V70.1915H72.1382V70.3595C72.1382 70.6795 72.1782 70.9435 72.2582 71.1515C72.3382 71.3515 72.4582 71.4995 72.6182 71.5955C72.7862 71.6915 72.9942 71.7395 73.2422 71.7395C73.5142 71.7395 73.7422 71.6795 73.9262 71.5595C74.1182 71.4395 74.2622 71.2355 74.3582 70.9475C74.4622 70.6595 74.5142 70.2635 74.5142 69.7595C74.5142 69.2875 74.4582 68.8955 74.3462 68.5835C74.2422 68.2635 74.0622 68.0235 73.8062 67.8635C73.5582 67.7035 73.2142 67.6235 72.7742 67.6235C72.5342 67.6235 72.2862 67.6515 72.0302 67.7075C71.7742 67.7555 71.5302 67.8195 71.2982 67.8995C71.0742 67.9795 70.8782 68.0675 70.7102 68.1635V66.6635C70.8862 66.5675 71.1022 66.4835 71.3582 66.4115C71.6222 66.3395 71.9062 66.2835 72.2102 66.2435C72.5142 66.2035 72.8142 66.1835 73.1102 66.1835C73.8862 66.1835 74.5102 66.3275 74.9822 66.6155C75.4622 66.8955 75.8102 67.2955 76.0262 67.8155C76.2502 68.3355 76.3622 68.9515 76.3622 69.6635C76.3622 70.3915 76.2542 71.0115 76.0382 71.5235C75.8302 72.0275 75.4982 72.4115 75.0422 72.6755C74.5862 72.9395 73.9902 73.0715 73.2542 73.0715ZM80.1155 73.0355C79.4675 73.0355 78.9515 72.8955 78.5675 72.6155C78.1835 72.3275 77.9075 71.9355 77.7395 71.4395C77.5715 70.9355 77.4875 70.3595 77.4875 69.7115C77.4875 69.0155 77.5635 68.4395 77.7155 67.9835C77.8755 67.5195 78.0995 67.1595 78.3875 66.9035C78.6755 66.6395 79.0155 66.4555 79.4075 66.3515C79.8075 66.2395 80.2435 66.1835 80.7155 66.1835C81.4355 66.1835 82.0115 66.2835 82.4435 66.4835C82.8755 66.6835 83.1875 66.9675 83.3795 67.3355C83.5795 67.7035 83.6795 68.1355 83.6795 68.6315V72.9155H81.8795V68.7755C81.8795 68.3995 81.7875 68.1155 81.6035 67.9235C81.4275 67.7235 81.1315 67.6235 80.7155 67.6235C80.4355 67.6235 80.1875 67.6835 79.9715 67.8035C79.7635 67.9155 79.5995 68.1195 79.4795 68.4155C79.3675 68.7115 79.3115 69.1355 79.3115 69.6875C79.3115 70.0635 79.3475 70.3955 79.4195 70.6835C79.4915 70.9715 79.6075 71.1955 79.7675 71.3555C79.9355 71.5155 80.1595 71.5955 80.4395 71.5955C80.5275 71.5955 80.6115 71.5915 80.6915 71.5835C80.7795 71.5675 80.8555 71.5515 80.9195 71.5355L81.0875 72.8795C80.9595 72.9355 80.8035 72.9755 80.6195 72.9995C80.4435 73.0235 80.2755 73.0355 80.1155 73.0355ZM27.9401 88.0715C26.9001 88.0715 26.1441 87.8315 25.6721 87.3515C25.2081 86.8635 24.9761 86.1595 24.9761 85.2395V81.3395H26.7761V85.3355C26.7761 85.7595 26.8681 86.0835 27.0521 86.3075C27.2441 86.5235 27.5401 86.6315 27.9401 86.6315C28.3401 86.6315 28.6321 86.5235 28.8161 86.3075C29.0081 86.0835 29.1041 85.7595 29.1041 85.3355V81.3395H30.9041V85.2395C30.9041 86.1595 30.6681 86.8635 30.1961 87.3515C29.7321 87.8315 28.9801 88.0715 27.9401 88.0715ZM25.4147 80.4275V79.6715L26.6267 79.1675H30.9107V80.4275H25.4147ZM34.2136 88.0355C33.8696 88.0355 33.5696 87.9795 33.3136 87.8675C33.0656 87.7555 32.8696 87.5875 32.7256 87.3635C32.5896 87.1315 32.5216 86.8435 32.5216 86.4995V85.7195C32.5216 85.2475 32.6256 84.8995 32.8336 84.6755C33.0416 84.4515 33.3296 84.2835 33.6976 84.1715L33.7096 84.1235L32.4016 83.6555V83.3435C32.4016 82.9355 32.5136 82.5715 32.7376 82.2515C32.9696 81.9235 33.3056 81.6635 33.7456 81.4715C34.1856 81.2795 34.7216 81.1835 35.3536 81.1835C35.9456 81.1835 36.4536 81.2755 36.8776 81.4595C37.3096 81.6355 37.6416 81.9035 37.8736 82.2635C38.1056 82.6155 38.2216 83.0595 38.2216 83.5955V85.3955C38.2216 85.7795 38.3056 86.0555 38.4736 86.2235C38.6416 86.3915 38.8496 86.4755 39.0976 86.4755C39.3296 86.4755 39.5296 86.4115 39.6976 86.2835C39.8656 86.1475 39.9976 85.9635 40.0936 85.7315C40.1896 85.4915 40.2376 85.2115 40.2376 84.8915V81.3395H42.0376V87.9155H40.6456L40.4416 86.8835H40.3456C40.2016 87.2195 39.9656 87.4955 39.6376 87.7115C39.3176 87.9275 38.9176 88.0355 38.4376 88.0355C37.7816 88.0355 37.2856 87.8635 36.9496 87.5195C36.6216 87.1675 36.4576 86.6155 36.4576 85.8635V83.7275C36.4576 83.4475 36.4056 83.2275 36.3016 83.0675C36.2056 82.8995 36.0736 82.7795 35.9056 82.7075C35.7376 82.6355 35.5456 82.5995 35.3296 82.5995C35.0256 82.5995 34.7736 82.6675 34.5736 82.8035C34.3736 82.9315 34.2656 83.1275 34.2496 83.3915L35.2936 83.8955L35.1736 84.6755C34.8776 84.6835 34.6536 84.7555 34.5016 84.8915C34.3496 85.0195 34.2736 85.2475 34.2736 85.5755V86.3075C34.2736 86.4835 34.3096 86.6115 34.3816 86.6915C34.4616 86.7635 34.5856 86.7995 34.7536 86.7995C34.8256 86.7995 34.8976 86.7955 34.9696 86.7875C35.0496 86.7715 35.1176 86.7515 35.1736 86.7275L35.3416 87.7955C35.1896 87.8755 35.0176 87.9355 34.8256 87.9755C34.6336 88.0155 34.4296 88.0355 34.2136 88.0355ZM43.9878 87.9155V85.3955C43.9878 85.1395 43.9998 84.9115 44.0238 84.7115C44.0478 84.5115 44.0998 84.3195 44.1798 84.1355C44.2598 83.9515 44.3838 83.7595 44.5518 83.5595C44.6718 83.4235 44.7598 83.3195 44.8158 83.2475C44.8798 83.1755 44.9238 83.1155 44.9478 83.0675C44.9798 83.0115 44.9998 82.9515 45.0078 82.8875L44.9718 82.8755C44.8918 82.9155 44.8078 82.9475 44.7198 82.9715C44.6398 82.9955 44.5518 83.0075 44.4558 83.0075C44.1598 83.0075 43.9158 82.8995 43.7238 82.6835C43.5398 82.4675 43.4478 82.1635 43.4478 81.7715V81.3395H44.6958C44.6958 81.5635 44.7198 81.7235 44.7678 81.8195C44.8238 81.9155 44.9158 81.9635 45.0438 81.9635C45.1078 81.9635 45.1718 81.9515 45.2358 81.9275C45.3078 81.9035 45.3758 81.8595 45.4398 81.7955L45.6438 81.3395H46.5078V82.2395H46.5558C46.7558 81.9115 47.0078 81.6595 47.3118 81.4835C47.6158 81.3075 47.9678 81.2195 48.3678 81.2195C48.8878 81.2195 49.2798 81.3635 49.5438 81.6515C49.8078 81.9315 49.9398 82.3195 49.9398 82.8155V87.9155H48.1398V83.5595C48.1398 83.2715 48.0918 83.0595 47.9958 82.9235C47.9078 82.7795 47.7598 82.7075 47.5518 82.7075C47.3518 82.7075 47.1598 82.7795 46.9758 82.9235C46.7918 83.0675 46.5758 83.3075 46.3278 83.6435C46.1998 83.8195 46.0958 83.9875 46.0158 84.1475C45.9358 84.3075 45.8758 84.4835 45.8358 84.6755C45.8038 84.8595 45.7878 85.0915 45.7878 85.3715V87.9155H43.9878ZM55.3685 87.9155V83.6435C55.3685 83.2595 55.2645 82.9835 55.0565 82.8155C54.8485 82.6475 54.5285 82.5635 54.0965 82.5635C53.6805 82.5635 53.2725 82.6275 52.8725 82.7555C52.4805 82.8755 52.1405 83.0195 51.8525 83.1875V81.6995C52.0845 81.5875 52.4125 81.4755 52.8365 81.3635C53.2605 81.2435 53.7485 81.1835 54.3005 81.1835C54.7245 81.1835 55.1045 81.2355 55.4405 81.3395C55.7845 81.4435 56.0325 81.6475 56.1845 81.9515C56.5205 82.0555 56.7605 82.2595 56.9045 82.5635C57.0565 82.8595 57.1325 83.2435 57.1325 83.7155V87.9155H55.3685ZM53.4005 88.0355C52.7125 88.0355 52.1805 87.8715 51.8045 87.5435C51.4365 87.2155 51.2525 86.7555 51.2525 86.1635C51.2525 85.5235 51.4805 85.0115 51.9365 84.6275C52.4005 84.2435 53.1285 84.0115 54.1205 83.9315L55.6565 83.8115V85.1075L54.3245 85.2395C53.8445 85.2875 53.5085 85.3835 53.3165 85.5275C53.1325 85.6715 53.0405 85.8635 53.0405 86.1035C53.0405 86.3435 53.1165 86.5235 53.2685 86.6435C53.4285 86.7635 53.6325 86.8235 53.8805 86.8235C53.9765 86.8235 54.0725 86.8155 54.1685 86.7995C54.2645 86.7755 54.3525 86.7515 54.4325 86.7275L54.5885 87.8555C54.4365 87.9115 54.2565 87.9555 54.0485 87.9875C53.8405 88.0195 53.6245 88.0355 53.4005 88.0355ZM56.1485 82.6475L55.1645 81.8195C55.4445 81.7235 55.6645 81.6035 55.8245 81.4595C55.9845 81.3075 56.0685 81.1235 56.0765 80.9075H57.6485C57.6485 81.1555 57.5965 81.3955 57.4925 81.6275C57.3965 81.8515 57.2365 82.0515 57.0125 82.2275C56.7965 82.4035 56.5085 82.5435 56.1485 82.6475ZM55.3853 80.4275C55.0093 80.4275 54.7133 80.3715 54.4973 80.2595C54.2813 80.1475 54.1293 80.0075 54.0413 79.8395C53.9453 79.6635 53.8973 79.4795 53.8973 79.2875C53.8973 79.1515 53.9173 79.0075 53.9573 78.8555C53.9973 78.6955 54.0573 78.5475 54.1373 78.4115L55.4453 78.5795C55.4293 78.6355 55.4173 78.6955 55.4093 78.7595C55.3933 78.8155 55.3853 78.8675 55.3853 78.9155C55.3853 79.0275 55.4213 79.1155 55.4933 79.1795C55.5573 79.2355 55.6693 79.2635 55.8293 79.2635H58.4093V80.4275H55.3853ZM61.0873 88.0355C60.5993 88.0355 60.1873 87.9435 59.8513 87.7595C59.5233 87.5675 59.2713 87.2835 59.0953 86.9075C58.9273 86.5315 58.8433 86.0715 58.8433 85.5275V81.3395H60.6433V85.2155C60.6433 85.6555 60.7313 85.9755 60.9073 86.1755C61.0833 86.3755 61.3393 86.4755 61.6753 86.4755C62.0993 86.4755 62.4273 86.3155 62.6593 85.9955C62.8913 85.6675 63.0073 85.1635 63.0073 84.4835V81.3395H64.8073V87.9155H63.4393L63.2473 86.9075H63.1393C63.0033 87.2275 62.7673 87.4955 62.4313 87.7115C62.1033 87.9275 61.6553 88.0355 61.0873 88.0355ZM69.1091 88.0355C68.3971 88.0355 67.8411 87.8915 67.4411 87.6035C67.0491 87.3075 66.7731 86.8995 66.6131 86.3795C66.4611 85.8515 66.3851 85.2395 66.3851 84.5435C66.3851 83.7675 66.4611 83.1355 66.6131 82.6475C66.7651 82.1595 66.9931 81.7995 67.2971 81.5675C67.6091 81.3355 67.9891 81.2195 68.4371 81.2195C68.7171 81.2195 68.9611 81.2755 69.1691 81.3875C69.3851 81.4915 69.5571 81.6875 69.6851 81.9755H69.7331C69.8451 81.6795 70.0291 81.4795 70.2851 81.3755C70.5411 81.2715 70.8171 81.2195 71.1131 81.2195C71.6651 81.2195 72.0771 81.3675 72.3491 81.6635C72.6291 81.9595 72.7691 82.3915 72.7691 82.9595V87.9155H70.9691V83.2955C70.9691 83.0475 70.9291 82.8795 70.8491 82.7915C70.7691 82.7035 70.6611 82.6595 70.5251 82.6595C70.3731 82.6595 70.2571 82.7035 70.1771 82.7915C70.1051 82.8795 70.0571 83.0275 70.0331 83.2355H69.3251C69.2931 83.0035 69.2331 82.8515 69.1451 82.7795C69.0571 82.6995 68.9531 82.6595 68.8331 82.6595C68.6331 82.6595 68.4771 82.8035 68.3651 83.0915C68.2611 83.3795 68.2091 83.8675 68.2091 84.5555C68.2091 85.0035 68.2411 85.3875 68.3051 85.7075C68.3771 86.0195 68.4971 86.2595 68.6651 86.4275C68.8331 86.5875 69.0731 86.6675 69.3851 86.6675C69.4811 86.6675 69.5691 86.6635 69.6491 86.6555C69.7291 86.6395 69.7971 86.6195 69.8531 86.5955L70.0331 87.8795C69.9051 87.9355 69.7651 87.9755 69.6131 87.9995C69.4611 88.0235 69.2931 88.0355 69.1091 88.0355ZM70.2569 80.6915C70.1929 80.5795 70.1409 80.4355 70.1009 80.2595C70.0529 80.0835 70.0289 79.9075 70.0289 79.7315C70.0289 79.5075 70.0729 79.3035 70.1609 79.1195C70.2409 78.9355 70.3889 78.7915 70.6049 78.6875C70.8129 78.5755 71.1009 78.5195 71.4689 78.5195H73.2089V79.7315H72.0569C71.9049 79.7315 71.7889 79.7595 71.7089 79.8155C71.6209 79.8635 71.5769 79.9555 71.5769 80.0915C71.5769 80.1475 71.5849 80.2075 71.6009 80.2715C71.6169 80.3275 71.6409 80.3875 71.6729 80.4515L70.2569 80.6915Z" fill="#252525" fill-opacity="0.55"/>
<path d="M16.6878 73.0715C15.7118 73.0715 14.9878 72.8355 14.5158 72.3635C14.0438 71.8835 13.8078 71.1755 13.8078 70.2395C13.8078 70.0795 13.8118 69.8875 13.8198 69.6635C13.8358 69.4315 13.8558 69.2275 13.8798 69.0515H16.7598V70.1915H15.5718V70.3595C15.5718 70.6795 15.6118 70.9435 15.6918 71.1515C15.7718 71.3515 15.8918 71.4995 16.0518 71.5955C16.2198 71.6915 16.4278 71.7395 16.6758 71.7395C16.9478 71.7395 17.1758 71.6795 17.3598 71.5595C17.5518 71.4395 17.6958 71.2355 17.7918 70.9475C17.8958 70.6595 17.9478 70.2635 17.9478 69.7595C17.9478 69.2875 17.8918 68.8955 17.7798 68.5835C17.6758 68.2635 17.4958 68.0235 17.2398 67.8635C16.9918 67.7035 16.6478 67.6235 16.2078 67.6235C15.9678 67.6235 15.7198 67.6515 15.4638 67.7075C15.2078 67.7555 14.9638 67.8195 14.7318 67.8995C14.5078 67.9795 14.3118 68.0675 14.1438 68.1635V66.6635C14.3198 66.5675 14.5358 66.4835 14.7918 66.4115C15.0558 66.3395 15.3398 66.2835 15.6438 66.2435C15.9478 66.2035 16.2478 66.1835 16.5438 66.1835C17.3198 66.1835 17.9438 66.3275 18.4158 66.6155C18.8958 66.8955 19.2438 67.2955 19.4598 67.8155C19.6838 68.3355 19.7958 68.9515 19.7958 69.6635C19.7958 70.3915 19.6878 71.0115 19.4718 71.5235C19.2638 72.0275 18.9318 72.4115 18.4758 72.6755C18.0198 72.9395 17.4238 73.0715 16.6878 73.0715ZM22.9251 72.9155V68.5715C22.9251 68.2355 22.8451 67.9915 22.6851 67.8395C22.5331 67.6875 22.2811 67.6115 21.9291 67.6115C21.6651 67.6115 21.4211 67.6475 21.1971 67.7195C20.9811 67.7915 20.7771 67.8795 20.5851 67.9835V66.5435C20.7611 66.4635 21.0091 66.3835 21.3291 66.3035C21.6491 66.2235 22.0251 66.1835 22.4571 66.1835C22.8971 66.1835 23.2851 66.2475 23.6211 66.3755C23.9651 66.5035 24.2331 66.7195 24.4251 67.0235C24.6251 67.3195 24.7251 67.7275 24.7251 68.2475V72.9155H22.9251ZM26.3999 72.9155V69.0155C26.3999 68.0955 26.6439 67.3955 27.1319 66.9155C27.6199 66.4275 28.3919 66.1835 29.4479 66.1835C30.5119 66.1835 31.2799 66.4275 31.7519 66.9155C32.2319 67.3955 32.4719 68.0955 32.4719 69.0155V72.9155H30.6839V68.9915C30.6839 68.5675 30.5839 68.2355 30.3839 67.9955C30.1919 67.7475 29.8719 67.6235 29.4239 67.6235C28.9839 67.6235 28.6639 67.7475 28.4639 67.9955C28.2719 68.2355 28.1759 68.5675 28.1759 68.9915V70.0355L28.2119 70.0475C28.3639 69.7355 28.5439 69.5315 28.7519 69.4355C28.9679 69.3315 29.2599 69.2795 29.6279 69.2795H29.9039V70.6235H29.6279C29.2279 70.6235 28.9239 70.6915 28.7159 70.8275C28.5079 70.9635 28.3639 71.1435 28.2839 71.3675C28.2119 71.5835 28.1759 71.8275 28.1759 72.0995V72.9155H26.3999ZM35.8977 72.9155V68.5715C35.8977 68.2355 35.8177 67.9915 35.6577 67.8395C35.5057 67.6875 35.2537 67.6115 34.9017 67.6115C34.6377 67.6115 34.3937 67.6475 34.1697 67.7195C33.9537 67.7915 33.7497 67.8795 33.5577 67.9835V66.5435C33.7337 66.4635 33.9817 66.3835 34.3017 66.3035C34.6217 66.2235 34.9977 66.1835 35.4297 66.1835C35.8697 66.1835 36.2577 66.2475 36.5937 66.3755C36.9377 66.5035 37.2057 66.7195 37.3977 67.0235C37.5977 67.3195 37.6977 67.7275 37.6977 68.2475V72.9155H35.8977ZM41.6286 73.0715C41.1566 73.0715 40.6806 73.0195 40.2006 72.9155C39.7286 72.8115 39.3086 72.6635 38.9406 72.4715L39.4446 71.0435C39.6046 71.1315 39.7966 71.2235 40.0206 71.3195C40.2446 71.4155 40.4886 71.4955 40.7526 71.5595C41.0166 71.6235 41.2846 71.6555 41.5566 71.6555C41.8766 71.6555 42.1166 71.6115 42.2766 71.5235C42.4446 71.4275 42.5286 71.2835 42.5286 71.0915C42.5286 70.9475 42.4726 70.8315 42.3606 70.7435C42.2566 70.6475 42.1006 70.5595 41.8926 70.4795C41.6846 70.3915 41.4366 70.2995 41.1486 70.2035C40.7246 70.0515 40.3606 69.8875 40.0566 69.7115C39.7526 69.5355 39.5166 69.3195 39.3486 69.0635C39.1886 68.8075 39.1086 68.4875 39.1086 68.1035C39.1086 67.6635 39.2206 67.3035 39.4446 67.0235C39.6686 66.7435 39.9846 66.5355 40.3926 66.3995C40.8006 66.2555 41.2766 66.1835 41.8206 66.1835C42.2686 66.1835 42.6726 66.2195 43.0326 66.2915C43.3926 66.3635 43.6726 66.4555 43.8726 66.5675V67.9835C43.7366 67.9195 43.5566 67.8555 43.3326 67.7915C43.1166 67.7275 42.8806 67.6755 42.6246 67.6355C42.3766 67.5875 42.1366 67.5635 41.9046 67.5635C41.5766 67.5635 41.3286 67.6075 41.1606 67.6955C40.9926 67.7835 40.9086 67.9075 40.9086 68.0675C40.9086 68.1955 40.9646 68.3035 41.0766 68.3915C41.1966 68.4795 41.3686 68.5635 41.5926 68.6435C41.8166 68.7155 42.0846 68.8075 42.3966 68.9195C42.8126 69.0635 43.1646 69.2235 43.4526 69.3995C43.7406 69.5755 43.9566 69.7915 44.1006 70.0475C44.2526 70.3035 44.3286 70.6195 44.3286 70.9955C44.3286 71.3555 44.2446 71.6955 44.0766 72.0155C43.9166 72.3275 43.6406 72.5835 43.2486 72.7835C42.8566 72.9755 42.3166 73.0715 41.6286 73.0715ZM48.5475 73.0715C47.5075 73.0715 46.7515 72.8315 46.2795 72.3515C45.8155 71.8635 45.5835 71.1595 45.5835 70.2395V66.3395H47.3835V70.3355C47.3835 70.7595 47.4755 71.0835 47.6595 71.3075C47.8515 71.5235 48.1475 71.6315 48.5475 71.6315C48.9475 71.6315 49.2395 71.5235 49.4235 71.3075C49.6155 71.0835 49.7115 70.7595 49.7115 70.3355V66.3395H51.5115V70.2395C51.5115 71.1595 51.2755 71.8635 50.8035 72.3515C50.3395 72.8315 49.5875 73.0715 48.5475 73.0715ZM49.6658 76.0475V74.9795C49.6658 74.7795 49.5778 74.6795 49.4018 74.6795C49.3618 74.6795 49.3218 74.6835 49.2818 74.6915C49.2418 74.6995 49.2018 74.7115 49.1618 74.7275L49.0778 73.8635C49.1898 73.8235 49.3458 73.7835 49.5458 73.7435C49.7378 73.7035 49.9338 73.6835 50.1338 73.6835C50.5258 73.6835 50.8018 73.7595 50.9618 73.9115C51.1218 74.0715 51.2018 74.2875 51.2018 74.5595V76.0475H49.6658ZM59.513 75.2675C59.153 75.2675 58.793 75.2315 58.433 75.1595C58.073 75.0955 57.741 74.9955 57.437 74.8595V73.3355C57.645 73.4635 57.909 73.5755 58.229 73.6715C58.557 73.7755 58.901 73.8275 59.261 73.8275C59.605 73.8275 59.897 73.7755 60.137 73.6715C60.385 73.5675 60.573 73.4075 60.701 73.1915C60.837 72.9755 60.905 72.6995 60.905 72.3635V72.0155H60.821C60.669 72.2395 60.449 72.4315 60.161 72.5915C59.881 72.7515 59.517 72.8315 59.069 72.8315C58.669 72.8315 58.317 72.7595 58.013 72.6155C57.717 72.4715 57.485 72.2475 57.317 71.9435C57.149 71.6315 57.065 71.2315 57.065 70.7435V68.7275C57.065 68.4475 57.013 68.2275 56.909 68.0675C56.813 67.8995 56.681 67.7795 56.513 67.7075C56.345 67.6355 56.153 67.5995 55.937 67.5995C55.633 67.5995 55.381 67.6675 55.181 67.8035C54.981 67.9315 54.873 68.1275 54.857 68.3915L55.901 68.8955L55.781 69.6755C55.485 69.6835 55.261 69.7555 55.109 69.8915C54.957 70.0195 54.881 70.2475 54.881 70.5755V71.3075C54.881 71.4835 54.917 71.6115 54.989 71.6915C55.069 71.7635 55.193 71.7995 55.361 71.7995C55.433 71.7995 55.505 71.7955 55.577 71.7875C55.657 71.7715 55.725 71.7515 55.781 71.7275L55.949 72.7955C55.797 72.8755 55.625 72.9355 55.433 72.9755C55.241 73.0155 55.037 73.0355 54.821 73.0355C54.477 73.0355 54.177 72.9795 53.921 72.8675C53.673 72.7555 53.477 72.5875 53.333 72.3635C53.197 72.1315 53.129 71.8435 53.129 71.4995V70.7195C53.129 70.2475 53.233 69.8995 53.441 69.6755C53.649 69.4515 53.937 69.2835 54.305 69.1715L54.317 69.1235L53.009 68.6555V68.3435C53.009 67.9355 53.121 67.5715 53.345 67.2515C53.577 66.9235 53.913 66.6635 54.353 66.4715C54.793 66.2795 55.329 66.1835 55.961 66.1835C56.553 66.1835 57.061 66.2755 57.485 66.4595C57.917 66.6355 58.249 66.9035 58.481 67.2635C58.713 67.6155 58.829 68.0595 58.829 68.5955V70.2035C58.829 70.5875 58.913 70.8635 59.081 71.0315C59.249 71.1995 59.457 71.2835 59.705 71.2835C59.937 71.2835 60.137 71.2195 60.305 71.0915C60.473 70.9555 60.605 70.7715 60.701 70.5395C60.797 70.2995 60.845 70.0195 60.845 69.6995V66.3395H62.645V72.1115C62.645 72.8235 62.525 73.4115 62.285 73.8755C62.053 74.3475 61.705 74.6955 61.241 74.9195C60.777 75.1515 60.201 75.2675 59.513 75.2675ZM66.6833 73.0715C66.2113 73.0715 65.7353 73.0195 65.2553 72.9155C64.7833 72.8115 64.3633 72.6635 63.9953 72.4715L64.4993 71.0435C64.6593 71.1315 64.8513 71.2235 65.0753 71.3195C65.2993 71.4155 65.5433 71.4955 65.8073 71.5595C66.0713 71.6235 66.3393 71.6555 66.6113 71.6555C66.9313 71.6555 67.1713 71.6115 67.3313 71.5235C67.4993 71.4275 67.5833 71.2835 67.5833 71.0915C67.5833 70.9475 67.5273 70.8315 67.4153 70.7435C67.3113 70.6475 67.1553 70.5595 66.9473 70.4795C66.7393 70.3915 66.4913 70.2995 66.2033 70.2035C65.7793 70.0515 65.4153 69.8875 65.1113 69.7115C64.8073 69.5355 64.5713 69.3195 64.4033 69.0635C64.2433 68.8075 64.1633 68.4875 64.1633 68.1035C64.1633 67.6635 64.2753 67.3035 64.4993 67.0235C64.7233 66.7435 65.0393 66.5355 65.4473 66.3995C65.8553 66.2555 66.3313 66.1835 66.8753 66.1835C67.3233 66.1835 67.7273 66.2195 68.0873 66.2915C68.4473 66.3635 68.7273 66.4555 68.9273 66.5675V67.9835C68.7913 67.9195 68.6113 67.8555 68.3873 67.7915C68.1713 67.7275 67.9353 67.6755 67.6793 67.6355C67.4313 67.5875 67.1913 67.5635 66.9593 67.5635C66.6313 67.5635 66.3833 67.6075 66.2153 67.6955C66.0473 67.7835 65.9633 67.9075 65.9633 68.0675C65.9633 68.1955 66.0193 68.3035 66.1313 68.3915C66.2513 68.4795 66.4233 68.5635 66.6473 68.6435C66.8713 68.7155 67.1393 68.8075 67.4513 68.9195C67.8673 69.0635 68.2193 69.2235 68.5073 69.3995C68.7953 69.5755 69.0113 69.7915 69.1553 70.0475C69.3073 70.3035 69.3833 70.6195 69.3833 70.9955C69.3833 71.3555 69.2993 71.6955 69.1313 72.0155C68.9713 72.3275 68.6953 72.5835 68.3033 72.7835C67.9113 72.9755 67.3713 73.0715 66.6833 73.0715ZM73.2542 73.0715C72.2782 73.0715 71.5542 72.8355 71.0822 72.3635C70.6102 71.8835 70.3742 71.1755 70.3742 70.2395C70.3742 70.0795 70.3782 69.8875 70.3862 69.6635C70.4022 69.4315 70.4222 69.2275 70.4462 69.0515H73.3262V70.1915H72.1382V70.3595C72.1382 70.6795 72.1782 70.9435 72.2582 71.1515C72.3382 71.3515 72.4582 71.4995 72.6182 71.5955C72.7862 71.6915 72.9942 71.7395 73.2422 71.7395C73.5142 71.7395 73.7422 71.6795 73.9262 71.5595C74.1182 71.4395 74.2622 71.2355 74.3582 70.9475C74.4622 70.6595 74.5142 70.2635 74.5142 69.7595C74.5142 69.2875 74.4582 68.8955 74.3462 68.5835C74.2422 68.2635 74.0622 68.0235 73.8062 67.8635C73.5582 67.7035 73.2142 67.6235 72.7742 67.6235C72.5342 67.6235 72.2862 67.6515 72.0302 67.7075C71.7742 67.7555 71.5302 67.8195 71.2982 67.8995C71.0742 67.9795 70.8782 68.0675 70.7102 68.1635V66.6635C70.8862 66.5675 71.1022 66.4835 71.3582 66.4115C71.6222 66.3395 71.9062 66.2835 72.2102 66.2435C72.5142 66.2035 72.8142 66.1835 73.1102 66.1835C73.8862 66.1835 74.5102 66.3275 74.9822 66.6155C75.4622 66.8955 75.8102 67.2955 76.0262 67.8155C76.2502 68.3355 76.3622 68.9515 76.3622 69.6635C76.3622 70.3915 76.2542 71.0115 76.0382 71.5235C75.8302 72.0275 75.4982 72.4115 75.0422 72.6755C74.5862 72.9395 73.9902 73.0715 73.2542 73.0715ZM80.1155 73.0355C79.4675 73.0355 78.9515 72.8955 78.5675 72.6155C78.1835 72.3275 77.9075 71.9355 77.7395 71.4395C77.5715 70.9355 77.4875 70.3595 77.4875 69.7115C77.4875 69.0155 77.5635 68.4395 77.7155 67.9835C77.8755 67.5195 78.0995 67.1595 78.3875 66.9035C78.6755 66.6395 79.0155 66.4555 79.4075 66.3515C79.8075 66.2395 80.2435 66.1835 80.7155 66.1835C81.4355 66.1835 82.0115 66.2835 82.4435 66.4835C82.8755 66.6835 83.1875 66.9675 83.3795 67.3355C83.5795 67.7035 83.6795 68.1355 83.6795 68.6315V72.9155H81.8795V68.7755C81.8795 68.3995 81.7875 68.1155 81.6035 67.9235C81.4275 67.7235 81.1315 67.6235 80.7155 67.6235C80.4355 67.6235 80.1875 67.6835 79.9715 67.8035C79.7635 67.9155 79.5995 68.1195 79.4795 68.4155C79.3675 68.7115 79.3115 69.1355 79.3115 69.6875C79.3115 70.0635 79.3475 70.3955 79.4195 70.6835C79.4915 70.9715 79.6075 71.1955 79.7675 71.3555C79.9355 71.5155 80.1595 71.5955 80.4395 71.5955C80.5275 71.5955 80.6115 71.5915 80.6915 71.5835C80.7795 71.5675 80.8555 71.5515 80.9195 71.5355L81.0875 72.8795C80.9595 72.9355 80.8035 72.9755 80.6195 72.9995C80.4435 73.0235 80.2755 73.0355 80.1155 73.0355ZM27.9401 88.0715C26.9001 88.0715 26.1441 87.8315 25.6721 87.3515C25.2081 86.8635 24.9761 86.1595 24.9761 85.2395V81.3395H26.7761V85.3355C26.7761 85.7595 26.8681 86.0835 27.0521 86.3075C27.2441 86.5235 27.5401 86.6315 27.9401 86.6315C28.3401 86.6315 28.6321 86.5235 28.8161 86.3075C29.0081 86.0835 29.1041 85.7595 29.1041 85.3355V81.3395H30.9041V85.2395C30.9041 86.1595 30.6681 86.8635 30.1961 87.3515C29.7321 87.8315 28.9801 88.0715 27.9401 88.0715ZM25.4147 80.4275V79.6715L26.6267 79.1675H30.9107V80.4275H25.4147ZM34.2136 88.0355C33.8696 88.0355 33.5696 87.9795 33.3136 87.8675C33.0656 87.7555 32.8696 87.5875 32.7256 87.3635C32.5896 87.1315 32.5216 86.8435 32.5216 86.4995V85.7195C32.5216 85.2475 32.6256 84.8995 32.8336 84.6755C33.0416 84.4515 33.3296 84.2835 33.6976 84.1715L33.7096 84.1235L32.4016 83.6555V83.3435C32.4016 82.9355 32.5136 82.5715 32.7376 82.2515C32.9696 81.9235 33.3056 81.6635 33.7456 81.4715C34.1856 81.2795 34.7216 81.1835 35.3536 81.1835C35.9456 81.1835 36.4536 81.2755 36.8776 81.4595C37.3096 81.6355 37.6416 81.9035 37.8736 82.2635C38.1056 82.6155 38.2216 83.0595 38.2216 83.5955V85.3955C38.2216 85.7795 38.3056 86.0555 38.4736 86.2235C38.6416 86.3915 38.8496 86.4755 39.0976 86.4755C39.3296 86.4755 39.5296 86.4115 39.6976 86.2835C39.8656 86.1475 39.9976 85.9635 40.0936 85.7315C40.1896 85.4915 40.2376 85.2115 40.2376 84.8915V81.3395H42.0376V87.9155H40.6456L40.4416 86.8835H40.3456C40.2016 87.2195 39.9656 87.4955 39.6376 87.7115C39.3176 87.9275 38.9176 88.0355 38.4376 88.0355C37.7816 88.0355 37.2856 87.8635 36.9496 87.5195C36.6216 87.1675 36.4576 86.6155 36.4576 85.8635V83.7275C36.4576 83.4475 36.4056 83.2275 36.3016 83.0675C36.2056 82.8995 36.0736 82.7795 35.9056 82.7075C35.7376 82.6355 35.5456 82.5995 35.3296 82.5995C35.0256 82.5995 34.7736 82.6675 34.5736 82.8035C34.3736 82.9315 34.2656 83.1275 34.2496 83.3915L35.2936 83.8955L35.1736 84.6755C34.8776 84.6835 34.6536 84.7555 34.5016 84.8915C34.3496 85.0195 34.2736 85.2475 34.2736 85.5755V86.3075C34.2736 86.4835 34.3096 86.6115 34.3816 86.6915C34.4616 86.7635 34.5856 86.7995 34.7536 86.7995C34.8256 86.7995 34.8976 86.7955 34.9696 86.7875C35.0496 86.7715 35.1176 86.7515 35.1736 86.7275L35.3416 87.7955C35.1896 87.8755 35.0176 87.9355 34.8256 87.9755C34.6336 88.0155 34.4296 88.0355 34.2136 88.0355ZM43.9878 87.9155V85.3955C43.9878 85.1395 43.9998 84.9115 44.0238 84.7115C44.0478 84.5115 44.0998 84.3195 44.1798 84.1355C44.2598 83.9515 44.3838 83.7595 44.5518 83.5595C44.6718 83.4235 44.7598 83.3195 44.8158 83.2475C44.8798 83.1755 44.9238 83.1155 44.9478 83.0675C44.9798 83.0115 44.9998 82.9515 45.0078 82.8875L44.9718 82.8755C44.8918 82.9155 44.8078 82.9475 44.7198 82.9715C44.6398 82.9955 44.5518 83.0075 44.4558 83.0075C44.1598 83.0075 43.9158 82.8995 43.7238 82.6835C43.5398 82.4675 43.4478 82.1635 43.4478 81.7715V81.3395H44.6958C44.6958 81.5635 44.7198 81.7235 44.7678 81.8195C44.8238 81.9155 44.9158 81.9635 45.0438 81.9635C45.1078 81.9635 45.1718 81.9515 45.2358 81.9275C45.3078 81.9035 45.3758 81.8595 45.4398 81.7955L45.6438 81.3395H46.5078V82.2395H46.5558C46.7558 81.9115 47.0078 81.6595 47.3118 81.4835C47.6158 81.3075 47.9678 81.2195 48.3678 81.2195C48.8878 81.2195 49.2798 81.3635 49.5438 81.6515C49.8078 81.9315 49.9398 82.3195 49.9398 82.8155V87.9155H48.1398V83.5595C48.1398 83.2715 48.0918 83.0595 47.9958 82.9235C47.9078 82.7795 47.7598 82.7075 47.5518 82.7075C47.3518 82.7075 47.1598 82.7795 46.9758 82.9235C46.7918 83.0675 46.5758 83.3075 46.3278 83.6435C46.1998 83.8195 46.0958 83.9875 46.0158 84.1475C45.9358 84.3075 45.8758 84.4835 45.8358 84.6755C45.8038 84.8595 45.7878 85.0915 45.7878 85.3715V87.9155H43.9878ZM55.3685 87.9155V83.6435C55.3685 83.2595 55.2645 82.9835 55.0565 82.8155C54.8485 82.6475 54.5285 82.5635 54.0965 82.5635C53.6805 82.5635 53.2725 82.6275 52.8725 82.7555C52.4805 82.8755 52.1405 83.0195 51.8525 83.1875V81.6995C52.0845 81.5875 52.4125 81.4755 52.8365 81.3635C53.2605 81.2435 53.7485 81.1835 54.3005 81.1835C54.7245 81.1835 55.1045 81.2355 55.4405 81.3395C55.7845 81.4435 56.0325 81.6475 56.1845 81.9515C56.5205 82.0555 56.7605 82.2595 56.9045 82.5635C57.0565 82.8595 57.1325 83.2435 57.1325 83.7155V87.9155H55.3685ZM53.4005 88.0355C52.7125 88.0355 52.1805 87.8715 51.8045 87.5435C51.4365 87.2155 51.2525 86.7555 51.2525 86.1635C51.2525 85.5235 51.4805 85.0115 51.9365 84.6275C52.4005 84.2435 53.1285 84.0115 54.1205 83.9315L55.6565 83.8115V85.1075L54.3245 85.2395C53.8445 85.2875 53.5085 85.3835 53.3165 85.5275C53.1325 85.6715 53.0405 85.8635 53.0405 86.1035C53.0405 86.3435 53.1165 86.5235 53.2685 86.6435C53.4285 86.7635 53.6325 86.8235 53.8805 86.8235C53.9765 86.8235 54.0725 86.8155 54.1685 86.7995C54.2645 86.7755 54.3525 86.7515 54.4325 86.7275L54.5885 87.8555C54.4365 87.9115 54.2565 87.9555 54.0485 87.9875C53.8405 88.0195 53.6245 88.0355 53.4005 88.0355ZM56.1485 82.6475L55.1645 81.8195C55.4445 81.7235 55.6645 81.6035 55.8245 81.4595C55.9845 81.3075 56.0685 81.1235 56.0765 80.9075H57.6485C57.6485 81.1555 57.5965 81.3955 57.4925 81.6275C57.3965 81.8515 57.2365 82.0515 57.0125 82.2275C56.7965 82.4035 56.5085 82.5435 56.1485 82.6475ZM55.3853 80.4275C55.0093 80.4275 54.7133 80.3715 54.4973 80.2595C54.2813 80.1475 54.1293 80.0075 54.0413 79.8395C53.9453 79.6635 53.8973 79.4795 53.8973 79.2875C53.8973 79.1515 53.9173 79.0075 53.9573 78.8555C53.9973 78.6955 54.0573 78.5475 54.1373 78.4115L55.4453 78.5795C55.4293 78.6355 55.4173 78.6955 55.4093 78.7595C55.3933 78.8155 55.3853 78.8675 55.3853 78.9155C55.3853 79.0275 55.4213 79.1155 55.4933 79.1795C55.5573 79.2355 55.6693 79.2635 55.8293 79.2635H58.4093V80.4275H55.3853ZM61.0873 88.0355C60.5993 88.0355 60.1873 87.9435 59.8513 87.7595C59.5233 87.5675 59.2713 87.2835 59.0953 86.9075C58.9273 86.5315 58.8433 86.0715 58.8433 85.5275V81.3395H60.6433V85.2155C60.6433 85.6555 60.7313 85.9755 60.9073 86.1755C61.0833 86.3755 61.3393 86.4755 61.6753 86.4755C62.0993 86.4755 62.4273 86.3155 62.6593 85.9955C62.8913 85.6675 63.0073 85.1635 63.0073 84.4835V81.3395H64.8073V87.9155H63.4393L63.2473 86.9075H63.1393C63.0033 87.2275 62.7673 87.4955 62.4313 87.7115C62.1033 87.9275 61.6553 88.0355 61.0873 88.0355ZM69.1091 88.0355C68.3971 88.0355 67.8411 87.8915 67.4411 87.6035C67.0491 87.3075 66.7731 86.8995 66.6131 86.3795C66.4611 85.8515 66.3851 85.2395 66.3851 84.5435C66.3851 83.7675 66.4611 83.1355 66.6131 82.6475C66.7651 82.1595 66.9931 81.7995 67.2971 81.5675C67.6091 81.3355 67.9891 81.2195 68.4371 81.2195C68.7171 81.2195 68.9611 81.2755 69.1691 81.3875C69.3851 81.4915 69.5571 81.6875 69.6851 81.9755H69.7331C69.8451 81.6795 70.0291 81.4795 70.2851 81.3755C70.5411 81.2715 70.8171 81.2195 71.1131 81.2195C71.6651 81.2195 72.0771 81.3675 72.3491 81.6635C72.6291 81.9595 72.7691 82.3915 72.7691 82.9595V87.9155H70.9691V83.2955C70.9691 83.0475 70.9291 82.8795 70.8491 82.7915C70.7691 82.7035 70.6611 82.6595 70.5251 82.6595C70.3731 82.6595 70.2571 82.7035 70.1771 82.7915C70.1051 82.8795 70.0571 83.0275 70.0331 83.2355H69.3251C69.2931 83.0035 69.2331 82.8515 69.1451 82.7795C69.0571 82.6995 68.9531 82.6595 68.8331 82.6595C68.6331 82.6595 68.4771 82.8035 68.3651 83.0915C68.2611 83.3795 68.2091 83.8675 68.2091 84.5555C68.2091 85.0035 68.2411 85.3875 68.3051 85.7075C68.3771 86.0195 68.4971 86.2595 68.6651 86.4275C68.8331 86.5875 69.0731 86.6675 69.3851 86.6675C69.4811 86.6675 69.5691 86.6635 69.6491 86.6555C69.7291 86.6395 69.7971 86.6195 69.8531 86.5955L70.0331 87.8795C69.9051 87.9355 69.7651 87.9755 69.6131 87.9995C69.4611 88.0235 69.2931 88.0355 69.1091 88.0355ZM70.2569 80.6915C70.1929 80.5795 70.1409 80.4355 70.1009 80.2595C70.0529 80.0835 70.0289 79.9075 70.0289 79.7315C70.0289 79.5075 70.0729 79.3035 70.1609 79.1195C70.2409 78.9355 70.3889 78.7915 70.6049 78.6875C70.8129 78.5755 71.1009 78.5195 71.4689 78.5195H73.2089V79.7315H72.0569C71.9049 79.7315 71.7889 79.7595 71.7089 79.8155C71.6209 79.8635 71.5769 79.9555 71.5769 80.0915C71.5769 80.1475 71.5849 80.2075 71.6009 80.2715C71.6169 80.3275 71.6409 80.3875 71.6729 80.4515L70.2569 80.6915Z" fill="#9C9C9C" style="mix-blend-mode:overlay"/>
</svg>
