<svg width="110" height="103" viewBox="0 0 110 103" fill="none" xmlns="http://www.w3.org/2000/svg">
<path d="M6.79639 20.8623C4.03497 20.8623 1.79639 23.1009 1.79639 25.8623V71.9075C1.79639 74.6689 4.03496 76.9075 6.79639 76.9075H18.5917C21.3532 76.9075 23.5917 79.1461 23.5917 81.9075V89.9665C23.5917 92.7279 25.8303 94.9665 28.5917 94.9665H36.0462C37.7658 94.9665 39.1598 96.3605 39.1598 98.0801C39.1598 99.7997 40.5538 101.194 42.2734 101.194H63.4461C65.1657 101.194 66.5597 99.7997 66.5597 98.0801C66.5597 96.3605 67.9537 94.9665 69.6733 94.9665H77.7505C80.5119 94.9665 82.7505 92.7279 82.7505 89.9665V86.8893C82.7505 84.1279 84.9891 81.8893 87.7505 81.8893H103.282C106.044 81.8893 108.282 79.6507 108.282 76.8893V25.8623C108.282 23.1009 106.044 20.8623 103.282 20.8623H71.5597C68.7982 20.8623 66.5597 18.6238 66.5597 15.8623V6.55789C66.5597 3.79647 64.3211 1.55789 61.5597 1.55789H44.1598C41.3984 1.55789 39.1598 3.79647 39.1598 6.55789V15.8623C39.1598 18.6238 36.9212 20.8623 34.1598 20.8623H6.79639Z" fill="#FFF6F1" stroke="#FAD0B9" stroke-width="2"/>
<path d="M30.1468 45.4728C29.1708 45.4728 28.4468 45.2368 27.9748 44.7648C27.5028 44.2848 27.2668 43.5768 27.2668 42.6408C27.2668 42.4808 27.2708 42.2888 27.2788 42.0648C27.2948 41.8328 27.3148 41.6288 27.3388 41.4528H30.2188V42.5928H29.0308V42.7608C29.0308 43.0808 29.0708 43.3448 29.1508 43.5528C29.2308 43.7528 29.3508 43.9008 29.5108 43.9968C29.6788 44.0928 29.8868 44.1408 30.1348 44.1408C30.4068 44.1408 30.6348 44.0808 30.8188 43.9608C31.0108 43.8408 31.1548 43.6368 31.2508 43.3488C31.3548 43.0608 31.4068 42.6648 31.4068 42.1608C31.4068 41.6888 31.3508 41.2968 31.2388 40.9848C31.1348 40.6648 30.9548 40.4248 30.6988 40.2648C30.4508 40.1048 30.1068 40.0248 29.6668 40.0248C29.4268 40.0248 29.1788 40.0528 28.9228 40.1088C28.6668 40.1568 28.4228 40.2208 28.1908 40.3008C27.9668 40.3808 27.7708 40.4688 27.6028 40.5648V39.0648C27.7788 38.9688 27.9948 38.8848 28.2508 38.8128C28.5148 38.7408 28.7988 38.6848 29.1028 38.6448C29.4068 38.6048 29.7068 38.5848 30.0028 38.5848C30.7788 38.5848 31.4028 38.7288 31.8748 39.0168C32.3548 39.2968 32.7028 39.6968 32.9188 40.2168C33.1428 40.7368 33.2548 41.3528 33.2548 42.0648C33.2548 42.7928 33.1468 43.4128 32.9308 43.9248C32.7228 44.4288 32.3908 44.8128 31.9348 45.0768C31.4788 45.3408 30.8828 45.4728 30.1468 45.4728ZM36.3841 45.3168V40.9728C36.3841 40.6368 36.3041 40.3928 36.1441 40.2408C35.9921 40.0888 35.7401 40.0128 35.3881 40.0128C35.1241 40.0128 34.8801 40.0488 34.6561 40.1208C34.4401 40.1928 34.2361 40.2808 34.0441 40.3848V38.9448C34.2201 38.8648 34.4681 38.7848 34.7881 38.7048C35.1081 38.6248 35.4841 38.5848 35.9161 38.5848C36.3561 38.5848 36.7441 38.6488 37.0801 38.7768C37.4241 38.9048 37.6921 39.1208 37.8841 39.4248C38.0841 39.7208 38.1841 40.1288 38.1841 40.6488V45.3168H36.3841ZM39.8589 45.3168V41.4168C39.8589 40.4968 40.1029 39.7968 40.5909 39.3168C41.0789 38.8288 41.8509 38.5848 42.9069 38.5848C43.9709 38.5848 44.7389 38.8288 45.2109 39.3168C45.6909 39.7968 45.9309 40.4968 45.9309 41.4168V45.3168H44.1429V41.3928C44.1429 40.9688 44.0429 40.6368 43.8429 40.3968C43.6509 40.1488 43.3309 40.0248 42.8829 40.0248C42.4429 40.0248 42.1229 40.1488 41.9229 40.3968C41.7309 40.6368 41.6349 40.9688 41.6349 41.3928V42.4368L41.6709 42.4488C41.8229 42.1368 42.0029 41.9328 42.2109 41.8368C42.4269 41.7328 42.7189 41.6808 43.0869 41.6808H43.3629V43.0248H43.0869C42.6869 43.0248 42.3829 43.0928 42.1749 43.2288C41.9669 43.3648 41.8229 43.5448 41.7429 43.7688C41.6709 43.9848 41.6349 44.2288 41.6349 44.5008V45.3168H39.8589ZM49.3568 45.3168V40.9728C49.3568 40.6368 49.2768 40.3928 49.1168 40.2408C48.9648 40.0888 48.7128 40.0128 48.3608 40.0128C48.0968 40.0128 47.8528 40.0488 47.6288 40.1208C47.4128 40.1928 47.2088 40.2808 47.0168 40.3848V38.9448C47.1928 38.8648 47.4408 38.7848 47.7608 38.7048C48.0808 38.6248 48.4568 38.5848 48.8888 38.5848C49.3288 38.5848 49.7168 38.6488 50.0528 38.7768C50.3968 38.9048 50.6648 39.1208 50.8568 39.4248C51.0568 39.7208 51.1568 40.1288 51.1568 40.6488V45.3168H49.3568ZM55.0876 45.4728C54.6156 45.4728 54.1396 45.4208 53.6596 45.3168C53.1876 45.2128 52.7676 45.0648 52.3996 44.8728L52.9036 43.4448C53.0636 43.5328 53.2556 43.6248 53.4796 43.7208C53.7036 43.8168 53.9476 43.8968 54.2116 43.9608C54.4756 44.0248 54.7436 44.0568 55.0156 44.0568C55.3356 44.0568 55.5756 44.0128 55.7356 43.9248C55.9036 43.8288 55.9876 43.6848 55.9876 43.4928C55.9876 43.3488 55.9316 43.2328 55.8196 43.1448C55.7156 43.0488 55.5596 42.9608 55.3516 42.8808C55.1436 42.7928 54.8956 42.7008 54.6076 42.6048C54.1836 42.4528 53.8196 42.2888 53.5156 42.1128C53.2116 41.9368 52.9756 41.7208 52.8076 41.4648C52.6476 41.2088 52.5676 40.8888 52.5676 40.5048C52.5676 40.0648 52.6796 39.7048 52.9036 39.4248C53.1276 39.1448 53.4436 38.9368 53.8516 38.8008C54.2596 38.6568 54.7356 38.5848 55.2796 38.5848C55.7276 38.5848 56.1316 38.6208 56.4916 38.6928C56.8516 38.7648 57.1316 38.8568 57.3316 38.9688V40.3848C57.1956 40.3208 57.0156 40.2568 56.7916 40.1928C56.5756 40.1288 56.3396 40.0768 56.0836 40.0368C55.8356 39.9888 55.5956 39.9648 55.3636 39.9648C55.0356 39.9648 54.7876 40.0088 54.6196 40.0968C54.4516 40.1848 54.3676 40.3088 54.3676 40.4688C54.3676 40.5968 54.4236 40.7048 54.5356 40.7928C54.6556 40.8808 54.8276 40.9648 55.0516 41.0448C55.2756 41.1168 55.5436 41.2088 55.8556 41.3208C56.2716 41.4648 56.6236 41.6248 56.9116 41.8008C57.1996 41.9768 57.4156 42.1928 57.5596 42.4488C57.7116 42.7048 57.7876 43.0208 57.7876 43.3968C57.7876 43.7568 57.7036 44.0968 57.5356 44.4168C57.3756 44.7288 57.0996 44.9848 56.7076 45.1848C56.3156 45.3768 55.7756 45.4728 55.0876 45.4728ZM61.6585 45.4728C60.6825 45.4728 59.9585 45.2368 59.4865 44.7648C59.0145 44.2848 58.7785 43.5768 58.7785 42.6408C58.7785 42.4808 58.7825 42.2888 58.7905 42.0648C58.8065 41.8328 58.8265 41.6288 58.8505 41.4528H61.7305V42.5928H60.5425V42.7608C60.5425 43.0808 60.5825 43.3448 60.6625 43.5528C60.7425 43.7528 60.8625 43.9008 61.0225 43.9968C61.1905 44.0928 61.3985 44.1408 61.6465 44.1408C61.9185 44.1408 62.1465 44.0808 62.3305 43.9608C62.5225 43.8408 62.6665 43.6368 62.7625 43.3488C62.8665 43.0608 62.9185 42.6648 62.9185 42.1608C62.9185 41.6888 62.8625 41.2968 62.7505 40.9848C62.6465 40.6648 62.4665 40.4248 62.2105 40.2648C61.9625 40.1048 61.6185 40.0248 61.1785 40.0248C60.9385 40.0248 60.6905 40.0528 60.4345 40.1088C60.1785 40.1568 59.9345 40.2208 59.7025 40.3008C59.4785 40.3808 59.2825 40.4688 59.1145 40.5648V39.0648C59.2905 38.9688 59.5065 38.8848 59.7625 38.8128C60.0265 38.7408 60.3105 38.6848 60.6145 38.6448C60.9185 38.6048 61.2185 38.5848 61.5145 38.5848C62.2905 38.5848 62.9145 38.7288 63.3865 39.0168C63.8665 39.2968 64.2145 39.6968 64.4305 40.2168C64.6545 40.7368 64.7665 41.3528 64.7665 42.0648C64.7665 42.7928 64.6585 43.4128 64.4425 43.9248C64.2345 44.4288 63.9025 44.8128 63.4465 45.0768C62.9905 45.3408 62.3945 45.4728 61.6585 45.4728ZM68.4118 45.4728C67.9398 45.4728 67.4638 45.4208 66.9838 45.3168C66.5118 45.2128 66.0918 45.0648 65.7238 44.8728L66.2278 43.4448C66.3878 43.5328 66.5798 43.6248 66.8038 43.7208C67.0278 43.8168 67.2718 43.8968 67.5358 43.9608C67.7998 44.0248 68.0678 44.0568 68.3398 44.0568C68.6598 44.0568 68.8998 44.0128 69.0598 43.9248C69.2278 43.8288 69.3118 43.6848 69.3118 43.4928C69.3118 43.3488 69.2558 43.2328 69.1438 43.1448C69.0398 43.0488 68.8838 42.9608 68.6758 42.8808C68.4678 42.7928 68.2198 42.7008 67.9318 42.6048C67.5078 42.4528 67.1438 42.2888 66.8398 42.1128C66.5358 41.9368 66.2998 41.7208 66.1318 41.4648C65.9718 41.2088 65.8918 40.8888 65.8918 40.5048C65.8918 40.0648 66.0038 39.7048 66.2278 39.4248C66.4518 39.1448 66.7678 38.9368 67.1758 38.8008C67.5838 38.6568 68.0598 38.5848 68.6038 38.5848C69.0518 38.5848 69.4558 38.6208 69.8158 38.6928C70.1758 38.7648 70.4558 38.8568 70.6558 38.9688V40.3848C70.5198 40.3208 70.3398 40.2568 70.1158 40.1928C69.8998 40.1288 69.6638 40.0768 69.4078 40.0368C69.1598 39.9888 68.9198 39.9648 68.6878 39.9648C68.3598 39.9648 68.1118 40.0088 67.9438 40.0968C67.7758 40.1848 67.6918 40.3088 67.6918 40.4688C67.6918 40.5968 67.7478 40.7048 67.8598 40.7928C67.9798 40.8808 68.1518 40.9648 68.3758 41.0448C68.5998 41.1168 68.8678 41.2088 69.1798 41.3208C69.5958 41.4648 69.9478 41.6248 70.2358 41.8008C70.5238 41.9768 70.7398 42.1928 70.8838 42.4488C71.0358 42.7048 71.1118 43.0208 71.1118 43.3968C71.1118 43.7568 71.0278 44.0968 70.8598 44.4168C70.6998 44.7288 70.4238 44.9848 70.0318 45.1848C69.6398 45.3768 69.0998 45.4728 68.4118 45.4728ZM68.949 48.4488V47.3808C68.949 47.1808 68.861 47.0808 68.685 47.0808C68.645 47.0808 68.605 47.0848 68.565 47.0928C68.525 47.1008 68.485 47.1128 68.445 47.1288L68.361 46.2648C68.473 46.2248 68.629 46.1848 68.829 46.1448C69.021 46.1048 69.217 46.0848 69.417 46.0848C69.809 46.0848 70.085 46.1608 70.245 46.3128C70.405 46.4728 70.485 46.6888 70.485 46.9608V48.4488H68.949ZM73.9988 45.4368C73.6548 45.4368 73.3548 45.3808 73.0988 45.2688C72.8508 45.1568 72.6548 44.9888 72.5108 44.7648C72.3748 44.5328 72.3068 44.2448 72.3068 43.9008V43.1208C72.3068 42.6488 72.4108 42.3008 72.6188 42.0768C72.8268 41.8528 73.1148 41.6848 73.4828 41.5728L73.4948 41.5248L72.1868 41.0568V40.7448C72.1868 40.3368 72.2988 39.9728 72.5228 39.6528C72.7548 39.3248 73.0908 39.0648 73.5308 38.8728C73.9708 38.6808 74.5068 38.5848 75.1388 38.5848C75.7308 38.5848 76.2388 38.6768 76.6628 38.8608C77.0948 39.0368 77.4268 39.3048 77.6588 39.6648C77.8908 40.0168 78.0068 40.4608 78.0068 40.9968V42.7968C78.0068 43.1808 78.0908 43.4568 78.2588 43.6248C78.4268 43.7928 78.6348 43.8768 78.8828 43.8768C79.1148 43.8768 79.3148 43.8128 79.4828 43.6848C79.6508 43.5488 79.7828 43.3648 79.8788 43.1328C79.9748 42.8928 80.0228 42.6128 80.0228 42.2928V38.7408H81.8228V45.3168H80.4308L80.2268 44.2848H80.1308C79.9868 44.6208 79.7508 44.8968 79.4228 45.1128C79.1028 45.3288 78.7028 45.4368 78.2228 45.4368C77.5668 45.4368 77.0708 45.2648 76.7348 44.9208C76.4068 44.5688 76.2428 44.0168 76.2428 43.2648V41.1288C76.2428 40.8488 76.1908 40.6288 76.0868 40.4688C75.9908 40.3008 75.8588 40.1808 75.6908 40.1088C75.5228 40.0368 75.3308 40.0008 75.1148 40.0008C74.8108 40.0008 74.5588 40.0688 74.3588 40.2048C74.1588 40.3328 74.0508 40.5288 74.0348 40.7928L75.0788 41.2968L74.9588 42.0768C74.6628 42.0848 74.4388 42.1568 74.2868 42.2928C74.1348 42.4208 74.0588 42.6488 74.0588 42.9768V43.7088C74.0588 43.8848 74.0948 44.0128 74.1668 44.0928C74.2468 44.1648 74.3708 44.2008 74.5388 44.2008C74.6108 44.2008 74.6828 44.1968 74.7548 44.1888C74.8348 44.1728 74.9028 44.1528 74.9588 44.1288L75.1268 45.1968C74.9748 45.2768 74.8028 45.3368 74.6108 45.3768C74.4188 45.4168 74.2148 45.4368 73.9988 45.4368ZM38.8569 60.3168V56.0448C38.8569 55.6608 38.7529 55.3848 38.5449 55.2168C38.3369 55.0488 38.0169 54.9648 37.5849 54.9648C37.1689 54.9648 36.7609 55.0288 36.3609 55.1568C35.9689 55.2768 35.6289 55.4208 35.3409 55.5888V54.1008C35.5729 53.9888 35.9009 53.8768 36.3249 53.7648C36.7489 53.6448 37.2369 53.5848 37.7889 53.5848C38.2129 53.5848 38.5929 53.6368 38.9289 53.7408C39.2729 53.8448 39.5209 54.0488 39.6729 54.3528C40.0089 54.4568 40.2489 54.6608 40.3929 54.9648C40.5449 55.2608 40.6209 55.6448 40.6209 56.1168V60.3168H38.8569ZM36.8889 60.4368C36.2009 60.4368 35.6689 60.2728 35.2929 59.9448C34.9249 59.6168 34.7409 59.1568 34.7409 58.5648C34.7409 57.9248 34.9689 57.4128 35.4249 57.0288C35.8889 56.6448 36.6169 56.4128 37.6089 56.3328L39.1449 56.2128V57.5088L37.8129 57.6408C37.3329 57.6888 36.9969 57.7848 36.8049 57.9288C36.6209 58.0728 36.5289 58.2648 36.5289 58.5048C36.5289 58.7448 36.6049 58.9248 36.7569 59.0448C36.9169 59.1648 37.1209 59.2248 37.3689 59.2248C37.4649 59.2248 37.5609 59.2168 37.6569 59.2008C37.7529 59.1768 37.8409 59.1528 37.9209 59.1288L38.0769 60.2568C37.9249 60.3128 37.7449 60.3568 37.5369 60.3888C37.3289 60.4208 37.1129 60.4368 36.8889 60.4368ZM39.6369 55.0488L38.6529 54.2208C38.9329 54.1248 39.1529 54.0048 39.3129 53.8608C39.4729 53.7088 39.5569 53.5248 39.5649 53.3088H41.1369C41.1369 53.5568 41.0849 53.7968 40.9809 54.0288C40.8849 54.2528 40.7249 54.4528 40.5009 54.6288C40.2849 54.8048 39.9969 54.9448 39.6369 55.0488ZM44.5876 60.4728C44.1156 60.4728 43.6396 60.4208 43.1596 60.3168C42.6876 60.2128 42.2676 60.0648 41.8996 59.8728L42.4036 58.4448C42.5636 58.5328 42.7556 58.6248 42.9796 58.7208C43.2036 58.8168 43.4476 58.8968 43.7116 58.9608C43.9756 59.0248 44.2436 59.0568 44.5156 59.0568C44.8356 59.0568 45.0756 59.0128 45.2356 58.9248C45.4036 58.8288 45.4876 58.6848 45.4876 58.4928C45.4876 58.3488 45.4316 58.2328 45.3196 58.1448C45.2156 58.0488 45.0596 57.9608 44.8516 57.8808C44.6436 57.7928 44.3956 57.7008 44.1076 57.6048C43.6836 57.4528 43.3196 57.2888 43.0156 57.1128C42.7116 56.9368 42.4756 56.7208 42.3076 56.4648C42.1476 56.2088 42.0676 55.8888 42.0676 55.5048C42.0676 55.0648 42.1796 54.7048 42.4036 54.4248C42.6276 54.1448 42.9436 53.9368 43.3516 53.8008C43.7596 53.6568 44.2356 53.5848 44.7796 53.5848C45.2276 53.5848 45.6316 53.6208 45.9916 53.6928C46.3516 53.7648 46.6316 53.8568 46.8316 53.9688V55.3848C46.6956 55.3208 46.5156 55.2568 46.2916 55.1928C46.0756 55.1288 45.8396 55.0768 45.5836 55.0368C45.3356 54.9888 45.0956 54.9648 44.8636 54.9648C44.5356 54.9648 44.2876 55.0088 44.1196 55.0968C43.9516 55.1848 43.8676 55.3088 43.8676 55.4688C43.8676 55.5968 43.9236 55.7048 44.0356 55.7928C44.1556 55.8808 44.3276 55.9648 44.5516 56.0448C44.7756 56.1168 45.0436 56.2088 45.3556 56.3208C45.7716 56.4648 46.1236 56.6248 46.4116 56.8008C46.6996 56.9768 46.9156 57.1928 47.0596 57.4488C47.2116 57.7048 47.2876 58.0208 47.2876 58.3968C47.2876 58.7568 47.2036 59.0968 47.0356 59.4168C46.8756 59.7288 46.5996 59.9848 46.2076 60.1848C45.8156 60.3768 45.2756 60.4728 44.5876 60.4728ZM50.3905 60.4368C50.0305 60.4368 49.7265 60.3808 49.4785 60.2688C49.2305 60.1568 49.0425 59.9888 48.9145 59.7648C48.7865 59.5328 48.7225 59.2448 48.7225 58.9008V53.7408H50.5225V58.6848C50.5225 58.8368 50.5545 58.9488 50.6185 59.0208C50.6905 59.0928 50.7985 59.1288 50.9425 59.1288C51.0065 59.1288 51.0745 59.1208 51.1465 59.1048C51.2185 59.0888 51.2865 59.0688 51.3505 59.0448L51.5185 60.1968C51.3665 60.2768 51.1945 60.3368 51.0025 60.3768C50.8105 60.4168 50.6065 60.4368 50.3905 60.4368ZM52.7164 60.3168V53.7408H54.0364L54.2764 54.7728H54.3724C54.5084 54.4448 54.7444 54.1728 55.0804 53.9568C55.4164 53.7328 55.8524 53.6208 56.3884 53.6208C56.9004 53.6208 57.3244 53.7128 57.6604 53.8968C57.9964 54.0728 58.2484 54.3448 58.4164 54.7128C58.5924 55.0728 58.6804 55.5288 58.6804 56.0808V60.3168H56.8804V56.4408C56.8804 55.9928 56.7884 55.6728 56.6044 55.4808C56.4284 55.2808 56.1684 55.1808 55.8244 55.1808C55.5444 55.1808 55.3044 55.2568 55.1044 55.4088C54.9124 55.5608 54.7644 55.7848 54.6604 56.0808C54.5644 56.3688 54.5164 56.7328 54.5164 57.1728V60.3168H52.7164ZM60.355 60.3168V56.4168C60.355 55.4968 60.599 54.7968 61.087 54.3168C61.575 53.8288 62.351 53.5848 63.415 53.5848C63.871 53.5848 64.275 53.6488 64.627 53.7768C64.979 53.8968 65.247 54.1128 65.431 54.4248C65.807 54.5688 66.067 54.8168 66.211 55.1688C66.363 55.5208 66.439 55.9408 66.439 56.4288V60.3168H64.651V56.3928C64.651 55.9688 64.551 55.6368 64.351 55.3968C64.159 55.1488 63.843 55.0248 63.403 55.0248C62.963 55.0248 62.643 55.1488 62.443 55.3968C62.243 55.6368 62.143 55.9688 62.143 56.3928V57.4368L62.179 57.4488C62.339 57.1368 62.523 56.9328 62.731 56.8368C62.939 56.7328 63.227 56.6808 63.595 56.6808H63.883V58.0248H63.595C63.203 58.0248 62.899 58.0928 62.683 58.2288C62.475 58.3648 62.331 58.5448 62.251 58.7688C62.179 58.9848 62.143 59.2288 62.143 59.5008V60.3168H60.355ZM65.491 55.0488L64.507 54.2208C64.787 54.1248 65.007 54.0048 65.167 53.8608C65.327 53.7088 65.411 53.5248 65.419 53.3088H66.991C66.991 53.5568 66.939 53.7968 66.835 54.0288C66.739 54.2528 66.579 54.4528 66.355 54.6288C66.139 54.8048 65.851 54.9448 65.491 55.0488ZM70.5092 60.4368C70.0212 60.4368 69.6092 60.3448 69.2732 60.1608C68.9452 59.9688 68.6932 59.6848 68.5172 59.3088C68.3492 58.9328 68.2652 58.4728 68.2652 57.9288V53.7408H70.0652V57.6168C70.0652 58.0568 70.1532 58.3768 70.3292 58.5768C70.5052 58.7768 70.7612 58.8768 71.0972 58.8768C71.5212 58.8768 71.8492 58.7168 72.0812 58.3968C72.3132 58.0688 72.4292 57.5648 72.4292 56.8848V53.7408H74.2292V60.3168H72.8612L72.6692 59.3088H72.5612C72.4252 59.6288 72.1892 59.8968 71.8532 60.1128C71.5252 60.3288 71.0772 60.4368 70.5092 60.4368ZM72.003 53.0928C71.939 52.9808 71.887 52.8368 71.847 52.6608C71.799 52.4848 71.775 52.3088 71.775 52.1328C71.775 51.9088 71.819 51.7048 71.907 51.5208C71.987 51.3368 72.135 51.1928 72.351 51.0888C72.559 50.9768 72.847 50.9208 73.215 50.9208H74.955V52.1328H73.803C73.651 52.1328 73.535 52.1608 73.455 52.2168C73.367 52.2648 73.323 52.3568 73.323 52.4928C73.323 52.5488 73.331 52.6088 73.347 52.6728C73.363 52.7288 73.387 52.7888 73.419 52.8528L72.003 53.0928Z" fill="#252525" fill-opacity="0.55"/>
<path d="M30.1468 45.4728C29.1708 45.4728 28.4468 45.2368 27.9748 44.7648C27.5028 44.2848 27.2668 43.5768 27.2668 42.6408C27.2668 42.4808 27.2708 42.2888 27.2788 42.0648C27.2948 41.8328 27.3148 41.6288 27.3388 41.4528H30.2188V42.5928H29.0308V42.7608C29.0308 43.0808 29.0708 43.3448 29.1508 43.5528C29.2308 43.7528 29.3508 43.9008 29.5108 43.9968C29.6788 44.0928 29.8868 44.1408 30.1348 44.1408C30.4068 44.1408 30.6348 44.0808 30.8188 43.9608C31.0108 43.8408 31.1548 43.6368 31.2508 43.3488C31.3548 43.0608 31.4068 42.6648 31.4068 42.1608C31.4068 41.6888 31.3508 41.2968 31.2388 40.9848C31.1348 40.6648 30.9548 40.4248 30.6988 40.2648C30.4508 40.1048 30.1068 40.0248 29.6668 40.0248C29.4268 40.0248 29.1788 40.0528 28.9228 40.1088C28.6668 40.1568 28.4228 40.2208 28.1908 40.3008C27.9668 40.3808 27.7708 40.4688 27.6028 40.5648V39.0648C27.7788 38.9688 27.9948 38.8848 28.2508 38.8128C28.5148 38.7408 28.7988 38.6848 29.1028 38.6448C29.4068 38.6048 29.7068 38.5848 30.0028 38.5848C30.7788 38.5848 31.4028 38.7288 31.8748 39.0168C32.3548 39.2968 32.7028 39.6968 32.9188 40.2168C33.1428 40.7368 33.2548 41.3528 33.2548 42.0648C33.2548 42.7928 33.1468 43.4128 32.9308 43.9248C32.7228 44.4288 32.3908 44.8128 31.9348 45.0768C31.4788 45.3408 30.8828 45.4728 30.1468 45.4728ZM36.3841 45.3168V40.9728C36.3841 40.6368 36.3041 40.3928 36.1441 40.2408C35.9921 40.0888 35.7401 40.0128 35.3881 40.0128C35.1241 40.0128 34.8801 40.0488 34.6561 40.1208C34.4401 40.1928 34.2361 40.2808 34.0441 40.3848V38.9448C34.2201 38.8648 34.4681 38.7848 34.7881 38.7048C35.1081 38.6248 35.4841 38.5848 35.9161 38.5848C36.3561 38.5848 36.7441 38.6488 37.0801 38.7768C37.4241 38.9048 37.6921 39.1208 37.8841 39.4248C38.0841 39.7208 38.1841 40.1288 38.1841 40.6488V45.3168H36.3841ZM39.8589 45.3168V41.4168C39.8589 40.4968 40.1029 39.7968 40.5909 39.3168C41.0789 38.8288 41.8509 38.5848 42.9069 38.5848C43.9709 38.5848 44.7389 38.8288 45.2109 39.3168C45.6909 39.7968 45.9309 40.4968 45.9309 41.4168V45.3168H44.1429V41.3928C44.1429 40.9688 44.0429 40.6368 43.8429 40.3968C43.6509 40.1488 43.3309 40.0248 42.8829 40.0248C42.4429 40.0248 42.1229 40.1488 41.9229 40.3968C41.7309 40.6368 41.6349 40.9688 41.6349 41.3928V42.4368L41.6709 42.4488C41.8229 42.1368 42.0029 41.9328 42.2109 41.8368C42.4269 41.7328 42.7189 41.6808 43.0869 41.6808H43.3629V43.0248H43.0869C42.6869 43.0248 42.3829 43.0928 42.1749 43.2288C41.9669 43.3648 41.8229 43.5448 41.7429 43.7688C41.6709 43.9848 41.6349 44.2288 41.6349 44.5008V45.3168H39.8589ZM49.3568 45.3168V40.9728C49.3568 40.6368 49.2768 40.3928 49.1168 40.2408C48.9648 40.0888 48.7128 40.0128 48.3608 40.0128C48.0968 40.0128 47.8528 40.0488 47.6288 40.1208C47.4128 40.1928 47.2088 40.2808 47.0168 40.3848V38.9448C47.1928 38.8648 47.4408 38.7848 47.7608 38.7048C48.0808 38.6248 48.4568 38.5848 48.8888 38.5848C49.3288 38.5848 49.7168 38.6488 50.0528 38.7768C50.3968 38.9048 50.6648 39.1208 50.8568 39.4248C51.0568 39.7208 51.1568 40.1288 51.1568 40.6488V45.3168H49.3568ZM55.0876 45.4728C54.6156 45.4728 54.1396 45.4208 53.6596 45.3168C53.1876 45.2128 52.7676 45.0648 52.3996 44.8728L52.9036 43.4448C53.0636 43.5328 53.2556 43.6248 53.4796 43.7208C53.7036 43.8168 53.9476 43.8968 54.2116 43.9608C54.4756 44.0248 54.7436 44.0568 55.0156 44.0568C55.3356 44.0568 55.5756 44.0128 55.7356 43.9248C55.9036 43.8288 55.9876 43.6848 55.9876 43.4928C55.9876 43.3488 55.9316 43.2328 55.8196 43.1448C55.7156 43.0488 55.5596 42.9608 55.3516 42.8808C55.1436 42.7928 54.8956 42.7008 54.6076 42.6048C54.1836 42.4528 53.8196 42.2888 53.5156 42.1128C53.2116 41.9368 52.9756 41.7208 52.8076 41.4648C52.6476 41.2088 52.5676 40.8888 52.5676 40.5048C52.5676 40.0648 52.6796 39.7048 52.9036 39.4248C53.1276 39.1448 53.4436 38.9368 53.8516 38.8008C54.2596 38.6568 54.7356 38.5848 55.2796 38.5848C55.7276 38.5848 56.1316 38.6208 56.4916 38.6928C56.8516 38.7648 57.1316 38.8568 57.3316 38.9688V40.3848C57.1956 40.3208 57.0156 40.2568 56.7916 40.1928C56.5756 40.1288 56.3396 40.0768 56.0836 40.0368C55.8356 39.9888 55.5956 39.9648 55.3636 39.9648C55.0356 39.9648 54.7876 40.0088 54.6196 40.0968C54.4516 40.1848 54.3676 40.3088 54.3676 40.4688C54.3676 40.5968 54.4236 40.7048 54.5356 40.7928C54.6556 40.8808 54.8276 40.9648 55.0516 41.0448C55.2756 41.1168 55.5436 41.2088 55.8556 41.3208C56.2716 41.4648 56.6236 41.6248 56.9116 41.8008C57.1996 41.9768 57.4156 42.1928 57.5596 42.4488C57.7116 42.7048 57.7876 43.0208 57.7876 43.3968C57.7876 43.7568 57.7036 44.0968 57.5356 44.4168C57.3756 44.7288 57.0996 44.9848 56.7076 45.1848C56.3156 45.3768 55.7756 45.4728 55.0876 45.4728ZM61.6585 45.4728C60.6825 45.4728 59.9585 45.2368 59.4865 44.7648C59.0145 44.2848 58.7785 43.5768 58.7785 42.6408C58.7785 42.4808 58.7825 42.2888 58.7905 42.0648C58.8065 41.8328 58.8265 41.6288 58.8505 41.4528H61.7305V42.5928H60.5425V42.7608C60.5425 43.0808 60.5825 43.3448 60.6625 43.5528C60.7425 43.7528 60.8625 43.9008 61.0225 43.9968C61.1905 44.0928 61.3985 44.1408 61.6465 44.1408C61.9185 44.1408 62.1465 44.0808 62.3305 43.9608C62.5225 43.8408 62.6665 43.6368 62.7625 43.3488C62.8665 43.0608 62.9185 42.6648 62.9185 42.1608C62.9185 41.6888 62.8625 41.2968 62.7505 40.9848C62.6465 40.6648 62.4665 40.4248 62.2105 40.2648C61.9625 40.1048 61.6185 40.0248 61.1785 40.0248C60.9385 40.0248 60.6905 40.0528 60.4345 40.1088C60.1785 40.1568 59.9345 40.2208 59.7025 40.3008C59.4785 40.3808 59.2825 40.4688 59.1145 40.5648V39.0648C59.2905 38.9688 59.5065 38.8848 59.7625 38.8128C60.0265 38.7408 60.3105 38.6848 60.6145 38.6448C60.9185 38.6048 61.2185 38.5848 61.5145 38.5848C62.2905 38.5848 62.9145 38.7288 63.3865 39.0168C63.8665 39.2968 64.2145 39.6968 64.4305 40.2168C64.6545 40.7368 64.7665 41.3528 64.7665 42.0648C64.7665 42.7928 64.6585 43.4128 64.4425 43.9248C64.2345 44.4288 63.9025 44.8128 63.4465 45.0768C62.9905 45.3408 62.3945 45.4728 61.6585 45.4728ZM68.4118 45.4728C67.9398 45.4728 67.4638 45.4208 66.9838 45.3168C66.5118 45.2128 66.0918 45.0648 65.7238 44.8728L66.2278 43.4448C66.3878 43.5328 66.5798 43.6248 66.8038 43.7208C67.0278 43.8168 67.2718 43.8968 67.5358 43.9608C67.7998 44.0248 68.0678 44.0568 68.3398 44.0568C68.6598 44.0568 68.8998 44.0128 69.0598 43.9248C69.2278 43.8288 69.3118 43.6848 69.3118 43.4928C69.3118 43.3488 69.2558 43.2328 69.1438 43.1448C69.0398 43.0488 68.8838 42.9608 68.6758 42.8808C68.4678 42.7928 68.2198 42.7008 67.9318 42.6048C67.5078 42.4528 67.1438 42.2888 66.8398 42.1128C66.5358 41.9368 66.2998 41.7208 66.1318 41.4648C65.9718 41.2088 65.8918 40.8888 65.8918 40.5048C65.8918 40.0648 66.0038 39.7048 66.2278 39.4248C66.4518 39.1448 66.7678 38.9368 67.1758 38.8008C67.5838 38.6568 68.0598 38.5848 68.6038 38.5848C69.0518 38.5848 69.4558 38.6208 69.8158 38.6928C70.1758 38.7648 70.4558 38.8568 70.6558 38.9688V40.3848C70.5198 40.3208 70.3398 40.2568 70.1158 40.1928C69.8998 40.1288 69.6638 40.0768 69.4078 40.0368C69.1598 39.9888 68.9198 39.9648 68.6878 39.9648C68.3598 39.9648 68.1118 40.0088 67.9438 40.0968C67.7758 40.1848 67.6918 40.3088 67.6918 40.4688C67.6918 40.5968 67.7478 40.7048 67.8598 40.7928C67.9798 40.8808 68.1518 40.9648 68.3758 41.0448C68.5998 41.1168 68.8678 41.2088 69.1798 41.3208C69.5958 41.4648 69.9478 41.6248 70.2358 41.8008C70.5238 41.9768 70.7398 42.1928 70.8838 42.4488C71.0358 42.7048 71.1118 43.0208 71.1118 43.3968C71.1118 43.7568 71.0278 44.0968 70.8598 44.4168C70.6998 44.7288 70.4238 44.9848 70.0318 45.1848C69.6398 45.3768 69.0998 45.4728 68.4118 45.4728ZM68.949 48.4488V47.3808C68.949 47.1808 68.861 47.0808 68.685 47.0808C68.645 47.0808 68.605 47.0848 68.565 47.0928C68.525 47.1008 68.485 47.1128 68.445 47.1288L68.361 46.2648C68.473 46.2248 68.629 46.1848 68.829 46.1448C69.021 46.1048 69.217 46.0848 69.417 46.0848C69.809 46.0848 70.085 46.1608 70.245 46.3128C70.405 46.4728 70.485 46.6888 70.485 46.9608V48.4488H68.949ZM73.9988 45.4368C73.6548 45.4368 73.3548 45.3808 73.0988 45.2688C72.8508 45.1568 72.6548 44.9888 72.5108 44.7648C72.3748 44.5328 72.3068 44.2448 72.3068 43.9008V43.1208C72.3068 42.6488 72.4108 42.3008 72.6188 42.0768C72.8268 41.8528 73.1148 41.6848 73.4828 41.5728L73.4948 41.5248L72.1868 41.0568V40.7448C72.1868 40.3368 72.2988 39.9728 72.5228 39.6528C72.7548 39.3248 73.0908 39.0648 73.5308 38.8728C73.9708 38.6808 74.5068 38.5848 75.1388 38.5848C75.7308 38.5848 76.2388 38.6768 76.6628 38.8608C77.0948 39.0368 77.4268 39.3048 77.6588 39.6648C77.8908 40.0168 78.0068 40.4608 78.0068 40.9968V42.7968C78.0068 43.1808 78.0908 43.4568 78.2588 43.6248C78.4268 43.7928 78.6348 43.8768 78.8828 43.8768C79.1148 43.8768 79.3148 43.8128 79.4828 43.6848C79.6508 43.5488 79.7828 43.3648 79.8788 43.1328C79.9748 42.8928 80.0228 42.6128 80.0228 42.2928V38.7408H81.8228V45.3168H80.4308L80.2268 44.2848H80.1308C79.9868 44.6208 79.7508 44.8968 79.4228 45.1128C79.1028 45.3288 78.7028 45.4368 78.2228 45.4368C77.5668 45.4368 77.0708 45.2648 76.7348 44.9208C76.4068 44.5688 76.2428 44.0168 76.2428 43.2648V41.1288C76.2428 40.8488 76.1908 40.6288 76.0868 40.4688C75.9908 40.3008 75.8588 40.1808 75.6908 40.1088C75.5228 40.0368 75.3308 40.0008 75.1148 40.0008C74.8108 40.0008 74.5588 40.0688 74.3588 40.2048C74.1588 40.3328 74.0508 40.5288 74.0348 40.7928L75.0788 41.2968L74.9588 42.0768C74.6628 42.0848 74.4388 42.1568 74.2868 42.2928C74.1348 42.4208 74.0588 42.6488 74.0588 42.9768V43.7088C74.0588 43.8848 74.0948 44.0128 74.1668 44.0928C74.2468 44.1648 74.3708 44.2008 74.5388 44.2008C74.6108 44.2008 74.6828 44.1968 74.7548 44.1888C74.8348 44.1728 74.9028 44.1528 74.9588 44.1288L75.1268 45.1968C74.9748 45.2768 74.8028 45.3368 74.6108 45.3768C74.4188 45.4168 74.2148 45.4368 73.9988 45.4368ZM38.8569 60.3168V56.0448C38.8569 55.6608 38.7529 55.3848 38.5449 55.2168C38.3369 55.0488 38.0169 54.9648 37.5849 54.9648C37.1689 54.9648 36.7609 55.0288 36.3609 55.1568C35.9689 55.2768 35.6289 55.4208 35.3409 55.5888V54.1008C35.5729 53.9888 35.9009 53.8768 36.3249 53.7648C36.7489 53.6448 37.2369 53.5848 37.7889 53.5848C38.2129 53.5848 38.5929 53.6368 38.9289 53.7408C39.2729 53.8448 39.5209 54.0488 39.6729 54.3528C40.0089 54.4568 40.2489 54.6608 40.3929 54.9648C40.5449 55.2608 40.6209 55.6448 40.6209 56.1168V60.3168H38.8569ZM36.8889 60.4368C36.2009 60.4368 35.6689 60.2728 35.2929 59.9448C34.9249 59.6168 34.7409 59.1568 34.7409 58.5648C34.7409 57.9248 34.9689 57.4128 35.4249 57.0288C35.8889 56.6448 36.6169 56.4128 37.6089 56.3328L39.1449 56.2128V57.5088L37.8129 57.6408C37.3329 57.6888 36.9969 57.7848 36.8049 57.9288C36.6209 58.0728 36.5289 58.2648 36.5289 58.5048C36.5289 58.7448 36.6049 58.9248 36.7569 59.0448C36.9169 59.1648 37.1209 59.2248 37.3689 59.2248C37.4649 59.2248 37.5609 59.2168 37.6569 59.2008C37.7529 59.1768 37.8409 59.1528 37.9209 59.1288L38.0769 60.2568C37.9249 60.3128 37.7449 60.3568 37.5369 60.3888C37.3289 60.4208 37.1129 60.4368 36.8889 60.4368ZM39.6369 55.0488L38.6529 54.2208C38.9329 54.1248 39.1529 54.0048 39.3129 53.8608C39.4729 53.7088 39.5569 53.5248 39.5649 53.3088H41.1369C41.1369 53.5568 41.0849 53.7968 40.9809 54.0288C40.8849 54.2528 40.7249 54.4528 40.5009 54.6288C40.2849 54.8048 39.9969 54.9448 39.6369 55.0488ZM44.5876 60.4728C44.1156 60.4728 43.6396 60.4208 43.1596 60.3168C42.6876 60.2128 42.2676 60.0648 41.8996 59.8728L42.4036 58.4448C42.5636 58.5328 42.7556 58.6248 42.9796 58.7208C43.2036 58.8168 43.4476 58.8968 43.7116 58.9608C43.9756 59.0248 44.2436 59.0568 44.5156 59.0568C44.8356 59.0568 45.0756 59.0128 45.2356 58.9248C45.4036 58.8288 45.4876 58.6848 45.4876 58.4928C45.4876 58.3488 45.4316 58.2328 45.3196 58.1448C45.2156 58.0488 45.0596 57.9608 44.8516 57.8808C44.6436 57.7928 44.3956 57.7008 44.1076 57.6048C43.6836 57.4528 43.3196 57.2888 43.0156 57.1128C42.7116 56.9368 42.4756 56.7208 42.3076 56.4648C42.1476 56.2088 42.0676 55.8888 42.0676 55.5048C42.0676 55.0648 42.1796 54.7048 42.4036 54.4248C42.6276 54.1448 42.9436 53.9368 43.3516 53.8008C43.7596 53.6568 44.2356 53.5848 44.7796 53.5848C45.2276 53.5848 45.6316 53.6208 45.9916 53.6928C46.3516 53.7648 46.6316 53.8568 46.8316 53.9688V55.3848C46.6956 55.3208 46.5156 55.2568 46.2916 55.1928C46.0756 55.1288 45.8396 55.0768 45.5836 55.0368C45.3356 54.9888 45.0956 54.9648 44.8636 54.9648C44.5356 54.9648 44.2876 55.0088 44.1196 55.0968C43.9516 55.1848 43.8676 55.3088 43.8676 55.4688C43.8676 55.5968 43.9236 55.7048 44.0356 55.7928C44.1556 55.8808 44.3276 55.9648 44.5516 56.0448C44.7756 56.1168 45.0436 56.2088 45.3556 56.3208C45.7716 56.4648 46.1236 56.6248 46.4116 56.8008C46.6996 56.9768 46.9156 57.1928 47.0596 57.4488C47.2116 57.7048 47.2876 58.0208 47.2876 58.3968C47.2876 58.7568 47.2036 59.0968 47.0356 59.4168C46.8756 59.7288 46.5996 59.9848 46.2076 60.1848C45.8156 60.3768 45.2756 60.4728 44.5876 60.4728ZM50.3905 60.4368C50.0305 60.4368 49.7265 60.3808 49.4785 60.2688C49.2305 60.1568 49.0425 59.9888 48.9145 59.7648C48.7865 59.5328 48.7225 59.2448 48.7225 58.9008V53.7408H50.5225V58.6848C50.5225 58.8368 50.5545 58.9488 50.6185 59.0208C50.6905 59.0928 50.7985 59.1288 50.9425 59.1288C51.0065 59.1288 51.0745 59.1208 51.1465 59.1048C51.2185 59.0888 51.2865 59.0688 51.3505 59.0448L51.5185 60.1968C51.3665 60.2768 51.1945 60.3368 51.0025 60.3768C50.8105 60.4168 50.6065 60.4368 50.3905 60.4368ZM52.7164 60.3168V53.7408H54.0364L54.2764 54.7728H54.3724C54.5084 54.4448 54.7444 54.1728 55.0804 53.9568C55.4164 53.7328 55.8524 53.6208 56.3884 53.6208C56.9004 53.6208 57.3244 53.7128 57.6604 53.8968C57.9964 54.0728 58.2484 54.3448 58.4164 54.7128C58.5924 55.0728 58.6804 55.5288 58.6804 56.0808V60.3168H56.8804V56.4408C56.8804 55.9928 56.7884 55.6728 56.6044 55.4808C56.4284 55.2808 56.1684 55.1808 55.8244 55.1808C55.5444 55.1808 55.3044 55.2568 55.1044 55.4088C54.9124 55.5608 54.7644 55.7848 54.6604 56.0808C54.5644 56.3688 54.5164 56.7328 54.5164 57.1728V60.3168H52.7164ZM60.355 60.3168V56.4168C60.355 55.4968 60.599 54.7968 61.087 54.3168C61.575 53.8288 62.351 53.5848 63.415 53.5848C63.871 53.5848 64.275 53.6488 64.627 53.7768C64.979 53.8968 65.247 54.1128 65.431 54.4248C65.807 54.5688 66.067 54.8168 66.211 55.1688C66.363 55.5208 66.439 55.9408 66.439 56.4288V60.3168H64.651V56.3928C64.651 55.9688 64.551 55.6368 64.351 55.3968C64.159 55.1488 63.843 55.0248 63.403 55.0248C62.963 55.0248 62.643 55.1488 62.443 55.3968C62.243 55.6368 62.143 55.9688 62.143 56.3928V57.4368L62.179 57.4488C62.339 57.1368 62.523 56.9328 62.731 56.8368C62.939 56.7328 63.227 56.6808 63.595 56.6808H63.883V58.0248H63.595C63.203 58.0248 62.899 58.0928 62.683 58.2288C62.475 58.3648 62.331 58.5448 62.251 58.7688C62.179 58.9848 62.143 59.2288 62.143 59.5008V60.3168H60.355ZM65.491 55.0488L64.507 54.2208C64.787 54.1248 65.007 54.0048 65.167 53.8608C65.327 53.7088 65.411 53.5248 65.419 53.3088H66.991C66.991 53.5568 66.939 53.7968 66.835 54.0288C66.739 54.2528 66.579 54.4528 66.355 54.6288C66.139 54.8048 65.851 54.9448 65.491 55.0488ZM70.5092 60.4368C70.0212 60.4368 69.6092 60.3448 69.2732 60.1608C68.9452 59.9688 68.6932 59.6848 68.5172 59.3088C68.3492 58.9328 68.2652 58.4728 68.2652 57.9288V53.7408H70.0652V57.6168C70.0652 58.0568 70.1532 58.3768 70.3292 58.5768C70.5052 58.7768 70.7612 58.8768 71.0972 58.8768C71.5212 58.8768 71.8492 58.7168 72.0812 58.3968C72.3132 58.0688 72.4292 57.5648 72.4292 56.8848V53.7408H74.2292V60.3168H72.8612L72.6692 59.3088H72.5612C72.4252 59.6288 72.1892 59.8968 71.8532 60.1128C71.5252 60.3288 71.0772 60.4368 70.5092 60.4368ZM72.003 53.0928C71.939 52.9808 71.887 52.8368 71.847 52.6608C71.799 52.4848 71.775 52.3088 71.775 52.1328C71.775 51.9088 71.819 51.7048 71.907 51.5208C71.987 51.3368 72.135 51.1928 72.351 51.0888C72.559 50.9768 72.847 50.9208 73.215 50.9208H74.955V52.1328H73.803C73.651 52.1328 73.535 52.1608 73.455 52.2168C73.367 52.2648 73.323 52.3568 73.323 52.4928C73.323 52.5488 73.331 52.6088 73.347 52.6728C73.363 52.7288 73.387 52.7888 73.419 52.8528L72.003 53.0928Z" fill="#9C9C9C" style="mix-blend-mode:overlay"/>
</svg>
