<svg width="340" height="117" viewBox="0 0 340 117" fill="none" xmlns="http://www.w3.org/2000/svg">
<path d="M6.5102 1.9068C3.74877 1.9068 1.51019 4.14538 1.51019 6.9068V89.6927C1.51019 92.4541 3.74877 94.6927 6.51019 94.6927H64.4053C66.8128 94.6927 68.7644 92.7411 68.7644 90.3336C68.7644 87.9262 70.716 85.9745 73.1235 85.9745H123.12C126.259 85.9745 128.621 88.8324 128.031 91.9149L124.702 109.302C124.111 112.385 126.474 115.243 129.612 115.243H204.912C207.235 115.243 209.252 113.643 209.781 111.382L214.824 89.8351C215.353 87.5737 217.37 85.9745 219.692 85.9745H274.263C276.671 85.9745 278.622 87.9262 278.622 90.3336C278.622 92.7411 280.574 94.6927 282.981 94.6927H333.404C336.165 94.6927 338.404 92.4541 338.404 89.6927V6.9068C338.404 4.14537 336.165 1.9068 333.404 1.9068H278C275.592 1.9068 273.641 3.85842 273.641 6.26587C273.641 8.67331 271.689 10.6249 269.282 10.6249H73.1235C70.716 10.6249 68.7644 8.67331 68.7644 6.26587C68.7644 3.85842 66.8128 1.9068 64.4053 1.9068H6.5102Z" fill="#F3FFF6" stroke="#A8DBAA" stroke-width="2"/>
<path d="M112.22 59.156C111.244 59.156 110.52 58.92 110.048 58.448C109.576 57.968 109.34 57.26 109.34 56.324C109.34 56.164 109.344 55.972 109.352 55.748C109.368 55.516 109.388 55.312 109.412 55.136H112.292V56.276H111.104V56.444C111.104 56.764 111.144 57.028 111.224 57.236C111.304 57.436 111.424 57.584 111.584 57.68C111.752 57.776 111.96 57.824 112.208 57.824C112.48 57.824 112.708 57.764 112.892 57.644C113.084 57.524 113.228 57.32 113.324 57.032C113.428 56.744 113.48 56.348 113.48 55.844C113.48 55.372 113.424 54.98 113.312 54.668C113.208 54.348 113.028 54.108 112.772 53.948C112.524 53.788 112.18 53.708 111.74 53.708C111.5 53.708 111.252 53.736 110.996 53.792C110.74 53.84 110.496 53.904 110.264 53.984C110.04 54.064 109.844 54.152 109.676 54.248V52.748C109.852 52.652 110.068 52.568 110.324 52.496C110.588 52.424 110.872 52.368 111.176 52.328C111.48 52.288 111.78 52.268 112.076 52.268C112.852 52.268 113.476 52.412 113.948 52.7C114.428 52.98 114.776 53.38 114.992 53.9C115.216 54.42 115.328 55.036 115.328 55.748C115.328 56.476 115.22 57.096 115.004 57.608C114.796 58.112 114.464 58.496 114.008 58.76C113.552 59.024 112.956 59.156 112.22 59.156ZM118.457 59V54.656C118.457 54.32 118.377 54.076 118.217 53.924C118.065 53.772 117.813 53.696 117.461 53.696C117.197 53.696 116.953 53.732 116.729 53.804C116.513 53.876 116.309 53.964 116.117 54.068V52.628C116.293 52.548 116.541 52.468 116.861 52.388C117.181 52.308 117.557 52.268 117.989 52.268C118.429 52.268 118.817 52.332 119.153 52.46C119.497 52.588 119.765 52.804 119.957 53.108C120.157 53.404 120.257 53.812 120.257 54.332V59H118.457ZM121.932 59V55.1C121.932 54.18 122.176 53.48 122.664 53C123.152 52.512 123.924 52.268 124.98 52.268C126.044 52.268 126.812 52.512 127.284 53C127.764 53.48 128.004 54.18 128.004 55.1V59H126.216V55.076C126.216 54.652 126.116 54.32 125.916 54.08C125.724 53.832 125.404 53.708 124.956 53.708C124.516 53.708 124.196 53.832 123.996 54.08C123.804 54.32 123.708 54.652 123.708 55.076V56.12L123.744 56.132C123.896 55.82 124.076 55.616 124.284 55.52C124.5 55.416 124.792 55.364 125.16 55.364H125.436V56.708H125.16C124.76 56.708 124.456 56.776 124.248 56.912C124.04 57.048 123.896 57.228 123.816 57.452C123.744 57.668 123.708 57.912 123.708 58.184V59H121.932ZM131.43 59V54.656C131.43 54.32 131.35 54.076 131.19 53.924C131.038 53.772 130.786 53.696 130.434 53.696C130.17 53.696 129.926 53.732 129.702 53.804C129.486 53.876 129.282 53.964 129.09 54.068V52.628C129.266 52.548 129.514 52.468 129.834 52.388C130.154 52.308 130.53 52.268 130.962 52.268C131.402 52.268 131.79 52.332 132.126 52.46C132.47 52.588 132.738 52.804 132.93 53.108C133.13 53.404 133.23 53.812 133.23 54.332V59H131.43ZM137.16 59.156C136.688 59.156 136.212 59.104 135.732 59C135.26 58.896 134.84 58.748 134.472 58.556L134.976 57.128C135.136 57.216 135.328 57.308 135.552 57.404C135.776 57.5 136.02 57.58 136.284 57.644C136.548 57.708 136.816 57.74 137.088 57.74C137.408 57.74 137.648 57.696 137.808 57.608C137.976 57.512 138.06 57.368 138.06 57.176C138.06 57.032 138.004 56.916 137.892 56.828C137.788 56.732 137.632 56.644 137.424 56.564C137.216 56.476 136.968 56.384 136.68 56.288C136.256 56.136 135.892 55.972 135.588 55.796C135.284 55.62 135.048 55.404 134.88 55.148C134.72 54.892 134.64 54.572 134.64 54.188C134.64 53.748 134.752 53.388 134.976 53.108C135.2 52.828 135.516 52.62 135.924 52.484C136.332 52.34 136.808 52.268 137.352 52.268C137.8 52.268 138.204 52.304 138.564 52.376C138.924 52.448 139.204 52.54 139.404 52.652V54.068C139.268 54.004 139.088 53.94 138.864 53.876C138.648 53.812 138.412 53.76 138.156 53.72C137.908 53.672 137.668 53.648 137.436 53.648C137.108 53.648 136.86 53.692 136.692 53.78C136.524 53.868 136.44 53.992 136.44 54.152C136.44 54.28 136.496 54.388 136.608 54.476C136.728 54.564 136.9 54.648 137.124 54.728C137.348 54.8 137.616 54.892 137.928 55.004C138.344 55.148 138.696 55.308 138.984 55.484C139.272 55.66 139.488 55.876 139.632 56.132C139.784 56.388 139.86 56.704 139.86 57.08C139.86 57.44 139.776 57.78 139.608 58.1C139.448 58.412 139.172 58.668 138.78 58.868C138.388 59.06 137.848 59.156 137.16 59.156ZM142.867 59.156C142.459 59.156 142.075 59.108 141.715 59.012C141.355 58.924 141.019 58.796 140.707 58.628L141.187 57.32C141.363 57.424 141.575 57.516 141.823 57.596C142.071 57.676 142.315 57.716 142.555 57.716C143.003 57.716 143.359 57.548 143.623 57.212C143.887 56.868 144.019 56.356 144.019 55.676C144.019 55.036 143.887 54.548 143.623 54.212C143.359 53.876 142.947 53.708 142.387 53.708C142.123 53.708 141.851 53.748 141.571 53.828C141.291 53.9 141.059 53.992 140.875 54.104V52.628C141.123 52.516 141.403 52.428 141.715 52.364C142.027 52.3 142.359 52.268 142.711 52.268C143.447 52.268 144.047 52.404 144.511 52.676C144.975 52.948 145.315 53.34 145.531 53.852C145.747 54.356 145.855 54.964 145.855 55.676C145.855 56.812 145.595 57.676 145.075 58.268C144.555 58.86 143.819 59.156 142.867 59.156ZM140.277 51.512V50.756L141.489 50.252H145.773V51.512H140.277ZM147.279 59V55.1C147.279 54.18 147.523 53.48 148.011 53C148.499 52.512 149.275 52.268 150.339 52.268C150.795 52.268 151.199 52.332 151.551 52.46C151.903 52.58 152.171 52.796 152.355 53.108C152.731 53.252 152.991 53.5 153.135 53.852C153.287 54.204 153.363 54.624 153.363 55.112V59H151.575V55.076C151.575 54.652 151.475 54.32 151.275 54.08C151.083 53.832 150.767 53.708 150.327 53.708C149.887 53.708 149.567 53.832 149.367 54.08C149.167 54.32 149.067 54.652 149.067 55.076V56.12L149.103 56.132C149.263 55.82 149.447 55.616 149.655 55.52C149.863 55.416 150.151 55.364 150.519 55.364H150.807V56.708H150.519C150.127 56.708 149.823 56.776 149.607 56.912C149.399 57.048 149.255 57.228 149.175 57.452C149.103 57.668 149.067 57.912 149.067 58.184V59H147.279ZM152.415 53.732L151.431 52.904C151.711 52.808 151.931 52.688 152.091 52.544C152.251 52.392 152.335 52.208 152.343 51.992H153.915C153.915 52.24 153.863 52.48 153.759 52.712C153.663 52.936 153.503 53.136 153.279 53.312C153.063 53.488 152.775 53.628 152.415 53.732ZM156.942 59.156C156.534 59.156 156.15 59.108 155.79 59.012C155.43 58.924 155.094 58.796 154.782 58.628L155.262 57.32C155.438 57.424 155.65 57.516 155.898 57.596C156.146 57.676 156.39 57.716 156.63 57.716C157.078 57.716 157.434 57.548 157.698 57.212C157.962 56.868 158.094 56.356 158.094 55.676C158.094 55.036 157.962 54.548 157.698 54.212C157.434 53.876 157.022 53.708 156.462 53.708C156.198 53.708 155.926 53.748 155.646 53.828C155.366 53.9 155.134 53.992 154.95 54.104V52.628C155.198 52.516 155.478 52.428 155.79 52.364C156.102 52.3 156.434 52.268 156.786 52.268C157.522 52.268 158.122 52.404 158.586 52.676C159.05 52.948 159.39 53.34 159.606 53.852C159.822 54.356 159.93 54.964 159.93 55.676C159.93 56.812 159.67 57.676 159.15 58.268C158.63 58.86 157.894 59.156 156.942 59.156ZM161.294 59V56.996C161.294 56.492 161.394 56.104 161.594 55.832C161.794 55.56 162.078 55.368 162.446 55.256L162.458 55.208L161.174 54.74V54.428C161.174 54.036 161.29 53.676 161.522 53.348C161.754 53.02 162.094 52.76 162.542 52.568C162.998 52.368 163.55 52.268 164.198 52.268C164.806 52.268 165.33 52.364 165.77 52.556C166.21 52.74 166.55 53.02 166.79 53.396C167.038 53.764 167.162 54.232 167.162 54.8V59H165.362V54.908C165.362 54.508 165.254 54.208 165.038 54.008C164.83 53.808 164.534 53.708 164.15 53.708C163.782 53.708 163.506 53.788 163.322 53.948C163.138 54.1 163.038 54.288 163.022 54.512L164.09 55.004L163.958 55.784C163.67 55.8 163.454 55.904 163.31 56.096C163.166 56.288 163.094 56.548 163.094 56.876V59H161.294ZM171.098 59.156C170.626 59.156 170.15 59.104 169.67 59C169.198 58.896 168.778 58.748 168.41 58.556L168.914 57.128C169.074 57.216 169.266 57.308 169.49 57.404C169.714 57.5 169.958 57.58 170.222 57.644C170.486 57.708 170.754 57.74 171.026 57.74C171.346 57.74 171.586 57.696 171.746 57.608C171.914 57.512 171.998 57.368 171.998 57.176C171.998 57.032 171.942 56.916 171.83 56.828C171.726 56.732 171.57 56.644 171.362 56.564C171.154 56.476 170.906 56.384 170.618 56.288C170.194 56.136 169.83 55.972 169.526 55.796C169.222 55.62 168.986 55.404 168.818 55.148C168.658 54.892 168.578 54.572 168.578 54.188C168.578 53.748 168.69 53.388 168.914 53.108C169.138 52.828 169.454 52.62 169.862 52.484C170.27 52.34 170.746 52.268 171.29 52.268C171.738 52.268 172.142 52.304 172.502 52.376C172.862 52.448 173.142 52.54 173.342 52.652V54.068C173.206 54.004 173.026 53.94 172.802 53.876C172.586 53.812 172.35 53.76 172.094 53.72C171.846 53.672 171.606 53.648 171.374 53.648C171.046 53.648 170.798 53.692 170.63 53.78C170.462 53.868 170.378 53.992 170.378 54.152C170.378 54.28 170.434 54.388 170.546 54.476C170.666 54.564 170.838 54.648 171.062 54.728C171.286 54.8 171.554 54.892 171.866 55.004C172.282 55.148 172.634 55.308 172.922 55.484C173.21 55.66 173.426 55.876 173.57 56.132C173.722 56.388 173.798 56.704 173.798 57.08C173.798 57.44 173.714 57.78 173.546 58.1C173.386 58.412 173.11 58.668 172.718 58.868C172.326 59.06 171.786 59.156 171.098 59.156ZM177.309 59.156C176.837 59.156 176.361 59.104 175.881 59C175.409 58.896 174.989 58.748 174.621 58.556L175.125 57.128C175.285 57.216 175.477 57.308 175.701 57.404C175.925 57.5 176.169 57.58 176.433 57.644C176.697 57.708 176.965 57.74 177.237 57.74C177.557 57.74 177.797 57.696 177.957 57.608C178.125 57.512 178.209 57.368 178.209 57.176C178.209 57.032 178.153 56.916 178.041 56.828C177.937 56.732 177.781 56.644 177.573 56.564C177.365 56.476 177.117 56.384 176.829 56.288C176.405 56.136 176.041 55.972 175.737 55.796C175.433 55.62 175.197 55.404 175.029 55.148C174.869 54.892 174.789 54.572 174.789 54.188C174.789 53.748 174.901 53.388 175.125 53.108C175.349 52.828 175.665 52.62 176.073 52.484C176.481 52.34 176.957 52.268 177.501 52.268C177.949 52.268 178.353 52.304 178.713 52.376C179.073 52.448 179.353 52.54 179.553 52.652V54.068C179.417 54.004 179.237 53.94 179.013 53.876C178.797 53.812 178.561 53.76 178.305 53.72C178.057 53.672 177.817 53.648 177.585 53.648C177.257 53.648 177.009 53.692 176.841 53.78C176.673 53.868 176.589 53.992 176.589 54.152C176.589 54.28 176.645 54.388 176.757 54.476C176.877 54.564 177.049 54.648 177.273 54.728C177.497 54.8 177.765 54.892 178.077 55.004C178.493 55.148 178.845 55.308 179.133 55.484C179.421 55.66 179.637 55.876 179.781 56.132C179.933 56.388 180.009 56.704 180.009 57.08C180.009 57.44 179.925 57.78 179.757 58.1C179.597 58.412 179.321 58.668 178.929 58.868C178.537 59.06 177.997 59.156 177.309 59.156ZM185.14 59.12C184.572 59.12 184.112 59.012 183.76 58.796C183.416 58.58 183.172 58.304 183.028 57.968H182.932L182.74 59H181.372V52.424H183.172V55.568C183.172 56.024 183.224 56.4 183.328 56.696C183.432 56.984 183.584 57.2 183.784 57.344C183.984 57.488 184.224 57.56 184.504 57.56C184.84 57.56 185.096 57.46 185.272 57.26C185.448 57.06 185.536 56.74 185.536 56.3V52.424H187.336V56.696C187.336 57.216 187.252 57.656 187.084 58.016C186.924 58.376 186.68 58.652 186.352 58.844C186.024 59.028 185.62 59.12 185.14 59.12ZM189.022 59V55.1C189.022 54.18 189.266 53.48 189.754 53C190.242 52.512 191.018 52.268 192.082 52.268C192.538 52.268 192.942 52.332 193.294 52.46C193.646 52.58 193.914 52.796 194.098 53.108C194.474 53.252 194.734 53.5 194.878 53.852C195.03 54.204 195.106 54.624 195.106 55.112V59H193.318V55.076C193.318 54.652 193.218 54.32 193.018 54.08C192.826 53.832 192.51 53.708 192.07 53.708C191.63 53.708 191.31 53.832 191.11 54.08C190.91 54.32 190.81 54.652 190.81 55.076V56.12L190.846 56.132C191.006 55.82 191.19 55.616 191.398 55.52C191.606 55.416 191.894 55.364 192.262 55.364H192.55V56.708H192.262C191.87 56.708 191.566 56.776 191.35 56.912C191.142 57.048 190.998 57.228 190.918 57.452C190.846 57.668 190.81 57.912 190.81 58.184V59H189.022ZM194.158 53.732L193.174 52.904C193.454 52.808 193.674 52.688 193.834 52.544C193.994 52.392 194.078 52.208 194.086 51.992H195.658C195.658 52.24 195.606 52.48 195.502 52.712C195.406 52.936 195.246 53.136 195.022 53.312C194.806 53.488 194.518 53.628 194.158 53.732ZM198.672 59V54.656C198.672 54.32 198.592 54.076 198.432 53.924C198.28 53.772 198.028 53.696 197.676 53.696C197.412 53.696 197.168 53.732 196.944 53.804C196.728 53.876 196.524 53.964 196.332 54.068V52.628C196.508 52.548 196.756 52.468 197.076 52.388C197.396 52.308 197.772 52.268 198.204 52.268C198.644 52.268 199.032 52.332 199.368 52.46C199.712 52.588 199.98 52.804 200.172 53.108C200.372 53.404 200.472 53.812 200.472 54.332V59H198.672ZM205.891 59V54.728C205.891 54.344 205.787 54.068 205.579 53.9C205.371 53.732 205.051 53.648 204.619 53.648C204.203 53.648 203.795 53.712 203.395 53.84C203.003 53.96 202.663 54.104 202.375 54.272V52.784C202.607 52.672 202.935 52.56 203.359 52.448C203.783 52.328 204.271 52.268 204.823 52.268C205.247 52.268 205.627 52.32 205.963 52.424C206.307 52.528 206.555 52.732 206.707 53.036C207.043 53.14 207.283 53.344 207.427 53.648C207.579 53.944 207.655 54.328 207.655 54.8V59H205.891ZM203.923 59.12C203.235 59.12 202.703 58.956 202.327 58.628C201.959 58.3 201.775 57.84 201.775 57.248C201.775 56.608 202.003 56.096 202.459 55.712C202.923 55.328 203.651 55.096 204.643 55.016L206.179 54.896V56.192L204.847 56.324C204.367 56.372 204.031 56.468 203.839 56.612C203.655 56.756 203.563 56.948 203.563 57.188C203.563 57.428 203.639 57.608 203.791 57.728C203.951 57.848 204.155 57.908 204.403 57.908C204.499 57.908 204.595 57.9 204.691 57.884C204.787 57.86 204.875 57.836 204.955 57.812L205.111 58.94C204.959 58.996 204.779 59.04 204.571 59.072C204.363 59.104 204.147 59.12 203.923 59.12ZM206.671 53.732L205.687 52.904C205.967 52.808 206.187 52.688 206.347 52.544C206.507 52.392 206.591 52.208 206.599 51.992H208.171C208.171 52.24 208.119 52.48 208.015 52.712C207.919 52.936 207.759 53.136 207.535 53.312C207.319 53.488 207.031 53.628 206.671 53.732ZM211.873 59.12C211.161 59.12 210.605 58.976 210.205 58.688C209.813 58.392 209.537 57.984 209.377 57.464C209.225 56.936 209.149 56.324 209.149 55.628C209.149 54.852 209.225 54.22 209.377 53.732C209.529 53.244 209.757 52.884 210.061 52.652C210.373 52.42 210.753 52.304 211.201 52.304C211.481 52.304 211.725 52.36 211.933 52.472C212.149 52.576 212.321 52.772 212.449 53.06H212.497C212.609 52.764 212.793 52.564 213.049 52.46C213.305 52.356 213.581 52.304 213.877 52.304C214.429 52.304 214.841 52.452 215.113 52.748C215.393 53.044 215.533 53.476 215.533 54.044V59H213.733V54.38C213.733 54.132 213.693 53.964 213.613 53.876C213.533 53.788 213.425 53.744 213.289 53.744C213.137 53.744 213.021 53.788 212.941 53.876C212.869 53.964 212.821 54.112 212.797 54.32H212.089C212.057 54.088 211.997 53.936 211.909 53.864C211.821 53.784 211.717 53.744 211.597 53.744C211.397 53.744 211.241 53.888 211.129 54.176C211.025 54.464 210.973 54.952 210.973 55.64C210.973 56.088 211.005 56.472 211.069 56.792C211.141 57.104 211.261 57.344 211.429 57.512C211.597 57.672 211.837 57.752 212.149 57.752C212.245 57.752 212.333 57.748 212.413 57.74C212.493 57.724 212.561 57.704 212.617 57.68L212.797 58.964C212.669 59.02 212.529 59.06 212.377 59.084C212.225 59.108 212.057 59.12 211.873 59.12ZM219.473 59.156C219.001 59.156 218.525 59.104 218.045 59C217.573 58.896 217.153 58.748 216.785 58.556L217.289 57.128C217.449 57.216 217.641 57.308 217.865 57.404C218.089 57.5 218.333 57.58 218.597 57.644C218.861 57.708 219.129 57.74 219.401 57.74C219.721 57.74 219.961 57.696 220.121 57.608C220.289 57.512 220.373 57.368 220.373 57.176C220.373 57.032 220.317 56.916 220.205 56.828C220.101 56.732 219.945 56.644 219.737 56.564C219.529 56.476 219.281 56.384 218.993 56.288C218.569 56.136 218.205 55.972 217.901 55.796C217.597 55.62 217.361 55.404 217.193 55.148C217.033 54.892 216.953 54.572 216.953 54.188C216.953 53.748 217.065 53.388 217.289 53.108C217.513 52.828 217.829 52.62 218.237 52.484C218.645 52.34 219.121 52.268 219.665 52.268C220.113 52.268 220.517 52.304 220.877 52.376C221.237 52.448 221.517 52.54 221.717 52.652V54.068C221.581 54.004 221.401 53.94 221.177 53.876C220.961 53.812 220.725 53.76 220.469 53.72C220.221 53.672 219.981 53.648 219.749 53.648C219.421 53.648 219.173 53.692 219.005 53.78C218.837 53.868 218.753 53.992 218.753 54.152C218.753 54.28 218.809 54.388 218.921 54.476C219.041 54.564 219.213 54.648 219.437 54.728C219.661 54.8 219.929 54.892 220.241 55.004C220.657 55.148 221.009 55.308 221.297 55.484C221.585 55.66 221.801 55.876 221.945 56.132C222.097 56.388 222.173 56.704 222.173 57.08C222.173 57.44 222.089 57.78 221.921 58.1C221.761 58.412 221.485 58.668 221.093 58.868C220.701 59.06 220.161 59.156 219.473 59.156ZM219.549 51.776C219.485 51.664 219.433 51.52 219.393 51.344C219.345 51.168 219.321 50.992 219.321 50.816C219.321 50.592 219.365 50.388 219.453 50.204C219.533 50.02 219.681 49.876 219.897 49.772C220.105 49.66 220.393 49.604 220.761 49.604H222.501V50.816H221.349C221.197 50.816 221.081 50.844 221.001 50.9C220.913 50.948 220.869 51.04 220.869 51.176C220.869 51.232 220.877 51.292 220.893 51.356C220.909 51.412 220.933 51.472 220.965 51.536L219.549 51.776ZM229.869 50.2727V59H228.024V52.0241H227.973L225.975 53.277V51.6406L228.135 50.2727H229.869Z" fill="#252525" fill-opacity="0.55"/>
<path d="M112.22 59.156C111.244 59.156 110.52 58.92 110.048 58.448C109.576 57.968 109.34 57.26 109.34 56.324C109.34 56.164 109.344 55.972 109.352 55.748C109.368 55.516 109.388 55.312 109.412 55.136H112.292V56.276H111.104V56.444C111.104 56.764 111.144 57.028 111.224 57.236C111.304 57.436 111.424 57.584 111.584 57.68C111.752 57.776 111.96 57.824 112.208 57.824C112.48 57.824 112.708 57.764 112.892 57.644C113.084 57.524 113.228 57.32 113.324 57.032C113.428 56.744 113.48 56.348 113.48 55.844C113.48 55.372 113.424 54.98 113.312 54.668C113.208 54.348 113.028 54.108 112.772 53.948C112.524 53.788 112.18 53.708 111.74 53.708C111.5 53.708 111.252 53.736 110.996 53.792C110.74 53.84 110.496 53.904 110.264 53.984C110.04 54.064 109.844 54.152 109.676 54.248V52.748C109.852 52.652 110.068 52.568 110.324 52.496C110.588 52.424 110.872 52.368 111.176 52.328C111.48 52.288 111.78 52.268 112.076 52.268C112.852 52.268 113.476 52.412 113.948 52.7C114.428 52.98 114.776 53.38 114.992 53.9C115.216 54.42 115.328 55.036 115.328 55.748C115.328 56.476 115.22 57.096 115.004 57.608C114.796 58.112 114.464 58.496 114.008 58.76C113.552 59.024 112.956 59.156 112.22 59.156ZM118.457 59V54.656C118.457 54.32 118.377 54.076 118.217 53.924C118.065 53.772 117.813 53.696 117.461 53.696C117.197 53.696 116.953 53.732 116.729 53.804C116.513 53.876 116.309 53.964 116.117 54.068V52.628C116.293 52.548 116.541 52.468 116.861 52.388C117.181 52.308 117.557 52.268 117.989 52.268C118.429 52.268 118.817 52.332 119.153 52.46C119.497 52.588 119.765 52.804 119.957 53.108C120.157 53.404 120.257 53.812 120.257 54.332V59H118.457ZM121.932 59V55.1C121.932 54.18 122.176 53.48 122.664 53C123.152 52.512 123.924 52.268 124.98 52.268C126.044 52.268 126.812 52.512 127.284 53C127.764 53.48 128.004 54.18 128.004 55.1V59H126.216V55.076C126.216 54.652 126.116 54.32 125.916 54.08C125.724 53.832 125.404 53.708 124.956 53.708C124.516 53.708 124.196 53.832 123.996 54.08C123.804 54.32 123.708 54.652 123.708 55.076V56.12L123.744 56.132C123.896 55.82 124.076 55.616 124.284 55.52C124.5 55.416 124.792 55.364 125.16 55.364H125.436V56.708H125.16C124.76 56.708 124.456 56.776 124.248 56.912C124.04 57.048 123.896 57.228 123.816 57.452C123.744 57.668 123.708 57.912 123.708 58.184V59H121.932ZM131.43 59V54.656C131.43 54.32 131.35 54.076 131.19 53.924C131.038 53.772 130.786 53.696 130.434 53.696C130.17 53.696 129.926 53.732 129.702 53.804C129.486 53.876 129.282 53.964 129.09 54.068V52.628C129.266 52.548 129.514 52.468 129.834 52.388C130.154 52.308 130.53 52.268 130.962 52.268C131.402 52.268 131.79 52.332 132.126 52.46C132.47 52.588 132.738 52.804 132.93 53.108C133.13 53.404 133.23 53.812 133.23 54.332V59H131.43ZM137.16 59.156C136.688 59.156 136.212 59.104 135.732 59C135.26 58.896 134.84 58.748 134.472 58.556L134.976 57.128C135.136 57.216 135.328 57.308 135.552 57.404C135.776 57.5 136.02 57.58 136.284 57.644C136.548 57.708 136.816 57.74 137.088 57.74C137.408 57.74 137.648 57.696 137.808 57.608C137.976 57.512 138.06 57.368 138.06 57.176C138.06 57.032 138.004 56.916 137.892 56.828C137.788 56.732 137.632 56.644 137.424 56.564C137.216 56.476 136.968 56.384 136.68 56.288C136.256 56.136 135.892 55.972 135.588 55.796C135.284 55.62 135.048 55.404 134.88 55.148C134.72 54.892 134.64 54.572 134.64 54.188C134.64 53.748 134.752 53.388 134.976 53.108C135.2 52.828 135.516 52.62 135.924 52.484C136.332 52.34 136.808 52.268 137.352 52.268C137.8 52.268 138.204 52.304 138.564 52.376C138.924 52.448 139.204 52.54 139.404 52.652V54.068C139.268 54.004 139.088 53.94 138.864 53.876C138.648 53.812 138.412 53.76 138.156 53.72C137.908 53.672 137.668 53.648 137.436 53.648C137.108 53.648 136.86 53.692 136.692 53.78C136.524 53.868 136.44 53.992 136.44 54.152C136.44 54.28 136.496 54.388 136.608 54.476C136.728 54.564 136.9 54.648 137.124 54.728C137.348 54.8 137.616 54.892 137.928 55.004C138.344 55.148 138.696 55.308 138.984 55.484C139.272 55.66 139.488 55.876 139.632 56.132C139.784 56.388 139.86 56.704 139.86 57.08C139.86 57.44 139.776 57.78 139.608 58.1C139.448 58.412 139.172 58.668 138.78 58.868C138.388 59.06 137.848 59.156 137.16 59.156ZM142.867 59.156C142.459 59.156 142.075 59.108 141.715 59.012C141.355 58.924 141.019 58.796 140.707 58.628L141.187 57.32C141.363 57.424 141.575 57.516 141.823 57.596C142.071 57.676 142.315 57.716 142.555 57.716C143.003 57.716 143.359 57.548 143.623 57.212C143.887 56.868 144.019 56.356 144.019 55.676C144.019 55.036 143.887 54.548 143.623 54.212C143.359 53.876 142.947 53.708 142.387 53.708C142.123 53.708 141.851 53.748 141.571 53.828C141.291 53.9 141.059 53.992 140.875 54.104V52.628C141.123 52.516 141.403 52.428 141.715 52.364C142.027 52.3 142.359 52.268 142.711 52.268C143.447 52.268 144.047 52.404 144.511 52.676C144.975 52.948 145.315 53.34 145.531 53.852C145.747 54.356 145.855 54.964 145.855 55.676C145.855 56.812 145.595 57.676 145.075 58.268C144.555 58.86 143.819 59.156 142.867 59.156ZM140.277 51.512V50.756L141.489 50.252H145.773V51.512H140.277ZM147.279 59V55.1C147.279 54.18 147.523 53.48 148.011 53C148.499 52.512 149.275 52.268 150.339 52.268C150.795 52.268 151.199 52.332 151.551 52.46C151.903 52.58 152.171 52.796 152.355 53.108C152.731 53.252 152.991 53.5 153.135 53.852C153.287 54.204 153.363 54.624 153.363 55.112V59H151.575V55.076C151.575 54.652 151.475 54.32 151.275 54.08C151.083 53.832 150.767 53.708 150.327 53.708C149.887 53.708 149.567 53.832 149.367 54.08C149.167 54.32 149.067 54.652 149.067 55.076V56.12L149.103 56.132C149.263 55.82 149.447 55.616 149.655 55.52C149.863 55.416 150.151 55.364 150.519 55.364H150.807V56.708H150.519C150.127 56.708 149.823 56.776 149.607 56.912C149.399 57.048 149.255 57.228 149.175 57.452C149.103 57.668 149.067 57.912 149.067 58.184V59H147.279ZM152.415 53.732L151.431 52.904C151.711 52.808 151.931 52.688 152.091 52.544C152.251 52.392 152.335 52.208 152.343 51.992H153.915C153.915 52.24 153.863 52.48 153.759 52.712C153.663 52.936 153.503 53.136 153.279 53.312C153.063 53.488 152.775 53.628 152.415 53.732ZM156.942 59.156C156.534 59.156 156.15 59.108 155.79 59.012C155.43 58.924 155.094 58.796 154.782 58.628L155.262 57.32C155.438 57.424 155.65 57.516 155.898 57.596C156.146 57.676 156.39 57.716 156.63 57.716C157.078 57.716 157.434 57.548 157.698 57.212C157.962 56.868 158.094 56.356 158.094 55.676C158.094 55.036 157.962 54.548 157.698 54.212C157.434 53.876 157.022 53.708 156.462 53.708C156.198 53.708 155.926 53.748 155.646 53.828C155.366 53.9 155.134 53.992 154.95 54.104V52.628C155.198 52.516 155.478 52.428 155.79 52.364C156.102 52.3 156.434 52.268 156.786 52.268C157.522 52.268 158.122 52.404 158.586 52.676C159.05 52.948 159.39 53.34 159.606 53.852C159.822 54.356 159.93 54.964 159.93 55.676C159.93 56.812 159.67 57.676 159.15 58.268C158.63 58.86 157.894 59.156 156.942 59.156ZM161.294 59V56.996C161.294 56.492 161.394 56.104 161.594 55.832C161.794 55.56 162.078 55.368 162.446 55.256L162.458 55.208L161.174 54.74V54.428C161.174 54.036 161.29 53.676 161.522 53.348C161.754 53.02 162.094 52.76 162.542 52.568C162.998 52.368 163.55 52.268 164.198 52.268C164.806 52.268 165.33 52.364 165.77 52.556C166.21 52.74 166.55 53.02 166.79 53.396C167.038 53.764 167.162 54.232 167.162 54.8V59H165.362V54.908C165.362 54.508 165.254 54.208 165.038 54.008C164.83 53.808 164.534 53.708 164.15 53.708C163.782 53.708 163.506 53.788 163.322 53.948C163.138 54.1 163.038 54.288 163.022 54.512L164.09 55.004L163.958 55.784C163.67 55.8 163.454 55.904 163.31 56.096C163.166 56.288 163.094 56.548 163.094 56.876V59H161.294ZM171.098 59.156C170.626 59.156 170.15 59.104 169.67 59C169.198 58.896 168.778 58.748 168.41 58.556L168.914 57.128C169.074 57.216 169.266 57.308 169.49 57.404C169.714 57.5 169.958 57.58 170.222 57.644C170.486 57.708 170.754 57.74 171.026 57.74C171.346 57.74 171.586 57.696 171.746 57.608C171.914 57.512 171.998 57.368 171.998 57.176C171.998 57.032 171.942 56.916 171.83 56.828C171.726 56.732 171.57 56.644 171.362 56.564C171.154 56.476 170.906 56.384 170.618 56.288C170.194 56.136 169.83 55.972 169.526 55.796C169.222 55.62 168.986 55.404 168.818 55.148C168.658 54.892 168.578 54.572 168.578 54.188C168.578 53.748 168.69 53.388 168.914 53.108C169.138 52.828 169.454 52.62 169.862 52.484C170.27 52.34 170.746 52.268 171.29 52.268C171.738 52.268 172.142 52.304 172.502 52.376C172.862 52.448 173.142 52.54 173.342 52.652V54.068C173.206 54.004 173.026 53.94 172.802 53.876C172.586 53.812 172.35 53.76 172.094 53.72C171.846 53.672 171.606 53.648 171.374 53.648C171.046 53.648 170.798 53.692 170.63 53.78C170.462 53.868 170.378 53.992 170.378 54.152C170.378 54.28 170.434 54.388 170.546 54.476C170.666 54.564 170.838 54.648 171.062 54.728C171.286 54.8 171.554 54.892 171.866 55.004C172.282 55.148 172.634 55.308 172.922 55.484C173.21 55.66 173.426 55.876 173.57 56.132C173.722 56.388 173.798 56.704 173.798 57.08C173.798 57.44 173.714 57.78 173.546 58.1C173.386 58.412 173.11 58.668 172.718 58.868C172.326 59.06 171.786 59.156 171.098 59.156ZM177.309 59.156C176.837 59.156 176.361 59.104 175.881 59C175.409 58.896 174.989 58.748 174.621 58.556L175.125 57.128C175.285 57.216 175.477 57.308 175.701 57.404C175.925 57.5 176.169 57.58 176.433 57.644C176.697 57.708 176.965 57.74 177.237 57.74C177.557 57.74 177.797 57.696 177.957 57.608C178.125 57.512 178.209 57.368 178.209 57.176C178.209 57.032 178.153 56.916 178.041 56.828C177.937 56.732 177.781 56.644 177.573 56.564C177.365 56.476 177.117 56.384 176.829 56.288C176.405 56.136 176.041 55.972 175.737 55.796C175.433 55.62 175.197 55.404 175.029 55.148C174.869 54.892 174.789 54.572 174.789 54.188C174.789 53.748 174.901 53.388 175.125 53.108C175.349 52.828 175.665 52.62 176.073 52.484C176.481 52.34 176.957 52.268 177.501 52.268C177.949 52.268 178.353 52.304 178.713 52.376C179.073 52.448 179.353 52.54 179.553 52.652V54.068C179.417 54.004 179.237 53.94 179.013 53.876C178.797 53.812 178.561 53.76 178.305 53.72C178.057 53.672 177.817 53.648 177.585 53.648C177.257 53.648 177.009 53.692 176.841 53.78C176.673 53.868 176.589 53.992 176.589 54.152C176.589 54.28 176.645 54.388 176.757 54.476C176.877 54.564 177.049 54.648 177.273 54.728C177.497 54.8 177.765 54.892 178.077 55.004C178.493 55.148 178.845 55.308 179.133 55.484C179.421 55.66 179.637 55.876 179.781 56.132C179.933 56.388 180.009 56.704 180.009 57.08C180.009 57.44 179.925 57.78 179.757 58.1C179.597 58.412 179.321 58.668 178.929 58.868C178.537 59.06 177.997 59.156 177.309 59.156ZM185.14 59.12C184.572 59.12 184.112 59.012 183.76 58.796C183.416 58.58 183.172 58.304 183.028 57.968H182.932L182.74 59H181.372V52.424H183.172V55.568C183.172 56.024 183.224 56.4 183.328 56.696C183.432 56.984 183.584 57.2 183.784 57.344C183.984 57.488 184.224 57.56 184.504 57.56C184.84 57.56 185.096 57.46 185.272 57.26C185.448 57.06 185.536 56.74 185.536 56.3V52.424H187.336V56.696C187.336 57.216 187.252 57.656 187.084 58.016C186.924 58.376 186.68 58.652 186.352 58.844C186.024 59.028 185.62 59.12 185.14 59.12ZM189.022 59V55.1C189.022 54.18 189.266 53.48 189.754 53C190.242 52.512 191.018 52.268 192.082 52.268C192.538 52.268 192.942 52.332 193.294 52.46C193.646 52.58 193.914 52.796 194.098 53.108C194.474 53.252 194.734 53.5 194.878 53.852C195.03 54.204 195.106 54.624 195.106 55.112V59H193.318V55.076C193.318 54.652 193.218 54.32 193.018 54.08C192.826 53.832 192.51 53.708 192.07 53.708C191.63 53.708 191.31 53.832 191.11 54.08C190.91 54.32 190.81 54.652 190.81 55.076V56.12L190.846 56.132C191.006 55.82 191.19 55.616 191.398 55.52C191.606 55.416 191.894 55.364 192.262 55.364H192.55V56.708H192.262C191.87 56.708 191.566 56.776 191.35 56.912C191.142 57.048 190.998 57.228 190.918 57.452C190.846 57.668 190.81 57.912 190.81 58.184V59H189.022ZM194.158 53.732L193.174 52.904C193.454 52.808 193.674 52.688 193.834 52.544C193.994 52.392 194.078 52.208 194.086 51.992H195.658C195.658 52.24 195.606 52.48 195.502 52.712C195.406 52.936 195.246 53.136 195.022 53.312C194.806 53.488 194.518 53.628 194.158 53.732ZM198.672 59V54.656C198.672 54.32 198.592 54.076 198.432 53.924C198.28 53.772 198.028 53.696 197.676 53.696C197.412 53.696 197.168 53.732 196.944 53.804C196.728 53.876 196.524 53.964 196.332 54.068V52.628C196.508 52.548 196.756 52.468 197.076 52.388C197.396 52.308 197.772 52.268 198.204 52.268C198.644 52.268 199.032 52.332 199.368 52.46C199.712 52.588 199.98 52.804 200.172 53.108C200.372 53.404 200.472 53.812 200.472 54.332V59H198.672ZM205.891 59V54.728C205.891 54.344 205.787 54.068 205.579 53.9C205.371 53.732 205.051 53.648 204.619 53.648C204.203 53.648 203.795 53.712 203.395 53.84C203.003 53.96 202.663 54.104 202.375 54.272V52.784C202.607 52.672 202.935 52.56 203.359 52.448C203.783 52.328 204.271 52.268 204.823 52.268C205.247 52.268 205.627 52.32 205.963 52.424C206.307 52.528 206.555 52.732 206.707 53.036C207.043 53.14 207.283 53.344 207.427 53.648C207.579 53.944 207.655 54.328 207.655 54.8V59H205.891ZM203.923 59.12C203.235 59.12 202.703 58.956 202.327 58.628C201.959 58.3 201.775 57.84 201.775 57.248C201.775 56.608 202.003 56.096 202.459 55.712C202.923 55.328 203.651 55.096 204.643 55.016L206.179 54.896V56.192L204.847 56.324C204.367 56.372 204.031 56.468 203.839 56.612C203.655 56.756 203.563 56.948 203.563 57.188C203.563 57.428 203.639 57.608 203.791 57.728C203.951 57.848 204.155 57.908 204.403 57.908C204.499 57.908 204.595 57.9 204.691 57.884C204.787 57.86 204.875 57.836 204.955 57.812L205.111 58.94C204.959 58.996 204.779 59.04 204.571 59.072C204.363 59.104 204.147 59.12 203.923 59.12ZM206.671 53.732L205.687 52.904C205.967 52.808 206.187 52.688 206.347 52.544C206.507 52.392 206.591 52.208 206.599 51.992H208.171C208.171 52.24 208.119 52.48 208.015 52.712C207.919 52.936 207.759 53.136 207.535 53.312C207.319 53.488 207.031 53.628 206.671 53.732ZM211.873 59.12C211.161 59.12 210.605 58.976 210.205 58.688C209.813 58.392 209.537 57.984 209.377 57.464C209.225 56.936 209.149 56.324 209.149 55.628C209.149 54.852 209.225 54.22 209.377 53.732C209.529 53.244 209.757 52.884 210.061 52.652C210.373 52.42 210.753 52.304 211.201 52.304C211.481 52.304 211.725 52.36 211.933 52.472C212.149 52.576 212.321 52.772 212.449 53.06H212.497C212.609 52.764 212.793 52.564 213.049 52.46C213.305 52.356 213.581 52.304 213.877 52.304C214.429 52.304 214.841 52.452 215.113 52.748C215.393 53.044 215.533 53.476 215.533 54.044V59H213.733V54.38C213.733 54.132 213.693 53.964 213.613 53.876C213.533 53.788 213.425 53.744 213.289 53.744C213.137 53.744 213.021 53.788 212.941 53.876C212.869 53.964 212.821 54.112 212.797 54.32H212.089C212.057 54.088 211.997 53.936 211.909 53.864C211.821 53.784 211.717 53.744 211.597 53.744C211.397 53.744 211.241 53.888 211.129 54.176C211.025 54.464 210.973 54.952 210.973 55.64C210.973 56.088 211.005 56.472 211.069 56.792C211.141 57.104 211.261 57.344 211.429 57.512C211.597 57.672 211.837 57.752 212.149 57.752C212.245 57.752 212.333 57.748 212.413 57.74C212.493 57.724 212.561 57.704 212.617 57.68L212.797 58.964C212.669 59.02 212.529 59.06 212.377 59.084C212.225 59.108 212.057 59.12 211.873 59.12ZM219.473 59.156C219.001 59.156 218.525 59.104 218.045 59C217.573 58.896 217.153 58.748 216.785 58.556L217.289 57.128C217.449 57.216 217.641 57.308 217.865 57.404C218.089 57.5 218.333 57.58 218.597 57.644C218.861 57.708 219.129 57.74 219.401 57.74C219.721 57.74 219.961 57.696 220.121 57.608C220.289 57.512 220.373 57.368 220.373 57.176C220.373 57.032 220.317 56.916 220.205 56.828C220.101 56.732 219.945 56.644 219.737 56.564C219.529 56.476 219.281 56.384 218.993 56.288C218.569 56.136 218.205 55.972 217.901 55.796C217.597 55.62 217.361 55.404 217.193 55.148C217.033 54.892 216.953 54.572 216.953 54.188C216.953 53.748 217.065 53.388 217.289 53.108C217.513 52.828 217.829 52.62 218.237 52.484C218.645 52.34 219.121 52.268 219.665 52.268C220.113 52.268 220.517 52.304 220.877 52.376C221.237 52.448 221.517 52.54 221.717 52.652V54.068C221.581 54.004 221.401 53.94 221.177 53.876C220.961 53.812 220.725 53.76 220.469 53.72C220.221 53.672 219.981 53.648 219.749 53.648C219.421 53.648 219.173 53.692 219.005 53.78C218.837 53.868 218.753 53.992 218.753 54.152C218.753 54.28 218.809 54.388 218.921 54.476C219.041 54.564 219.213 54.648 219.437 54.728C219.661 54.8 219.929 54.892 220.241 55.004C220.657 55.148 221.009 55.308 221.297 55.484C221.585 55.66 221.801 55.876 221.945 56.132C222.097 56.388 222.173 56.704 222.173 57.08C222.173 57.44 222.089 57.78 221.921 58.1C221.761 58.412 221.485 58.668 221.093 58.868C220.701 59.06 220.161 59.156 219.473 59.156ZM219.549 51.776C219.485 51.664 219.433 51.52 219.393 51.344C219.345 51.168 219.321 50.992 219.321 50.816C219.321 50.592 219.365 50.388 219.453 50.204C219.533 50.02 219.681 49.876 219.897 49.772C220.105 49.66 220.393 49.604 220.761 49.604H222.501V50.816H221.349C221.197 50.816 221.081 50.844 221.001 50.9C220.913 50.948 220.869 51.04 220.869 51.176C220.869 51.232 220.877 51.292 220.893 51.356C220.909 51.412 220.933 51.472 220.965 51.536L219.549 51.776ZM229.869 50.2727V59H228.024V52.0241H227.973L225.975 53.277V51.6406L228.135 50.2727H229.869Z" fill="#9C9C9C" style="mix-blend-mode:overlay"/>
</svg>
