<svg width="346" height="116" viewBox="0 0 346 116" fill="none" xmlns="http://www.w3.org/2000/svg">
<path d="M6.86707 1.9068C4.10564 1.9068 1.86707 4.14538 1.86707 6.9068V88.4472C1.86707 91.2086 4.10564 93.4472 6.86707 93.4472H66.6303C69.0378 93.4472 70.9894 91.4956 70.9894 89.0882C70.9894 86.6807 72.941 84.7291 75.3485 84.7291H125.118C128.33 84.7291 130.709 87.7148 129.992 90.846L125.945 108.503C125.228 111.634 127.607 114.62 130.819 114.62H206.253C208.405 114.62 210.316 113.243 210.996 111.201L218.681 88.1479C219.361 86.1062 221.272 84.7291 223.424 84.7291H278.045C279.593 84.7291 280.847 85.9837 280.847 87.5313C280.847 89.079 282.102 90.3336 283.65 90.3336H339.365C342.127 90.3336 344.365 88.095 344.365 85.3336V6.9068C344.365 4.14538 342.127 1.9068 339.365 1.9068H280.866C278.104 1.9068 275.866 4.14538 275.866 6.9068V7.4931C275.866 10.2545 273.627 12.4931 270.866 12.4931H75.9894C73.228 12.4931 70.9894 10.2545 70.9894 7.49311V6.9068C70.9894 4.14538 68.7508 1.9068 65.9894 1.9068H6.86707Z" fill="#FFF2E6" stroke="#FFDAAE" stroke-width="2"/>
<path d="M113.876 58.156C112.9 58.156 112.176 57.92 111.704 57.448C111.232 56.968 110.996 56.26 110.996 55.324C110.996 55.164 111 54.972 111.008 54.748C111.024 54.516 111.044 54.312 111.068 54.136H113.948V55.276H112.76V55.444C112.76 55.764 112.8 56.028 112.88 56.236C112.96 56.436 113.08 56.584 113.24 56.68C113.408 56.776 113.616 56.824 113.864 56.824C114.136 56.824 114.364 56.764 114.548 56.644C114.74 56.524 114.884 56.32 114.98 56.032C115.084 55.744 115.136 55.348 115.136 54.844C115.136 54.372 115.08 53.98 114.968 53.668C114.864 53.348 114.684 53.108 114.428 52.948C114.18 52.788 113.836 52.708 113.396 52.708C113.156 52.708 112.908 52.736 112.652 52.792C112.396 52.84 112.152 52.904 111.92 52.984C111.696 53.064 111.5 53.152 111.332 53.248V51.748C111.508 51.652 111.724 51.568 111.98 51.496C112.244 51.424 112.528 51.368 112.832 51.328C113.136 51.288 113.436 51.268 113.732 51.268C114.508 51.268 115.132 51.412 115.604 51.7C116.084 51.98 116.432 52.38 116.648 52.9C116.872 53.42 116.984 54.036 116.984 54.748C116.984 55.476 116.876 56.096 116.66 56.608C116.452 57.112 116.12 57.496 115.664 57.76C115.208 58.024 114.612 58.156 113.876 58.156ZM120.113 58V53.656C120.113 53.32 120.033 53.076 119.873 52.924C119.721 52.772 119.469 52.696 119.117 52.696C118.853 52.696 118.609 52.732 118.385 52.804C118.169 52.876 117.965 52.964 117.773 53.068V51.628C117.949 51.548 118.197 51.468 118.517 51.388C118.837 51.308 119.213 51.268 119.645 51.268C120.085 51.268 120.473 51.332 120.809 51.46C121.153 51.588 121.421 51.804 121.613 52.108C121.813 52.404 121.913 52.812 121.913 53.332V58H120.113ZM123.588 58V54.1C123.588 53.18 123.832 52.48 124.32 52C124.808 51.512 125.58 51.268 126.636 51.268C127.7 51.268 128.468 51.512 128.94 52C129.42 52.48 129.66 53.18 129.66 54.1V58H127.872V54.076C127.872 53.652 127.772 53.32 127.572 53.08C127.38 52.832 127.06 52.708 126.612 52.708C126.172 52.708 125.852 52.832 125.652 53.08C125.46 53.32 125.364 53.652 125.364 54.076V55.12L125.4 55.132C125.552 54.82 125.732 54.616 125.94 54.52C126.156 54.416 126.448 54.364 126.816 54.364H127.092V55.708H126.816C126.416 55.708 126.112 55.776 125.904 55.912C125.696 56.048 125.552 56.228 125.472 56.452C125.4 56.668 125.364 56.912 125.364 57.184V58H123.588ZM133.086 58V53.656C133.086 53.32 133.006 53.076 132.846 52.924C132.694 52.772 132.442 52.696 132.09 52.696C131.826 52.696 131.582 52.732 131.358 52.804C131.142 52.876 130.938 52.964 130.746 53.068V51.628C130.922 51.548 131.17 51.468 131.49 51.388C131.81 51.308 132.186 51.268 132.618 51.268C133.058 51.268 133.446 51.332 133.782 51.46C134.126 51.588 134.394 51.804 134.586 52.108C134.786 52.404 134.886 52.812 134.886 53.332V58H133.086ZM138.817 58.156C138.345 58.156 137.869 58.104 137.389 58C136.917 57.896 136.497 57.748 136.129 57.556L136.633 56.128C136.793 56.216 136.985 56.308 137.209 56.404C137.433 56.5 137.677 56.58 137.941 56.644C138.205 56.708 138.473 56.74 138.745 56.74C139.065 56.74 139.305 56.696 139.465 56.608C139.633 56.512 139.717 56.368 139.717 56.176C139.717 56.032 139.661 55.916 139.549 55.828C139.445 55.732 139.289 55.644 139.081 55.564C138.873 55.476 138.625 55.384 138.337 55.288C137.913 55.136 137.549 54.972 137.245 54.796C136.941 54.62 136.705 54.404 136.537 54.148C136.377 53.892 136.297 53.572 136.297 53.188C136.297 52.748 136.409 52.388 136.633 52.108C136.857 51.828 137.173 51.62 137.581 51.484C137.989 51.34 138.465 51.268 139.009 51.268C139.457 51.268 139.861 51.304 140.221 51.376C140.581 51.448 140.861 51.54 141.061 51.652V53.068C140.925 53.004 140.745 52.94 140.521 52.876C140.305 52.812 140.069 52.76 139.813 52.72C139.565 52.672 139.325 52.648 139.093 52.648C138.765 52.648 138.517 52.692 138.349 52.78C138.181 52.868 138.097 52.992 138.097 53.152C138.097 53.28 138.153 53.388 138.265 53.476C138.385 53.564 138.557 53.648 138.781 53.728C139.005 53.8 139.273 53.892 139.585 54.004C140.001 54.148 140.353 54.308 140.641 54.484C140.929 54.66 141.145 54.876 141.289 55.132C141.441 55.388 141.517 55.704 141.517 56.08C141.517 56.44 141.433 56.78 141.265 57.1C141.105 57.412 140.829 57.668 140.437 57.868C140.045 58.06 139.505 58.156 138.817 58.156ZM144.524 58.156C144.116 58.156 143.732 58.108 143.372 58.012C143.012 57.924 142.676 57.796 142.364 57.628L142.844 56.32C143.02 56.424 143.232 56.516 143.48 56.596C143.728 56.676 143.972 56.716 144.212 56.716C144.66 56.716 145.016 56.548 145.28 56.212C145.544 55.868 145.676 55.356 145.676 54.676C145.676 54.036 145.544 53.548 145.28 53.212C145.016 52.876 144.604 52.708 144.044 52.708C143.78 52.708 143.508 52.748 143.228 52.828C142.948 52.9 142.716 52.992 142.532 53.104V51.628C142.78 51.516 143.06 51.428 143.372 51.364C143.684 51.3 144.016 51.268 144.368 51.268C145.104 51.268 145.704 51.404 146.168 51.676C146.632 51.948 146.972 52.34 147.188 52.852C147.404 53.356 147.512 53.964 147.512 54.676C147.512 55.812 147.252 56.676 146.732 57.268C146.212 57.86 145.476 58.156 144.524 58.156ZM141.933 50.512V49.756L143.145 49.252H147.429V50.512H141.933ZM148.936 58V54.1C148.936 53.18 149.18 52.48 149.668 52C150.156 51.512 150.932 51.268 151.996 51.268C152.452 51.268 152.856 51.332 153.208 51.46C153.56 51.58 153.828 51.796 154.012 52.108C154.388 52.252 154.648 52.5 154.792 52.852C154.944 53.204 155.02 53.624 155.02 54.112V58H153.232V54.076C153.232 53.652 153.132 53.32 152.932 53.08C152.74 52.832 152.424 52.708 151.984 52.708C151.544 52.708 151.224 52.832 151.024 53.08C150.824 53.32 150.724 53.652 150.724 54.076V55.12L150.76 55.132C150.92 54.82 151.104 54.616 151.312 54.52C151.52 54.416 151.808 54.364 152.176 54.364H152.464V55.708H152.176C151.784 55.708 151.48 55.776 151.264 55.912C151.056 56.048 150.912 56.228 150.832 56.452C150.76 56.668 150.724 56.912 150.724 57.184V58H148.936ZM154.072 52.732L153.088 51.904C153.368 51.808 153.588 51.688 153.748 51.544C153.908 51.392 153.992 51.208 154 50.992H155.572C155.572 51.24 155.52 51.48 155.416 51.712C155.32 51.936 155.16 52.136 154.936 52.312C154.72 52.488 154.432 52.628 154.072 52.732ZM158.598 58.156C158.19 58.156 157.806 58.108 157.446 58.012C157.086 57.924 156.75 57.796 156.438 57.628L156.918 56.32C157.094 56.424 157.306 56.516 157.554 56.596C157.802 56.676 158.046 56.716 158.286 56.716C158.734 56.716 159.09 56.548 159.354 56.212C159.618 55.868 159.75 55.356 159.75 54.676C159.75 54.036 159.618 53.548 159.354 53.212C159.09 52.876 158.678 52.708 158.118 52.708C157.854 52.708 157.582 52.748 157.302 52.828C157.022 52.9 156.79 52.992 156.606 53.104V51.628C156.854 51.516 157.134 51.428 157.446 51.364C157.758 51.3 158.09 51.268 158.442 51.268C159.178 51.268 159.778 51.404 160.242 51.676C160.706 51.948 161.046 52.34 161.262 52.852C161.478 53.356 161.586 53.964 161.586 54.676C161.586 55.812 161.326 56.676 160.806 57.268C160.286 57.86 159.55 58.156 158.598 58.156ZM162.95 58V55.996C162.95 55.492 163.05 55.104 163.25 54.832C163.45 54.56 163.734 54.368 164.102 54.256L164.114 54.208L162.83 53.74V53.428C162.83 53.036 162.946 52.676 163.178 52.348C163.41 52.02 163.75 51.76 164.198 51.568C164.654 51.368 165.206 51.268 165.854 51.268C166.462 51.268 166.986 51.364 167.426 51.556C167.866 51.74 168.206 52.02 168.446 52.396C168.694 52.764 168.818 53.232 168.818 53.8V58H167.018V53.908C167.018 53.508 166.91 53.208 166.694 53.008C166.486 52.808 166.19 52.708 165.806 52.708C165.438 52.708 165.162 52.788 164.978 52.948C164.794 53.1 164.694 53.288 164.678 53.512L165.746 54.004L165.614 54.784C165.326 54.8 165.11 54.904 164.966 55.096C164.822 55.288 164.75 55.548 164.75 55.876V58H162.95ZM172.754 58.156C172.282 58.156 171.806 58.104 171.326 58C170.854 57.896 170.434 57.748 170.066 57.556L170.57 56.128C170.73 56.216 170.922 56.308 171.146 56.404C171.37 56.5 171.614 56.58 171.878 56.644C172.142 56.708 172.41 56.74 172.682 56.74C173.002 56.74 173.242 56.696 173.402 56.608C173.57 56.512 173.654 56.368 173.654 56.176C173.654 56.032 173.598 55.916 173.486 55.828C173.382 55.732 173.226 55.644 173.018 55.564C172.81 55.476 172.562 55.384 172.274 55.288C171.85 55.136 171.486 54.972 171.182 54.796C170.878 54.62 170.642 54.404 170.474 54.148C170.314 53.892 170.234 53.572 170.234 53.188C170.234 52.748 170.346 52.388 170.57 52.108C170.794 51.828 171.11 51.62 171.518 51.484C171.926 51.34 172.402 51.268 172.946 51.268C173.394 51.268 173.798 51.304 174.158 51.376C174.518 51.448 174.798 51.54 174.998 51.652V53.068C174.862 53.004 174.682 52.94 174.458 52.876C174.242 52.812 174.006 52.76 173.75 52.72C173.502 52.672 173.262 52.648 173.03 52.648C172.702 52.648 172.454 52.692 172.286 52.78C172.118 52.868 172.034 52.992 172.034 53.152C172.034 53.28 172.09 53.388 172.202 53.476C172.322 53.564 172.494 53.648 172.718 53.728C172.942 53.8 173.21 53.892 173.522 54.004C173.938 54.148 174.29 54.308 174.578 54.484C174.866 54.66 175.082 54.876 175.226 55.132C175.378 55.388 175.454 55.704 175.454 56.08C175.454 56.44 175.37 56.78 175.202 57.1C175.042 57.412 174.766 57.668 174.374 57.868C173.982 58.06 173.442 58.156 172.754 58.156ZM178.965 58.156C178.493 58.156 178.017 58.104 177.537 58C177.065 57.896 176.645 57.748 176.277 57.556L176.781 56.128C176.941 56.216 177.133 56.308 177.357 56.404C177.581 56.5 177.825 56.58 178.089 56.644C178.353 56.708 178.621 56.74 178.893 56.74C179.213 56.74 179.453 56.696 179.613 56.608C179.781 56.512 179.865 56.368 179.865 56.176C179.865 56.032 179.809 55.916 179.697 55.828C179.593 55.732 179.437 55.644 179.229 55.564C179.021 55.476 178.773 55.384 178.485 55.288C178.061 55.136 177.697 54.972 177.393 54.796C177.089 54.62 176.853 54.404 176.685 54.148C176.525 53.892 176.445 53.572 176.445 53.188C176.445 52.748 176.557 52.388 176.781 52.108C177.005 51.828 177.321 51.62 177.729 51.484C178.137 51.34 178.613 51.268 179.157 51.268C179.605 51.268 180.009 51.304 180.369 51.376C180.729 51.448 181.009 51.54 181.209 51.652V53.068C181.073 53.004 180.893 52.94 180.669 52.876C180.453 52.812 180.217 52.76 179.961 52.72C179.713 52.672 179.473 52.648 179.241 52.648C178.913 52.648 178.665 52.692 178.497 52.78C178.329 52.868 178.245 52.992 178.245 53.152C178.245 53.28 178.301 53.388 178.413 53.476C178.533 53.564 178.705 53.648 178.929 53.728C179.153 53.8 179.421 53.892 179.733 54.004C180.149 54.148 180.501 54.308 180.789 54.484C181.077 54.66 181.293 54.876 181.437 55.132C181.589 55.388 181.665 55.704 181.665 56.08C181.665 56.44 181.581 56.78 181.413 57.1C181.253 57.412 180.977 57.668 180.585 57.868C180.193 58.06 179.653 58.156 178.965 58.156ZM186.796 58.12C186.228 58.12 185.768 58.012 185.416 57.796C185.072 57.58 184.828 57.304 184.684 56.968H184.588L184.396 58H183.028V51.424H184.828V54.568C184.828 55.024 184.88 55.4 184.984 55.696C185.088 55.984 185.24 56.2 185.44 56.344C185.64 56.488 185.88 56.56 186.16 56.56C186.496 56.56 186.752 56.46 186.928 56.26C187.104 56.06 187.192 55.74 187.192 55.3V51.424H188.992V55.696C188.992 56.216 188.908 56.656 188.74 57.016C188.58 57.376 188.336 57.652 188.008 57.844C187.68 58.028 187.276 58.12 186.796 58.12ZM190.678 58V54.1C190.678 53.18 190.922 52.48 191.41 52C191.898 51.512 192.674 51.268 193.738 51.268C194.194 51.268 194.598 51.332 194.95 51.46C195.302 51.58 195.57 51.796 195.754 52.108C196.13 52.252 196.39 52.5 196.534 52.852C196.686 53.204 196.762 53.624 196.762 54.112V58H194.974V54.076C194.974 53.652 194.874 53.32 194.674 53.08C194.482 52.832 194.166 52.708 193.726 52.708C193.286 52.708 192.966 52.832 192.766 53.08C192.566 53.32 192.466 53.652 192.466 54.076V55.12L192.502 55.132C192.662 54.82 192.846 54.616 193.054 54.52C193.262 54.416 193.55 54.364 193.918 54.364H194.206V55.708H193.918C193.526 55.708 193.222 55.776 193.006 55.912C192.798 56.048 192.654 56.228 192.574 56.452C192.502 56.668 192.466 56.912 192.466 57.184V58H190.678ZM195.814 52.732L194.83 51.904C195.11 51.808 195.33 51.688 195.49 51.544C195.65 51.392 195.734 51.208 195.742 50.992H197.314C197.314 51.24 197.262 51.48 197.158 51.712C197.062 51.936 196.902 52.136 196.678 52.312C196.462 52.488 196.174 52.628 195.814 52.732ZM200.328 58V53.656C200.328 53.32 200.248 53.076 200.088 52.924C199.936 52.772 199.684 52.696 199.332 52.696C199.068 52.696 198.824 52.732 198.6 52.804C198.384 52.876 198.18 52.964 197.988 53.068V51.628C198.164 51.548 198.412 51.468 198.732 51.388C199.052 51.308 199.428 51.268 199.86 51.268C200.3 51.268 200.688 51.332 201.024 51.46C201.368 51.588 201.636 51.804 201.828 52.108C202.028 52.404 202.128 52.812 202.128 53.332V58H200.328ZM207.547 58V53.728C207.547 53.344 207.443 53.068 207.235 52.9C207.027 52.732 206.707 52.648 206.275 52.648C205.859 52.648 205.451 52.712 205.051 52.84C204.659 52.96 204.319 53.104 204.031 53.272V51.784C204.263 51.672 204.591 51.56 205.015 51.448C205.439 51.328 205.927 51.268 206.479 51.268C206.903 51.268 207.283 51.32 207.619 51.424C207.963 51.528 208.211 51.732 208.363 52.036C208.699 52.14 208.939 52.344 209.083 52.648C209.235 52.944 209.311 53.328 209.311 53.8V58H207.547ZM205.579 58.12C204.891 58.12 204.359 57.956 203.983 57.628C203.615 57.3 203.431 56.84 203.431 56.248C203.431 55.608 203.659 55.096 204.115 54.712C204.579 54.328 205.307 54.096 206.299 54.016L207.835 53.896V55.192L206.503 55.324C206.023 55.372 205.687 55.468 205.495 55.612C205.311 55.756 205.219 55.948 205.219 56.188C205.219 56.428 205.295 56.608 205.447 56.728C205.607 56.848 205.811 56.908 206.059 56.908C206.155 56.908 206.251 56.9 206.347 56.884C206.443 56.86 206.531 56.836 206.611 56.812L206.767 57.94C206.615 57.996 206.435 58.04 206.227 58.072C206.019 58.104 205.803 58.12 205.579 58.12ZM208.327 52.732L207.343 51.904C207.623 51.808 207.843 51.688 208.003 51.544C208.163 51.392 208.247 51.208 208.255 50.992H209.827C209.827 51.24 209.775 51.48 209.671 51.712C209.575 51.936 209.415 52.136 209.191 52.312C208.975 52.488 208.687 52.628 208.327 52.732ZM213.53 58.12C212.818 58.12 212.262 57.976 211.862 57.688C211.47 57.392 211.194 56.984 211.034 56.464C210.882 55.936 210.806 55.324 210.806 54.628C210.806 53.852 210.882 53.22 211.034 52.732C211.186 52.244 211.414 51.884 211.718 51.652C212.03 51.42 212.41 51.304 212.858 51.304C213.138 51.304 213.382 51.36 213.59 51.472C213.806 51.576 213.978 51.772 214.106 52.06H214.154C214.266 51.764 214.45 51.564 214.706 51.46C214.962 51.356 215.238 51.304 215.534 51.304C216.086 51.304 216.498 51.452 216.77 51.748C217.05 52.044 217.19 52.476 217.19 53.044V58H215.39V53.38C215.39 53.132 215.35 52.964 215.27 52.876C215.19 52.788 215.082 52.744 214.946 52.744C214.794 52.744 214.678 52.788 214.598 52.876C214.526 52.964 214.478 53.112 214.454 53.32H213.746C213.714 53.088 213.654 52.936 213.566 52.864C213.478 52.784 213.374 52.744 213.254 52.744C213.054 52.744 212.898 52.888 212.786 53.176C212.682 53.464 212.63 53.952 212.63 54.64C212.63 55.088 212.662 55.472 212.726 55.792C212.798 56.104 212.918 56.344 213.086 56.512C213.254 56.672 213.494 56.752 213.806 56.752C213.902 56.752 213.99 56.748 214.07 56.74C214.15 56.724 214.218 56.704 214.274 56.68L214.454 57.964C214.326 58.02 214.186 58.06 214.034 58.084C213.882 58.108 213.714 58.12 213.53 58.12ZM221.129 58.156C220.657 58.156 220.181 58.104 219.701 58C219.229 57.896 218.809 57.748 218.441 57.556L218.945 56.128C219.105 56.216 219.297 56.308 219.521 56.404C219.745 56.5 219.989 56.58 220.253 56.644C220.517 56.708 220.785 56.74 221.057 56.74C221.377 56.74 221.617 56.696 221.777 56.608C221.945 56.512 222.029 56.368 222.029 56.176C222.029 56.032 221.973 55.916 221.861 55.828C221.757 55.732 221.601 55.644 221.393 55.564C221.185 55.476 220.937 55.384 220.649 55.288C220.225 55.136 219.861 54.972 219.557 54.796C219.253 54.62 219.017 54.404 218.849 54.148C218.689 53.892 218.609 53.572 218.609 53.188C218.609 52.748 218.721 52.388 218.945 52.108C219.169 51.828 219.485 51.62 219.893 51.484C220.301 51.34 220.777 51.268 221.321 51.268C221.769 51.268 222.173 51.304 222.533 51.376C222.893 51.448 223.173 51.54 223.373 51.652V53.068C223.237 53.004 223.057 52.94 222.833 52.876C222.617 52.812 222.381 52.76 222.125 52.72C221.877 52.672 221.637 52.648 221.405 52.648C221.077 52.648 220.829 52.692 220.661 52.78C220.493 52.868 220.409 52.992 220.409 53.152C220.409 53.28 220.465 53.388 220.577 53.476C220.697 53.564 220.869 53.648 221.093 53.728C221.317 53.8 221.585 53.892 221.897 54.004C222.313 54.148 222.665 54.308 222.953 54.484C223.241 54.66 223.457 54.876 223.601 55.132C223.753 55.388 223.829 55.704 223.829 56.08C223.829 56.44 223.745 56.78 223.577 57.1C223.417 57.412 223.141 57.668 222.749 57.868C222.357 58.06 221.817 58.156 221.129 58.156ZM221.205 50.776C221.141 50.664 221.089 50.52 221.049 50.344C221.001 50.168 220.977 49.992 220.977 49.816C220.977 49.592 221.021 49.388 221.109 49.204C221.189 49.02 221.337 48.876 221.553 48.772C221.761 48.66 222.049 48.604 222.417 48.604H224.157V49.816H223.005C222.853 49.816 222.737 49.844 222.657 49.9C222.569 49.948 222.525 50.04 222.525 50.176C222.525 50.232 222.533 50.292 222.549 50.356C222.565 50.412 222.589 50.472 222.621 50.536L221.205 50.776ZM227.729 58V56.6705L230.835 53.794C231.1 53.5384 231.321 53.3082 231.5 53.1037C231.682 52.8991 231.82 52.6989 231.914 52.5028C232.007 52.304 232.054 52.0895 232.054 51.8594C232.054 51.6037 231.996 51.3835 231.879 51.1989C231.763 51.0114 231.604 50.8679 231.402 50.7685C231.2 50.6662 230.972 50.6151 230.716 50.6151C230.449 50.6151 230.216 50.669 230.017 50.777C229.818 50.8849 229.665 51.0398 229.557 51.2415C229.449 51.4432 229.395 51.6832 229.395 51.9616H227.644C227.644 51.3906 227.773 50.8949 228.031 50.4744C228.29 50.054 228.652 49.7287 229.118 49.4986C229.584 49.2685 230.121 49.1534 230.729 49.1534C231.354 49.1534 231.898 49.2642 232.361 49.4858C232.827 49.7045 233.189 50.0085 233.448 50.3977C233.706 50.7869 233.835 51.233 233.835 51.7358C233.835 52.0653 233.77 52.3906 233.639 52.7116C233.512 53.0327 233.283 53.3892 232.953 53.7812C232.624 54.1705 232.159 54.6378 231.56 55.1832L230.286 56.4318V56.4915H233.95V58H227.729Z" fill="#252525" fill-opacity="0.55"/>
<path d="M113.876 58.156C112.9 58.156 112.176 57.92 111.704 57.448C111.232 56.968 110.996 56.26 110.996 55.324C110.996 55.164 111 54.972 111.008 54.748C111.024 54.516 111.044 54.312 111.068 54.136H113.948V55.276H112.76V55.444C112.76 55.764 112.8 56.028 112.88 56.236C112.96 56.436 113.08 56.584 113.24 56.68C113.408 56.776 113.616 56.824 113.864 56.824C114.136 56.824 114.364 56.764 114.548 56.644C114.74 56.524 114.884 56.32 114.98 56.032C115.084 55.744 115.136 55.348 115.136 54.844C115.136 54.372 115.08 53.98 114.968 53.668C114.864 53.348 114.684 53.108 114.428 52.948C114.18 52.788 113.836 52.708 113.396 52.708C113.156 52.708 112.908 52.736 112.652 52.792C112.396 52.84 112.152 52.904 111.92 52.984C111.696 53.064 111.5 53.152 111.332 53.248V51.748C111.508 51.652 111.724 51.568 111.98 51.496C112.244 51.424 112.528 51.368 112.832 51.328C113.136 51.288 113.436 51.268 113.732 51.268C114.508 51.268 115.132 51.412 115.604 51.7C116.084 51.98 116.432 52.38 116.648 52.9C116.872 53.42 116.984 54.036 116.984 54.748C116.984 55.476 116.876 56.096 116.66 56.608C116.452 57.112 116.12 57.496 115.664 57.76C115.208 58.024 114.612 58.156 113.876 58.156ZM120.113 58V53.656C120.113 53.32 120.033 53.076 119.873 52.924C119.721 52.772 119.469 52.696 119.117 52.696C118.853 52.696 118.609 52.732 118.385 52.804C118.169 52.876 117.965 52.964 117.773 53.068V51.628C117.949 51.548 118.197 51.468 118.517 51.388C118.837 51.308 119.213 51.268 119.645 51.268C120.085 51.268 120.473 51.332 120.809 51.46C121.153 51.588 121.421 51.804 121.613 52.108C121.813 52.404 121.913 52.812 121.913 53.332V58H120.113ZM123.588 58V54.1C123.588 53.18 123.832 52.48 124.32 52C124.808 51.512 125.58 51.268 126.636 51.268C127.7 51.268 128.468 51.512 128.94 52C129.42 52.48 129.66 53.18 129.66 54.1V58H127.872V54.076C127.872 53.652 127.772 53.32 127.572 53.08C127.38 52.832 127.06 52.708 126.612 52.708C126.172 52.708 125.852 52.832 125.652 53.08C125.46 53.32 125.364 53.652 125.364 54.076V55.12L125.4 55.132C125.552 54.82 125.732 54.616 125.94 54.52C126.156 54.416 126.448 54.364 126.816 54.364H127.092V55.708H126.816C126.416 55.708 126.112 55.776 125.904 55.912C125.696 56.048 125.552 56.228 125.472 56.452C125.4 56.668 125.364 56.912 125.364 57.184V58H123.588ZM133.086 58V53.656C133.086 53.32 133.006 53.076 132.846 52.924C132.694 52.772 132.442 52.696 132.09 52.696C131.826 52.696 131.582 52.732 131.358 52.804C131.142 52.876 130.938 52.964 130.746 53.068V51.628C130.922 51.548 131.17 51.468 131.49 51.388C131.81 51.308 132.186 51.268 132.618 51.268C133.058 51.268 133.446 51.332 133.782 51.46C134.126 51.588 134.394 51.804 134.586 52.108C134.786 52.404 134.886 52.812 134.886 53.332V58H133.086ZM138.817 58.156C138.345 58.156 137.869 58.104 137.389 58C136.917 57.896 136.497 57.748 136.129 57.556L136.633 56.128C136.793 56.216 136.985 56.308 137.209 56.404C137.433 56.5 137.677 56.58 137.941 56.644C138.205 56.708 138.473 56.74 138.745 56.74C139.065 56.74 139.305 56.696 139.465 56.608C139.633 56.512 139.717 56.368 139.717 56.176C139.717 56.032 139.661 55.916 139.549 55.828C139.445 55.732 139.289 55.644 139.081 55.564C138.873 55.476 138.625 55.384 138.337 55.288C137.913 55.136 137.549 54.972 137.245 54.796C136.941 54.62 136.705 54.404 136.537 54.148C136.377 53.892 136.297 53.572 136.297 53.188C136.297 52.748 136.409 52.388 136.633 52.108C136.857 51.828 137.173 51.62 137.581 51.484C137.989 51.34 138.465 51.268 139.009 51.268C139.457 51.268 139.861 51.304 140.221 51.376C140.581 51.448 140.861 51.54 141.061 51.652V53.068C140.925 53.004 140.745 52.94 140.521 52.876C140.305 52.812 140.069 52.76 139.813 52.72C139.565 52.672 139.325 52.648 139.093 52.648C138.765 52.648 138.517 52.692 138.349 52.78C138.181 52.868 138.097 52.992 138.097 53.152C138.097 53.28 138.153 53.388 138.265 53.476C138.385 53.564 138.557 53.648 138.781 53.728C139.005 53.8 139.273 53.892 139.585 54.004C140.001 54.148 140.353 54.308 140.641 54.484C140.929 54.66 141.145 54.876 141.289 55.132C141.441 55.388 141.517 55.704 141.517 56.08C141.517 56.44 141.433 56.78 141.265 57.1C141.105 57.412 140.829 57.668 140.437 57.868C140.045 58.06 139.505 58.156 138.817 58.156ZM144.524 58.156C144.116 58.156 143.732 58.108 143.372 58.012C143.012 57.924 142.676 57.796 142.364 57.628L142.844 56.32C143.02 56.424 143.232 56.516 143.48 56.596C143.728 56.676 143.972 56.716 144.212 56.716C144.66 56.716 145.016 56.548 145.28 56.212C145.544 55.868 145.676 55.356 145.676 54.676C145.676 54.036 145.544 53.548 145.28 53.212C145.016 52.876 144.604 52.708 144.044 52.708C143.78 52.708 143.508 52.748 143.228 52.828C142.948 52.9 142.716 52.992 142.532 53.104V51.628C142.78 51.516 143.06 51.428 143.372 51.364C143.684 51.3 144.016 51.268 144.368 51.268C145.104 51.268 145.704 51.404 146.168 51.676C146.632 51.948 146.972 52.34 147.188 52.852C147.404 53.356 147.512 53.964 147.512 54.676C147.512 55.812 147.252 56.676 146.732 57.268C146.212 57.86 145.476 58.156 144.524 58.156ZM141.933 50.512V49.756L143.145 49.252H147.429V50.512H141.933ZM148.936 58V54.1C148.936 53.18 149.18 52.48 149.668 52C150.156 51.512 150.932 51.268 151.996 51.268C152.452 51.268 152.856 51.332 153.208 51.46C153.56 51.58 153.828 51.796 154.012 52.108C154.388 52.252 154.648 52.5 154.792 52.852C154.944 53.204 155.02 53.624 155.02 54.112V58H153.232V54.076C153.232 53.652 153.132 53.32 152.932 53.08C152.74 52.832 152.424 52.708 151.984 52.708C151.544 52.708 151.224 52.832 151.024 53.08C150.824 53.32 150.724 53.652 150.724 54.076V55.12L150.76 55.132C150.92 54.82 151.104 54.616 151.312 54.52C151.52 54.416 151.808 54.364 152.176 54.364H152.464V55.708H152.176C151.784 55.708 151.48 55.776 151.264 55.912C151.056 56.048 150.912 56.228 150.832 56.452C150.76 56.668 150.724 56.912 150.724 57.184V58H148.936ZM154.072 52.732L153.088 51.904C153.368 51.808 153.588 51.688 153.748 51.544C153.908 51.392 153.992 51.208 154 50.992H155.572C155.572 51.24 155.52 51.48 155.416 51.712C155.32 51.936 155.16 52.136 154.936 52.312C154.72 52.488 154.432 52.628 154.072 52.732ZM158.598 58.156C158.19 58.156 157.806 58.108 157.446 58.012C157.086 57.924 156.75 57.796 156.438 57.628L156.918 56.32C157.094 56.424 157.306 56.516 157.554 56.596C157.802 56.676 158.046 56.716 158.286 56.716C158.734 56.716 159.09 56.548 159.354 56.212C159.618 55.868 159.75 55.356 159.75 54.676C159.75 54.036 159.618 53.548 159.354 53.212C159.09 52.876 158.678 52.708 158.118 52.708C157.854 52.708 157.582 52.748 157.302 52.828C157.022 52.9 156.79 52.992 156.606 53.104V51.628C156.854 51.516 157.134 51.428 157.446 51.364C157.758 51.3 158.09 51.268 158.442 51.268C159.178 51.268 159.778 51.404 160.242 51.676C160.706 51.948 161.046 52.34 161.262 52.852C161.478 53.356 161.586 53.964 161.586 54.676C161.586 55.812 161.326 56.676 160.806 57.268C160.286 57.86 159.55 58.156 158.598 58.156ZM162.95 58V55.996C162.95 55.492 163.05 55.104 163.25 54.832C163.45 54.56 163.734 54.368 164.102 54.256L164.114 54.208L162.83 53.74V53.428C162.83 53.036 162.946 52.676 163.178 52.348C163.41 52.02 163.75 51.76 164.198 51.568C164.654 51.368 165.206 51.268 165.854 51.268C166.462 51.268 166.986 51.364 167.426 51.556C167.866 51.74 168.206 52.02 168.446 52.396C168.694 52.764 168.818 53.232 168.818 53.8V58H167.018V53.908C167.018 53.508 166.91 53.208 166.694 53.008C166.486 52.808 166.19 52.708 165.806 52.708C165.438 52.708 165.162 52.788 164.978 52.948C164.794 53.1 164.694 53.288 164.678 53.512L165.746 54.004L165.614 54.784C165.326 54.8 165.11 54.904 164.966 55.096C164.822 55.288 164.75 55.548 164.75 55.876V58H162.95ZM172.754 58.156C172.282 58.156 171.806 58.104 171.326 58C170.854 57.896 170.434 57.748 170.066 57.556L170.57 56.128C170.73 56.216 170.922 56.308 171.146 56.404C171.37 56.5 171.614 56.58 171.878 56.644C172.142 56.708 172.41 56.74 172.682 56.74C173.002 56.74 173.242 56.696 173.402 56.608C173.57 56.512 173.654 56.368 173.654 56.176C173.654 56.032 173.598 55.916 173.486 55.828C173.382 55.732 173.226 55.644 173.018 55.564C172.81 55.476 172.562 55.384 172.274 55.288C171.85 55.136 171.486 54.972 171.182 54.796C170.878 54.62 170.642 54.404 170.474 54.148C170.314 53.892 170.234 53.572 170.234 53.188C170.234 52.748 170.346 52.388 170.57 52.108C170.794 51.828 171.11 51.62 171.518 51.484C171.926 51.34 172.402 51.268 172.946 51.268C173.394 51.268 173.798 51.304 174.158 51.376C174.518 51.448 174.798 51.54 174.998 51.652V53.068C174.862 53.004 174.682 52.94 174.458 52.876C174.242 52.812 174.006 52.76 173.75 52.72C173.502 52.672 173.262 52.648 173.03 52.648C172.702 52.648 172.454 52.692 172.286 52.78C172.118 52.868 172.034 52.992 172.034 53.152C172.034 53.28 172.09 53.388 172.202 53.476C172.322 53.564 172.494 53.648 172.718 53.728C172.942 53.8 173.21 53.892 173.522 54.004C173.938 54.148 174.29 54.308 174.578 54.484C174.866 54.66 175.082 54.876 175.226 55.132C175.378 55.388 175.454 55.704 175.454 56.08C175.454 56.44 175.37 56.78 175.202 57.1C175.042 57.412 174.766 57.668 174.374 57.868C173.982 58.06 173.442 58.156 172.754 58.156ZM178.965 58.156C178.493 58.156 178.017 58.104 177.537 58C177.065 57.896 176.645 57.748 176.277 57.556L176.781 56.128C176.941 56.216 177.133 56.308 177.357 56.404C177.581 56.5 177.825 56.58 178.089 56.644C178.353 56.708 178.621 56.74 178.893 56.74C179.213 56.74 179.453 56.696 179.613 56.608C179.781 56.512 179.865 56.368 179.865 56.176C179.865 56.032 179.809 55.916 179.697 55.828C179.593 55.732 179.437 55.644 179.229 55.564C179.021 55.476 178.773 55.384 178.485 55.288C178.061 55.136 177.697 54.972 177.393 54.796C177.089 54.62 176.853 54.404 176.685 54.148C176.525 53.892 176.445 53.572 176.445 53.188C176.445 52.748 176.557 52.388 176.781 52.108C177.005 51.828 177.321 51.62 177.729 51.484C178.137 51.34 178.613 51.268 179.157 51.268C179.605 51.268 180.009 51.304 180.369 51.376C180.729 51.448 181.009 51.54 181.209 51.652V53.068C181.073 53.004 180.893 52.94 180.669 52.876C180.453 52.812 180.217 52.76 179.961 52.72C179.713 52.672 179.473 52.648 179.241 52.648C178.913 52.648 178.665 52.692 178.497 52.78C178.329 52.868 178.245 52.992 178.245 53.152C178.245 53.28 178.301 53.388 178.413 53.476C178.533 53.564 178.705 53.648 178.929 53.728C179.153 53.8 179.421 53.892 179.733 54.004C180.149 54.148 180.501 54.308 180.789 54.484C181.077 54.66 181.293 54.876 181.437 55.132C181.589 55.388 181.665 55.704 181.665 56.08C181.665 56.44 181.581 56.78 181.413 57.1C181.253 57.412 180.977 57.668 180.585 57.868C180.193 58.06 179.653 58.156 178.965 58.156ZM186.796 58.12C186.228 58.12 185.768 58.012 185.416 57.796C185.072 57.58 184.828 57.304 184.684 56.968H184.588L184.396 58H183.028V51.424H184.828V54.568C184.828 55.024 184.88 55.4 184.984 55.696C185.088 55.984 185.24 56.2 185.44 56.344C185.64 56.488 185.88 56.56 186.16 56.56C186.496 56.56 186.752 56.46 186.928 56.26C187.104 56.06 187.192 55.74 187.192 55.3V51.424H188.992V55.696C188.992 56.216 188.908 56.656 188.74 57.016C188.58 57.376 188.336 57.652 188.008 57.844C187.68 58.028 187.276 58.12 186.796 58.12ZM190.678 58V54.1C190.678 53.18 190.922 52.48 191.41 52C191.898 51.512 192.674 51.268 193.738 51.268C194.194 51.268 194.598 51.332 194.95 51.46C195.302 51.58 195.57 51.796 195.754 52.108C196.13 52.252 196.39 52.5 196.534 52.852C196.686 53.204 196.762 53.624 196.762 54.112V58H194.974V54.076C194.974 53.652 194.874 53.32 194.674 53.08C194.482 52.832 194.166 52.708 193.726 52.708C193.286 52.708 192.966 52.832 192.766 53.08C192.566 53.32 192.466 53.652 192.466 54.076V55.12L192.502 55.132C192.662 54.82 192.846 54.616 193.054 54.52C193.262 54.416 193.55 54.364 193.918 54.364H194.206V55.708H193.918C193.526 55.708 193.222 55.776 193.006 55.912C192.798 56.048 192.654 56.228 192.574 56.452C192.502 56.668 192.466 56.912 192.466 57.184V58H190.678ZM195.814 52.732L194.83 51.904C195.11 51.808 195.33 51.688 195.49 51.544C195.65 51.392 195.734 51.208 195.742 50.992H197.314C197.314 51.24 197.262 51.48 197.158 51.712C197.062 51.936 196.902 52.136 196.678 52.312C196.462 52.488 196.174 52.628 195.814 52.732ZM200.328 58V53.656C200.328 53.32 200.248 53.076 200.088 52.924C199.936 52.772 199.684 52.696 199.332 52.696C199.068 52.696 198.824 52.732 198.6 52.804C198.384 52.876 198.18 52.964 197.988 53.068V51.628C198.164 51.548 198.412 51.468 198.732 51.388C199.052 51.308 199.428 51.268 199.86 51.268C200.3 51.268 200.688 51.332 201.024 51.46C201.368 51.588 201.636 51.804 201.828 52.108C202.028 52.404 202.128 52.812 202.128 53.332V58H200.328ZM207.547 58V53.728C207.547 53.344 207.443 53.068 207.235 52.9C207.027 52.732 206.707 52.648 206.275 52.648C205.859 52.648 205.451 52.712 205.051 52.84C204.659 52.96 204.319 53.104 204.031 53.272V51.784C204.263 51.672 204.591 51.56 205.015 51.448C205.439 51.328 205.927 51.268 206.479 51.268C206.903 51.268 207.283 51.32 207.619 51.424C207.963 51.528 208.211 51.732 208.363 52.036C208.699 52.14 208.939 52.344 209.083 52.648C209.235 52.944 209.311 53.328 209.311 53.8V58H207.547ZM205.579 58.12C204.891 58.12 204.359 57.956 203.983 57.628C203.615 57.3 203.431 56.84 203.431 56.248C203.431 55.608 203.659 55.096 204.115 54.712C204.579 54.328 205.307 54.096 206.299 54.016L207.835 53.896V55.192L206.503 55.324C206.023 55.372 205.687 55.468 205.495 55.612C205.311 55.756 205.219 55.948 205.219 56.188C205.219 56.428 205.295 56.608 205.447 56.728C205.607 56.848 205.811 56.908 206.059 56.908C206.155 56.908 206.251 56.9 206.347 56.884C206.443 56.86 206.531 56.836 206.611 56.812L206.767 57.94C206.615 57.996 206.435 58.04 206.227 58.072C206.019 58.104 205.803 58.12 205.579 58.12ZM208.327 52.732L207.343 51.904C207.623 51.808 207.843 51.688 208.003 51.544C208.163 51.392 208.247 51.208 208.255 50.992H209.827C209.827 51.24 209.775 51.48 209.671 51.712C209.575 51.936 209.415 52.136 209.191 52.312C208.975 52.488 208.687 52.628 208.327 52.732ZM213.53 58.12C212.818 58.12 212.262 57.976 211.862 57.688C211.47 57.392 211.194 56.984 211.034 56.464C210.882 55.936 210.806 55.324 210.806 54.628C210.806 53.852 210.882 53.22 211.034 52.732C211.186 52.244 211.414 51.884 211.718 51.652C212.03 51.42 212.41 51.304 212.858 51.304C213.138 51.304 213.382 51.36 213.59 51.472C213.806 51.576 213.978 51.772 214.106 52.06H214.154C214.266 51.764 214.45 51.564 214.706 51.46C214.962 51.356 215.238 51.304 215.534 51.304C216.086 51.304 216.498 51.452 216.77 51.748C217.05 52.044 217.19 52.476 217.19 53.044V58H215.39V53.38C215.39 53.132 215.35 52.964 215.27 52.876C215.19 52.788 215.082 52.744 214.946 52.744C214.794 52.744 214.678 52.788 214.598 52.876C214.526 52.964 214.478 53.112 214.454 53.32H213.746C213.714 53.088 213.654 52.936 213.566 52.864C213.478 52.784 213.374 52.744 213.254 52.744C213.054 52.744 212.898 52.888 212.786 53.176C212.682 53.464 212.63 53.952 212.63 54.64C212.63 55.088 212.662 55.472 212.726 55.792C212.798 56.104 212.918 56.344 213.086 56.512C213.254 56.672 213.494 56.752 213.806 56.752C213.902 56.752 213.99 56.748 214.07 56.74C214.15 56.724 214.218 56.704 214.274 56.68L214.454 57.964C214.326 58.02 214.186 58.06 214.034 58.084C213.882 58.108 213.714 58.12 213.53 58.12ZM221.129 58.156C220.657 58.156 220.181 58.104 219.701 58C219.229 57.896 218.809 57.748 218.441 57.556L218.945 56.128C219.105 56.216 219.297 56.308 219.521 56.404C219.745 56.5 219.989 56.58 220.253 56.644C220.517 56.708 220.785 56.74 221.057 56.74C221.377 56.74 221.617 56.696 221.777 56.608C221.945 56.512 222.029 56.368 222.029 56.176C222.029 56.032 221.973 55.916 221.861 55.828C221.757 55.732 221.601 55.644 221.393 55.564C221.185 55.476 220.937 55.384 220.649 55.288C220.225 55.136 219.861 54.972 219.557 54.796C219.253 54.62 219.017 54.404 218.849 54.148C218.689 53.892 218.609 53.572 218.609 53.188C218.609 52.748 218.721 52.388 218.945 52.108C219.169 51.828 219.485 51.62 219.893 51.484C220.301 51.34 220.777 51.268 221.321 51.268C221.769 51.268 222.173 51.304 222.533 51.376C222.893 51.448 223.173 51.54 223.373 51.652V53.068C223.237 53.004 223.057 52.94 222.833 52.876C222.617 52.812 222.381 52.76 222.125 52.72C221.877 52.672 221.637 52.648 221.405 52.648C221.077 52.648 220.829 52.692 220.661 52.78C220.493 52.868 220.409 52.992 220.409 53.152C220.409 53.28 220.465 53.388 220.577 53.476C220.697 53.564 220.869 53.648 221.093 53.728C221.317 53.8 221.585 53.892 221.897 54.004C222.313 54.148 222.665 54.308 222.953 54.484C223.241 54.66 223.457 54.876 223.601 55.132C223.753 55.388 223.829 55.704 223.829 56.08C223.829 56.44 223.745 56.78 223.577 57.1C223.417 57.412 223.141 57.668 222.749 57.868C222.357 58.06 221.817 58.156 221.129 58.156ZM221.205 50.776C221.141 50.664 221.089 50.52 221.049 50.344C221.001 50.168 220.977 49.992 220.977 49.816C220.977 49.592 221.021 49.388 221.109 49.204C221.189 49.02 221.337 48.876 221.553 48.772C221.761 48.66 222.049 48.604 222.417 48.604H224.157V49.816H223.005C222.853 49.816 222.737 49.844 222.657 49.9C222.569 49.948 222.525 50.04 222.525 50.176C222.525 50.232 222.533 50.292 222.549 50.356C222.565 50.412 222.589 50.472 222.621 50.536L221.205 50.776ZM227.729 58V56.6705L230.835 53.794C231.1 53.5384 231.321 53.3082 231.5 53.1037C231.682 52.8991 231.82 52.6989 231.914 52.5028C232.007 52.304 232.054 52.0895 232.054 51.8594C232.054 51.6037 231.996 51.3835 231.879 51.1989C231.763 51.0114 231.604 50.8679 231.402 50.7685C231.2 50.6662 230.972 50.6151 230.716 50.6151C230.449 50.6151 230.216 50.669 230.017 50.777C229.818 50.8849 229.665 51.0398 229.557 51.2415C229.449 51.4432 229.395 51.6832 229.395 51.9616H227.644C227.644 51.3906 227.773 50.8949 228.031 50.4744C228.29 50.054 228.652 49.7287 229.118 49.4986C229.584 49.2685 230.121 49.1534 230.729 49.1534C231.354 49.1534 231.898 49.2642 232.361 49.4858C232.827 49.7045 233.189 50.0085 233.448 50.3977C233.706 50.7869 233.835 51.233 233.835 51.7358C233.835 52.0653 233.77 52.3906 233.639 52.7116C233.512 53.0327 233.283 53.3892 232.953 53.7812C232.624 54.1705 232.159 54.6378 231.56 55.1832L230.286 56.4318V56.4915H233.95V58H227.729Z" fill="#9C9C9C" style="mix-blend-mode:overlay"/>
</svg>
