<svg width="253" height="178" viewBox="0 0 253 178" fill="none" xmlns="http://www.w3.org/2000/svg">
<g filter="url(#filter0_b_19_44)">
<path d="M1.38782 6.87982C1.38782 4.11839 3.62639 1.87982 6.38782 1.87982H30.6376C33.3991 1.87982 35.6376 4.1184 35.6376 6.87982V64.134C35.6376 66.8954 37.8762 69.134 40.6376 69.134H246.1C248.862 69.134 251.1 71.3726 251.1 74.134V111.461C251.1 114.222 248.862 116.461 246.1 116.461H76.7556C73.9942 116.461 71.7556 118.7 71.7556 121.461V171.243C71.7556 174.004 69.5171 176.243 66.7556 176.243H40.6376C37.8762 176.243 35.6376 174.004 35.6376 171.243V144.502C35.6376 141.74 33.3991 139.502 30.6376 139.502H6.38781C3.62639 139.502 1.38782 137.263 1.38782 134.502V6.87982Z" fill="#FFF4F1"/>
<path d="M1.38782 6.87982C1.38782 4.11839 3.62639 1.87982 6.38782 1.87982H30.6376C33.3991 1.87982 35.6376 4.1184 35.6376 6.87982V64.134C35.6376 66.8954 37.8762 69.134 40.6376 69.134H246.1C248.862 69.134 251.1 71.3726 251.1 74.134V111.461C251.1 114.222 248.862 116.461 246.1 116.461H76.7556C73.9942 116.461 71.7556 118.7 71.7556 121.461V171.243C71.7556 174.004 69.5171 176.243 66.7556 176.243H40.6376C37.8762 176.243 35.6376 174.004 35.6376 171.243V144.502C35.6376 141.74 33.3991 139.502 30.6376 139.502H6.38781C3.62639 139.502 1.38782 137.263 1.38782 134.502V6.87982Z" stroke="#FAC5B9" stroke-width="2"/>
</g>
<path d="M81.8498 94.9899C80.8738 94.9899 80.1498 94.7539 79.6778 94.2819C79.2058 93.8019 78.9698 93.0939 78.9698 92.1579C78.9698 91.9979 78.9738 91.8059 78.9818 91.5819C78.9978 91.3499 79.0178 91.1459 79.0418 90.9699H81.9218V92.1099H80.7338V92.2779C80.7338 92.5979 80.7738 92.8619 80.8538 93.0699C80.9338 93.2699 81.0538 93.4179 81.2138 93.5139C81.3818 93.6099 81.5898 93.6579 81.8378 93.6579C82.1098 93.6579 82.3378 93.5979 82.5218 93.4779C82.7138 93.3579 82.8578 93.1539 82.9538 92.8659C83.0578 92.5779 83.1098 92.1819 83.1098 91.6779C83.1098 91.2059 83.0538 90.8139 82.9418 90.5019C82.8378 90.1819 82.6578 89.9419 82.4018 89.7819C82.1538 89.6219 81.8098 89.5419 81.3698 89.5419C81.1298 89.5419 80.8818 89.5699 80.6258 89.6259C80.3698 89.6739 80.1258 89.7379 79.8938 89.8179C79.6698 89.8979 79.4738 89.9859 79.3058 90.0819V88.5819C79.4818 88.4859 79.6978 88.4019 79.9538 88.3299C80.2178 88.2579 80.5018 88.2019 80.8058 88.1619C81.1098 88.1219 81.4098 88.1019 81.7058 88.1019C82.4818 88.1019 83.1058 88.2459 83.5778 88.5339C84.0578 88.8139 84.4058 89.2139 84.6218 89.7339C84.8458 90.2539 84.9578 90.8699 84.9578 91.5819C84.9578 92.3099 84.8498 92.9299 84.6338 93.4419C84.4258 93.9459 84.0938 94.3299 83.6378 94.5939C83.1818 94.8579 82.5858 94.9899 81.8498 94.9899ZM88.0871 94.8339V90.4899C88.0871 90.1539 88.0071 89.9099 87.8471 89.7579C87.6951 89.6059 87.4431 89.5299 87.0911 89.5299C86.8271 89.5299 86.5831 89.5659 86.3591 89.6379C86.1431 89.7099 85.9391 89.7979 85.7471 89.9019V88.4619C85.9231 88.3819 86.1711 88.3019 86.4911 88.2219C86.8111 88.1419 87.1871 88.1019 87.6191 88.1019C88.0591 88.1019 88.4471 88.1659 88.7831 88.2939C89.1271 88.4219 89.3951 88.6379 89.5871 88.9419C89.7871 89.2379 89.8871 89.6459 89.8871 90.1659V94.8339H88.0871ZM91.5619 94.8339V90.9339C91.5619 90.0139 91.8059 89.3139 92.2939 88.8339C92.7819 88.3459 93.5539 88.1019 94.6099 88.1019C95.6739 88.1019 96.4419 88.3459 96.9139 88.8339C97.3939 89.3139 97.6339 90.0139 97.6339 90.9339V94.8339H95.8459V90.9099C95.8459 90.4859 95.7459 90.1539 95.5459 89.9139C95.3539 89.6659 95.0339 89.5419 94.5859 89.5419C94.1459 89.5419 93.8259 89.6659 93.6259 89.9139C93.4339 90.1539 93.3379 90.4859 93.3379 90.9099V91.9539L93.3739 91.9659C93.5259 91.6539 93.7059 91.4499 93.9139 91.3539C94.1299 91.2499 94.4219 91.1979 94.7899 91.1979H95.0659V92.5419H94.7899C94.3899 92.5419 94.0859 92.6099 93.8779 92.7459C93.6699 92.8819 93.5259 93.0619 93.4459 93.2859C93.3739 93.5019 93.3379 93.7459 93.3379 94.0179V94.8339H91.5619ZM101.06 94.8339V90.4899C101.06 90.1539 100.98 89.9099 100.82 89.7579C100.668 89.6059 100.416 89.5299 100.064 89.5299C99.7998 89.5299 99.5558 89.5659 99.3318 89.6379C99.1158 89.7099 98.9118 89.7979 98.7198 89.9019V88.4619C98.8958 88.3819 99.1438 88.3019 99.4638 88.2219C99.7838 88.1419 100.16 88.1019 100.592 88.1019C101.032 88.1019 101.42 88.1659 101.756 88.2939C102.1 88.4219 102.368 88.6379 102.56 88.9419C102.76 89.2379 102.86 89.6459 102.86 90.1659V94.8339H101.06ZM106.791 94.9899C106.319 94.9899 105.843 94.9379 105.363 94.8339C104.891 94.7299 104.471 94.5819 104.103 94.3899L104.607 92.9619C104.767 93.0499 104.959 93.1419 105.183 93.2379C105.407 93.3339 105.651 93.4139 105.915 93.4779C106.179 93.5419 106.447 93.5739 106.719 93.5739C107.039 93.5739 107.279 93.5299 107.439 93.4419C107.607 93.3459 107.691 93.2019 107.691 93.0099C107.691 92.8659 107.635 92.7499 107.523 92.6619C107.419 92.5659 107.263 92.4779 107.055 92.3979C106.847 92.3099 106.599 92.2179 106.311 92.1219C105.887 91.9699 105.523 91.8059 105.219 91.6299C104.915 91.4539 104.679 91.2379 104.511 90.9819C104.351 90.7259 104.271 90.4059 104.271 90.0219C104.271 89.5819 104.383 89.2219 104.607 88.9419C104.831 88.6619 105.147 88.4539 105.555 88.3179C105.963 88.1739 106.439 88.1019 106.983 88.1019C107.431 88.1019 107.835 88.1379 108.195 88.2099C108.555 88.2819 108.835 88.3739 109.035 88.4859V89.9019C108.899 89.8379 108.719 89.7739 108.495 89.7099C108.279 89.6459 108.043 89.5939 107.787 89.5539C107.539 89.5059 107.299 89.4819 107.067 89.4819C106.739 89.4819 106.491 89.5259 106.323 89.6139C106.155 89.7019 106.071 89.8259 106.071 89.9859C106.071 90.1139 106.127 90.2219 106.239 90.3099C106.359 90.3979 106.531 90.4819 106.755 90.5619C106.979 90.6339 107.247 90.7259 107.559 90.8379C107.975 90.9819 108.327 91.1419 108.615 91.3179C108.903 91.4939 109.119 91.7099 109.263 91.9659C109.415 92.2219 109.491 92.5379 109.491 92.9139C109.491 93.2739 109.407 93.6139 109.239 93.9339C109.079 94.2459 108.803 94.5019 108.411 94.7019C108.019 94.8939 107.479 94.9899 106.791 94.9899ZM112.498 94.9899C112.09 94.9899 111.706 94.9419 111.346 94.8459C110.986 94.7579 110.65 94.6299 110.338 94.4619L110.818 93.1539C110.994 93.2579 111.206 93.3499 111.454 93.4299C111.702 93.5099 111.946 93.5499 112.186 93.5499C112.634 93.5499 112.99 93.3819 113.254 93.0459C113.518 92.7019 113.65 92.1899 113.65 91.5099C113.65 90.8699 113.518 90.3819 113.254 90.0459C112.99 89.7099 112.578 89.5419 112.018 89.5419C111.754 89.5419 111.482 89.5819 111.202 89.6619C110.922 89.7339 110.69 89.8259 110.506 89.9379V88.4619C110.754 88.3499 111.034 88.2619 111.346 88.1979C111.658 88.1339 111.99 88.1019 112.342 88.1019C113.078 88.1019 113.678 88.2379 114.142 88.5099C114.606 88.7819 114.946 89.1739 115.162 89.6859C115.378 90.1899 115.486 90.7979 115.486 91.5099C115.486 92.6459 115.226 93.5099 114.706 94.1019C114.186 94.6939 113.45 94.9899 112.498 94.9899ZM109.907 87.3459V86.5899L111.119 86.0859H115.403V87.3459H109.907ZM116.91 94.8339V90.9339C116.91 90.0139 117.154 89.3139 117.642 88.8339C118.13 88.3459 118.906 88.1019 119.97 88.1019C120.426 88.1019 120.83 88.1659 121.182 88.2939C121.534 88.4139 121.802 88.6299 121.986 88.9419C122.362 89.0859 122.622 89.3339 122.766 89.6859C122.918 90.0379 122.994 90.4579 122.994 90.9459V94.8339H121.206V90.9099C121.206 90.4859 121.106 90.1539 120.906 89.9139C120.714 89.6659 120.398 89.5419 119.958 89.5419C119.518 89.5419 119.198 89.6659 118.998 89.9139C118.798 90.1539 118.698 90.4859 118.698 90.9099V91.9539L118.734 91.9659C118.894 91.6539 119.078 91.4499 119.286 91.3539C119.494 91.2499 119.782 91.1979 120.15 91.1979H120.438V92.5419H120.15C119.758 92.5419 119.454 92.6099 119.238 92.7459C119.03 92.8819 118.886 93.0619 118.806 93.2859C118.734 93.5019 118.698 93.7459 118.698 94.0179V94.8339H116.91ZM122.046 89.5659L121.062 88.7379C121.342 88.6419 121.562 88.5219 121.722 88.3779C121.882 88.2259 121.966 88.0419 121.974 87.8259H123.546C123.546 88.0739 123.494 88.3139 123.39 88.5459C123.294 88.7699 123.134 88.9699 122.91 89.1459C122.694 89.3219 122.406 89.4619 122.046 89.5659ZM126.572 94.9899C126.164 94.9899 125.78 94.9419 125.42 94.8459C125.06 94.7579 124.724 94.6299 124.412 94.4619L124.892 93.1539C125.068 93.2579 125.28 93.3499 125.528 93.4299C125.776 93.5099 126.02 93.5499 126.26 93.5499C126.708 93.5499 127.064 93.3819 127.328 93.0459C127.592 92.7019 127.724 92.1899 127.724 91.5099C127.724 90.8699 127.592 90.3819 127.328 90.0459C127.064 89.7099 126.652 89.5419 126.092 89.5419C125.828 89.5419 125.556 89.5819 125.276 89.6619C124.996 89.7339 124.764 89.8259 124.58 89.9379V88.4619C124.828 88.3499 125.108 88.2619 125.42 88.1979C125.732 88.1339 126.064 88.1019 126.416 88.1019C127.152 88.1019 127.752 88.2379 128.216 88.5099C128.68 88.7819 129.02 89.1739 129.236 89.6859C129.452 90.1899 129.56 90.7979 129.56 91.5099C129.56 92.6459 129.3 93.5099 128.78 94.1019C128.26 94.6939 127.524 94.9899 126.572 94.9899ZM133.948 94.8339V90.9819L134.38 90.9339C134.364 91.3659 134.184 91.7019 133.84 91.9419C133.504 92.1819 133.068 92.3019 132.532 92.3019C132.132 92.3019 131.76 92.2259 131.416 92.0739C131.08 91.9139 130.808 91.6739 130.6 91.3539C130.4 91.0339 130.3 90.6299 130.3 90.1419C130.3 89.5179 130.476 89.0299 130.828 88.6779C131.18 88.3179 131.668 88.1379 132.292 88.1379C132.404 88.1379 132.536 88.1459 132.688 88.1619C132.84 88.1779 133 88.2179 133.168 88.2819L133.036 89.4219C132.956 89.3979 132.888 89.3819 132.832 89.3739C132.776 89.3659 132.728 89.3619 132.688 89.3619C132.496 89.3619 132.332 89.4219 132.196 89.5419C132.06 89.6619 131.992 89.8499 131.992 90.1059C131.992 90.3619 132.072 90.5659 132.232 90.7179C132.4 90.8699 132.64 90.9459 132.952 90.9459C133.296 90.9459 133.548 90.8579 133.708 90.6819C133.868 90.4979 133.948 90.2179 133.948 89.8419V88.2579H135.748V94.8339H133.948ZM143.941 86.1067V94.8339H142.096V87.8581H142.045L140.046 89.1109V87.4746L142.207 86.1067H143.941ZM149.437 95.0257C148.704 95.0229 148.074 94.8425 147.545 94.4845C147.02 94.1266 146.615 93.6081 146.331 92.9291C146.049 92.2501 145.91 91.4334 145.913 90.4788C145.913 89.5271 146.054 88.716 146.335 88.0456C146.619 87.3751 147.024 86.8652 147.549 86.5158C148.078 86.1635 148.707 85.9873 149.437 85.9873C150.167 85.9873 150.795 86.1635 151.321 86.5158C151.849 86.868 152.255 87.3794 152.539 88.0498C152.824 88.7175 152.964 89.5271 152.961 90.4788C152.961 91.4362 152.819 92.2544 152.535 92.9334C152.254 93.6123 151.85 94.1308 151.325 94.4888C150.799 94.8467 150.17 95.0257 149.437 95.0257ZM149.437 93.4959C149.937 93.4959 150.336 93.2444 150.635 92.7416C150.933 92.2388 151.081 91.4845 151.078 90.4788C151.078 89.8169 151.01 89.2658 150.873 88.8254C150.74 88.3851 150.549 88.0541 150.302 87.8325C150.058 87.6109 149.77 87.5001 149.437 87.5001C148.94 87.5001 148.542 87.7487 148.244 88.2459C147.946 88.743 147.795 89.4873 147.792 90.4788C147.792 91.1493 147.859 91.7089 147.993 92.1578C148.129 92.6038 148.321 92.9391 148.568 93.1635C148.815 93.3851 149.105 93.4959 149.437 93.4959ZM157.699 95.0257C156.966 95.0229 156.335 94.8425 155.807 94.4845C155.281 94.1266 154.876 93.6081 154.592 92.9291C154.311 92.2501 154.172 91.4334 154.175 90.4788C154.175 89.5271 154.315 88.716 154.597 88.0456C154.881 87.3751 155.286 86.8652 155.811 86.5158C156.339 86.1635 156.969 85.9873 157.699 85.9873C158.429 85.9873 159.057 86.1635 159.582 86.5158C160.111 86.868 160.517 87.3794 160.801 88.0498C161.085 88.7175 161.226 89.5271 161.223 90.4788C161.223 91.4362 161.081 92.2544 160.797 92.9334C160.516 93.6123 160.112 94.1308 159.587 94.4888C159.061 94.8467 158.432 95.0257 157.699 95.0257ZM157.699 93.4959C158.199 93.4959 158.598 93.2444 158.896 92.7416C159.195 92.2388 159.342 91.4845 159.339 90.4788C159.339 89.8169 159.271 89.2658 159.135 88.8254C159.001 88.3851 158.811 88.0541 158.564 87.8325C158.32 87.6109 158.031 87.5001 157.699 87.5001C157.202 87.5001 156.804 87.7487 156.506 88.2459C156.207 88.743 156.057 89.4873 156.054 90.4788C156.054 91.1493 156.121 91.7089 156.254 92.1578C156.391 92.6038 156.582 92.9391 156.83 93.1635C157.077 93.3851 157.366 93.4959 157.699 93.4959ZM168.413 94.9899C167.373 94.9899 166.617 94.7499 166.145 94.2699C165.681 93.7819 165.449 93.0779 165.449 92.1579V88.2579H167.249V92.2539C167.249 92.6779 167.341 93.0019 167.525 93.2259C167.717 93.4419 168.013 93.5499 168.413 93.5499C168.813 93.5499 169.105 93.4419 169.289 93.2259C169.481 93.0019 169.577 92.6779 169.577 92.2539V85.8939H171.377V92.1579C171.377 93.0779 171.141 93.7819 170.669 94.2699C170.205 94.7499 169.453 94.9899 168.413 94.9899ZM164.581 87.3459V86.6739L165.565 86.1579H169.045V87.3459H164.581ZM167.581 86.6139V85.2699H169.045V86.6139H167.581Z" fill="#252525" fill-opacity="0.55"/>
<path d="M81.8498 94.9899C80.8738 94.9899 80.1498 94.7539 79.6778 94.2819C79.2058 93.8019 78.9698 93.0939 78.9698 92.1579C78.9698 91.9979 78.9738 91.8059 78.9818 91.5819C78.9978 91.3499 79.0178 91.1459 79.0418 90.9699H81.9218V92.1099H80.7338V92.2779C80.7338 92.5979 80.7738 92.8619 80.8538 93.0699C80.9338 93.2699 81.0538 93.4179 81.2138 93.5139C81.3818 93.6099 81.5898 93.6579 81.8378 93.6579C82.1098 93.6579 82.3378 93.5979 82.5218 93.4779C82.7138 93.3579 82.8578 93.1539 82.9538 92.8659C83.0578 92.5779 83.1098 92.1819 83.1098 91.6779C83.1098 91.2059 83.0538 90.8139 82.9418 90.5019C82.8378 90.1819 82.6578 89.9419 82.4018 89.7819C82.1538 89.6219 81.8098 89.5419 81.3698 89.5419C81.1298 89.5419 80.8818 89.5699 80.6258 89.6259C80.3698 89.6739 80.1258 89.7379 79.8938 89.8179C79.6698 89.8979 79.4738 89.9859 79.3058 90.0819V88.5819C79.4818 88.4859 79.6978 88.4019 79.9538 88.3299C80.2178 88.2579 80.5018 88.2019 80.8058 88.1619C81.1098 88.1219 81.4098 88.1019 81.7058 88.1019C82.4818 88.1019 83.1058 88.2459 83.5778 88.5339C84.0578 88.8139 84.4058 89.2139 84.6218 89.7339C84.8458 90.2539 84.9578 90.8699 84.9578 91.5819C84.9578 92.3099 84.8498 92.9299 84.6338 93.4419C84.4258 93.9459 84.0938 94.3299 83.6378 94.5939C83.1818 94.8579 82.5858 94.9899 81.8498 94.9899ZM88.0871 94.8339V90.4899C88.0871 90.1539 88.0071 89.9099 87.8471 89.7579C87.6951 89.6059 87.4431 89.5299 87.0911 89.5299C86.8271 89.5299 86.5831 89.5659 86.3591 89.6379C86.1431 89.7099 85.9391 89.7979 85.7471 89.9019V88.4619C85.9231 88.3819 86.1711 88.3019 86.4911 88.2219C86.8111 88.1419 87.1871 88.1019 87.6191 88.1019C88.0591 88.1019 88.4471 88.1659 88.7831 88.2939C89.1271 88.4219 89.3951 88.6379 89.5871 88.9419C89.7871 89.2379 89.8871 89.6459 89.8871 90.1659V94.8339H88.0871ZM91.5619 94.8339V90.9339C91.5619 90.0139 91.8059 89.3139 92.2939 88.8339C92.7819 88.3459 93.5539 88.1019 94.6099 88.1019C95.6739 88.1019 96.4419 88.3459 96.9139 88.8339C97.3939 89.3139 97.6339 90.0139 97.6339 90.9339V94.8339H95.8459V90.9099C95.8459 90.4859 95.7459 90.1539 95.5459 89.9139C95.3539 89.6659 95.0339 89.5419 94.5859 89.5419C94.1459 89.5419 93.8259 89.6659 93.6259 89.9139C93.4339 90.1539 93.3379 90.4859 93.3379 90.9099V91.9539L93.3739 91.9659C93.5259 91.6539 93.7059 91.4499 93.9139 91.3539C94.1299 91.2499 94.4219 91.1979 94.7899 91.1979H95.0659V92.5419H94.7899C94.3899 92.5419 94.0859 92.6099 93.8779 92.7459C93.6699 92.8819 93.5259 93.0619 93.4459 93.2859C93.3739 93.5019 93.3379 93.7459 93.3379 94.0179V94.8339H91.5619ZM101.06 94.8339V90.4899C101.06 90.1539 100.98 89.9099 100.82 89.7579C100.668 89.6059 100.416 89.5299 100.064 89.5299C99.7998 89.5299 99.5558 89.5659 99.3318 89.6379C99.1158 89.7099 98.9118 89.7979 98.7198 89.9019V88.4619C98.8958 88.3819 99.1438 88.3019 99.4638 88.2219C99.7838 88.1419 100.16 88.1019 100.592 88.1019C101.032 88.1019 101.42 88.1659 101.756 88.2939C102.1 88.4219 102.368 88.6379 102.56 88.9419C102.76 89.2379 102.86 89.6459 102.86 90.1659V94.8339H101.06ZM106.791 94.9899C106.319 94.9899 105.843 94.9379 105.363 94.8339C104.891 94.7299 104.471 94.5819 104.103 94.3899L104.607 92.9619C104.767 93.0499 104.959 93.1419 105.183 93.2379C105.407 93.3339 105.651 93.4139 105.915 93.4779C106.179 93.5419 106.447 93.5739 106.719 93.5739C107.039 93.5739 107.279 93.5299 107.439 93.4419C107.607 93.3459 107.691 93.2019 107.691 93.0099C107.691 92.8659 107.635 92.7499 107.523 92.6619C107.419 92.5659 107.263 92.4779 107.055 92.3979C106.847 92.3099 106.599 92.2179 106.311 92.1219C105.887 91.9699 105.523 91.8059 105.219 91.6299C104.915 91.4539 104.679 91.2379 104.511 90.9819C104.351 90.7259 104.271 90.4059 104.271 90.0219C104.271 89.5819 104.383 89.2219 104.607 88.9419C104.831 88.6619 105.147 88.4539 105.555 88.3179C105.963 88.1739 106.439 88.1019 106.983 88.1019C107.431 88.1019 107.835 88.1379 108.195 88.2099C108.555 88.2819 108.835 88.3739 109.035 88.4859V89.9019C108.899 89.8379 108.719 89.7739 108.495 89.7099C108.279 89.6459 108.043 89.5939 107.787 89.5539C107.539 89.5059 107.299 89.4819 107.067 89.4819C106.739 89.4819 106.491 89.5259 106.323 89.6139C106.155 89.7019 106.071 89.8259 106.071 89.9859C106.071 90.1139 106.127 90.2219 106.239 90.3099C106.359 90.3979 106.531 90.4819 106.755 90.5619C106.979 90.6339 107.247 90.7259 107.559 90.8379C107.975 90.9819 108.327 91.1419 108.615 91.3179C108.903 91.4939 109.119 91.7099 109.263 91.9659C109.415 92.2219 109.491 92.5379 109.491 92.9139C109.491 93.2739 109.407 93.6139 109.239 93.9339C109.079 94.2459 108.803 94.5019 108.411 94.7019C108.019 94.8939 107.479 94.9899 106.791 94.9899ZM112.498 94.9899C112.09 94.9899 111.706 94.9419 111.346 94.8459C110.986 94.7579 110.65 94.6299 110.338 94.4619L110.818 93.1539C110.994 93.2579 111.206 93.3499 111.454 93.4299C111.702 93.5099 111.946 93.5499 112.186 93.5499C112.634 93.5499 112.99 93.3819 113.254 93.0459C113.518 92.7019 113.65 92.1899 113.65 91.5099C113.65 90.8699 113.518 90.3819 113.254 90.0459C112.99 89.7099 112.578 89.5419 112.018 89.5419C111.754 89.5419 111.482 89.5819 111.202 89.6619C110.922 89.7339 110.69 89.8259 110.506 89.9379V88.4619C110.754 88.3499 111.034 88.2619 111.346 88.1979C111.658 88.1339 111.99 88.1019 112.342 88.1019C113.078 88.1019 113.678 88.2379 114.142 88.5099C114.606 88.7819 114.946 89.1739 115.162 89.6859C115.378 90.1899 115.486 90.7979 115.486 91.5099C115.486 92.6459 115.226 93.5099 114.706 94.1019C114.186 94.6939 113.45 94.9899 112.498 94.9899ZM109.907 87.3459V86.5899L111.119 86.0859H115.403V87.3459H109.907ZM116.91 94.8339V90.9339C116.91 90.0139 117.154 89.3139 117.642 88.8339C118.13 88.3459 118.906 88.1019 119.97 88.1019C120.426 88.1019 120.83 88.1659 121.182 88.2939C121.534 88.4139 121.802 88.6299 121.986 88.9419C122.362 89.0859 122.622 89.3339 122.766 89.6859C122.918 90.0379 122.994 90.4579 122.994 90.9459V94.8339H121.206V90.9099C121.206 90.4859 121.106 90.1539 120.906 89.9139C120.714 89.6659 120.398 89.5419 119.958 89.5419C119.518 89.5419 119.198 89.6659 118.998 89.9139C118.798 90.1539 118.698 90.4859 118.698 90.9099V91.9539L118.734 91.9659C118.894 91.6539 119.078 91.4499 119.286 91.3539C119.494 91.2499 119.782 91.1979 120.15 91.1979H120.438V92.5419H120.15C119.758 92.5419 119.454 92.6099 119.238 92.7459C119.03 92.8819 118.886 93.0619 118.806 93.2859C118.734 93.5019 118.698 93.7459 118.698 94.0179V94.8339H116.91ZM122.046 89.5659L121.062 88.7379C121.342 88.6419 121.562 88.5219 121.722 88.3779C121.882 88.2259 121.966 88.0419 121.974 87.8259H123.546C123.546 88.0739 123.494 88.3139 123.39 88.5459C123.294 88.7699 123.134 88.9699 122.91 89.1459C122.694 89.3219 122.406 89.4619 122.046 89.5659ZM126.572 94.9899C126.164 94.9899 125.78 94.9419 125.42 94.8459C125.06 94.7579 124.724 94.6299 124.412 94.4619L124.892 93.1539C125.068 93.2579 125.28 93.3499 125.528 93.4299C125.776 93.5099 126.02 93.5499 126.26 93.5499C126.708 93.5499 127.064 93.3819 127.328 93.0459C127.592 92.7019 127.724 92.1899 127.724 91.5099C127.724 90.8699 127.592 90.3819 127.328 90.0459C127.064 89.7099 126.652 89.5419 126.092 89.5419C125.828 89.5419 125.556 89.5819 125.276 89.6619C124.996 89.7339 124.764 89.8259 124.58 89.9379V88.4619C124.828 88.3499 125.108 88.2619 125.42 88.1979C125.732 88.1339 126.064 88.1019 126.416 88.1019C127.152 88.1019 127.752 88.2379 128.216 88.5099C128.68 88.7819 129.02 89.1739 129.236 89.6859C129.452 90.1899 129.56 90.7979 129.56 91.5099C129.56 92.6459 129.3 93.5099 128.78 94.1019C128.26 94.6939 127.524 94.9899 126.572 94.9899ZM133.948 94.8339V90.9819L134.38 90.9339C134.364 91.3659 134.184 91.7019 133.84 91.9419C133.504 92.1819 133.068 92.3019 132.532 92.3019C132.132 92.3019 131.76 92.2259 131.416 92.0739C131.08 91.9139 130.808 91.6739 130.6 91.3539C130.4 91.0339 130.3 90.6299 130.3 90.1419C130.3 89.5179 130.476 89.0299 130.828 88.6779C131.18 88.3179 131.668 88.1379 132.292 88.1379C132.404 88.1379 132.536 88.1459 132.688 88.1619C132.84 88.1779 133 88.2179 133.168 88.2819L133.036 89.4219C132.956 89.3979 132.888 89.3819 132.832 89.3739C132.776 89.3659 132.728 89.3619 132.688 89.3619C132.496 89.3619 132.332 89.4219 132.196 89.5419C132.06 89.6619 131.992 89.8499 131.992 90.1059C131.992 90.3619 132.072 90.5659 132.232 90.7179C132.4 90.8699 132.64 90.9459 132.952 90.9459C133.296 90.9459 133.548 90.8579 133.708 90.6819C133.868 90.4979 133.948 90.2179 133.948 89.8419V88.2579H135.748V94.8339H133.948ZM143.941 86.1067V94.8339H142.096V87.8581H142.045L140.046 89.1109V87.4746L142.207 86.1067H143.941ZM149.437 95.0257C148.704 95.0229 148.074 94.8425 147.545 94.4845C147.02 94.1266 146.615 93.6081 146.331 92.9291C146.049 92.2501 145.91 91.4334 145.913 90.4788C145.913 89.5271 146.054 88.716 146.335 88.0456C146.619 87.3751 147.024 86.8652 147.549 86.5158C148.078 86.1635 148.707 85.9873 149.437 85.9873C150.167 85.9873 150.795 86.1635 151.321 86.5158C151.849 86.868 152.255 87.3794 152.539 88.0498C152.824 88.7175 152.964 89.5271 152.961 90.4788C152.961 91.4362 152.819 92.2544 152.535 92.9334C152.254 93.6123 151.85 94.1308 151.325 94.4888C150.799 94.8467 150.17 95.0257 149.437 95.0257ZM149.437 93.4959C149.937 93.4959 150.336 93.2444 150.635 92.7416C150.933 92.2388 151.081 91.4845 151.078 90.4788C151.078 89.8169 151.01 89.2658 150.873 88.8254C150.74 88.3851 150.549 88.0541 150.302 87.8325C150.058 87.6109 149.77 87.5001 149.437 87.5001C148.94 87.5001 148.542 87.7487 148.244 88.2459C147.946 88.743 147.795 89.4873 147.792 90.4788C147.792 91.1493 147.859 91.7089 147.993 92.1578C148.129 92.6038 148.321 92.9391 148.568 93.1635C148.815 93.3851 149.105 93.4959 149.437 93.4959ZM157.699 95.0257C156.966 95.0229 156.335 94.8425 155.807 94.4845C155.281 94.1266 154.876 93.6081 154.592 92.9291C154.311 92.2501 154.172 91.4334 154.175 90.4788C154.175 89.5271 154.315 88.716 154.597 88.0456C154.881 87.3751 155.286 86.8652 155.811 86.5158C156.339 86.1635 156.969 85.9873 157.699 85.9873C158.429 85.9873 159.057 86.1635 159.582 86.5158C160.111 86.868 160.517 87.3794 160.801 88.0498C161.085 88.7175 161.226 89.5271 161.223 90.4788C161.223 91.4362 161.081 92.2544 160.797 92.9334C160.516 93.6123 160.112 94.1308 159.587 94.4888C159.061 94.8467 158.432 95.0257 157.699 95.0257ZM157.699 93.4959C158.199 93.4959 158.598 93.2444 158.896 92.7416C159.195 92.2388 159.342 91.4845 159.339 90.4788C159.339 89.8169 159.271 89.2658 159.135 88.8254C159.001 88.3851 158.811 88.0541 158.564 87.8325C158.32 87.6109 158.031 87.5001 157.699 87.5001C157.202 87.5001 156.804 87.7487 156.506 88.2459C156.207 88.743 156.057 89.4873 156.054 90.4788C156.054 91.1493 156.121 91.7089 156.254 92.1578C156.391 92.6038 156.582 92.9391 156.83 93.1635C157.077 93.3851 157.366 93.4959 157.699 93.4959ZM168.413 94.9899C167.373 94.9899 166.617 94.7499 166.145 94.2699C165.681 93.7819 165.449 93.0779 165.449 92.1579V88.2579H167.249V92.2539C167.249 92.6779 167.341 93.0019 167.525 93.2259C167.717 93.4419 168.013 93.5499 168.413 93.5499C168.813 93.5499 169.105 93.4419 169.289 93.2259C169.481 93.0019 169.577 92.6779 169.577 92.2539V85.8939H171.377V92.1579C171.377 93.0779 171.141 93.7819 170.669 94.2699C170.205 94.7499 169.453 94.9899 168.413 94.9899ZM164.581 87.3459V86.6739L165.565 86.1579H169.045V87.3459H164.581ZM167.581 86.6139V85.2699H169.045V86.6139H167.581Z" fill="#9C9C9C" style="mix-blend-mode:overlay"/>
<defs>
<filter id="filter0_b_19_44" x="-3.61218" y="-3.12018" width="259.712" height="184.363" filterUnits="userSpaceOnUse" color-interpolation-filters="sRGB">
<feFlood flood-opacity="0" result="BackgroundImageFix"/>
<feGaussianBlur in="BackgroundImageFix" stdDeviation="2"/>
<feComposite in2="SourceAlpha" operator="in" result="effect1_backgroundBlur_19_44"/>
<feBlend mode="normal" in="SourceGraphic" in2="effect1_backgroundBlur_19_44" result="shape"/>
</filter>
</defs>
</svg>
