<svg width="231" height="195" viewBox="0 0 231 195" fill="none" xmlns="http://www.w3.org/2000/svg">
<path d="M46.9785 6.02405C46.9785 3.26263 49.2171 1.02405 51.9785 1.02405H203.264C206.025 1.02405 208.264 3.26262 208.264 6.02405V78.8463C208.264 81.6078 206.025 83.8463 203.264 83.8463H200.81C198.048 83.8463 195.81 86.0849 195.81 88.8463V121.192C195.81 123.953 198.048 126.192 200.81 126.192H224.437C227.198 126.192 229.437 128.43 229.437 131.192V153.573C229.437 156.335 227.198 158.573 224.437 158.573H221.982C219.221 158.573 216.982 160.812 216.982 163.573V188.446C216.982 191.207 214.744 193.446 211.982 193.446H6.51965C3.75823 193.446 1.51965 191.207 1.51965 188.446V131.192C1.51965 128.43 3.75823 126.192 6.51965 126.192H56.9239C59.6853 126.192 61.9239 123.953 61.9239 121.192V88.8463C61.9239 86.0849 59.6853 83.8463 56.9239 83.8463H51.9785C49.2171 83.8463 46.9785 81.6078 46.9785 78.8463V6.02405Z" fill="#FFFBF1" stroke="#FAEAB9" stroke-width="2"/>
<path d="M79.6669 54.156C78.6909 54.156 77.9669 53.92 77.4949 53.448C77.0229 52.968 76.7869 52.26 76.7869 51.324C76.7869 51.164 76.7909 50.972 76.7989 50.748C76.8149 50.516 76.8349 50.312 76.8589 50.136H79.7389V51.276H78.5509V51.444C78.5509 51.764 78.5909 52.028 78.6709 52.236C78.7509 52.436 78.8709 52.584 79.0309 52.68C79.1989 52.776 79.4069 52.824 79.6549 52.824C79.9269 52.824 80.1549 52.764 80.3389 52.644C80.5309 52.524 80.6749 52.32 80.7709 52.032C80.8749 51.744 80.9269 51.348 80.9269 50.844C80.9269 50.372 80.8709 49.98 80.7589 49.668C80.6549 49.348 80.4749 49.108 80.2189 48.948C79.9709 48.788 79.6269 48.708 79.1869 48.708C78.9469 48.708 78.6989 48.736 78.4429 48.792C78.1869 48.84 77.9429 48.904 77.7109 48.984C77.4869 49.064 77.2909 49.152 77.1229 49.248V47.748C77.2989 47.652 77.5149 47.568 77.7709 47.496C78.0349 47.424 78.3189 47.368 78.6229 47.328C78.9269 47.288 79.2269 47.268 79.5229 47.268C80.2989 47.268 80.9229 47.412 81.3949 47.7C81.8749 47.98 82.2229 48.38 82.4389 48.9C82.6629 49.42 82.7749 50.036 82.7749 50.748C82.7749 51.476 82.6669 52.096 82.4509 52.608C82.2429 53.112 81.9109 53.496 81.4549 53.76C80.9989 54.024 80.4029 54.156 79.6669 54.156ZM85.9042 54V49.656C85.9042 49.32 85.8242 49.076 85.6642 48.924C85.5122 48.772 85.2602 48.696 84.9082 48.696C84.6442 48.696 84.4002 48.732 84.1762 48.804C83.9602 48.876 83.7562 48.964 83.5642 49.068V47.628C83.7402 47.548 83.9882 47.468 84.3082 47.388C84.6282 47.308 85.0042 47.268 85.4362 47.268C85.8762 47.268 86.2642 47.332 86.6002 47.46C86.9442 47.588 87.2122 47.804 87.4042 48.108C87.6042 48.404 87.7042 48.812 87.7042 49.332V54H85.9042ZM89.3791 54V50.1C89.3791 49.18 89.6231 48.48 90.1111 48C90.5991 47.512 91.3711 47.268 92.4271 47.268C93.4911 47.268 94.2591 47.512 94.7311 48C95.2111 48.48 95.4511 49.18 95.4511 50.1V54H93.6631V50.076C93.6631 49.652 93.5631 49.32 93.3631 49.08C93.1711 48.832 92.8511 48.708 92.4031 48.708C91.9631 48.708 91.6431 48.832 91.4431 49.08C91.2511 49.32 91.1551 49.652 91.1551 50.076V51.12L91.1911 51.132C91.3431 50.82 91.5231 50.616 91.7311 50.52C91.9471 50.416 92.2391 50.364 92.6071 50.364H92.8831V51.708H92.6071C92.2071 51.708 91.9031 51.776 91.6951 51.912C91.4871 52.048 91.3431 52.228 91.2631 52.452C91.1911 52.668 91.1551 52.912 91.1551 53.184V54H89.3791ZM98.8769 54V49.656C98.8769 49.32 98.7969 49.076 98.6369 48.924C98.4849 48.772 98.2329 48.696 97.8809 48.696C97.6169 48.696 97.3729 48.732 97.1489 48.804C96.9329 48.876 96.7289 48.964 96.5369 49.068V47.628C96.7129 47.548 96.9609 47.468 97.2809 47.388C97.6009 47.308 97.9769 47.268 98.4089 47.268C98.8489 47.268 99.2369 47.332 99.5729 47.46C99.9169 47.588 100.185 47.804 100.377 48.108C100.577 48.404 100.677 48.812 100.677 49.332V54H98.8769ZM104.608 54.156C104.136 54.156 103.66 54.104 103.18 54C102.708 53.896 102.288 53.748 101.92 53.556L102.424 52.128C102.584 52.216 102.776 52.308 103 52.404C103.224 52.5 103.468 52.58 103.732 52.644C103.996 52.708 104.264 52.74 104.536 52.74C104.856 52.74 105.096 52.696 105.256 52.608C105.424 52.512 105.508 52.368 105.508 52.176C105.508 52.032 105.452 51.916 105.34 51.828C105.236 51.732 105.08 51.644 104.872 51.564C104.664 51.476 104.416 51.384 104.128 51.288C103.704 51.136 103.34 50.972 103.036 50.796C102.732 50.62 102.496 50.404 102.328 50.148C102.168 49.892 102.088 49.572 102.088 49.188C102.088 48.748 102.2 48.388 102.424 48.108C102.648 47.828 102.964 47.62 103.372 47.484C103.78 47.34 104.256 47.268 104.8 47.268C105.248 47.268 105.652 47.304 106.012 47.376C106.372 47.448 106.652 47.54 106.852 47.652V49.068C106.716 49.004 106.536 48.94 106.312 48.876C106.096 48.812 105.86 48.76 105.604 48.72C105.356 48.672 105.116 48.648 104.884 48.648C104.556 48.648 104.308 48.692 104.14 48.78C103.972 48.868 103.888 48.992 103.888 49.152C103.888 49.28 103.944 49.388 104.056 49.476C104.176 49.564 104.348 49.648 104.572 49.728C104.796 49.8 105.064 49.892 105.376 50.004C105.792 50.148 106.144 50.308 106.432 50.484C106.72 50.66 106.936 50.876 107.08 51.132C107.232 51.388 107.308 51.704 107.308 52.08C107.308 52.44 107.224 52.78 107.056 53.1C106.896 53.412 106.62 53.668 106.228 53.868C105.836 54.06 105.296 54.156 104.608 54.156ZM110.411 54.12C110.051 54.12 109.747 54.064 109.499 53.952C109.251 53.84 109.063 53.672 108.935 53.448C108.807 53.216 108.743 52.928 108.743 52.584V47.424H110.543V52.368C110.543 52.52 110.575 52.632 110.639 52.704C110.711 52.776 110.819 52.812 110.963 52.812C111.027 52.812 111.095 52.804 111.167 52.788C111.239 52.772 111.307 52.752 111.371 52.728L111.539 53.88C111.387 53.96 111.215 54.02 111.023 54.06C110.831 54.1 110.627 54.12 110.411 54.12ZM113.11 54V51.24H112.426V50.136H114.73V52.632H114.814C115.078 52.632 115.302 52.56 115.486 52.416C115.678 52.272 115.822 52.06 115.918 51.78C116.014 51.492 116.062 51.132 116.062 50.7C116.062 50.204 115.99 49.812 115.846 49.524C115.71 49.228 115.506 49.016 115.234 48.888C114.962 48.76 114.626 48.696 114.226 48.696C113.81 48.696 113.434 48.756 113.098 48.876C112.762 48.988 112.462 49.124 112.198 49.284V47.784C112.462 47.648 112.794 47.528 113.194 47.424C113.594 47.32 114.054 47.268 114.574 47.268C115.35 47.268 115.978 47.392 116.458 47.64C116.946 47.888 117.306 48.264 117.538 48.768C117.77 49.272 117.886 49.904 117.886 50.664C117.886 51.376 117.778 51.984 117.562 52.488C117.354 52.984 117.01 53.36 116.53 53.616C116.058 53.872 115.426 54 114.634 54H113.11ZM121.53 54.156C121.058 54.156 120.582 54.104 120.102 54C119.63 53.896 119.21 53.748 118.842 53.556L119.346 52.128C119.506 52.216 119.698 52.308 119.922 52.404C120.146 52.5 120.39 52.58 120.654 52.644C120.918 52.708 121.186 52.74 121.458 52.74C121.778 52.74 122.018 52.696 122.178 52.608C122.346 52.512 122.43 52.368 122.43 52.176C122.43 52.032 122.374 51.916 122.262 51.828C122.158 51.732 122.002 51.644 121.794 51.564C121.586 51.476 121.338 51.384 121.05 51.288C120.626 51.136 120.262 50.972 119.958 50.796C119.654 50.62 119.418 50.404 119.25 50.148C119.09 49.892 119.01 49.572 119.01 49.188C119.01 48.748 119.122 48.388 119.346 48.108C119.57 47.828 119.886 47.62 120.294 47.484C120.702 47.34 121.178 47.268 121.722 47.268C122.17 47.268 122.574 47.304 122.934 47.376C123.294 47.448 123.574 47.54 123.774 47.652V49.068C123.638 49.004 123.458 48.94 123.234 48.876C123.018 48.812 122.782 48.76 122.526 48.72C122.278 48.672 122.038 48.648 121.806 48.648C121.478 48.648 121.23 48.692 121.062 48.78C120.894 48.868 120.81 48.992 120.81 49.152C120.81 49.28 120.866 49.388 120.978 49.476C121.098 49.564 121.27 49.648 121.494 49.728C121.718 49.8 121.986 49.892 122.298 50.004C122.714 50.148 123.066 50.308 123.354 50.484C123.642 50.66 123.858 50.876 124.002 51.132C124.154 51.388 124.23 51.704 124.23 52.08C124.23 52.44 124.146 52.78 123.978 53.1C123.818 53.412 123.542 53.668 123.15 53.868C122.758 54.06 122.218 54.156 121.53 54.156ZM118.341 46.512V45.756L119.553 45.252H123.837V46.512H118.341ZM131.809 56.352C131.449 56.352 131.089 56.316 130.729 56.244C130.369 56.18 130.037 56.08 129.733 55.944V54.42C129.941 54.548 130.205 54.66 130.525 54.756C130.853 54.86 131.197 54.912 131.557 54.912C131.901 54.912 132.193 54.86 132.433 54.756C132.681 54.652 132.869 54.492 132.997 54.276C133.133 54.06 133.201 53.784 133.201 53.448V53.1H133.117C132.965 53.324 132.745 53.516 132.457 53.676C132.177 53.836 131.813 53.916 131.365 53.916C130.965 53.916 130.613 53.844 130.309 53.7C130.013 53.556 129.781 53.332 129.613 53.028C129.445 52.716 129.361 52.316 129.361 51.828V49.812C129.361 49.532 129.309 49.312 129.205 49.152C129.109 48.984 128.977 48.864 128.809 48.792C128.641 48.72 128.449 48.684 128.233 48.684C127.929 48.684 127.677 48.752 127.477 48.888C127.277 49.016 127.169 49.212 127.153 49.476L128.197 49.98L128.077 50.76C127.781 50.768 127.557 50.84 127.405 50.976C127.253 51.104 127.177 51.332 127.177 51.66V52.392C127.177 52.568 127.213 52.696 127.285 52.776C127.365 52.848 127.489 52.884 127.657 52.884C127.729 52.884 127.801 52.88 127.873 52.872C127.953 52.856 128.021 52.836 128.077 52.812L128.245 53.88C128.093 53.96 127.921 54.02 127.729 54.06C127.537 54.1 127.333 54.12 127.117 54.12C126.773 54.12 126.473 54.064 126.217 53.952C125.969 53.84 125.773 53.672 125.629 53.448C125.493 53.216 125.425 52.928 125.425 52.584V51.804C125.425 51.332 125.529 50.984 125.737 50.76C125.945 50.536 126.233 50.368 126.601 50.256L126.613 50.208L125.305 49.74V49.428C125.305 49.02 125.417 48.656 125.641 48.336C125.873 48.008 126.209 47.748 126.649 47.556C127.089 47.364 127.625 47.268 128.257 47.268C128.849 47.268 129.357 47.36 129.781 47.544C130.213 47.72 130.545 47.988 130.777 48.348C131.009 48.7 131.125 49.144 131.125 49.68V51.288C131.125 51.672 131.209 51.948 131.377 52.116C131.545 52.284 131.753 52.368 132.001 52.368C132.233 52.368 132.433 52.304 132.601 52.176C132.769 52.04 132.901 51.856 132.997 51.624C133.093 51.384 133.141 51.104 133.141 50.784V47.424H134.941V53.196C134.941 53.908 134.821 54.496 134.581 54.96C134.349 55.432 134.001 55.78 133.537 56.004C133.073 56.236 132.497 56.352 131.809 56.352ZM138.475 54.156C138.067 54.156 137.683 54.108 137.323 54.012C136.963 53.924 136.627 53.796 136.315 53.628L136.795 52.32C136.971 52.424 137.183 52.516 137.431 52.596C137.679 52.676 137.923 52.716 138.163 52.716C138.611 52.716 138.967 52.548 139.231 52.212C139.495 51.868 139.627 51.356 139.627 50.676C139.627 50.036 139.495 49.548 139.231 49.212C138.967 48.876 138.555 48.708 137.995 48.708C137.731 48.708 137.459 48.748 137.179 48.828C136.899 48.9 136.667 48.992 136.483 49.104V47.628C136.731 47.516 137.011 47.428 137.323 47.364C137.635 47.3 137.967 47.268 138.319 47.268C139.055 47.268 139.655 47.404 140.119 47.676C140.583 47.948 140.923 48.34 141.139 48.852C141.355 49.356 141.463 49.964 141.463 50.676C141.463 51.812 141.203 52.676 140.683 53.268C140.163 53.86 139.427 54.156 138.475 54.156ZM135.884 46.512V45.756L137.096 45.252H141.38V46.512H135.884ZM142.887 54V50.1C142.887 49.18 143.131 48.48 143.619 48C144.107 47.512 144.883 47.268 145.947 47.268C146.403 47.268 146.807 47.332 147.159 47.46C147.511 47.58 147.779 47.796 147.963 48.108C148.339 48.252 148.599 48.5 148.743 48.852C148.895 49.204 148.971 49.624 148.971 50.112V54H147.183V50.076C147.183 49.652 147.083 49.32 146.883 49.08C146.691 48.832 146.375 48.708 145.935 48.708C145.495 48.708 145.175 48.832 144.975 49.08C144.775 49.32 144.675 49.652 144.675 50.076V51.12L144.711 51.132C144.871 50.82 145.055 50.616 145.263 50.52C145.471 50.416 145.759 50.364 146.127 50.364H146.415V51.708H146.127C145.735 51.708 145.431 51.776 145.215 51.912C145.007 52.048 144.863 52.228 144.783 52.452C144.711 52.668 144.675 52.912 144.675 53.184V54H142.887ZM148.023 48.732L147.039 47.904C147.319 47.808 147.539 47.688 147.699 47.544C147.859 47.392 147.943 47.208 147.951 46.992H149.523C149.523 47.24 149.471 47.48 149.367 47.712C149.271 47.936 149.111 48.136 148.887 48.312C148.671 48.488 148.383 48.628 148.023 48.732ZM152.549 54.156C152.141 54.156 151.757 54.108 151.397 54.012C151.037 53.924 150.701 53.796 150.389 53.628L150.869 52.32C151.045 52.424 151.257 52.516 151.505 52.596C151.753 52.676 151.997 52.716 152.237 52.716C152.685 52.716 153.041 52.548 153.305 52.212C153.569 51.868 153.701 51.356 153.701 50.676C153.701 50.036 153.569 49.548 153.305 49.212C153.041 48.876 152.629 48.708 152.069 48.708C151.805 48.708 151.533 48.748 151.253 48.828C150.973 48.9 150.741 48.992 150.557 49.104V47.628C150.805 47.516 151.085 47.428 151.397 47.364C151.709 47.3 152.041 47.268 152.393 47.268C153.129 47.268 153.729 47.404 154.193 47.676C154.657 47.948 154.997 48.34 155.213 48.852C155.429 49.356 155.537 49.964 155.537 50.676C155.537 51.812 155.277 52.676 154.757 53.268C154.237 53.86 153.501 54.156 152.549 54.156ZM156.901 54V51.996C156.901 51.492 157.001 51.104 157.201 50.832C157.401 50.56 157.685 50.368 158.053 50.256L158.065 50.208L156.781 49.74V49.428C156.781 49.036 156.897 48.676 157.129 48.348C157.361 48.02 157.701 47.76 158.149 47.568C158.605 47.368 159.157 47.268 159.805 47.268C160.413 47.268 160.937 47.364 161.377 47.556C161.817 47.74 162.157 48.02 162.397 48.396C162.645 48.764 162.769 49.232 162.769 49.8V54H160.969V49.908C160.969 49.508 160.861 49.208 160.645 49.008C160.437 48.808 160.141 48.708 159.757 48.708C159.389 48.708 159.113 48.788 158.929 48.948C158.745 49.1 158.645 49.288 158.629 49.512L159.697 50.004L159.565 50.784C159.277 50.8 159.061 50.904 158.917 51.096C158.773 51.288 158.701 51.548 158.701 51.876V54H156.901ZM166.705 54.156C166.233 54.156 165.757 54.104 165.277 54C164.805 53.896 164.385 53.748 164.017 53.556L164.521 52.128C164.681 52.216 164.873 52.308 165.097 52.404C165.321 52.5 165.565 52.58 165.829 52.644C166.093 52.708 166.361 52.74 166.633 52.74C166.953 52.74 167.193 52.696 167.353 52.608C167.521 52.512 167.605 52.368 167.605 52.176C167.605 52.032 167.549 51.916 167.437 51.828C167.333 51.732 167.177 51.644 166.969 51.564C166.761 51.476 166.513 51.384 166.225 51.288C165.801 51.136 165.437 50.972 165.133 50.796C164.829 50.62 164.593 50.404 164.425 50.148C164.265 49.892 164.185 49.572 164.185 49.188C164.185 48.748 164.297 48.388 164.521 48.108C164.745 47.828 165.061 47.62 165.469 47.484C165.877 47.34 166.353 47.268 166.897 47.268C167.345 47.268 167.749 47.304 168.109 47.376C168.469 47.448 168.749 47.54 168.949 47.652V49.068C168.813 49.004 168.633 48.94 168.409 48.876C168.193 48.812 167.957 48.76 167.701 48.72C167.453 48.672 167.213 48.648 166.981 48.648C166.653 48.648 166.405 48.692 166.237 48.78C166.069 48.868 165.985 48.992 165.985 49.152C165.985 49.28 166.041 49.388 166.153 49.476C166.273 49.564 166.445 49.648 166.669 49.728C166.893 49.8 167.161 49.892 167.473 50.004C167.889 50.148 168.241 50.308 168.529 50.484C168.817 50.66 169.033 50.876 169.177 51.132C169.329 51.388 169.405 51.704 169.405 52.08C169.405 52.44 169.321 52.78 169.153 53.1C168.993 53.412 168.717 53.668 168.325 53.868C167.933 54.06 167.393 54.156 166.705 54.156ZM172.916 54.156C172.444 54.156 171.968 54.104 171.488 54C171.016 53.896 170.596 53.748 170.228 53.556L170.732 52.128C170.892 52.216 171.084 52.308 171.308 52.404C171.532 52.5 171.776 52.58 172.04 52.644C172.304 52.708 172.572 52.74 172.844 52.74C173.164 52.74 173.404 52.696 173.564 52.608C173.732 52.512 173.816 52.368 173.816 52.176C173.816 52.032 173.76 51.916 173.648 51.828C173.544 51.732 173.388 51.644 173.18 51.564C172.972 51.476 172.724 51.384 172.436 51.288C172.012 51.136 171.648 50.972 171.344 50.796C171.04 50.62 170.804 50.404 170.636 50.148C170.476 49.892 170.396 49.572 170.396 49.188C170.396 48.748 170.508 48.388 170.732 48.108C170.956 47.828 171.272 47.62 171.68 47.484C172.088 47.34 172.564 47.268 173.108 47.268C173.556 47.268 173.96 47.304 174.32 47.376C174.68 47.448 174.96 47.54 175.16 47.652V49.068C175.024 49.004 174.844 48.94 174.62 48.876C174.404 48.812 174.168 48.76 173.912 48.72C173.664 48.672 173.424 48.648 173.192 48.648C172.864 48.648 172.616 48.692 172.448 48.78C172.28 48.868 172.196 48.992 172.196 49.152C172.196 49.28 172.252 49.388 172.364 49.476C172.484 49.564 172.656 49.648 172.88 49.728C173.104 49.8 173.372 49.892 173.684 50.004C174.1 50.148 174.452 50.308 174.74 50.484C175.028 50.66 175.244 50.876 175.388 51.132C175.54 51.388 175.616 51.704 175.616 52.08C175.616 52.44 175.532 52.78 175.364 53.1C175.204 53.412 174.928 53.668 174.536 53.868C174.144 54.06 173.604 54.156 172.916 54.156ZM180.747 54.12C180.179 54.12 179.719 54.012 179.367 53.796C179.023 53.58 178.779 53.304 178.635 52.968H178.539L178.347 54H176.979V47.424H178.779V50.568C178.779 51.024 178.831 51.4 178.935 51.696C179.039 51.984 179.191 52.2 179.391 52.344C179.591 52.488 179.831 52.56 180.111 52.56C180.447 52.56 180.703 52.46 180.879 52.26C181.055 52.06 181.143 51.74 181.143 51.3V47.424H182.943V51.696C182.943 52.216 182.859 52.656 182.691 53.016C182.531 53.376 182.287 53.652 181.959 53.844C181.631 54.028 181.227 54.12 180.747 54.12Z" fill="#252525" fill-opacity="0.55"/>
<path d="M79.6669 54.156C78.6909 54.156 77.9669 53.92 77.4949 53.448C77.0229 52.968 76.7869 52.26 76.7869 51.324C76.7869 51.164 76.7909 50.972 76.7989 50.748C76.8149 50.516 76.8349 50.312 76.8589 50.136H79.7389V51.276H78.5509V51.444C78.5509 51.764 78.5909 52.028 78.6709 52.236C78.7509 52.436 78.8709 52.584 79.0309 52.68C79.1989 52.776 79.4069 52.824 79.6549 52.824C79.9269 52.824 80.1549 52.764 80.3389 52.644C80.5309 52.524 80.6749 52.32 80.7709 52.032C80.8749 51.744 80.9269 51.348 80.9269 50.844C80.9269 50.372 80.8709 49.98 80.7589 49.668C80.6549 49.348 80.4749 49.108 80.2189 48.948C79.9709 48.788 79.6269 48.708 79.1869 48.708C78.9469 48.708 78.6989 48.736 78.4429 48.792C78.1869 48.84 77.9429 48.904 77.7109 48.984C77.4869 49.064 77.2909 49.152 77.1229 49.248V47.748C77.2989 47.652 77.5149 47.568 77.7709 47.496C78.0349 47.424 78.3189 47.368 78.6229 47.328C78.9269 47.288 79.2269 47.268 79.5229 47.268C80.2989 47.268 80.9229 47.412 81.3949 47.7C81.8749 47.98 82.2229 48.38 82.4389 48.9C82.6629 49.42 82.7749 50.036 82.7749 50.748C82.7749 51.476 82.6669 52.096 82.4509 52.608C82.2429 53.112 81.9109 53.496 81.4549 53.76C80.9989 54.024 80.4029 54.156 79.6669 54.156ZM85.9042 54V49.656C85.9042 49.32 85.8242 49.076 85.6642 48.924C85.5122 48.772 85.2602 48.696 84.9082 48.696C84.6442 48.696 84.4002 48.732 84.1762 48.804C83.9602 48.876 83.7562 48.964 83.5642 49.068V47.628C83.7402 47.548 83.9882 47.468 84.3082 47.388C84.6282 47.308 85.0042 47.268 85.4362 47.268C85.8762 47.268 86.2642 47.332 86.6002 47.46C86.9442 47.588 87.2122 47.804 87.4042 48.108C87.6042 48.404 87.7042 48.812 87.7042 49.332V54H85.9042ZM89.3791 54V50.1C89.3791 49.18 89.6231 48.48 90.1111 48C90.5991 47.512 91.3711 47.268 92.4271 47.268C93.4911 47.268 94.2591 47.512 94.7311 48C95.2111 48.48 95.4511 49.18 95.4511 50.1V54H93.6631V50.076C93.6631 49.652 93.5631 49.32 93.3631 49.08C93.1711 48.832 92.8511 48.708 92.4031 48.708C91.9631 48.708 91.6431 48.832 91.4431 49.08C91.2511 49.32 91.1551 49.652 91.1551 50.076V51.12L91.1911 51.132C91.3431 50.82 91.5231 50.616 91.7311 50.52C91.9471 50.416 92.2391 50.364 92.6071 50.364H92.8831V51.708H92.6071C92.2071 51.708 91.9031 51.776 91.6951 51.912C91.4871 52.048 91.3431 52.228 91.2631 52.452C91.1911 52.668 91.1551 52.912 91.1551 53.184V54H89.3791ZM98.8769 54V49.656C98.8769 49.32 98.7969 49.076 98.6369 48.924C98.4849 48.772 98.2329 48.696 97.8809 48.696C97.6169 48.696 97.3729 48.732 97.1489 48.804C96.9329 48.876 96.7289 48.964 96.5369 49.068V47.628C96.7129 47.548 96.9609 47.468 97.2809 47.388C97.6009 47.308 97.9769 47.268 98.4089 47.268C98.8489 47.268 99.2369 47.332 99.5729 47.46C99.9169 47.588 100.185 47.804 100.377 48.108C100.577 48.404 100.677 48.812 100.677 49.332V54H98.8769ZM104.608 54.156C104.136 54.156 103.66 54.104 103.18 54C102.708 53.896 102.288 53.748 101.92 53.556L102.424 52.128C102.584 52.216 102.776 52.308 103 52.404C103.224 52.5 103.468 52.58 103.732 52.644C103.996 52.708 104.264 52.74 104.536 52.74C104.856 52.74 105.096 52.696 105.256 52.608C105.424 52.512 105.508 52.368 105.508 52.176C105.508 52.032 105.452 51.916 105.34 51.828C105.236 51.732 105.08 51.644 104.872 51.564C104.664 51.476 104.416 51.384 104.128 51.288C103.704 51.136 103.34 50.972 103.036 50.796C102.732 50.62 102.496 50.404 102.328 50.148C102.168 49.892 102.088 49.572 102.088 49.188C102.088 48.748 102.2 48.388 102.424 48.108C102.648 47.828 102.964 47.62 103.372 47.484C103.78 47.34 104.256 47.268 104.8 47.268C105.248 47.268 105.652 47.304 106.012 47.376C106.372 47.448 106.652 47.54 106.852 47.652V49.068C106.716 49.004 106.536 48.94 106.312 48.876C106.096 48.812 105.86 48.76 105.604 48.72C105.356 48.672 105.116 48.648 104.884 48.648C104.556 48.648 104.308 48.692 104.14 48.78C103.972 48.868 103.888 48.992 103.888 49.152C103.888 49.28 103.944 49.388 104.056 49.476C104.176 49.564 104.348 49.648 104.572 49.728C104.796 49.8 105.064 49.892 105.376 50.004C105.792 50.148 106.144 50.308 106.432 50.484C106.72 50.66 106.936 50.876 107.08 51.132C107.232 51.388 107.308 51.704 107.308 52.08C107.308 52.44 107.224 52.78 107.056 53.1C106.896 53.412 106.62 53.668 106.228 53.868C105.836 54.06 105.296 54.156 104.608 54.156ZM110.411 54.12C110.051 54.12 109.747 54.064 109.499 53.952C109.251 53.84 109.063 53.672 108.935 53.448C108.807 53.216 108.743 52.928 108.743 52.584V47.424H110.543V52.368C110.543 52.52 110.575 52.632 110.639 52.704C110.711 52.776 110.819 52.812 110.963 52.812C111.027 52.812 111.095 52.804 111.167 52.788C111.239 52.772 111.307 52.752 111.371 52.728L111.539 53.88C111.387 53.96 111.215 54.02 111.023 54.06C110.831 54.1 110.627 54.12 110.411 54.12ZM113.11 54V51.24H112.426V50.136H114.73V52.632H114.814C115.078 52.632 115.302 52.56 115.486 52.416C115.678 52.272 115.822 52.06 115.918 51.78C116.014 51.492 116.062 51.132 116.062 50.7C116.062 50.204 115.99 49.812 115.846 49.524C115.71 49.228 115.506 49.016 115.234 48.888C114.962 48.76 114.626 48.696 114.226 48.696C113.81 48.696 113.434 48.756 113.098 48.876C112.762 48.988 112.462 49.124 112.198 49.284V47.784C112.462 47.648 112.794 47.528 113.194 47.424C113.594 47.32 114.054 47.268 114.574 47.268C115.35 47.268 115.978 47.392 116.458 47.64C116.946 47.888 117.306 48.264 117.538 48.768C117.77 49.272 117.886 49.904 117.886 50.664C117.886 51.376 117.778 51.984 117.562 52.488C117.354 52.984 117.01 53.36 116.53 53.616C116.058 53.872 115.426 54 114.634 54H113.11ZM121.53 54.156C121.058 54.156 120.582 54.104 120.102 54C119.63 53.896 119.21 53.748 118.842 53.556L119.346 52.128C119.506 52.216 119.698 52.308 119.922 52.404C120.146 52.5 120.39 52.58 120.654 52.644C120.918 52.708 121.186 52.74 121.458 52.74C121.778 52.74 122.018 52.696 122.178 52.608C122.346 52.512 122.43 52.368 122.43 52.176C122.43 52.032 122.374 51.916 122.262 51.828C122.158 51.732 122.002 51.644 121.794 51.564C121.586 51.476 121.338 51.384 121.05 51.288C120.626 51.136 120.262 50.972 119.958 50.796C119.654 50.62 119.418 50.404 119.25 50.148C119.09 49.892 119.01 49.572 119.01 49.188C119.01 48.748 119.122 48.388 119.346 48.108C119.57 47.828 119.886 47.62 120.294 47.484C120.702 47.34 121.178 47.268 121.722 47.268C122.17 47.268 122.574 47.304 122.934 47.376C123.294 47.448 123.574 47.54 123.774 47.652V49.068C123.638 49.004 123.458 48.94 123.234 48.876C123.018 48.812 122.782 48.76 122.526 48.72C122.278 48.672 122.038 48.648 121.806 48.648C121.478 48.648 121.23 48.692 121.062 48.78C120.894 48.868 120.81 48.992 120.81 49.152C120.81 49.28 120.866 49.388 120.978 49.476C121.098 49.564 121.27 49.648 121.494 49.728C121.718 49.8 121.986 49.892 122.298 50.004C122.714 50.148 123.066 50.308 123.354 50.484C123.642 50.66 123.858 50.876 124.002 51.132C124.154 51.388 124.23 51.704 124.23 52.08C124.23 52.44 124.146 52.78 123.978 53.1C123.818 53.412 123.542 53.668 123.15 53.868C122.758 54.06 122.218 54.156 121.53 54.156ZM118.341 46.512V45.756L119.553 45.252H123.837V46.512H118.341ZM131.809 56.352C131.449 56.352 131.089 56.316 130.729 56.244C130.369 56.18 130.037 56.08 129.733 55.944V54.42C129.941 54.548 130.205 54.66 130.525 54.756C130.853 54.86 131.197 54.912 131.557 54.912C131.901 54.912 132.193 54.86 132.433 54.756C132.681 54.652 132.869 54.492 132.997 54.276C133.133 54.06 133.201 53.784 133.201 53.448V53.1H133.117C132.965 53.324 132.745 53.516 132.457 53.676C132.177 53.836 131.813 53.916 131.365 53.916C130.965 53.916 130.613 53.844 130.309 53.7C130.013 53.556 129.781 53.332 129.613 53.028C129.445 52.716 129.361 52.316 129.361 51.828V49.812C129.361 49.532 129.309 49.312 129.205 49.152C129.109 48.984 128.977 48.864 128.809 48.792C128.641 48.72 128.449 48.684 128.233 48.684C127.929 48.684 127.677 48.752 127.477 48.888C127.277 49.016 127.169 49.212 127.153 49.476L128.197 49.98L128.077 50.76C127.781 50.768 127.557 50.84 127.405 50.976C127.253 51.104 127.177 51.332 127.177 51.66V52.392C127.177 52.568 127.213 52.696 127.285 52.776C127.365 52.848 127.489 52.884 127.657 52.884C127.729 52.884 127.801 52.88 127.873 52.872C127.953 52.856 128.021 52.836 128.077 52.812L128.245 53.88C128.093 53.96 127.921 54.02 127.729 54.06C127.537 54.1 127.333 54.12 127.117 54.12C126.773 54.12 126.473 54.064 126.217 53.952C125.969 53.84 125.773 53.672 125.629 53.448C125.493 53.216 125.425 52.928 125.425 52.584V51.804C125.425 51.332 125.529 50.984 125.737 50.76C125.945 50.536 126.233 50.368 126.601 50.256L126.613 50.208L125.305 49.74V49.428C125.305 49.02 125.417 48.656 125.641 48.336C125.873 48.008 126.209 47.748 126.649 47.556C127.089 47.364 127.625 47.268 128.257 47.268C128.849 47.268 129.357 47.36 129.781 47.544C130.213 47.72 130.545 47.988 130.777 48.348C131.009 48.7 131.125 49.144 131.125 49.68V51.288C131.125 51.672 131.209 51.948 131.377 52.116C131.545 52.284 131.753 52.368 132.001 52.368C132.233 52.368 132.433 52.304 132.601 52.176C132.769 52.04 132.901 51.856 132.997 51.624C133.093 51.384 133.141 51.104 133.141 50.784V47.424H134.941V53.196C134.941 53.908 134.821 54.496 134.581 54.96C134.349 55.432 134.001 55.78 133.537 56.004C133.073 56.236 132.497 56.352 131.809 56.352ZM138.475 54.156C138.067 54.156 137.683 54.108 137.323 54.012C136.963 53.924 136.627 53.796 136.315 53.628L136.795 52.32C136.971 52.424 137.183 52.516 137.431 52.596C137.679 52.676 137.923 52.716 138.163 52.716C138.611 52.716 138.967 52.548 139.231 52.212C139.495 51.868 139.627 51.356 139.627 50.676C139.627 50.036 139.495 49.548 139.231 49.212C138.967 48.876 138.555 48.708 137.995 48.708C137.731 48.708 137.459 48.748 137.179 48.828C136.899 48.9 136.667 48.992 136.483 49.104V47.628C136.731 47.516 137.011 47.428 137.323 47.364C137.635 47.3 137.967 47.268 138.319 47.268C139.055 47.268 139.655 47.404 140.119 47.676C140.583 47.948 140.923 48.34 141.139 48.852C141.355 49.356 141.463 49.964 141.463 50.676C141.463 51.812 141.203 52.676 140.683 53.268C140.163 53.86 139.427 54.156 138.475 54.156ZM135.884 46.512V45.756L137.096 45.252H141.38V46.512H135.884ZM142.887 54V50.1C142.887 49.18 143.131 48.48 143.619 48C144.107 47.512 144.883 47.268 145.947 47.268C146.403 47.268 146.807 47.332 147.159 47.46C147.511 47.58 147.779 47.796 147.963 48.108C148.339 48.252 148.599 48.5 148.743 48.852C148.895 49.204 148.971 49.624 148.971 50.112V54H147.183V50.076C147.183 49.652 147.083 49.32 146.883 49.08C146.691 48.832 146.375 48.708 145.935 48.708C145.495 48.708 145.175 48.832 144.975 49.08C144.775 49.32 144.675 49.652 144.675 50.076V51.12L144.711 51.132C144.871 50.82 145.055 50.616 145.263 50.52C145.471 50.416 145.759 50.364 146.127 50.364H146.415V51.708H146.127C145.735 51.708 145.431 51.776 145.215 51.912C145.007 52.048 144.863 52.228 144.783 52.452C144.711 52.668 144.675 52.912 144.675 53.184V54H142.887ZM148.023 48.732L147.039 47.904C147.319 47.808 147.539 47.688 147.699 47.544C147.859 47.392 147.943 47.208 147.951 46.992H149.523C149.523 47.24 149.471 47.48 149.367 47.712C149.271 47.936 149.111 48.136 148.887 48.312C148.671 48.488 148.383 48.628 148.023 48.732ZM152.549 54.156C152.141 54.156 151.757 54.108 151.397 54.012C151.037 53.924 150.701 53.796 150.389 53.628L150.869 52.32C151.045 52.424 151.257 52.516 151.505 52.596C151.753 52.676 151.997 52.716 152.237 52.716C152.685 52.716 153.041 52.548 153.305 52.212C153.569 51.868 153.701 51.356 153.701 50.676C153.701 50.036 153.569 49.548 153.305 49.212C153.041 48.876 152.629 48.708 152.069 48.708C151.805 48.708 151.533 48.748 151.253 48.828C150.973 48.9 150.741 48.992 150.557 49.104V47.628C150.805 47.516 151.085 47.428 151.397 47.364C151.709 47.3 152.041 47.268 152.393 47.268C153.129 47.268 153.729 47.404 154.193 47.676C154.657 47.948 154.997 48.34 155.213 48.852C155.429 49.356 155.537 49.964 155.537 50.676C155.537 51.812 155.277 52.676 154.757 53.268C154.237 53.86 153.501 54.156 152.549 54.156ZM156.901 54V51.996C156.901 51.492 157.001 51.104 157.201 50.832C157.401 50.56 157.685 50.368 158.053 50.256L158.065 50.208L156.781 49.74V49.428C156.781 49.036 156.897 48.676 157.129 48.348C157.361 48.02 157.701 47.76 158.149 47.568C158.605 47.368 159.157 47.268 159.805 47.268C160.413 47.268 160.937 47.364 161.377 47.556C161.817 47.74 162.157 48.02 162.397 48.396C162.645 48.764 162.769 49.232 162.769 49.8V54H160.969V49.908C160.969 49.508 160.861 49.208 160.645 49.008C160.437 48.808 160.141 48.708 159.757 48.708C159.389 48.708 159.113 48.788 158.929 48.948C158.745 49.1 158.645 49.288 158.629 49.512L159.697 50.004L159.565 50.784C159.277 50.8 159.061 50.904 158.917 51.096C158.773 51.288 158.701 51.548 158.701 51.876V54H156.901ZM166.705 54.156C166.233 54.156 165.757 54.104 165.277 54C164.805 53.896 164.385 53.748 164.017 53.556L164.521 52.128C164.681 52.216 164.873 52.308 165.097 52.404C165.321 52.5 165.565 52.58 165.829 52.644C166.093 52.708 166.361 52.74 166.633 52.74C166.953 52.74 167.193 52.696 167.353 52.608C167.521 52.512 167.605 52.368 167.605 52.176C167.605 52.032 167.549 51.916 167.437 51.828C167.333 51.732 167.177 51.644 166.969 51.564C166.761 51.476 166.513 51.384 166.225 51.288C165.801 51.136 165.437 50.972 165.133 50.796C164.829 50.62 164.593 50.404 164.425 50.148C164.265 49.892 164.185 49.572 164.185 49.188C164.185 48.748 164.297 48.388 164.521 48.108C164.745 47.828 165.061 47.62 165.469 47.484C165.877 47.34 166.353 47.268 166.897 47.268C167.345 47.268 167.749 47.304 168.109 47.376C168.469 47.448 168.749 47.54 168.949 47.652V49.068C168.813 49.004 168.633 48.94 168.409 48.876C168.193 48.812 167.957 48.76 167.701 48.72C167.453 48.672 167.213 48.648 166.981 48.648C166.653 48.648 166.405 48.692 166.237 48.78C166.069 48.868 165.985 48.992 165.985 49.152C165.985 49.28 166.041 49.388 166.153 49.476C166.273 49.564 166.445 49.648 166.669 49.728C166.893 49.8 167.161 49.892 167.473 50.004C167.889 50.148 168.241 50.308 168.529 50.484C168.817 50.66 169.033 50.876 169.177 51.132C169.329 51.388 169.405 51.704 169.405 52.08C169.405 52.44 169.321 52.78 169.153 53.1C168.993 53.412 168.717 53.668 168.325 53.868C167.933 54.06 167.393 54.156 166.705 54.156ZM172.916 54.156C172.444 54.156 171.968 54.104 171.488 54C171.016 53.896 170.596 53.748 170.228 53.556L170.732 52.128C170.892 52.216 171.084 52.308 171.308 52.404C171.532 52.5 171.776 52.58 172.04 52.644C172.304 52.708 172.572 52.74 172.844 52.74C173.164 52.74 173.404 52.696 173.564 52.608C173.732 52.512 173.816 52.368 173.816 52.176C173.816 52.032 173.76 51.916 173.648 51.828C173.544 51.732 173.388 51.644 173.18 51.564C172.972 51.476 172.724 51.384 172.436 51.288C172.012 51.136 171.648 50.972 171.344 50.796C171.04 50.62 170.804 50.404 170.636 50.148C170.476 49.892 170.396 49.572 170.396 49.188C170.396 48.748 170.508 48.388 170.732 48.108C170.956 47.828 171.272 47.62 171.68 47.484C172.088 47.34 172.564 47.268 173.108 47.268C173.556 47.268 173.96 47.304 174.32 47.376C174.68 47.448 174.96 47.54 175.16 47.652V49.068C175.024 49.004 174.844 48.94 174.62 48.876C174.404 48.812 174.168 48.76 173.912 48.72C173.664 48.672 173.424 48.648 173.192 48.648C172.864 48.648 172.616 48.692 172.448 48.78C172.28 48.868 172.196 48.992 172.196 49.152C172.196 49.28 172.252 49.388 172.364 49.476C172.484 49.564 172.656 49.648 172.88 49.728C173.104 49.8 173.372 49.892 173.684 50.004C174.1 50.148 174.452 50.308 174.74 50.484C175.028 50.66 175.244 50.876 175.388 51.132C175.54 51.388 175.616 51.704 175.616 52.08C175.616 52.44 175.532 52.78 175.364 53.1C175.204 53.412 174.928 53.668 174.536 53.868C174.144 54.06 173.604 54.156 172.916 54.156ZM180.747 54.12C180.179 54.12 179.719 54.012 179.367 53.796C179.023 53.58 178.779 53.304 178.635 52.968H178.539L178.347 54H176.979V47.424H178.779V50.568C178.779 51.024 178.831 51.4 178.935 51.696C179.039 51.984 179.191 52.2 179.391 52.344C179.591 52.488 179.831 52.56 180.111 52.56C180.447 52.56 180.703 52.46 180.879 52.26C181.055 52.06 181.143 51.74 181.143 51.3V47.424H182.943V51.696C182.943 52.216 182.859 52.656 182.691 53.016C182.531 53.376 182.287 53.652 181.959 53.844C181.631 54.028 181.227 54.12 180.747 54.12Z" fill="#9C9C9C" style="mix-blend-mode:overlay"/>
</svg>
