<svg width="100" height="49" viewBox="0 0 100 49" fill="none" xmlns="http://www.w3.org/2000/svg">
<path d="M19.0479 6.40024H17.1814C17.1474 6.15876 17.0778 5.94427 16.9726 5.75677C16.8675 5.56643 16.7326 5.4045 16.5678 5.27098C16.403 5.13745 16.2127 5.03518 15.9968 4.96416C15.7837 4.89314 15.5522 4.85762 15.3022 4.85762C14.8505 4.85762 14.457 4.96984 14.1218 5.19427C13.7866 5.41586 13.5266 5.73973 13.342 6.16586C13.1573 6.58916 13.065 7.10336 13.065 7.70848C13.065 8.33064 13.1573 8.85336 13.342 9.27666C13.5295 9.69995 13.7908 10.0196 14.126 10.2355C14.4613 10.4514 14.8491 10.5593 15.2894 10.5593C15.5366 10.5593 15.7653 10.5267 15.9755 10.4613C16.1885 10.396 16.3775 10.3008 16.5422 10.1758C16.707 10.048 16.8434 9.89314 16.9513 9.71132C17.0621 9.5295 17.1388 9.32211 17.1814 9.08916L19.0479 9.09768C18.9996 9.49825 18.8789 9.88461 18.6857 10.2568C18.4954 10.6261 18.2383 10.9571 17.9144 11.2497C17.5934 11.5394 17.2099 11.7696 16.7638 11.94C16.3206 12.1076 15.8192 12.1914 15.2596 12.1914C14.4812 12.1914 13.7851 12.0153 13.1715 11.663C12.5607 11.3107 12.0778 10.8008 11.7226 10.1332C11.3704 9.46558 11.1942 8.65734 11.1942 7.70848C11.1942 6.75677 11.3732 5.94711 11.7312 5.2795C12.0891 4.61189 12.5749 4.10336 13.1885 3.75393C13.8022 3.40166 14.4925 3.22552 15.2596 3.22552C15.7653 3.22552 16.234 3.29654 16.6658 3.43859C17.1005 3.58064 17.4854 3.78802 17.8206 4.06075C18.1559 4.33064 18.4286 4.6616 18.6388 5.05365C18.8519 5.44569 18.9883 5.89456 19.0479 6.40024ZM22.2035 12.1957C21.7858 12.1957 21.4137 12.1232 21.087 11.9784C20.7603 11.8306 20.5018 11.6133 20.3114 11.3264C20.1239 11.0366 20.0302 10.6758 20.0302 10.244C20.0302 9.88035 20.0969 9.57495 20.2305 9.32779C20.364 9.08064 20.5458 8.88177 20.7759 8.7312C21.006 8.58064 21.2674 8.467 21.56 8.39029C21.8555 8.31359 22.1651 8.25961 22.489 8.22836C22.8697 8.18859 23.1765 8.15166 23.4094 8.11757C23.6424 8.08064 23.8114 8.02666 23.9165 7.95564C24.0216 7.88461 24.0742 7.7795 24.0742 7.64029V7.61473C24.0742 7.34484 23.989 7.13603 23.8185 6.98831C23.6509 6.84058 23.4123 6.76672 23.1026 6.76672C22.7759 6.76672 22.516 6.83916 22.3228 6.98404C22.1296 7.12609 22.0018 7.30507 21.9393 7.52098L20.2603 7.38461C20.3455 6.98689 20.5131 6.64314 20.7631 6.35336C21.0131 6.06075 21.3356 5.83632 21.7305 5.68007C22.1282 5.52098 22.5884 5.44143 23.1111 5.44143C23.4748 5.44143 23.8228 5.48404 24.1552 5.56927C24.4904 5.6545 24.7873 5.7866 25.0458 5.96558C25.3072 6.14456 25.5131 6.37467 25.6637 6.65592C25.8143 6.93433 25.8895 7.26814 25.8895 7.65734V12.0721H24.168V11.1644H24.1168C24.0117 11.369 23.8711 11.5494 23.6949 11.7056C23.5188 11.859 23.3072 11.9798 23.06 12.0679C22.8128 12.1531 22.5273 12.1957 22.2035 12.1957ZM22.7233 10.9429C22.9904 10.9429 23.2262 10.8903 23.4307 10.7852C23.6353 10.6772 23.7958 10.5323 23.9123 10.3505C24.0287 10.1687 24.087 9.96274 24.087 9.73262V9.03802C24.0302 9.07495 23.952 9.10904 23.8526 9.14029C23.756 9.1687 23.6466 9.19569 23.5245 9.22126C23.4023 9.24399 23.2802 9.26529 23.158 9.28518C23.0358 9.30223 22.9251 9.31785 22.8256 9.33206C22.6126 9.36331 22.4265 9.41302 22.2674 9.4812C22.1083 9.54939 21.9847 9.64172 21.8966 9.75819C21.8086 9.87183 21.7645 10.0139 21.7645 10.1843C21.7645 10.4315 21.854 10.6204 22.033 10.7511C22.2148 10.8789 22.4449 10.9429 22.7233 10.9429ZM30.8178 5.52666V6.89029H26.778V5.52666H30.8178ZM27.7028 12.0721V5.05365C27.7028 4.57921 27.7951 4.18575 27.9797 3.87325C28.1672 3.56075 28.4229 3.32637 28.7468 3.17012C29.0706 3.01387 29.4385 2.93575 29.8505 2.93575C30.1289 2.93575 30.3831 2.95706 30.6133 2.99967C30.8462 3.04228 31.0195 3.08064 31.1331 3.11473L30.8093 4.47836C30.7383 4.45564 30.6502 4.43433 30.5451 4.41444C30.4428 4.39456 30.3377 4.38461 30.2297 4.38461C29.9627 4.38461 29.7766 4.44711 29.6715 4.57211C29.5664 4.69427 29.5138 4.86615 29.5138 5.08774V12.0721H27.7028ZM34.6754 12.2C34.0021 12.2 33.4226 12.0636 32.9368 11.7909C32.4538 11.5153 32.0817 11.1261 31.8203 10.6232C31.5589 10.1176 31.4282 9.51956 31.4282 8.82922C31.4282 8.15592 31.5589 7.56501 31.8203 7.05649C32.0817 6.54797 32.4496 6.15166 32.924 5.86757C33.4013 5.58348 33.9609 5.44143 34.603 5.44143C35.0348 5.44143 35.4368 5.51103 35.8089 5.65024C36.1839 5.7866 36.5106 5.99257 36.789 6.26814C37.0703 6.5437 37.289 6.89029 37.4453 7.30791C37.6015 7.72268 37.6797 8.20848 37.6797 8.76529V9.26387H32.1527V8.13887H35.9709C35.9709 7.87751 35.914 7.64598 35.8004 7.44427C35.6868 7.24257 35.5291 7.0849 35.3274 6.97126C35.1285 6.85478 34.897 6.79654 34.6328 6.79654C34.3572 6.79654 34.1129 6.86047 33.8998 6.98831C33.6896 7.11331 33.5248 7.28234 33.4055 7.49541C33.2862 7.70564 33.2251 7.94001 33.2223 8.19853V9.26814C33.2223 9.592 33.2819 9.87183 33.4013 10.1076C33.5234 10.3434 33.6953 10.5252 33.9169 10.6531C34.1385 10.7809 34.4013 10.8448 34.7052 10.8448C34.9069 10.8448 35.0916 10.8164 35.2592 10.7596C35.4268 10.7028 35.5703 10.6176 35.6896 10.5039C35.8089 10.3903 35.8998 10.2511 35.9623 10.0863L37.6413 10.1971C37.5561 10.6005 37.3814 10.9528 37.1172 11.2539C36.8558 11.5522 36.5177 11.7852 36.103 11.9528C35.691 12.1176 35.2152 12.2 34.6754 12.2ZM43.18 12.0721H41.2028L44.2155 3.34484H46.5934L49.6019 12.0721H47.6246L45.4385 5.33916H45.3704L43.18 12.0721ZM43.0564 8.64172H47.7269V10.0821H43.0564V8.64172ZM50.6182 12.0721V5.52666H52.3483V6.68149H52.4251C52.5614 6.29797 52.7887 5.99541 53.1069 5.77382C53.4251 5.55223 53.8057 5.44143 54.2489 5.44143C54.6978 5.44143 55.0799 5.55365 55.3952 5.77808C55.7106 5.99967 55.9208 6.30081 56.0259 6.68149H56.0941C56.2276 6.30649 56.4691 6.00677 56.8185 5.78234C57.1708 5.55507 57.587 5.44143 58.0671 5.44143C58.6779 5.44143 59.1736 5.63603 59.5543 6.02524C59.9378 6.4116 60.1296 6.9599 60.1296 7.67012V12.0721H58.3185V8.02808C58.3185 7.66444 58.2219 7.39172 58.0287 7.2099C57.8356 7.02808 57.5941 6.93717 57.3043 6.93717C56.9748 6.93717 56.7177 7.04228 56.533 7.25251C56.3483 7.4599 56.256 7.73404 56.256 8.07495V12.0721H54.4961V7.98973C54.4961 7.6687 54.4037 7.41302 54.2191 7.22268C54.0373 7.03234 53.7972 6.93717 53.4989 6.93717C53.2972 6.93717 53.1154 6.98831 52.9535 7.09058C52.7944 7.19001 52.668 7.33064 52.5742 7.51245C52.4805 7.69143 52.4336 7.90166 52.4336 8.14314V12.0721H50.6182ZM63.43 12.1957C63.0124 12.1957 62.6403 12.1232 62.3135 11.9784C61.9868 11.8306 61.7283 11.6133 61.538 11.3264C61.3505 11.0366 61.2567 10.6758 61.2567 10.244C61.2567 9.88035 61.3235 9.57495 61.457 9.32779C61.5905 9.08064 61.7724 8.88177 62.0025 8.7312C62.2326 8.58064 62.4939 8.467 62.7866 8.39029C63.082 8.31359 63.3917 8.25961 63.7155 8.22836C64.0962 8.18859 64.403 8.15166 64.636 8.11757C64.8689 8.08064 65.038 8.02666 65.1431 7.95564C65.2482 7.88461 65.3008 7.7795 65.3008 7.64029V7.61473C65.3008 7.34484 65.2155 7.13603 65.0451 6.98831C64.8775 6.84058 64.6388 6.76672 64.3292 6.76672C64.0025 6.76672 63.7425 6.83916 63.5493 6.98404C63.3562 7.12609 63.2283 7.30507 63.1658 7.52098L61.4868 7.38461C61.5721 6.98689 61.7397 6.64314 61.9897 6.35336C62.2397 6.06075 62.5621 5.83632 62.957 5.68007C63.3547 5.52098 63.815 5.44143 64.3377 5.44143C64.7013 5.44143 65.0493 5.48404 65.3817 5.56927C65.717 5.6545 66.0138 5.7866 66.2724 5.96558C66.5337 6.14456 66.7397 6.37467 66.8903 6.65592C67.0408 6.93433 67.1161 7.26814 67.1161 7.65734V12.0721H65.3945V11.1644H65.3434C65.2383 11.369 65.0976 11.5494 64.9215 11.7056C64.7454 11.859 64.5337 11.9798 64.2866 12.0679C64.0394 12.1531 63.7539 12.1957 63.43 12.1957ZM63.9499 10.9429C64.217 10.9429 64.4528 10.8903 64.6573 10.7852C64.8618 10.6772 65.0224 10.5323 65.1388 10.3505C65.2553 10.1687 65.3135 9.96274 65.3135 9.73262V9.03802C65.2567 9.07495 65.1786 9.10904 65.0792 9.14029C64.9826 9.1687 64.8732 9.19569 64.751 9.22126C64.6289 9.24399 64.5067 9.26529 64.3846 9.28518C64.2624 9.30223 64.1516 9.31785 64.0522 9.33206C63.8391 9.36331 63.653 9.41302 63.4939 9.4812C63.3349 9.54939 63.2113 9.64172 63.1232 9.75819C63.0351 9.87183 62.9911 10.0139 62.9911 10.1843C62.9911 10.4315 63.0806 10.6204 63.2596 10.7511C63.4414 10.8789 63.6715 10.9429 63.9499 10.9429ZM68.4904 12.0721V10.9897L71.6949 7.0224V6.97552H68.6012V5.52666H73.881V6.70706L70.8725 10.5764V10.6232H73.9918V12.0721H68.4904ZM78.1498 12.2C77.4879 12.2 76.9155 12.0593 76.4325 11.7781C75.9524 11.494 75.5817 11.0991 75.3203 10.5934C75.0589 10.0849 74.9282 9.49541 74.9282 8.82495C74.9282 8.14882 75.0589 7.55791 75.3203 7.05223C75.5817 6.5437 75.9524 6.14882 76.4325 5.86757C76.9155 5.58348 77.4879 5.44143 78.1498 5.44143C78.8118 5.44143 79.3828 5.58348 79.8629 5.86757C80.3459 6.14882 80.718 6.5437 80.9794 7.05223C81.2407 7.55791 81.3714 8.14882 81.3714 8.82495C81.3714 9.49541 81.2407 10.0849 80.9794 10.5934C80.718 11.0991 80.3459 11.494 79.8629 11.7781C79.3828 12.0593 78.8118 12.2 78.1498 12.2ZM78.1584 10.7937C78.4595 10.7937 78.7109 10.7085 78.9126 10.538C79.1143 10.3647 79.2663 10.1289 79.3686 9.83064C79.4737 9.53234 79.5263 9.19285 79.5263 8.81217C79.5263 8.43149 79.4737 8.092 79.3686 7.7937C79.2663 7.49541 79.1143 7.25961 78.9126 7.08632C78.7109 6.91302 78.4595 6.82637 78.1584 6.82637C77.8544 6.82637 77.5987 6.91302 77.3913 7.08632C77.1868 7.25961 77.0319 7.49541 76.9268 7.7937C76.8246 8.092 76.7734 8.43149 76.7734 8.81217C76.7734 9.19285 76.8246 9.53234 76.9268 9.83064C77.0319 10.1289 77.1868 10.3647 77.3913 10.538C77.5987 10.7085 77.8544 10.7937 78.1584 10.7937ZM84.3672 8.28802V12.0721H82.5518V5.52666H84.2819V6.68149H84.3586C84.5035 6.30081 84.7464 5.99967 85.0873 5.77808C85.4282 5.55365 85.8416 5.44143 86.3274 5.44143C86.7819 5.44143 87.1782 5.54086 87.5163 5.73973C87.8544 5.93859 88.1172 6.22268 88.3047 6.592C88.4922 6.95848 88.5859 7.39598 88.5859 7.9045V12.0721H86.7706V8.22836C86.7734 7.82779 86.6711 7.51529 86.4638 7.29086C86.2564 7.06359 85.9709 6.94995 85.6072 6.94995C85.3629 6.94995 85.147 7.00251 84.9595 7.10762C84.7748 7.21274 84.6299 7.36615 84.5248 7.56785C84.4226 7.76672 84.37 8.00677 84.3672 8.28802Z" fill="#3F853D"/>
<path d="M52.5387 44.1446C51.384 46.1446 48.4973 46.1446 47.3426 44.1446L39.5957 30.7265C38.441 28.7265 39.8843 26.2265 42.1938 26.2265L57.6876 26.2265C59.997 26.2265 61.4404 28.7265 60.2857 30.7265L52.5387 44.1446Z" fill="#3F853D"/>
</svg>
