<svg width="68" height="50" viewBox="0 0 68 50" fill="none" xmlns="http://www.w3.org/2000/svg">
<path d="M8.04183 12.6176V6.07216H9.85717V12.6176H8.04183ZM8.95377 5.22841C8.68388 5.22841 8.45235 5.13892 8.25916 4.95994C8.06882 4.77813 7.97365 4.5608 7.97365 4.30796C7.97365 4.05796 8.06882 3.84347 8.25916 3.66449C8.45235 3.48267 8.68388 3.39176 8.95377 3.39176C9.22365 3.39176 9.45377 3.48267 9.64411 3.66449C9.83729 3.84347 9.93388 4.05796 9.93388 4.30796C9.93388 4.5608 9.83729 4.77813 9.64411 4.95994C9.45377 5.13892 9.22365 5.22841 8.95377 5.22841ZM19.0457 6.94574H17.1793C17.1452 6.70426 17.0756 6.48977 16.9705 6.30227C16.8653 6.11193 16.7304 5.95 16.5656 5.81648C16.4009 5.68296 16.2105 5.58068 15.9946 5.50966C15.7815 5.43864 15.55 5.40313 15.3 5.40313C14.8483 5.40313 14.4548 5.51534 14.1196 5.73977C13.7844 5.96136 13.5244 6.28523 13.3398 6.71136C13.1551 7.13466 13.0628 7.64886 13.0628 8.25398C13.0628 8.87614 13.1551 9.39886 13.3398 9.82216C13.5273 10.2455 13.7886 10.5651 14.1239 10.781C14.4591 10.9969 14.8469 11.1048 15.2872 11.1048C15.5344 11.1048 15.7631 11.0722 15.9733 11.0068C16.1864 10.9415 16.3753 10.8463 16.5401 10.7213C16.7048 10.5935 16.8412 10.4386 16.9491 10.2568C17.0599 10.075 17.1366 9.86761 17.1793 9.63466L19.0457 9.64318C18.9974 10.0438 18.8767 10.4301 18.6835 10.8023C18.4932 11.1716 18.2361 11.5026 17.9122 11.7952C17.5912 12.0849 17.2077 12.3151 16.7616 12.4855C16.3185 12.6531 15.817 12.7369 15.2574 12.7369C14.479 12.7369 13.783 12.5608 13.1693 12.2085C12.5585 11.8563 12.0756 11.3463 11.7205 10.6787C11.3682 10.0111 11.192 9.20284 11.192 8.25398C11.192 7.30227 11.371 6.49261 11.729 5.825C12.0869 5.15739 12.5727 4.64886 13.1864 4.29943C13.8 3.94716 14.4903 3.77102 15.2574 3.77102C15.7631 3.77102 16.2318 3.84205 16.6636 3.98409C17.0983 4.12614 17.4832 4.33352 17.8185 4.60625C18.1537 4.87614 18.4264 5.2071 18.6366 5.59915C18.8497 5.99119 18.9861 6.44006 19.0457 6.94574ZM22.2013 12.7412C21.7837 12.7412 21.4115 12.6688 21.0848 12.5239C20.7581 12.3761 20.4996 12.1588 20.3092 11.8719C20.1217 11.5821 20.028 11.2213 20.028 10.7895C20.028 10.4259 20.0947 10.1205 20.2283 9.8733C20.3618 9.62614 20.5436 9.42727 20.7737 9.27671C21.0038 9.12614 21.2652 9.0125 21.5578 8.9358C21.8533 8.85909 22.1629 8.80511 22.4868 8.77386C22.8675 8.73409 23.1743 8.69716 23.4072 8.66307C23.6402 8.62614 23.8092 8.57216 23.9143 8.50114C24.0195 8.43011 24.072 8.325 24.072 8.1858V8.16023C24.072 7.89034 23.9868 7.68154 23.8163 7.53381C23.6487 7.38608 23.4101 7.31222 23.1004 7.31222C22.7737 7.31222 22.5138 7.38466 22.3206 7.52955C22.1274 7.67159 21.9996 7.85057 21.9371 8.06648L20.2581 7.93011C20.3433 7.53239 20.5109 7.18864 20.7609 6.89886C21.0109 6.60625 21.3334 6.38182 21.7283 6.22557C22.126 6.06648 22.5862 5.98693 23.109 5.98693C23.4726 5.98693 23.8206 6.02955 24.153 6.11477C24.4882 6.2 24.7851 6.3321 25.0436 6.51108C25.305 6.69006 25.5109 6.92017 25.6615 7.20142C25.8121 7.47983 25.8874 7.81364 25.8874 8.20284V12.6176H24.1658V11.7099H24.1146C24.0095 11.9145 23.8689 12.0949 23.6928 12.2511C23.5166 12.4045 23.305 12.5253 23.0578 12.6134C22.8107 12.6986 22.5251 12.7412 22.2013 12.7412ZM22.7212 11.4884C22.9882 11.4884 23.224 11.4358 23.4286 11.3307C23.6331 11.2227 23.7936 11.0778 23.9101 10.896C24.0266 10.7142 24.0848 10.5082 24.0848 10.2781V9.58352C24.028 9.62046 23.9499 9.65455 23.8504 9.6858C23.7538 9.71421 23.6445 9.74119 23.5223 9.76676C23.4001 9.78949 23.278 9.8108 23.1558 9.83068C23.0337 9.84773 22.9229 9.86335 22.8234 9.87756C22.6104 9.90881 22.4243 9.95852 22.2652 10.0267C22.1061 10.0949 21.9825 10.1872 21.8945 10.3037C21.8064 10.4173 21.7624 10.5594 21.7624 10.7298C21.7624 10.977 21.8518 11.1659 22.0308 11.2966C22.2126 11.4244 22.4428 11.4884 22.7212 11.4884ZM29.1111 8.83352V12.6176H27.2957V6.07216H29.0259V7.22699H29.1026C29.2474 6.84631 29.4903 6.54517 29.8313 6.32358C30.1722 6.09915 30.5855 5.98693 31.0713 5.98693C31.5259 5.98693 31.9222 6.08636 32.2602 6.28523C32.5983 6.48409 32.8611 6.76818 33.0486 7.1375C33.2361 7.50398 33.3298 7.94148 33.3298 8.45V12.6176H31.5145V8.77386C31.5173 8.3733 31.4151 8.0608 31.2077 7.83636C31.0003 7.60909 30.7148 7.49546 30.3511 7.49546C30.1068 7.49546 29.8909 7.54801 29.7034 7.65313C29.5188 7.75824 29.3739 7.91165 29.2688 8.11335C29.1665 8.31222 29.1139 8.55227 29.1111 8.83352ZM38.2421 6.07216V7.4358H34.3004V6.07216H38.2421ZM35.1952 4.50398H37.0106V10.6063C37.0106 10.7739 37.0362 10.9045 37.0873 10.9983C37.1384 11.0892 37.2094 11.1531 37.3004 11.1901C37.3941 11.227 37.5021 11.2455 37.6242 11.2455C37.7094 11.2455 37.7947 11.2384 37.8799 11.2241C37.9651 11.2071 38.0305 11.1943 38.0759 11.1858L38.3614 12.5366C38.2705 12.5651 38.1427 12.5977 37.9779 12.6347C37.8131 12.6744 37.6129 12.6986 37.3771 12.7071C36.9396 12.7241 36.556 12.6659 36.2265 12.5324C35.8998 12.3989 35.6455 12.1915 35.4637 11.9102C35.2819 11.629 35.1924 11.2739 35.1952 10.8449V4.50398ZM42.3373 12.7455C41.664 12.7455 41.0844 12.6091 40.5987 12.3364C40.1157 12.0608 39.7435 11.6716 39.4822 11.1688C39.2208 10.6631 39.0901 10.0651 39.0901 9.37472C39.0901 8.70142 39.2208 8.11051 39.4822 7.60199C39.7435 7.09347 40.1114 6.69716 40.5859 6.41307C41.0631 6.12898 41.6228 5.98693 42.2648 5.98693C42.6967 5.98693 43.0987 6.05654 43.4708 6.19574C43.8458 6.3321 44.1725 6.53807 44.4509 6.81364C44.7322 7.08921 44.9509 7.4358 45.1072 7.85341C45.2634 8.26818 45.3415 8.75398 45.3415 9.3108V9.80938H39.8146V8.68438H43.6327C43.6327 8.42301 43.5759 8.19148 43.4623 7.98977C43.3487 7.78807 43.191 7.6304 42.9893 7.51676C42.7904 7.40029 42.5589 7.34205 42.2947 7.34205C42.0191 7.34205 41.7748 7.40597 41.5617 7.53381C41.3515 7.65881 41.1867 7.82784 41.0674 8.04091C40.9481 8.25114 40.887 8.48551 40.8842 8.74404V9.81364C40.8842 10.1375 40.9438 10.4173 41.0631 10.6531C41.1853 10.8889 41.3572 11.0707 41.5788 11.1986C41.8004 11.3264 42.0631 11.3903 42.3671 11.3903C42.5688 11.3903 42.7535 11.3619 42.9211 11.3051C43.0887 11.2483 43.2322 11.1631 43.3515 11.0494C43.4708 10.9358 43.5617 10.7966 43.6242 10.6318L45.3032 10.7426C45.218 11.146 45.0433 11.4983 44.779 11.7994C44.5177 12.0977 44.1796 12.3307 43.7648 12.4983C43.3529 12.6631 42.8771 12.7455 42.3373 12.7455ZM49.5092 12.7455C48.8359 12.7455 48.2563 12.6091 47.7705 12.3364C47.2876 12.0608 46.9154 11.6716 46.654 11.1688C46.3927 10.6631 46.262 10.0651 46.262 9.37472C46.262 8.70142 46.3927 8.11051 46.654 7.60199C46.9154 7.09347 47.2833 6.69716 47.7577 6.41307C48.235 6.12898 48.7947 5.98693 49.4367 5.98693C49.8685 5.98693 50.2705 6.05654 50.6427 6.19574C51.0177 6.3321 51.3444 6.53807 51.6228 6.81364C51.904 7.08921 52.1228 7.4358 52.279 7.85341C52.4353 8.26818 52.5134 8.75398 52.5134 9.3108V9.80938H46.9864V8.68438H50.8046C50.8046 8.42301 50.7478 8.19148 50.6342 7.98977C50.5205 7.78807 50.3629 7.6304 50.1612 7.51676C49.9623 7.40029 49.7308 7.34205 49.4665 7.34205C49.191 7.34205 48.9467 7.40597 48.7336 7.53381C48.5234 7.65881 48.3586 7.82784 48.2393 8.04091C48.12 8.25114 48.0589 8.48551 48.056 8.74404V9.81364C48.056 10.1375 48.1157 10.4173 48.235 10.6531C48.3572 10.8889 48.529 11.0707 48.7506 11.1986C48.9722 11.3264 49.235 11.3903 49.539 11.3903C49.7407 11.3903 49.9254 11.3619 50.093 11.3051C50.2606 11.2483 50.404 11.1631 50.5234 11.0494C50.6427 10.9358 50.7336 10.7966 50.7961 10.6318L52.4751 10.7426C52.3898 11.146 52.2151 11.4983 51.9509 11.7994C51.6896 12.0977 51.3515 12.3307 50.9367 12.4983C50.5248 12.6631 50.0489 12.7455 49.5092 12.7455ZM55.5134 8.83352V12.6176H53.6981V6.07216H55.4282V7.22699H55.5049C55.6498 6.84631 55.8927 6.54517 56.2336 6.32358C56.5745 6.09915 56.9879 5.98693 57.4737 5.98693C57.9282 5.98693 58.3245 6.08636 58.6626 6.28523C59.0006 6.48409 59.2634 6.76818 59.4509 7.1375C59.6384 7.50398 59.7322 7.94148 59.7322 8.45V12.6176H57.9168V8.77386C57.9197 8.3733 57.8174 8.0608 57.61 7.83636C57.4026 7.60909 57.1171 7.49546 56.7535 7.49546C56.5092 7.49546 56.2933 7.54801 56.1058 7.65313C55.9211 7.75824 55.7762 7.91165 55.6711 8.11335C55.5688 8.31222 55.5163 8.55227 55.5134 8.83352Z" fill="#D56643"/>
<path d="M36.4761 44.6901C35.3214 46.6901 32.4346 46.6901 31.2799 44.6901L23.533 31.272C22.3783 29.272 23.8217 26.772 26.1311 26.772L41.6249 26.772C43.9343 26.772 45.3777 29.272 44.223 31.272L36.4761 44.6901Z" fill="#D56643"/>
</svg>
