<svg width="115" height="49" viewBox="0 0 115 49" fill="none" xmlns="http://www.w3.org/2000/svg">
<path d="M14.7635 3.29604V12.0233H12.9183V3.29604H14.7635ZM18.0629 8.23922V12.0233H16.2475V5.47786H17.9777V6.63269H18.0544C18.1992 6.25201 18.4421 5.95087 18.783 5.72928C19.124 5.50485 19.5373 5.39263 20.0231 5.39263C20.4777 5.39263 20.874 5.49207 21.212 5.69093C21.5501 5.88979 21.8129 6.17388 22.0004 6.5432C22.1879 6.90968 22.2816 7.34718 22.2816 7.8557V12.0233H20.4663V8.17957C20.4691 7.779 20.3669 7.4665 20.1595 7.24207C19.9521 7.01479 19.6666 6.90116 19.3029 6.90116C19.0586 6.90116 18.8427 6.95371 18.6552 7.05883C18.4705 7.16394 18.3257 7.31735 18.2205 7.51905C18.1183 7.71792 18.0657 7.95797 18.0629 8.23922ZM27.1939 5.47786V6.8415H23.2522V5.47786H27.1939ZM24.147 3.90968H25.9624V10.012C25.9624 10.1796 25.9879 10.3102 26.0391 10.404C26.0902 10.4949 26.1612 10.5588 26.2522 10.5958C26.3459 10.6327 26.4539 10.6512 26.576 10.6512C26.6612 10.6512 26.7465 10.6441 26.8317 10.6298C26.9169 10.6128 26.9823 10.6 27.0277 10.5915L27.3132 11.9423C27.2223 11.9708 27.0945 12.0034 26.9297 12.0404C26.7649 12.0801 26.5647 12.1043 26.3289 12.1128C25.8914 12.1298 25.5078 12.0716 25.1783 11.9381C24.8516 11.8046 24.5973 11.5972 24.4155 11.3159C24.2337 11.0347 24.1442 10.6796 24.147 10.2506V3.90968ZM30.3324 8.23922V12.0233H28.5171V3.29604H30.2813V6.63269H30.358C30.5057 6.24633 30.7443 5.94377 31.0739 5.72502C31.4034 5.50343 31.8168 5.39263 32.3139 5.39263C32.7685 5.39263 33.1648 5.49207 33.5029 5.69093C33.8438 5.88695 34.108 6.16962 34.2955 6.53894C34.4858 6.90542 34.5796 7.34434 34.5767 7.8557V12.0233H32.7614V8.17957C32.7642 7.77616 32.662 7.46224 32.4546 7.2378C32.25 7.01337 31.9631 6.90116 31.5938 6.90116C31.3466 6.90116 31.1279 6.95371 30.9375 7.05883C30.75 7.16394 30.6023 7.31735 30.4943 7.51905C30.3892 7.71792 30.3353 7.95797 30.3324 8.23922ZM37.8718 12.1469C37.4542 12.1469 37.0821 12.0745 36.7553 11.9296C36.4286 11.7818 36.1701 11.5645 35.9798 11.2776C35.7923 10.9878 35.6985 10.627 35.6985 10.1952C35.6985 9.83155 35.7653 9.52616 35.8988 9.279C36.0323 9.03184 36.2142 8.83297 36.4443 8.68241C36.6744 8.53184 36.9357 8.4182 37.2284 8.3415C37.5238 8.26479 37.8335 8.21082 38.1573 8.17957C38.538 8.13979 38.8448 8.10286 39.0778 8.06877C39.3107 8.03184 39.4798 7.97786 39.5849 7.90684C39.69 7.83582 39.7426 7.7307 39.7426 7.5915V7.56593C39.7426 7.29604 39.6573 7.08724 39.4869 6.93951C39.3193 6.79178 39.0806 6.71792 38.771 6.71792C38.4443 6.71792 38.1843 6.79036 37.9911 6.93525C37.798 7.07729 37.6701 7.25627 37.6076 7.47218L35.9286 7.33582C36.0139 6.93809 36.1815 6.59434 36.4315 6.30457C36.6815 6.01195 37.0039 5.78752 37.3988 5.63127C37.7965 5.47218 38.2568 5.39263 38.7795 5.39263C39.1431 5.39263 39.4911 5.43525 39.8235 5.52047C40.1588 5.6057 40.4556 5.7378 40.7142 5.91678C40.9755 6.09576 41.1815 6.32587 41.3321 6.60712C41.4826 6.88553 41.5579 7.21934 41.5579 7.60854V12.0233H39.8363V11.1156H39.7852C39.6801 11.3202 39.5394 11.5006 39.3633 11.6568C39.1872 11.8102 38.9755 11.931 38.7284 12.0191C38.4812 12.1043 38.1957 12.1469 37.8718 12.1469ZM38.3917 10.8941C38.6588 10.8941 38.8946 10.8415 39.0991 10.7364C39.3036 10.6284 39.4642 10.4835 39.5806 10.3017C39.6971 10.1199 39.7554 9.91394 39.7554 9.68383V8.98922C39.6985 9.02616 39.6204 9.06025 39.521 9.0915C39.4244 9.11991 39.315 9.14689 39.1929 9.17246C39.0707 9.19519 38.9485 9.2165 38.8264 9.23638C38.7042 9.25343 38.5934 9.26905 38.494 9.28326C38.2809 9.31451 38.0948 9.36422 37.9357 9.43241C37.7767 9.50059 37.6531 9.59292 37.565 9.70939C37.4769 9.82303 37.4329 9.96508 37.4329 10.1355C37.4329 10.3827 37.5224 10.5716 37.7014 10.7023C37.8832 10.8301 38.1133 10.8941 38.3917 10.8941ZM44.7816 8.23922V12.0233H42.9663V5.47786H44.6964V6.63269H44.7731C44.918 6.25201 45.1609 5.95087 45.5018 5.72928C45.8427 5.50485 46.2561 5.39263 46.7419 5.39263C47.1964 5.39263 47.5927 5.49207 47.9308 5.69093C48.2688 5.88979 48.5316 6.17388 48.7191 6.5432C48.9066 6.90968 49.0004 7.34718 49.0004 7.8557V12.0233H47.185V8.17957C47.1879 7.779 47.0856 7.4665 46.8782 7.24207C46.6708 7.01479 46.3853 6.90116 46.0217 6.90116C45.7774 6.90116 45.5615 6.95371 45.374 7.05883C45.1893 7.16394 45.0444 7.31735 44.9393 7.51905C44.837 7.71792 44.7845 7.95797 44.7816 8.23922ZM50.4311 12.0233V5.47786H52.2465V12.0233H50.4311ZM51.3431 4.63411C51.0732 4.63411 50.8416 4.54462 50.6485 4.36564C50.4581 4.18383 50.3629 3.9665 50.3629 3.71366C50.3629 3.46366 50.4581 3.24917 50.6485 3.07019C50.8416 2.88837 51.0732 2.79746 51.3431 2.79746C51.6129 2.79746 51.8431 2.88837 52.0334 3.07019C52.2266 3.24917 52.3232 3.46366 52.3232 3.71366C52.3232 3.9665 52.2266 4.18383 52.0334 4.36564C51.8431 4.54462 51.6129 4.63411 51.3431 4.63411ZM55.516 8.23922V12.0233H53.7007V5.47786H55.4308V6.63269H55.5075C55.6524 6.25201 55.8953 5.95087 56.2362 5.72928C56.5771 5.50485 56.9904 5.39263 57.4762 5.39263C57.9308 5.39263 58.3271 5.49207 58.6652 5.69093C59.0032 5.88979 59.266 6.17388 59.4535 6.5432C59.641 6.90968 59.7348 7.34718 59.7348 7.8557V12.0233H57.9194V8.17957C57.9223 7.779 57.82 7.4665 57.6126 7.24207C57.4052 7.01479 57.1197 6.90116 56.7561 6.90116C56.5117 6.90116 56.2958 6.95371 56.1083 7.05883C55.9237 7.16394 55.7788 7.31735 55.6737 7.51905C55.5714 7.71792 55.5188 7.95797 55.516 8.23922ZM71.6772 6.35144H69.8107C69.7767 6.10996 69.7071 5.89547 69.6019 5.70797C69.4968 5.51763 69.3619 5.3557 69.1971 5.22218C69.0323 5.08866 68.842 4.98638 68.6261 4.91536C68.413 4.84434 68.1815 4.80883 67.9315 4.80883C67.4798 4.80883 67.0863 4.92104 66.7511 5.14547C66.4159 5.36707 66.1559 5.69093 65.9713 6.11707C65.7866 6.54036 65.6943 7.05457 65.6943 7.65968C65.6943 8.28184 65.7866 8.80457 65.9713 9.22786C66.1588 9.65116 66.4201 9.97076 66.7553 10.1867C67.0906 10.4026 67.4784 10.5105 67.9187 10.5105C68.1659 10.5105 68.3946 10.4779 68.6048 10.4125C68.8179 10.3472 69.0068 10.252 69.1715 10.127C69.3363 9.99917 69.4727 9.84434 69.5806 9.66252C69.6914 9.4807 69.7681 9.27332 69.8107 9.04036L71.6772 9.04888C71.6289 9.44945 71.5082 9.83582 71.315 10.208C71.1247 10.5773 70.8676 10.9083 70.5437 11.2009C70.2227 11.4906 69.8392 11.7208 69.3931 11.8912C68.95 12.0588 68.4485 12.1426 67.8889 12.1426C67.1105 12.1426 66.4144 11.9665 65.8008 11.6142C65.19 11.262 64.7071 10.752 64.3519 10.0844C63.9997 9.41678 63.8235 8.60854 63.8235 7.65968C63.8235 6.70797 64.0025 5.89832 64.3605 5.2307C64.7184 4.56309 65.2042 4.05457 65.8179 3.70513C66.4315 3.35286 67.1218 3.17672 67.8889 3.17672C68.3946 3.17672 68.8633 3.24775 69.2951 3.38979C69.7298 3.53184 70.1147 3.73922 70.45 4.01195C70.7852 4.28184 71.0579 4.6128 71.2681 5.00485C71.4812 5.39689 71.6176 5.84576 71.6772 6.35144ZM75.9237 12.1512C75.2617 12.1512 74.6893 12.0105 74.2063 11.7293C73.7262 11.4452 73.3555 11.0503 73.0941 10.5446C72.8328 10.0361 72.7021 9.44661 72.7021 8.77616C72.7021 8.10002 72.8328 7.50911 73.0941 7.00343C73.3555 6.49491 73.7262 6.10002 74.2063 5.81877C74.6893 5.53468 75.2617 5.39263 75.9237 5.39263C76.5856 5.39263 77.1566 5.53468 77.6367 5.81877C78.1197 6.10002 78.4919 6.49491 78.7532 7.00343C79.0146 7.50911 79.1453 8.10002 79.1453 8.77616C79.1453 9.44661 79.0146 10.0361 78.7532 10.5446C78.4919 11.0503 78.1197 11.4452 77.6367 11.7293C77.1566 12.0105 76.5856 12.1512 75.9237 12.1512ZM75.9322 10.7449C76.2333 10.7449 76.4847 10.6597 76.6865 10.4892C76.8882 10.3159 77.0401 10.0801 77.1424 9.78184C77.2475 9.48354 77.3001 9.14405 77.3001 8.76337C77.3001 8.38269 77.2475 8.0432 77.1424 7.74491C77.0401 7.44661 76.8882 7.21082 76.6865 7.03752C76.4847 6.86422 76.2333 6.77758 75.9322 6.77758C75.6282 6.77758 75.3725 6.86422 75.1651 7.03752C74.9606 7.21082 74.8058 7.44661 74.7007 7.74491C74.5984 8.0432 74.5472 8.38269 74.5472 8.76337C74.5472 9.14405 74.5984 9.48354 74.7007 9.78184C74.8058 10.0801 74.9606 10.3159 75.1651 10.4892C75.3725 10.6597 75.6282 10.7449 75.9322 10.7449ZM83.8455 5.47786V6.8415H79.8058V5.47786H83.8455ZM80.7305 12.0233V5.00485C80.7305 4.53042 80.8228 4.13695 81.0075 3.82445C81.195 3.51195 81.4507 3.27758 81.7745 3.12133C82.0984 2.96508 82.4663 2.88695 82.8782 2.88695C83.1566 2.88695 83.4109 2.90826 83.641 2.95087C83.874 2.99349 84.0472 3.03184 84.1609 3.06593L83.837 4.42957C83.766 4.40684 83.6779 4.38553 83.5728 4.36564C83.4705 4.34576 83.3654 4.33582 83.2575 4.33582C82.9904 4.33582 82.8044 4.39832 82.6992 4.52332C82.5941 4.64547 82.5416 4.81735 82.5416 5.03894V12.0233H80.7305ZM88.4745 5.47786V6.8415H84.4347V5.47786H88.4745ZM85.3594 12.0233V5.00485C85.3594 4.53042 85.4517 4.13695 85.6364 3.82445C85.8239 3.51195 86.0796 3.27758 86.4034 3.12133C86.7273 2.96508 87.0952 2.88695 87.5071 2.88695C87.7855 2.88695 88.0398 2.90826 88.2699 2.95087C88.5029 2.99349 88.6762 3.03184 88.7898 3.06593L88.4659 4.42957C88.3949 4.40684 88.3068 4.38553 88.2017 4.36564C88.0995 4.34576 87.9943 4.33582 87.8864 4.33582C87.6193 4.33582 87.4333 4.39832 87.3281 4.52332C87.223 4.64547 87.1705 4.81735 87.1705 5.03894V12.0233H85.3594ZM92.3321 12.1512C91.6588 12.1512 91.0792 12.0148 90.5934 11.7421C90.1105 11.4665 89.7383 11.0773 89.4769 10.5745C89.2156 10.0688 89.0849 9.47076 89.0849 8.78042C89.0849 8.10712 89.2156 7.51621 89.4769 7.00769C89.7383 6.49917 90.1062 6.10286 90.5806 5.81877C91.0579 5.53468 91.6176 5.39263 92.2596 5.39263C92.6914 5.39263 93.0934 5.46224 93.4656 5.60144C93.8406 5.7378 94.1673 5.94377 94.4457 6.21934C94.7269 6.49491 94.9457 6.8415 95.1019 7.25911C95.2582 7.67388 95.3363 8.15968 95.3363 8.7165V9.21508H89.8093V8.09008H93.6275C93.6275 7.82871 93.5707 7.59718 93.4571 7.39547C93.3434 7.19377 93.1857 7.0361 92.984 6.92246C92.7852 6.80599 92.5536 6.74775 92.2894 6.74775C92.0139 6.74775 91.7696 6.81167 91.5565 6.93951C91.3463 7.06451 91.1815 7.23354 91.0622 7.44661C90.9428 7.65684 90.8818 7.89121 90.8789 8.14974V9.21934C90.8789 9.5432 90.9386 9.82303 91.0579 10.0588C91.1801 10.2946 91.3519 10.4764 91.5735 10.6043C91.7951 10.7321 92.0579 10.796 92.3619 10.796C92.5636 10.796 92.7482 10.7676 92.9159 10.7108C93.0835 10.654 93.2269 10.5688 93.3463 10.4551C93.4656 10.3415 93.5565 10.2023 93.619 10.0375L95.298 10.1483C95.2127 10.5517 95.038 10.904 94.7738 11.2051C94.5124 11.5034 94.1744 11.7364 93.7596 11.904C93.3477 12.0688 92.8718 12.1512 92.3321 12.1512ZM99.5039 12.1512C98.8306 12.1512 98.2511 12.0148 97.7653 11.7421C97.2823 11.4665 96.9102 11.0773 96.6488 10.5745C96.3874 10.0688 96.2568 9.47076 96.2568 8.78042C96.2568 8.10712 96.3874 7.51621 96.6488 7.00769C96.9102 6.49917 97.2781 6.10286 97.7525 5.81877C98.2298 5.53468 98.7894 5.39263 99.4315 5.39263C99.8633 5.39263 100.265 5.46224 100.637 5.60144C101.012 5.7378 101.339 5.94377 101.618 6.21934C101.899 6.49491 102.118 6.8415 102.274 7.25911C102.43 7.67388 102.508 8.15968 102.508 8.7165V9.21508H96.9812V8.09008H100.799C100.799 7.82871 100.743 7.59718 100.629 7.39547C100.515 7.19377 100.358 7.0361 100.156 6.92246C99.9571 6.80599 99.7255 6.74775 99.4613 6.74775C99.1857 6.74775 98.9414 6.81167 98.7284 6.93951C98.5181 7.06451 98.3534 7.23354 98.234 7.44661C98.1147 7.65684 98.0536 7.89121 98.0508 8.14974V9.21934C98.0508 9.5432 98.1105 9.82303 98.2298 10.0588C98.3519 10.2946 98.5238 10.4764 98.7454 10.6043C98.967 10.7321 99.2298 10.796 99.5338 10.796C99.7355 10.796 99.9201 10.7676 100.088 10.7108C100.255 10.654 100.399 10.5688 100.518 10.4551C100.637 10.3415 100.728 10.2023 100.791 10.0375L102.47 10.1483C102.385 10.5517 102.21 10.904 101.946 11.2051C101.684 11.5034 101.346 11.7364 100.931 11.904C100.52 12.0688 100.044 12.1512 99.5039 12.1512Z" fill="#CE8D51"/>
<path d="M60.1622 44.0958C59.0075 46.0958 56.1208 46.0958 54.9661 44.0958L47.2191 30.6777C46.0644 28.6777 47.5078 26.1777 49.8172 26.1777L65.3111 26.1777C67.6205 26.1777 69.0638 28.6777 67.9091 30.6777L60.1622 44.0958Z" fill="#CE8D51"/>
</svg>
