<svg width="67" height="49" viewBox="0 0 67 49" fill="none" xmlns="http://www.w3.org/2000/svg">
<path d="M8.21529 12.3715V3.64419H10.0605V10.8502H13.8019V12.3715H8.21529ZM16.8563 12.495C16.4387 12.495 16.0665 12.4226 15.7398 12.2777C15.4131 12.13 15.1546 11.9127 14.9642 11.6257C14.7767 11.3359 14.683 10.9752 14.683 10.5433C14.683 10.1797 14.7497 9.8743 14.8833 9.62714C15.0168 9.37998 15.1986 9.18112 15.4287 9.03055C15.6588 8.87998 15.9202 8.76635 16.2128 8.68964C16.5083 8.61294 16.8179 8.55896 17.1418 8.52771C17.5225 8.48794 17.8293 8.45101 18.0622 8.41691C18.2952 8.37998 18.4642 8.32601 18.5693 8.25498C18.6744 8.18396 18.727 8.07885 18.727 7.93964V7.91407C18.727 7.64419 18.6418 7.43538 18.4713 7.28765C18.3037 7.13993 18.0651 7.06606 17.7554 7.06606C17.4287 7.06606 17.1688 7.13851 16.9756 7.28339C16.7824 7.42544 16.6546 7.60441 16.5921 7.82032L14.9131 7.68396C14.9983 7.28623 15.1659 6.94248 15.4159 6.65271C15.6659 6.3601 15.9884 6.13566 16.3833 5.97941C16.781 5.82032 17.2412 5.74078 17.7639 5.74078C18.1276 5.74078 18.4756 5.78339 18.808 5.86862C19.1432 5.95385 19.4401 6.08595 19.6986 6.26493C19.96 6.4439 20.1659 6.67402 20.3165 6.95527C20.4671 7.23368 20.5423 7.56748 20.5423 7.95669V12.3715H18.8208V11.4638H18.7696C18.6645 11.6683 18.5239 11.8487 18.3477 12.005C18.1716 12.1584 17.96 12.2791 17.7128 12.3672C17.4656 12.4524 17.1801 12.495 16.8563 12.495ZM17.3762 11.2422C17.6432 11.2422 17.879 11.1896 18.0835 11.0845C18.2881 10.9766 18.4486 10.8317 18.5651 10.6499C18.6816 10.4681 18.7398 10.2621 18.7398 10.032V9.33737C18.683 9.3743 18.6048 9.40839 18.5054 9.43964C18.4088 9.46805 18.2994 9.49504 18.1773 9.52061C18.0551 9.54333 17.933 9.56464 17.8108 9.58453C17.6887 9.60157 17.5779 9.6172 17.4784 9.6314C17.2654 9.66265 17.0793 9.71237 16.9202 9.78055C16.7611 9.84873 16.6375 9.94106 16.5494 10.0575C16.4614 10.1712 16.4173 10.3132 16.4173 10.4837C16.4173 10.7308 16.5068 10.9198 16.6858 11.0504C16.8676 11.1783 17.0977 11.2422 17.3762 11.2422ZM21.9507 12.3715V5.82601H23.7107V6.96805H23.7789C23.8982 6.5618 24.0985 6.25498 24.3797 6.0476C24.661 5.83737 24.9848 5.73226 25.3513 5.73226C25.4422 5.73226 25.5402 5.73794 25.6453 5.7493C25.7504 5.76066 25.8428 5.77629 25.9223 5.79618V7.40697C25.8371 7.3814 25.7192 7.35868 25.5686 7.33879C25.4181 7.3189 25.2803 7.30896 25.1553 7.30896C24.8882 7.30896 24.6496 7.3672 24.4394 7.48368C24.232 7.59731 24.0672 7.7564 23.945 7.96095C23.8257 8.16549 23.7661 8.40129 23.7661 8.66833V12.3715H21.9507ZM28.6762 8.58737V12.3715H26.8609V5.82601H28.591V6.98083H28.6677C28.8126 6.60015 29.0555 6.29902 29.3964 6.07743C29.7373 5.85299 30.1507 5.74078 30.6365 5.74078C31.091 5.74078 31.4873 5.84021 31.8254 6.03907C32.1634 6.23794 32.4262 6.52203 32.6137 6.89135C32.8012 7.25782 32.895 7.69532 32.895 8.20385V12.3715H31.0796V8.52771C31.0825 8.12714 30.9802 7.81464 30.7728 7.59021C30.5654 7.36294 30.2799 7.2493 29.9163 7.2493C29.672 7.2493 29.4561 7.30186 29.2686 7.40697C29.0839 7.51208 28.939 7.66549 28.8339 7.8672C28.7316 8.06606 28.6791 8.30612 28.6762 8.58737ZM37.2746 14.9624C36.6865 14.9624 36.1823 14.8814 35.7618 14.7195C35.3442 14.5604 35.0118 14.3431 34.7646 14.0675C34.5175 13.7919 34.357 13.4823 34.2831 13.1385L35.9621 12.9127C36.0132 13.0433 36.0942 13.1655 36.205 13.2791C36.3158 13.3928 36.4621 13.4837 36.6439 13.5519C36.8286 13.6229 37.053 13.6584 37.3172 13.6584C37.7121 13.6584 38.0374 13.5618 38.2931 13.3686C38.5516 13.1783 38.6808 12.8587 38.6808 12.4098V11.2124H38.6041C38.5246 11.3942 38.4053 11.5661 38.2462 11.728C38.0871 11.8899 37.8825 12.022 37.6325 12.1243C37.3825 12.2266 37.0843 12.2777 36.7377 12.2777C36.2462 12.2777 35.7987 12.1641 35.3953 11.9368C34.9948 11.7067 34.6752 11.3558 34.4365 10.8842C34.2007 10.4098 34.0828 9.81038 34.0828 9.08595C34.0828 8.34447 34.2036 7.72515 34.445 7.22799C34.6865 6.73083 35.0075 6.35868 35.4081 6.11152C35.8115 5.86436 36.2533 5.74078 36.7334 5.74078C37.0999 5.74078 37.4067 5.80328 37.6539 5.92828C37.901 6.05044 38.0999 6.20385 38.2504 6.38851C38.4039 6.57032 38.5218 6.7493 38.6041 6.92544H38.6723V5.82601H40.4749V12.4354C40.4749 12.9922 40.3385 13.4581 40.0658 13.8331C39.7931 14.2081 39.4152 14.4894 38.9323 14.6769C38.4521 14.8672 37.8996 14.9624 37.2746 14.9624ZM37.3129 10.9141C37.6056 10.9141 37.8527 10.8416 38.0544 10.6967C38.259 10.549 38.4152 10.3388 38.5232 10.0661C38.634 9.79049 38.6894 9.46095 38.6894 9.07743C38.6894 8.6939 38.6354 8.36152 38.5274 8.08027C38.4195 7.79618 38.2632 7.57601 38.0587 7.41976C37.8541 7.26351 37.6056 7.18538 37.3129 7.18538C37.0146 7.18538 36.7632 7.26635 36.5587 7.42828C36.3541 7.58737 36.1993 7.80896 36.0942 8.09305C35.9891 8.37714 35.9365 8.70527 35.9365 9.07743C35.9365 9.45527 35.9891 9.78197 36.0942 10.0575C36.2021 10.3303 36.357 10.5419 36.5587 10.6925C36.7632 10.8402 37.0146 10.9141 37.3129 10.9141ZM44.9024 12.4993C44.2291 12.4993 43.6496 12.3629 43.1638 12.0902C42.6808 11.8146 42.3087 11.4254 42.0473 10.9226C41.786 10.4169 41.6553 9.8189 41.6553 9.12856C41.6553 8.45527 41.786 7.86436 42.0473 7.35583C42.3087 6.84731 42.6766 6.45101 43.151 6.16691C43.6283 5.88282 44.1879 5.74078 44.83 5.74078C45.2618 5.74078 45.6638 5.81038 46.036 5.94958C46.411 6.08595 46.7377 6.29191 47.0161 6.56748C47.2973 6.84305 47.5161 7.18964 47.6723 7.60726C47.8286 8.02203 47.9067 8.50782 47.9067 9.06464V9.56322H42.3797V8.43822H46.1979C46.1979 8.17686 46.1411 7.94532 46.0274 7.74362C45.9138 7.54191 45.7561 7.38424 45.5544 7.27061C45.3556 7.15413 45.124 7.09589 44.8598 7.09589C44.5843 7.09589 44.3399 7.15981 44.1269 7.28765C43.9166 7.41265 43.7519 7.58169 43.6325 7.79476C43.5132 8.00498 43.4521 8.23936 43.4493 8.49788V9.56748C43.4493 9.89135 43.509 10.1712 43.6283 10.407C43.7504 10.6428 43.9223 10.8246 44.1439 10.9524C44.3655 11.0803 44.6283 11.1442 44.9323 11.1442C45.134 11.1442 45.3186 11.1158 45.4862 11.059C45.6539 11.0021 45.7973 10.9169 45.9166 10.8033C46.036 10.6896 46.1269 10.5504 46.1894 10.3857L47.8683 10.4965C47.7831 10.8999 47.6084 11.2521 47.3442 11.5533C47.0828 11.8516 46.7448 12.0845 46.33 12.2521C45.9181 12.4169 45.4422 12.4993 44.9024 12.4993ZM50.9578 12.495C50.5402 12.495 50.1681 12.4226 49.8414 12.2777C49.5146 12.13 49.2561 11.9127 49.0658 11.6257C48.8783 11.3359 48.7845 10.9752 48.7845 10.5433C48.7845 10.1797 48.8513 9.8743 48.9848 9.62714C49.1183 9.37998 49.3002 9.18112 49.5303 9.03055C49.7604 8.87998 50.0218 8.76635 50.3144 8.68964C50.6098 8.61294 50.9195 8.55896 51.2433 8.52771C51.624 8.48794 51.9308 8.45101 52.1638 8.41691C52.3968 8.37998 52.5658 8.32601 52.6709 8.25498C52.776 8.18396 52.8286 8.07885 52.8286 7.93964V7.91407C52.8286 7.64419 52.7433 7.43538 52.5729 7.28765C52.4053 7.13993 52.1666 7.06606 51.857 7.06606C51.5303 7.06606 51.2703 7.13851 51.0771 7.28339C50.884 7.42544 50.7561 7.60441 50.6936 7.82032L49.0146 7.68396C49.0999 7.28623 49.2675 6.94248 49.5175 6.65271C49.7675 6.3601 50.0899 6.13566 50.4848 5.97941C50.8825 5.82032 51.3428 5.74078 51.8655 5.74078C52.2291 5.74078 52.5771 5.78339 52.9095 5.86862C53.2448 5.95385 53.5416 6.08595 53.8002 6.26493C54.0615 6.4439 54.2675 6.67402 54.4181 6.95527C54.5686 7.23368 54.6439 7.56748 54.6439 7.95669V12.3715H52.9223V11.4638H52.8712C52.7661 11.6683 52.6254 11.8487 52.4493 12.005C52.2732 12.1584 52.0615 12.2791 51.8144 12.3672C51.5672 12.4524 51.2817 12.495 50.9578 12.495ZM51.4777 11.2422C51.7448 11.2422 51.9806 11.1896 52.1851 11.0845C52.3896 10.9766 52.5502 10.8317 52.6666 10.6499C52.7831 10.4681 52.8414 10.2621 52.8414 10.032V9.33737C52.7845 9.3743 52.7064 9.40839 52.607 9.43964C52.5104 9.46805 52.401 9.49504 52.2789 9.52061C52.1567 9.54333 52.0345 9.56464 51.9124 9.58453C51.7902 9.60157 51.6794 9.6172 51.58 9.6314C51.3669 9.66265 51.1808 9.71237 51.0218 9.78055C50.8627 9.84873 50.7391 9.94106 50.651 10.0575C50.5629 10.1712 50.5189 10.3132 50.5189 10.4837C50.5189 10.7308 50.6084 10.9198 50.7874 11.0504C50.9692 11.1783 51.1993 11.2422 51.4777 11.2422ZM56.0523 12.3715V5.82601H57.8122V6.96805H57.8804C57.9997 6.5618 58.2 6.25498 58.4813 6.0476C58.7625 5.83737 59.0864 5.73226 59.4529 5.73226C59.5438 5.73226 59.6418 5.73794 59.7469 5.7493C59.852 5.76066 59.9443 5.77629 60.0239 5.79618V7.40697C59.9387 7.3814 59.8208 7.35868 59.6702 7.33879C59.5196 7.3189 59.3818 7.30896 59.2568 7.30896C58.9898 7.30896 58.7512 7.3672 58.5409 7.48368C58.3335 7.59731 58.1688 7.7564 58.0466 7.96095C57.9273 8.16549 57.8676 8.40129 57.8676 8.66833V12.3715H56.0523Z" fill="#68C248"/>
<path d="M36.4454 44.4439C35.2907 46.4439 32.404 46.4439 31.2493 44.4439L23.5023 31.0259C22.3476 29.0259 23.791 26.5259 26.1004 26.5259L41.5943 26.5259C43.9037 26.5259 45.3471 29.0259 44.1924 31.0259L36.4454 44.4439Z" fill="#68C248"/>
</svg>
