<svg width="1270" height="857" viewBox="0 0 1270 857" fill="none" xmlns="http://www.w3.org/2000/svg">
<path fill-rule="evenodd" clip-rule="evenodd" d="M1269 57.0452V825C1269 842.121 1255.12 856 1238 856H70.4253C60.4775 856 51.1341 851.226 45.305 843.165L6.87966 790.027C3.0575 784.741 1 778.385 1 771.862V32C1 14.8791 14.8792 1 32 1H1238C1255.12 1 1269 14.8792 1269 32V57.0452ZM1208.09 376.503C1225.21 376.503 1239.09 362.623 1239.09 345.503V47.7043C1239.09 36.011 1229.61 26.5317 1217.92 26.5317H68.7626C51.6418 26.5317 37.7627 40.4109 37.7627 57.5317V345.503C37.7627 362.623 51.6418 376.503 68.7626 376.503H1208.09ZM46.3536 789.473C42.7827 784.531 40.7481 778.647 40.5043 772.555L37.7627 704.055V449.848C37.7627 432.727 51.6418 418.848 68.7627 418.848H140.728C157.849 418.848 171.728 432.727 171.728 449.848V569.06C171.728 586.181 185.607 600.06 202.728 600.06H493.4C510.521 600.06 524.4 613.94 524.4 631.06V775.969C524.4 785.777 532.351 793.728 542.159 793.728C551.966 793.728 559.917 785.777 559.917 775.969V617.983C559.917 600.862 573.796 586.983 590.917 586.983H1208.09C1225.21 586.983 1239.09 600.862 1239.09 617.983V795.732C1239.09 812.853 1225.21 826.732 1208.09 826.732H89.1242C79.1731 826.732 69.8269 821.955 63.9983 813.889L46.3536 789.473ZM226.406 564.565C209.285 564.565 195.406 550.686 195.406 533.565V449.848C195.406 432.727 209.285 418.848 226.406 418.848H505.862C522.983 418.848 536.862 432.727 536.862 449.848V533.565C536.862 550.686 522.983 564.565 505.862 564.565H226.406ZM577.364 418.848C567.728 418.848 559.917 426.659 559.917 436.294V547.118C559.917 556.754 567.728 564.565 577.364 564.565C586.999 564.565 594.81 556.754 594.81 547.118V436.294C594.81 426.659 586.999 418.848 577.364 418.848ZM656.342 564.565C639.221 564.565 625.342 550.686 625.342 533.565V449.848C625.342 432.727 639.221 418.848 656.342 418.848H902.151C919.272 418.848 933.151 432.727 933.151 449.848V533.565C933.151 550.686 919.272 564.565 902.151 564.565H656.342ZM997.175 552.733C980.055 552.733 966.175 538.854 966.175 521.733V439.261C966.175 422.141 980.055 408.261 997.175 408.261H1208.09C1225.21 408.261 1239.09 422.141 1239.09 439.261V521.733C1239.09 538.854 1225.21 552.733 1208.09 552.733H997.175Z" fill="white" stroke="#DBDCDF" stroke-width="2"/>
</svg>
