<svg width="88" height="49" viewBox="0 0 88 49" fill="none" xmlns="http://www.w3.org/2000/svg">
<path d="M9.37692 5.22665V3.70534H16.5445V5.22665H13.8727V12.4326H12.0488V5.22665H9.37692ZM17.0112 12.4326V5.88716H18.7711V7.02921H18.8393C18.9586 6.62296 19.1589 6.31614 19.4401 6.10875C19.7214 5.89853 20.0452 5.79341 20.4117 5.79341C20.5026 5.79341 20.6006 5.79909 20.7058 5.81046C20.8109 5.82182 20.9032 5.83745 20.9827 5.85733V7.46813C20.8975 7.44256 20.7796 7.41983 20.6291 7.39995C20.4785 7.38006 20.3407 7.37012 20.2157 7.37012C19.9487 7.37012 19.71 7.42836 19.4998 7.54483C19.2924 7.65847 19.1276 7.81756 19.0055 8.02211C18.8862 8.22665 18.8265 8.46245 18.8265 8.72949V12.4326H17.0112ZM26.1188 9.64569V5.88716H27.9341V12.4326H26.1912V11.2437H26.123C25.9753 11.6272 25.7296 11.9355 25.3858 12.1684C25.0449 12.4014 24.6287 12.5178 24.1372 12.5178C23.6997 12.5178 23.3148 12.4184 22.9824 12.2195C22.65 12.0207 22.3901 11.738 22.2026 11.3715C22.0179 11.0051 21.9242 10.5661 21.9213 10.0548V5.88716H23.7367V9.73091C23.7395 10.1173 23.8432 10.4227 24.0477 10.6471C24.2523 10.8715 24.5264 10.9838 24.8702 10.9838C25.0889 10.9838 25.2935 10.934 25.4838 10.8346C25.6742 10.7323 25.8276 10.5818 25.944 10.3829C26.0634 10.184 26.1216 9.9383 26.1188 9.64569ZM32.3691 12.5605C31.6958 12.5605 31.1163 12.4241 30.6305 12.1514C30.1475 11.8758 29.7754 11.4866 29.514 10.9838C29.2526 10.4781 29.122 9.88006 29.122 9.18972C29.122 8.51642 29.2526 7.92551 29.514 7.41699C29.7754 6.90847 30.1433 6.51216 30.6177 6.22807C31.095 5.94398 31.6546 5.80194 32.2967 5.80194C32.7285 5.80194 33.1305 5.87154 33.5026 6.01074C33.8776 6.14711 34.2043 6.35307 34.4827 6.62864C34.764 6.90421 34.9827 7.2508 35.139 7.66841C35.2952 8.08319 35.3734 8.56898 35.3734 9.1258V9.62438H29.8464V8.49938H33.6646C33.6646 8.23801 33.6077 8.00648 33.4941 7.80478C33.3805 7.60307 33.2228 7.4454 33.0211 7.33176C32.8222 7.21529 32.5907 7.15705 32.3265 7.15705C32.0509 7.15705 31.8066 7.22097 31.5935 7.34881C31.3833 7.47381 31.2185 7.64284 31.0992 7.85591C30.9799 8.06614 30.9188 8.30051 30.916 8.55904V9.62864C30.916 9.9525 30.9756 10.2323 31.095 10.4681C31.2171 10.7039 31.389 10.8857 31.6106 11.0136C31.8322 11.1414 32.095 11.2053 32.3989 11.2053C32.6006 11.2053 32.7853 11.1769 32.9529 11.1201C33.1205 11.0633 33.264 10.9781 33.3833 10.8644C33.5026 10.7508 33.5935 10.6116 33.656 10.4468L35.335 10.5576C35.2498 10.961 35.0751 11.3133 34.8109 11.6144C34.5495 11.9127 34.2114 12.1457 33.7967 12.3133C33.3847 12.4781 32.9089 12.5605 32.3691 12.5605ZM47.0697 6.76074H45.2033C45.1692 6.51926 45.0996 6.30478 44.9945 6.11728C44.8894 5.92693 44.7544 5.765 44.5896 5.63148C44.4249 5.49796 44.2345 5.39568 44.0186 5.32466C43.8055 5.25364 43.574 5.21813 43.324 5.21813C42.8723 5.21813 42.4788 5.33034 42.1436 5.55478C41.8084 5.77637 41.5484 6.10023 41.3638 6.52637C41.1791 6.94966 41.0868 7.46387 41.0868 8.06898C41.0868 8.69114 41.1791 9.21387 41.3638 9.63716C41.5513 10.0605 41.8126 10.3801 42.1479 10.596C42.4831 10.8119 42.8709 10.9198 43.3112 10.9198C43.5584 10.9198 43.7871 10.8872 43.9973 10.8218C44.2104 10.7565 44.3993 10.6613 44.5641 10.5363C44.7288 10.4085 44.8652 10.2536 44.9732 10.0718C45.084 9.89 45.1607 9.68262 45.2033 9.44966L47.0697 9.45819C47.0215 9.85875 46.9007 10.2451 46.7075 10.6173C46.5172 10.9866 46.2601 11.3176 45.9362 11.6102C45.6152 11.8999 45.2317 12.1301 44.7857 12.3005C44.3425 12.4681 43.8411 12.5519 43.2814 12.5519C42.503 12.5519 41.807 12.3758 41.1933 12.0235C40.5825 11.6713 40.0996 11.1613 39.7445 10.4937C39.3922 9.82608 39.2161 9.01784 39.2161 8.06898C39.2161 7.11728 39.395 6.30762 39.753 5.64C40.1109 4.97239 40.5967 4.46387 41.2104 4.11444C41.824 3.76216 42.5144 3.58603 43.2814 3.58603C43.7871 3.58603 44.2558 3.65705 44.6876 3.79909C45.1223 3.94114 45.5072 4.14853 45.8425 4.42125C46.1777 4.69114 46.4504 5.02211 46.6607 5.41415C46.8737 5.8062 47.0101 6.25506 47.0697 6.76074ZM51.3162 12.5605C50.6543 12.5605 50.0818 12.4198 49.5989 12.1386C49.1188 11.8545 48.748 11.4596 48.4867 10.9539C48.2253 10.4454 48.0946 9.85591 48.0946 9.18546C48.0946 8.50932 48.2253 7.91841 48.4867 7.41273C48.748 6.90421 49.1188 6.50932 49.5989 6.22807C50.0818 5.94398 50.6543 5.80194 51.3162 5.80194C51.9781 5.80194 52.5492 5.94398 53.0293 6.22807C53.5122 6.50932 53.8844 6.90421 54.1457 7.41273C54.4071 7.91841 54.5378 8.50932 54.5378 9.18546C54.5378 9.85591 54.4071 10.4454 54.1457 10.9539C53.8844 11.4596 53.5122 11.8545 53.0293 12.1386C52.5492 12.4198 51.9781 12.5605 51.3162 12.5605ZM51.3247 11.1542C51.6259 11.1542 51.8773 11.069 52.079 10.8985C52.2807 10.7252 52.4327 10.4894 52.5349 10.1911C52.6401 9.89284 52.6926 9.55336 52.6926 9.17267C52.6926 8.79199 52.6401 8.4525 52.5349 8.15421C52.4327 7.85591 52.2807 7.62012 52.079 7.44682C51.8773 7.27353 51.6259 7.18688 51.3247 7.18688C51.0207 7.18688 50.7651 7.27353 50.5577 7.44682C50.3531 7.62012 50.1983 7.85591 50.0932 8.15421C49.9909 8.4525 49.9398 8.79199 49.9398 9.17267C49.9398 9.55336 49.9909 9.89284 50.0932 10.1911C50.1983 10.4894 50.3531 10.7252 50.5577 10.8985C50.7651 11.069 51.0207 11.1542 51.3247 11.1542ZM59.2381 5.88716V7.2508H55.1983V5.88716H59.2381ZM56.123 12.4326V5.41415C56.123 4.93972 56.2153 4.54625 56.4 4.23375C56.5875 3.92125 56.8432 3.68688 57.1671 3.53063C57.4909 3.37438 57.8588 3.29625 58.2707 3.29625C58.5492 3.29625 58.8034 3.31756 59.0335 3.36017C59.2665 3.40279 59.4398 3.44114 59.5534 3.47523L59.2296 4.83887C59.1585 4.81614 59.0705 4.79483 58.9653 4.77495C58.8631 4.75506 58.758 4.74512 58.65 4.74512C58.383 4.74512 58.1969 4.80762 58.0918 4.93262C57.9867 5.05478 57.9341 5.22665 57.9341 5.44824V12.4326H56.123ZM63.867 5.88716V7.2508H59.8272V5.88716H63.867ZM60.7519 12.4326V5.41415C60.7519 4.93972 60.8443 4.54625 61.0289 4.23375C61.2164 3.92125 61.4721 3.68688 61.796 3.53063C62.1198 3.37438 62.4877 3.29625 62.8997 3.29625C63.1781 3.29625 63.4323 3.31756 63.6624 3.36017C63.8954 3.40279 64.0687 3.44114 64.1823 3.47523L63.8585 4.83887C63.7874 4.81614 63.6994 4.79483 63.5943 4.77495C63.492 4.75506 63.3869 4.74512 63.2789 4.74512C63.0119 4.74512 62.8258 4.80762 62.7207 4.93262C62.6156 5.05478 62.563 5.22665 62.563 5.44824V12.4326H60.7519ZM67.7246 12.5605C67.0513 12.5605 66.4717 12.4241 65.9859 12.1514C65.503 11.8758 65.1308 11.4866 64.8695 10.9838C64.6081 10.4781 64.4774 9.88006 64.4774 9.18972C64.4774 8.51642 64.6081 7.92551 64.8695 7.41699C65.1308 6.90847 65.4987 6.51216 65.9732 6.22807C66.4504 5.94398 67.0101 5.80194 67.6521 5.80194C68.084 5.80194 68.4859 5.87154 68.8581 6.01074C69.2331 6.14711 69.5598 6.35307 69.8382 6.62864C70.1195 6.90421 70.3382 7.2508 70.4945 7.66841C70.6507 8.08319 70.7288 8.56898 70.7288 9.1258V9.62438H65.2019V8.49938H69.02C69.02 8.23801 68.9632 8.00648 68.8496 7.80478C68.7359 7.60307 68.5783 7.4454 68.3766 7.33176C68.1777 7.21529 67.9462 7.15705 67.682 7.15705C67.4064 7.15705 67.1621 7.22097 66.949 7.34881C66.7388 7.47381 66.574 7.64284 66.4547 7.85591C66.3354 8.06614 66.2743 8.30051 66.2715 8.55904V9.62864C66.2715 9.9525 66.3311 10.2323 66.4504 10.4681C66.5726 10.7039 66.7445 10.8857 66.9661 11.0136C67.1876 11.1414 67.4504 11.2053 67.7544 11.2053C67.9561 11.2053 68.1408 11.1769 68.3084 11.1201C68.476 11.0633 68.6195 10.9781 68.7388 10.8644C68.8581 10.7508 68.949 10.6116 69.0115 10.4468L70.6905 10.5576C70.6053 10.961 70.4305 11.3133 70.1663 11.6144C69.905 11.9127 69.5669 12.1457 69.1521 12.3133C68.7402 12.4781 68.2644 12.5605 67.7246 12.5605ZM74.8965 12.5605C74.2232 12.5605 73.6436 12.4241 73.1578 12.1514C72.6749 11.8758 72.3027 11.4866 72.0413 10.9838C71.78 10.4781 71.6493 9.88006 71.6493 9.18972C71.6493 8.51642 71.78 7.92551 72.0413 7.41699C72.3027 6.90847 72.6706 6.51216 73.145 6.22807C73.6223 5.94398 74.182 5.80194 74.824 5.80194C75.2558 5.80194 75.6578 5.87154 76.03 6.01074C76.405 6.14711 76.7317 6.35307 77.0101 6.62864C77.2913 6.90421 77.5101 7.2508 77.6663 7.66841C77.8226 8.08319 77.9007 8.56898 77.9007 9.1258V9.62438H72.3737V8.49938H76.1919C76.1919 8.23801 76.1351 8.00648 76.0215 7.80478C75.9078 7.60307 75.7502 7.4454 75.5484 7.33176C75.3496 7.21529 75.118 7.15705 74.8538 7.15705C74.5783 7.15705 74.334 7.22097 74.1209 7.34881C73.9107 7.47381 73.7459 7.64284 73.6266 7.85591C73.5073 8.06614 73.4462 8.30051 73.4433 8.55904V9.62864C73.4433 9.9525 73.503 10.2323 73.6223 10.4681C73.7445 10.7039 73.9163 10.8857 74.1379 11.0136C74.3595 11.1414 74.6223 11.2053 74.9263 11.2053C75.128 11.2053 75.3127 11.1769 75.4803 11.1201C75.6479 11.0633 75.7913 10.9781 75.9107 10.8644C76.03 10.7508 76.1209 10.6116 76.1834 10.4468L77.8624 10.5576C77.7771 10.961 77.6024 11.3133 77.3382 11.6144C77.0769 11.9127 76.7388 12.1457 76.324 12.3133C75.9121 12.4781 75.4362 12.5605 74.8965 12.5605Z" fill="#CE5151"/>
<path d="M46.254 44.5051C45.0993 46.5051 42.2125 46.5051 41.0578 44.5051L33.3109 31.087C32.1562 29.087 33.5996 26.587 35.909 26.587L51.4028 26.587C53.7122 26.587 55.1556 29.087 54.0009 31.087L46.254 44.5051Z" fill="#CE5151"/>
</svg>
